  0
SECTION
  2
HEADER
  9
$ACADVER
  1
AC1021
  9
$ACADMAINTVER
 70
    25
  9
$DWGCODEPAGE
  3
ANSI_1252
  9
$INSBASE
 10
0.0
 20
0.0
 30
0.0
  9
$EXTMIN
 10
0.0
 20
0.0
 30
0.0
  9
$EXTMAX
 10
266.399994
 20
316.0
 30
2.0
  9
$LIMMIN
 10
0.0
 20
0.0
  9
$LIMMAX
 10
420.0
 20
297.0
  9
$ORTHOMODE
 70
     0
  9
$REGENMODE
 70
     1
  9
$FILLMODE
 70
     1
  9
$QTEXTMODE
 70
     0
  9
$MIRRTEXT
 70
     1
  9
$LTSCALE
 40
1.0
  9
$ATTMODE
 70
     1
  9
$TEXTSIZE
 40
2.5
  9
$TRACEWID
 40
1.0
  9
$TEXTSTYLE
  7
Standard
  9
$CLAYER
  8
0
  9
$CELTYPE
  6
ByLayer
  9
$CECOLOR
 62
   256
  9
$CELTSCALE
 40
1.0
  9
$DISPSILH
 70
     0
  9
$DIMSCALE
 40
1.0
  9
$DIMASZ
 40
2.5
  9
$DIMEXO
 40
0.625
  9
$DIMDLI
 40
3.75
  9
$DIMRND
 40
0.0
  9
$DIMDLE
 40
0.0
  9
$DIMEXE
 40
1.25
  9
$DIMTP
 40
0.0
  9
$DIMTM
 40
0.0
  9
$DIMTXT
 40
2.5
  9
$DIMCEN
 40
2.5
  9
$DIMTSZ
 40
0.0
  9
$DIMTOL
 70
     0
  9
$DIMLIM
 70
     0
  9
$DIMTIH
 70
     0
  9
$DIMTOH
 70
     0
  9
$DIMSE1
 70
     0
  9
$DIMSE2
 70
     0
  9
$DIMTAD
 70
     1
  9
$DIMZIN
 70
     8
  9
$DIMBLK
  1

  9
$DIMASO
 70
     1
  9
$DIMSHO
 70
     1
  9
$DIMPOST
  1

  9
$DIMAPOST
  1

  9
$DIMALT
 70
     0
  9
$DIMALTD
 70
     3
  9
$DIMALTF
 40
0.03937
  9
$DIMLFAC
 40
1.0
  9
$DIMTOFL
 70
     1
  9
$DIMTVP
 40
0.0
  9
$DIMTIX
 70
     0
  9
$DIMSOXD
 70
     0
  9
$DIMSAH
 70
     0
  9
$DIMBLK1
  1

  9
$DIMBLK2
  1

  9
$DIMSTYLE
  2
STANDARD
  9
$DIMCLRD
 70
     0
  9
$DIMCLRE
 70
     0
  9
$DIMCLRT
 70
     0
  9
$DIMTFAC
 40
1.0
  9
$DIMGAP
 40
0.625
  9
$DIMJUST
 70
     0
  9
$DIMSD1
 70
     0
  9
$DIMSD2
 70
     0
  9
$DIMTOLJ
 70
     0
  9
$DIMTZIN
 70
     8
  9
$DIMALTZ
 70
     0
  9
$DIMALTTZ
 70
     0
  9
$DIMUPT
 70
     0
  9
$DIMDEC
 70
     2
  9
$DIMTDEC
 70
     2
  9
$DIMALTU
 70
     2
  9
$DIMALTTD
 70
     3
  9
$DIMTXSTY
  7
Standard
  9
$DIMAUNIT
 70
     0
  9
$DIMADEC
 70
     0
  9
$DIMALTRND
 40
0.0
  9
$DIMAZIN
 70
     0
  9
$DIMDSEP
 70
    44
  9
$DIMATFIT
 70
     0
  9
$DIMFRAC
 70
     0
  9
$DIMLDRBLK
  1

  9
$DIMLUNIT
 70
     2
  9
$DIMLWD
 70
    -2
  9
$DIMLWE
 70
    -2
  9
$DIMTMOVE
 70
     0
  9
$DIMFXL
 40
1.0
  9
$DIMFXLON
 70
     0
  9
$DIMJOGANG
 40
0.785398
  9
$DIMTFILL
 70
     0
  9
$DIMTFILLCLR
 70
     0
  9
$DIMARCSYM
 70
     0
  9
$DIMLTYPE
  6

  9
$DIMLTEX1
  6

  9
$DIMLTEX2
  6

  9
$LUNITS
 70
     2
  9
$LUPREC
 70
     4
  9
$SKETCHINC
 40
1.0
  9
$FILLETRAD
 40
2.5
  9
$AUNITS
 70
     0
  9
$AUPREC
 70
     0
  9
$MENU
  1
.
  9
$ELEVATION
 40
0.0
  9
$PELEVATION
 40
0.0
  9
$THICKNESS
 40
0.0
  9
$LIMCHECK
 70
     0
  9
$CHAMFERA
 40
2.5
  9
$CHAMFERB
 40
2.5
  9
$CHAMFERC
 40
0.0
  9
$CHAMFERD
 40
0.0
  9
$SKPOLY
 70
     0
  9
$TDCREATE
 40
2447893.083333333
  9
$TDUCREATE
 40
0.0
  9
$TDUPDATE
 40
2458941.698112396
  9
$TDUUPDATE
 40
2458941.614779063
  9
$TDINDWG
 40
0.0
  9
$TDUSRTIMER
 40
0.0
  9
$USRTIMER
 70
     1
  9
$ANGBASE
 50
0.0
  9
$ANGDIR
 70
     0
  9
$PDMODE
 70
     0
  9
$PDSIZE
 40
0.0
  9
$PLINEWID
 40
0.0
  9
$SPLFRAME
 70
     0
  9
$SPLINETYPE
 70
     6
  9
$SPLINESEGS
 70
     8
  9
$HANDSEED
  5
36A
  9
$SURFTAB1
 70
     6
  9
$SURFTAB2
 70
     6
  9
$SURFTYPE
 70
     6
  9
$SURFU
 70
     6
  9
$SURFV
 70
     6
  9
$UCSBASE
  2

  9
$UCSNAME
  2

  9
$UCSORG
 10
0.0
 20
0.0
 30
0.0
  9
$UCSXDIR
 10
1.0
 20
0.0
 30
0.0
  9
$UCSYDIR
 10
0.0
 20
1.0
 30
0.0
  9
$UCSORTHOREF
  2

  9
$UCSORTHOVIEW
 70
     1
  9
$UCSORGTOP
 10
0.0
 20
0.0
 30
0.0
  9
$UCSORGBOTTOM
 10
0.0
 20
0.0
 30
0.0
  9
$UCSORGLEFT
 10
0.0
 20
0.0
 30
0.0
  9
$UCSORGRIGHT
 10
0.0
 20
0.0
 30
0.0
  9
$UCSORGFRONT
 10
0.0
 20
0.0
 30
0.0
  9
$UCSORGBACK
 10
0.0
 20
0.0
 30
0.0
  9
$PUCSBASE
  2

  9
$PUCSNAME
  2

  9
$PUCSORG
 10
0.0
 20
0.0
 30
0.0
  9
$PUCSXDIR
 10
1.0
 20
0.0
 30
0.0
  9
$PUCSYDIR
 10
0.0
 20
1.0
 30
0.0
  9
$PUCSORTHOREF
  2

  9
$PUCSORTHOVIEW
 70
     0
  9
$PUCSORGTOP
 10
0.0
 20
0.0
 30
0.0
  9
$PUCSORGBOTTOM
 10
0.0
 20
0.0
 30
0.0
  9
$PUCSORGLEFT
 10
0.0
 20
0.0
 30
0.0
  9
$PUCSORGRIGHT
 10
0.0
 20
0.0
 30
0.0
  9
$PUCSORGFRONT
 10
0.0
 20
0.0
 30
0.0
  9
$PUCSORGBACK
 10
0.0
 20
0.0
 30
0.0
  9
$USERI1
 70
     0
  9
$USERI2
 70
     0
  9
$USERI3
 70
     0
  9
$USERI4
 70
     0
  9
$USERI5
 70
     0
  9
$USERR1
 40
0.0
  9
$USERR2
 40
0.0
  9
$USERR3
 40
0.0
  9
$USERR4
 40
0.0
  9
$USERR5
 40
0.0
  9
$WORLDVIEW
 70
     1
  9
$SHADEDGE
 70
     3
  9
$SHADEDIF
 70
    70
  9
$TILEMODE
 70
     1
  9
$MAXACTVP
 70
    64
  9
$PINSBASE
 10
0.0
 20
0.0
 30
0.0
  9
$PLIMCHECK
 70
     0
  9
$PEXTMIN
 10
0.0
 20
0.0
 30
0.0
  9
$PEXTMAX
 10
266.399994
 20
316.0
 30
2.0
  9
$PLIMMIN
 10
0.0
 20
0.0
  9
$PLIMMAX
 10
420.0
 20
297.0
  9
$UNITMODE
 70
     0
  9
$VISRETAIN
 70
     0
  9
$PLINEGEN
 70
     0
  9
$PSLTSCALE
 70
     1
  9
$TREEDEPTH
 70
  3020
  9
$CMLSTYLE
  2
Standard
  9
$CMLJUST
 70
     0
  9
$CMLSCALE
 40
20.0
  9
$PROXYGRAPHICS
 70
     1
  9
$MEASUREMENT
 70
     1
  9
$CELWEIGHT
370
    -1
  9
$ENDCAPS
280
     0
  9
$JOINSTYLE
280
     0
  9
$LWDISPLAY
290
     0
  9
$INSUNITS
 70
     0
  9
$HYPERLINKBASE
  1

  9
$STYLESHEET
  1

  9
$XEDIT
290
     1
  9
$CEPSNTYPE
380
     0
  9
$PSTYLEMODE
290
     0
  9
$FINGERPRINTGUID
  2
{625CBA7D-9691-41BE-B565-79EBD08F4D99}
  9
$VERSIONGUID
  2
{FAEB1C32-E019-11D5-929B-00C0DF256EC4}
  9
$EXTNAMES
290
     1
  9
$PSVPSCALE
 40
0.0
  9
$OLESTARTUP
290
     0
  9
$SORTENTS
280
     0
  9
$INDEXCTL
280
     0
  9
$HIDETEXT
280
     0
  9
$XCLIPFRAME
290
     0
  9
$HALOGAP
280
     0
  9
$OBSCOLOR
 70
     0
  9
$OBSLTYPE
280
     0
  9
$INTERSECTIONDISPLAY
280
     0
  9
$INTERSECTIONCOLOR
 70
     0
  9
$DIMASSOC
280
     0
  9
$PROJECTNAME
  1

  9
$CAMERADISPLAY
290
     0
  9
$LENSLENGTH
 40
50.0
  9
$CAMERAHEIGHT
 40
0.0
  9
$STEPSPERSEC
 40
2.0
  9
$STEPSIZE
 40
6.0
  9
$3DDWFPREC
 40
2.0
  9
$PSOLWIDTH
 40
0.25
  9
$PSOLHEIGHT
 40
4.0
  9
$LOFTANG1
 40
1.570796
  9
$LOFTANG2
 40
1.570796
  9
$LOFTMAG1
 40
0.0
  9
$LOFTMAG2
 40
0.0
  9
$LOFTPARAM
 70
     7
  9
$LOFTNORMALS
280
     1
  9
$LATITUDE
 40
37.795
  9
$LONGITUDE
 40
-122.394
  9
$NORTHDIRECTION
 40
0.0
  9
$TIMEZONE
 70
 -8000
  9
$LIGHTGLYPHDISPLAY
280
     1
  9
$TILEMODELIGHTSYNCH
280
     1
  9
$CMATERIAL
347
44
  9
$SOLIDHIST
280
     0
  9
$SHOWHIST
280
     1
  9
$DWFFRAME
280
     2
  9
$DGNFRAME
280
     2
  9
$REALWORLDSCALE
290
     1
  9
$INTERFERECOLOR
 62
   256
  9
$CSHADOW
280
     0
  9
$SHADOWPLANELOCATION
 40
0.0
  0
ENDSEC
  0
SECTION
  2
CLASSES
  0
CLASS
  1
ACDBDICTIONARYWDFLT
  2
AcDbDictionaryWithDefault
  3
ObjectDBX Classes
 90
        0
 91
        4
280
     0
281
     0
  0
CLASS
  1
VISUALSTYLE
  2
AcDbVisualStyle
  3
ObjectDBX Classes
 90
     4095
 91
        4
280
     0
281
     0
  0
CLASS
  1
MATERIAL
  2
AcDbMaterial
  3
ObjectDBX Classes
 90
     1153
 91
        4
280
     0
281
     0
  0
CLASS
  1
SCALE
  2
AcDbScale
  3
ObjectDBX Classes
 90
     1153
 91
        4
280
     0
281
     0
  0
CLASS
  1
TABLESTYLE
  2
AcDbTableStyle
  3
ObjectDBX Classes
 90
     4095
 91
        4
280
     0
281
     0
  0
CLASS
  1
MLEADERSTYLE
  2
AcDbMLeaderStyle
  3
ACDB_MLEADERSTYLE_CLASS
 90
     4095
 91
        4
280
     0
281
     0
  0
CLASS
  1
SUN
  2
AcDbSun
  3
SCENEOE
 90
     1153
 91
        4
280
     0
281
     0
  0
CLASS
  1
DICTIONARYVAR
  2
AcDbDictionaryVar
  3
ObjectDBX Classes
 90
        0
 91
        4
280
     0
281
     0
  0
CLASS
  1
CELLSTYLEMAP
  2
AcDbCellStyleMap
  3
ObjectDBX Classes
 90
     1152
 91
        4
280
     0
281
     0
  0
ENDSEC
  0
SECTION
  2
TABLES
  0
TABLE
  2
VPORT
  5
8
330
0
100
AcDbSymbolTable
 70
     1
  0
VPORT
  5
29
330
8
100
AcDbSymbolTableRecord
100
AcDbViewportTableRecord
  2
*Active
 70
     0
 10
0.0
 20
0.0
 11
1.0
 21
1.0
 12
10.429907
 22
4.5
 13
0.0
 23
0.0
 14
0.5
 24
0.5
 15
0.5
 25
0.5
 16
0.0
 26
0.0
 36
1.0
 17
0.0
 27
0.0
 37
0.0
 40
9.0
 41
1.972973
 42
50.0
 43
0.0
 44
0.0
 50
0.0
 51
0.0
 71
     0
 72
   100
 73
     1
 74
     3
 75
     0
 76
     0
 77
     0
 78
     0
281
     0
 65
     1
110
0.0
120
0.0
130
0.0
111
1.0
121
0.0
131
0.0
112
0.0
122
1.0
132
0.0
 79
     0
146
0.0
348
2F
 60
     3
 61
     5
292
     1
282
     1
141
0.0
142
0.0
 63
   250
361
6D
  0
ENDTAB
  0
TABLE
  2
LTYPE
  5
5
330
0
100
AcDbSymbolTable
 70
     2
  0
LTYPE
  5
14
330
5
100
AcDbSymbolTableRecord
100
AcDbLinetypeTableRecord
  2
ByBlock
 70
     0
  3

 72
    65
 73
     0
 40
0.0
  0
LTYPE
  5
15
330
5
100
AcDbSymbolTableRecord
100
AcDbLinetypeTableRecord
  2
ByLayer
 70
     0
  3

 72
    65
 73
     0
 40
0.0
  0
LTYPE
  5
16
330
5
100
AcDbSymbolTableRecord
100
AcDbLinetypeTableRecord
  2
Continuous
 70
     0
  3
Solid line
 72
    65
 73
     0
 40
0.0
  0
LTYPE
  5
6F
330
5
100
AcDbSymbolTableRecord
100
AcDbLinetypeTableRecord
  2
DASHDOT
 70
     0
  3
 __ . __ . __ . __ . __ . __ . __ . 
 72
    65
 73
     4
 40
18.5
 49
12.0
 74
     0
 49
-3.0
 74
     0
 49
0.5
 74
     0
 49
-3.0
 74
     0
  0
ENDTAB
  0
TABLE
  2
LAYER
  5
2
330
0
100
AcDbSymbolTable
 70
     1
  0
LAYER
  5
10
330
2
100
AcDbSymbolTableRecord
100
AcDbLayerTableRecord
  2
0
 70
     0
 62
     7
  6
Continuous
370
    13
390
F
347
46
  0
ENDTAB
  0
TABLE
  2
STYLE
  5
3
330
0
100
AcDbSymbolTable
 70
     2
  0
STYLE
  5
11
330
3
100
AcDbSymbolTableRecord
100
AcDbTextStyleTableRecord
  2
Standard
 70
     0
 40
0.0
 41
1.0
 50
0.0
 71
     0
 42
2.5
  3
isocp.shx
  4

  0
STYLE
  5
6E
330
3
100
AcDbSymbolTableRecord
100
AcDbTextStyleTableRecord
  2
GDT
 70
     0
 40
0.0
 41
1.0
 50
0.0
 71
     0
 42
0.2
  3
gdt.shx
  4

  0
ENDTAB
  0
TABLE
  2
VIEW
  5
6
330
0
100
AcDbSymbolTable
 70
     0
  0
ENDTAB
  0
TABLE
  2
UCS
  5
7
330
0
100
AcDbSymbolTable
 70
     0
  0
ENDTAB
  0
TABLE
  2
APPID
  5
9
330
0
100
AcDbSymbolTable
 70
     2
  0
APPID
  5
12
330
9
100
AcDbSymbolTableRecord
100
AcDbRegAppTableRecord
  2
ACAD
 70
     0
  0
APPID
  5
363
330
9
100
AcDbSymbolTableRecord
100
AcDbRegAppTableRecord
  2
ACAD_MLEADERVER
 70
     0
  0
ENDTAB
  0
TABLE
  2
DIMSTYLE
  5
A
330
0
100
AcDbSymbolTable
 70
     1
100
AcDbDimStyleTable
  0
DIMSTYLE
105
27
102
{ACAD_REACTORS
330
30C
330
30E
330
310
330
312
102
}
330
A
100
AcDbSymbolTableRecord
100
AcDbDimStyleTableRecord
  2
STANDARD
 70
     0
 41
2.5
 42
0.625
 43
3.75
 44
1.25
 73
     0
 74
     0
 77
     1
 78
     8
140
2.5
141
2.5
143
0.03937
147
0.625
171
     3
172
     1
178
     0
271
     2
272
     2
274
     3
283
     0
284
     8
289
     0
340
0
  0
ENDTAB
  0
TABLE
  2
BLOCK_RECORD
  5
1
330
0
100
AcDbSymbolTable
 70
    75
  0
BLOCK_RECORD
  5
1F
330
1
100
AcDbSymbolTableRecord
100
AcDbBlockTableRecord
  2
*Model_Space
340
22
 70
     0
280
     1
281
     0
  0
BLOCK_RECORD
  5
1B
330
1
100
AcDbSymbolTableRecord
100
AcDbBlockTableRecord
  2
*Paper_Space
340
1E
 70
     0
280
     1
281
     0
  0
BLOCK_RECORD
  5
23
330
1
100
AcDbSymbolTableRecord
100
AcDbBlockTableRecord
  2
*Paper_Space0
340
26
 70
     0
280
     1
281
     0
  0
BLOCK_RECORD
  5
70
330
1
100
AcDbSymbolTableRecord
100
AcDbBlockTableRecord
  2
BLOCK1
340
0
102
{BLKREFS
331
30B
102
}
 70
     0
280
     1
281
     0
  0
BLOCK_RECORD
  5
73
330
1
100
AcDbSymbolTableRecord
100
AcDbBlockTableRecord
  2
*D2
340
0
 70
     0
280
     1
281
     0
  0
BLOCK_RECORD
  5
76
330
1
100
AcDbSymbolTableRecord
100
AcDbBlockTableRecord
  2
*D3
340
0
 70
     0
280
     1
281
     0
  0
BLOCK_RECORD
  5
79
330
1
100
AcDbSymbolTableRecord
100
AcDbBlockTableRecord
  2
*D4
340
0
 70
     0
280
     1
281
     0
  0
BLOCK_RECORD
  5
7C
330
1
100
AcDbSymbolTableRecord
100
AcDbBlockTableRecord
  2
*D5
340
0
 70
     0
280
     1
281
     0
  0
BLOCK_RECORD
  5
7F
330
1
100
AcDbSymbolTableRecord
100
AcDbBlockTableRecord
  2
BLOCK2
340
0
102
{BLKREFS
331
31A
102
}
 70
     0
280
     1
281
     0
  0
BLOCK_RECORD
  5
82
330
1
100
AcDbSymbolTableRecord
100
AcDbBlockTableRecord
  2
BLOCK3
340
0
102
{BLKREFS
331
31B
102
}
 70
     0
280
     1
281
     0
  0
BLOCK_RECORD
  5
85
330
1
100
AcDbSymbolTableRecord
100
AcDbBlockTableRecord
  2
BLOCK4
340
0
102
{BLKREFS
331
31C
102
}
 70
     0
280
     1
281
     0
  0
BLOCK_RECORD
  5
88
330
1
100
AcDbSymbolTableRecord
100
AcDbBlockTableRecord
  2
BLOCK5
340
0
102
{BLKREFS
331
31D
102
}
 70
     0
280
     1
281
     0
  0
BLOCK_RECORD
  5
8B
330
1
100
AcDbSymbolTableRecord
100
AcDbBlockTableRecord
  2
BLOCK6
340
0
102
{BLKREFS
331
31E
102
}
 70
     0
280
     1
281
     0
  0
BLOCK_RECORD
  5
8E
330
1
100
AcDbSymbolTableRecord
100
AcDbBlockTableRecord
  2
BLOCK7
340
0
102
{BLKREFS
331
31F
102
}
 70
     0
280
     1
281
     0
  0
BLOCK_RECORD
  5
91
330
1
100
AcDbSymbolTableRecord
100
AcDbBlockTableRecord
  2
BLOCK8
340
0
102
{BLKREFS
331
320
102
}
 70
     0
280
     1
281
     0
  0
BLOCK_RECORD
  5
94
330
1
100
AcDbSymbolTableRecord
100
AcDbBlockTableRecord
  2
BLOCK9
340
0
102
{BLKREFS
331
321
102
}
 70
     0
280
     1
281
     0
  0
BLOCK_RECORD
  5
97
330
1
100
AcDbSymbolTableRecord
100
AcDbBlockTableRecord
  2
BLOCK10
340
0
102
{BLKREFS
331
322
102
}
 70
     0
280
     1
281
     0
  0
BLOCK_RECORD
  5
9A
330
1
100
AcDbSymbolTableRecord
100
AcDbBlockTableRecord
  2
BLOCK11
340
0
102
{BLKREFS
331
323
102
}
 70
     0
280
     1
281
     0
  0
BLOCK_RECORD
  5
9D
330
1
100
AcDbSymbolTableRecord
100
AcDbBlockTableRecord
  2
BLOCK12
340
0
102
{BLKREFS
331
324
102
}
 70
     0
280
     1
281
     0
  0
BLOCK_RECORD
  5
A0
330
1
100
AcDbSymbolTableRecord
100
AcDbBlockTableRecord
  2
BLOCK13
340
0
102
{BLKREFS
331
325
102
}
 70
     0
280
     1
281
     0
  0
BLOCK_RECORD
  5
A3
330
1
100
AcDbSymbolTableRecord
100
AcDbBlockTableRecord
  2
BLOCK14
340
0
102
{BLKREFS
331
326
102
}
 70
     0
280
     1
281
     0
  0
BLOCK_RECORD
  5
A6
330
1
100
AcDbSymbolTableRecord
100
AcDbBlockTableRecord
  2
BLOCK15
340
0
102
{BLKREFS
331
327
102
}
 70
     0
280
     1
281
     0
  0
BLOCK_RECORD
  5
A9
330
1
100
AcDbSymbolTableRecord
100
AcDbBlockTableRecord
  2
BLOCK16
340
0
102
{BLKREFS
331
328
102
}
 70
     0
280
     1
281
     0
  0
BLOCK_RECORD
  5
AC
330
1
100
AcDbSymbolTableRecord
100
AcDbBlockTableRecord
  2
BLOCK17
340
0
102
{BLKREFS
331
329
102
}
 70
     0
280
     1
281
     0
  0
BLOCK_RECORD
  5
AF
330
1
100
AcDbSymbolTableRecord
100
AcDbBlockTableRecord
  2
BLOCK18
340
0
102
{BLKREFS
331
32A
102
}
 70
     0
280
     1
281
     0
  0
BLOCK_RECORD
  5
B2
330
1
100
AcDbSymbolTableRecord
100
AcDbBlockTableRecord
  2
BLOCK19
340
0
102
{BLKREFS
331
32B
102
}
 70
     0
280
     1
281
     0
  0
BLOCK_RECORD
  5
B5
330
1
100
AcDbSymbolTableRecord
100
AcDbBlockTableRecord
  2
BLOCK20
340
0
102
{BLKREFS
331
32C
102
}
 70
     0
280
     1
281
     0
  0
BLOCK_RECORD
  5
B8
330
1
100
AcDbSymbolTableRecord
100
AcDbBlockTableRecord
  2
BLOCK21
340
0
102
{BLKREFS
331
32D
102
}
 70
     0
280
     1
281
     0
  0
BLOCK_RECORD
  5
BB
330
1
100
AcDbSymbolTableRecord
100
AcDbBlockTableRecord
  2
BLOCK22
340
0
102
{BLKREFS
331
32E
102
}
 70
     0
280
     1
281
     0
  0
BLOCK_RECORD
  5
BE
330
1
100
AcDbSymbolTableRecord
100
AcDbBlockTableRecord
  2
BLOCK23
340
0
102
{BLKREFS
331
32F
102
}
 70
     0
280
     1
281
     0
  0
BLOCK_RECORD
  5
C1
330
1
100
AcDbSymbolTableRecord
100
AcDbBlockTableRecord
  2
BLOCK24
340
0
102
{BLKREFS
331
330
102
}
 70
     0
280
     1
281
     0
  0
BLOCK_RECORD
  5
C4
330
1
100
AcDbSymbolTableRecord
100
AcDbBlockTableRecord
  2
BLOCK25
340
0
102
{BLKREFS
331
331
102
}
 70
     0
280
     1
281
     0
  0
BLOCK_RECORD
  5
C7
330
1
100
AcDbSymbolTableRecord
100
AcDbBlockTableRecord
  2
BLOCK26
340
0
102
{BLKREFS
331
332
102
}
 70
     0
280
     1
281
     0
  0
BLOCK_RECORD
  5
CA
330
1
100
AcDbSymbolTableRecord
100
AcDbBlockTableRecord
  2
BLOCK27
340
0
102
{BLKREFS
331
333
102
}
 70
     0
280
     1
281
     0
  0
BLOCK_RECORD
  5
CD
330
1
100
AcDbSymbolTableRecord
100
AcDbBlockTableRecord
  2
BLOCK28
340
0
102
{BLKREFS
331
334
102
}
 70
     0
280
     1
281
     0
  0
BLOCK_RECORD
  5
D0
330
1
100
AcDbSymbolTableRecord
100
AcDbBlockTableRecord
  2
BLOCK29
340
0
102
{BLKREFS
331
335
102
}
 70
     0
280
     1
281
     0
  0
BLOCK_RECORD
  5
D3
330
1
100
AcDbSymbolTableRecord
100
AcDbBlockTableRecord
  2
BLOCK30
340
0
102
{BLKREFS
331
336
102
}
 70
     0
280
     1
281
     0
  0
BLOCK_RECORD
  5
D6
330
1
100
AcDbSymbolTableRecord
100
AcDbBlockTableRecord
  2
BLOCK31
340
0
102
{BLKREFS
331
337
102
}
 70
     0
280
     1
281
     0
  0
BLOCK_RECORD
  5
D9
330
1
100
AcDbSymbolTableRecord
100
AcDbBlockTableRecord
  2
BLOCK32
340
0
102
{BLKREFS
331
338
102
}
 70
     0
280
     1
281
     0
  0
BLOCK_RECORD
  5
DC
330
1
100
AcDbSymbolTableRecord
100
AcDbBlockTableRecord
  2
BLOCK33
340
0
102
{BLKREFS
331
339
102
}
 70
     0
280
     1
281
     0
  0
BLOCK_RECORD
  5
DF
330
1
100
AcDbSymbolTableRecord
100
AcDbBlockTableRecord
  2
BLOCK34
340
0
102
{BLKREFS
331
33A
102
}
 70
     0
280
     1
281
     0
  0
BLOCK_RECORD
  5
E2
330
1
100
AcDbSymbolTableRecord
100
AcDbBlockTableRecord
  2
BLOCK35
340
0
102
{BLKREFS
331
33B
102
}
 70
     0
280
     1
281
     0
  0
BLOCK_RECORD
  5
E5
330
1
100
AcDbSymbolTableRecord
100
AcDbBlockTableRecord
  2
BLOCK36
340
0
102
{BLKREFS
331
33C
102
}
 70
     0
280
     1
281
     0
  0
BLOCK_RECORD
  5
E8
330
1
100
AcDbSymbolTableRecord
100
AcDbBlockTableRecord
  2
BLOCK37
340
0
102
{BLKREFS
331
33D
102
}
 70
     0
280
     1
281
     0
  0
BLOCK_RECORD
  5
EB
330
1
100
AcDbSymbolTableRecord
100
AcDbBlockTableRecord
  2
BLOCK38
340
0
102
{BLKREFS
331
33E
102
}
 70
     0
280
     1
281
     0
  0
BLOCK_RECORD
  5
EE
330
1
100
AcDbSymbolTableRecord
100
AcDbBlockTableRecord
  2
BLOCK39
340
0
102
{BLKREFS
331
33F
102
}
 70
     0
280
     1
281
     0
  0
BLOCK_RECORD
  5
F1
330
1
100
AcDbSymbolTableRecord
100
AcDbBlockTableRecord
  2
BLOCK40
340
0
102
{BLKREFS
331
340
102
}
 70
     0
280
     1
281
     0
  0
BLOCK_RECORD
  5
F4
330
1
100
AcDbSymbolTableRecord
100
AcDbBlockTableRecord
  2
BLOCK41
340
0
102
{BLKREFS
331
341
102
}
 70
     0
280
     1
281
     0
  0
BLOCK_RECORD
  5
F7
330
1
100
AcDbSymbolTableRecord
100
AcDbBlockTableRecord
  2
BLOCK42
340
0
102
{BLKREFS
331
342
102
}
 70
     0
280
     1
281
     0
  0
BLOCK_RECORD
  5
FA
330
1
100
AcDbSymbolTableRecord
100
AcDbBlockTableRecord
  2
BLOCK43
340
0
102
{BLKREFS
331
343
102
}
 70
     0
280
     1
281
     0
  0
BLOCK_RECORD
  5
FD
330
1
100
AcDbSymbolTableRecord
100
AcDbBlockTableRecord
  2
BLOCK44
340
0
102
{BLKREFS
331
344
102
}
 70
     0
280
     1
281
     0
  0
BLOCK_RECORD
  5
100
330
1
100
AcDbSymbolTableRecord
100
AcDbBlockTableRecord
  2
BLOCK45
340
0
102
{BLKREFS
331
345
102
}
 70
     0
280
     1
281
     0
  0
BLOCK_RECORD
  5
103
330
1
100
AcDbSymbolTableRecord
100
AcDbBlockTableRecord
  2
BLOCK46
340
0
102
{BLKREFS
331
346
102
}
 70
     0
280
     1
281
     0
  0
BLOCK_RECORD
  5
106
330
1
100
AcDbSymbolTableRecord
100
AcDbBlockTableRecord
  2
BLOCK47
340
0
102
{BLKREFS
331
347
102
}
 70
     0
280
     1
281
     0
  0
BLOCK_RECORD
  5
109
330
1
100
AcDbSymbolTableRecord
100
AcDbBlockTableRecord
  2
BLOCK48
340
0
102
{BLKREFS
331
348
102
}
 70
     0
280
     1
281
     0
  0
BLOCK_RECORD
  5
10C
330
1
100
AcDbSymbolTableRecord
100
AcDbBlockTableRecord
  2
BLOCK49
340
0
102
{BLKREFS
331
349
102
}
 70
     0
280
     1
281
     0
  0
BLOCK_RECORD
  5
10F
330
1
100
AcDbSymbolTableRecord
100
AcDbBlockTableRecord
  2
BLOCK50
340
0
102
{BLKREFS
331
34A
102
}
 70
     0
280
     1
281
     0
  0
BLOCK_RECORD
  5
112
330
1
100
AcDbSymbolTableRecord
100
AcDbBlockTableRecord
  2
BLOCK51
340
0
102
{BLKREFS
331
34B
102
}
 70
     0
280
     1
281
     0
  0
BLOCK_RECORD
  5
115
330
1
100
AcDbSymbolTableRecord
100
AcDbBlockTableRecord
  2
BLOCK52
340
0
102
{BLKREFS
331
34C
102
}
 70
     0
280
     1
281
     0
  0
BLOCK_RECORD
  5
118
330
1
100
AcDbSymbolTableRecord
100
AcDbBlockTableRecord
  2
BLOCK53
340
0
102
{BLKREFS
331
34D
102
}
 70
     0
280
     1
281
     0
  0
BLOCK_RECORD
  5
11B
330
1
100
AcDbSymbolTableRecord
100
AcDbBlockTableRecord
  2
BLOCK54
340
0
102
{BLKREFS
331
34E
102
}
 70
     0
280
     1
281
     0
  0
BLOCK_RECORD
  5
11E
330
1
100
AcDbSymbolTableRecord
100
AcDbBlockTableRecord
  2
BLOCK55
340
0
102
{BLKREFS
331
34F
102
}
 70
     0
280
     1
281
     0
  0
BLOCK_RECORD
  5
121
330
1
100
AcDbSymbolTableRecord
100
AcDbBlockTableRecord
  2
BLOCK56
340
0
102
{BLKREFS
331
350
102
}
 70
     0
280
     1
281
     0
  0
BLOCK_RECORD
  5
124
330
1
100
AcDbSymbolTableRecord
100
AcDbBlockTableRecord
  2
BLOCK57
340
0
102
{BLKREFS
331
351
102
}
 70
     0
280
     1
281
     0
  0
BLOCK_RECORD
  5
127
330
1
100
AcDbSymbolTableRecord
100
AcDbBlockTableRecord
  2
BLOCK58
340
0
102
{BLKREFS
331
352
102
}
 70
     0
280
     1
281
     0
  0
BLOCK_RECORD
  5
12A
330
1
100
AcDbSymbolTableRecord
100
AcDbBlockTableRecord
  2
BLOCK59
340
0
102
{BLKREFS
331
353
102
}
 70
     0
280
     1
281
     0
  0
BLOCK_RECORD
  5
12D
330
1
100
AcDbSymbolTableRecord
100
AcDbBlockTableRecord
  2
BLOCK60
340
0
102
{BLKREFS
331
354
102
}
 70
     0
280
     1
281
     0
  0
BLOCK_RECORD
  5
130
330
1
100
AcDbSymbolTableRecord
100
AcDbBlockTableRecord
  2
BLOCK61
340
0
102
{BLKREFS
331
355
102
}
 70
     0
280
     1
281
     0
  0
BLOCK_RECORD
  5
133
330
1
100
AcDbSymbolTableRecord
100
AcDbBlockTableRecord
  2
BLOCK62
340
0
102
{BLKREFS
331
356
102
}
 70
     0
280
     1
281
     0
  0
BLOCK_RECORD
  5
136
330
1
100
AcDbSymbolTableRecord
100
AcDbBlockTableRecord
  2
BLOCK63
340
0
102
{BLKREFS
331
357
102
}
 70
     0
280
     1
281
     0
  0
BLOCK_RECORD
  5
139
330
1
100
AcDbSymbolTableRecord
100
AcDbBlockTableRecord
  2
BLOCK64
340
0
102
{BLKREFS
331
358
102
}
 70
     0
280
     1
281
     0
  0
BLOCK_RECORD
  5
13C
330
1
100
AcDbSymbolTableRecord
100
AcDbBlockTableRecord
  2
BLOCK65
340
0
102
{BLKREFS
331
359
102
}
 70
     0
280
     1
281
     0
  0
BLOCK_RECORD
  5
13F
330
1
100
AcDbSymbolTableRecord
100
AcDbBlockTableRecord
  2
BLOCK66
340
0
102
{BLKREFS
331
35A
102
}
 70
     0
280
     1
281
     0
  0
BLOCK_RECORD
  5
142
330
1
100
AcDbSymbolTableRecord
100
AcDbBlockTableRecord
  2
BLOCK67
340
0
102
{BLKREFS
331
35B
102
}
 70
     0
280
     1
281
     0
  0
BLOCK_RECORD
  5
145
330
1
100
AcDbSymbolTableRecord
100
AcDbBlockTableRecord
  2
BLOCK68
340
0
102
{BLKREFS
331
35C
102
}
 70
     0
280
     1
281
     0
  0
BLOCK_RECORD
  5
148
330
1
100
AcDbSymbolTableRecord
100
AcDbBlockTableRecord
  2
BLOCK69
340
0
102
{BLKREFS
331
35D
102
}
 70
     0
280
     1
281
     0
  0
BLOCK_RECORD
  5
14B
330
1
100
AcDbSymbolTableRecord
100
AcDbBlockTableRecord
  2
BLOCK70
340
0
102
{BLKREFS
331
35E
102
}
 70
     0
280
     1
281
     0
  0
ENDTAB
  0
ENDSEC
  0
SECTION
  2
BLOCKS
  0
BLOCK
  5
20
330
1F
100
AcDbEntity
  8
0
100
AcDbBlockBegin
  2
*Model_Space
 70
     0
 10
0.0
 20
0.0
 30
0.0
  3
*Model_Space
  1

  0
ENDBLK
  5
21
330
1F
100
AcDbEntity
  8
0
100
AcDbBlockEnd
  0
BLOCK
  5
1C
330
1B
100
AcDbEntity
 67
     1
  8
0
100
AcDbBlockBegin
  2
*Paper_Space
 70
     0
 10
0.0
 20
0.0
 30
0.0
  3
*Paper_Space
  1

  0
ENDBLK
  5
1D
330
1B
100
AcDbEntity
 67
     1
  8
0
100
AcDbBlockEnd
  0
BLOCK
  5
24
330
23
100
AcDbEntity
  8
0
100
AcDbBlockBegin
  2
*Paper_Space0
 70
     0
 10
0.0
 20
0.0
 30
0.0
  3
*Paper_Space0
  1

  0
ENDBLK
  5
25
330
23
100
AcDbEntity
  8
0
100
AcDbBlockEnd
  0
BLOCK
  5
71
330
70
100
AcDbEntity
  8
0
100
AcDbBlockBegin
  2
BLOCK1
 70
     0
 10
0.0
 20
0.0
 30
0.0
  3
BLOCK1
  1

  0
TEXT
  5
14E
330
70
100
AcDbEntity
  8
0
 62
     7
370
    25
100
AcDbText
 10
-98.0
 20
306.286743
 30
0.0
 40
7.0
  1
  Unfolded view
 41
1.050931
 72
     5
 11
-6.919319
 21
306.286743
 31
0.0
100
AcDbText
  0
ENDBLK
  5
72
330
70
100
AcDbEntity
  8
0
100
AcDbBlockEnd
  0
BLOCK
  5
74
330
73
100
AcDbEntity
  8
0
100
AcDbBlockBegin
  2
*D2
 70
     1
 10
0.0
 20
0.0
 30
0.0
  3
*D2
  1

  0
SOLID
  5
14F
330
73
100
AcDbEntity
  8
0
 62
     7
370
    25
100
AcDbTrace
 10
741.278603
 20
651.743138
 30
0.0
 11
744.755928
 21
652.6749
 31
0.0
 12
741.278603
 22
651.743138
 32
0.0
 13
741.278603
 23
653.606633
 33
0.0
  0
SOLID
  5
150
330
73
100
AcDbEntity
  8
0
 62
     7
370
    25
100
AcDbTrace
 10
283.988136
 20
653.606633
 30
0.0
 11
280.510811
 21
652.6749
 31
0.0
 12
283.988136
 22
653.606633
 32
0.0
 13
283.988136
 23
651.743138
 33
0.0
  0
TEXT
  5
151
330
73
100
AcDbEntity
  8
0
 62
     7
370
    25
100
AcDbText
 10
499.907289
 20
653.6749
 30
0.0
 40
3.5
  1
464.245
 41
1.202464
 72
     5
 11
525.359451
 21
653.6749
 31
0.0
100
AcDbText
  0
LINE
  5
152
330
73
100
AcDbEntity
  8
0
 62
     7
370
    25
100
AcDbLine
 10
280.510811
 20
587.570897
 30
0.0
 11
280.510811
 21
654.6749
 31
0.0
  0
LINE
  5
153
330
73
100
AcDbEntity
  8
0
 62
     7
370
    25
100
AcDbLine
 10
744.755928
 20
587.570897
 30
0.0
 11
744.755928
 21
654.6749
 31
0.0
  0
LINE
  5
154
330
73
100
AcDbEntity
  8
0
 62
     7
370
    25
100
AcDbLine
 10
283.988136
 20
652.6749
 30
0.0
 11
741.278603
 21
652.6749
 31
0.0
  0
POLYLINE
  5
155
330
73
100
AcDbEntity
  8
0
 62
     7
370
    25
100
AcDb2dPolyline
 66
     1
 10
0.0
 20
0.0
 30
0.0
 70
     1
  0
VERTEX
  5
156
330
155
100
AcDbEntity
  8
0
370
     0
100
AcDbVertex
100
AcDb2dVertex
 10
741.278603
 20
651.743138
 30
0.0
  0
VERTEX
  5
157
330
155
100
AcDbEntity
  8
0
370
     0
100
AcDbVertex
100
AcDb2dVertex
 10
744.755928
 20
652.6749
 30
0.0
  0
VERTEX
  5
158
330
155
100
AcDbEntity
  8
0
370
     0
100
AcDbVertex
100
AcDb2dVertex
 10
741.278603
 20
653.606633
 30
0.0
  0
SEQEND
  5
159
330
155
100
AcDbEntity
  8
0
 62
     7
370
    25
  0
POLYLINE
  5
15A
330
73
100
AcDbEntity
  8
0
 62
     7
370
    25
100
AcDb2dPolyline
 66
     1
 10
0.0
 20
0.0
 30
0.0
 70
     1
  0
VERTEX
  5
15B
330
15A
100
AcDbEntity
  8
0
370
     0
100
AcDbVertex
100
AcDb2dVertex
 10
283.988136
 20
653.606633
 30
0.0
  0
VERTEX
  5
15C
330
15A
100
AcDbEntity
  8
0
370
     0
100
AcDbVertex
100
AcDb2dVertex
 10
280.510811
 20
652.6749
 30
0.0
  0
VERTEX
  5
15D
330
15A
100
AcDbEntity
  8
0
370
     0
100
AcDbVertex
100
AcDb2dVertex
 10
283.988136
 20
651.743138
 30
0.0
  0
SEQEND
  5
15E
330
15A
100
AcDbEntity
  8
0
 62
     7
370
    25
  0
ENDBLK
  5
75
330
73
100
AcDbEntity
  8
0
100
AcDbBlockEnd
  0
BLOCK
  5
77
330
76
100
AcDbEntity
  8
0
100
AcDbBlockBegin
  2
*D3
 70
     1
 10
0.0
 20
0.0
 30
0.0
  3
*D3
  1

  0
SOLID
  5
15F
330
76
100
AcDbEntity
  8
0
 62
     7
370
    25
100
AcDbTrace
 10
220.441078
 20
590.21613
 30
0.0
 11
219.509316
 21
593.693455
 31
0.0
 12
220.441078
 22
590.21613
 32
0.0
 13
218.577584
 23
590.21613
 33
0.0
  0
SOLID
  5
160
330
76
100
AcDbEntity
  8
0
 62
     7
370
    25
100
AcDbTrace
 10
218.577584
 20
182.925663
 30
0.0
 11
219.509316
 21
179.448338
 31
0.0
 12
218.577584
 22
182.925663
 32
0.0
 13
220.441078
 23
182.925663
 33
0.0
  0
TEXT
  5
161
330
76
100
AcDbEntity
  8
0
 62
     7
370
    25
100
AcDbText
 10
218.509316
 20
373.844816
 30
0.0
 40
3.5
  1
414.245
 50
90.0
 41
1.202464
 72
     5
 11
218.509316
 21
399.296977
 31
0.0
100
AcDbText
  0
LINE
  5
162
330
76
100
AcDbEntity
  8
0
 62
     7
370
    25
100
AcDbLine
 10
289.63337
 20
179.448338
 30
0.0
 11
217.509316
 21
179.448338
 31
0.0
  0
LINE
  5
163
330
76
100
AcDbEntity
  8
0
 62
     7
370
    25
100
AcDbLine
 10
289.63337
 20
593.693455
 30
0.0
 11
217.509316
 21
593.693455
 31
0.0
  0
LINE
  5
164
330
76
100
AcDbEntity
  8
0
 62
     7
370
    25
100
AcDbLine
 10
219.509316
 20
182.925663
 30
0.0
 11
219.509316
 21
590.21613
 31
0.0
  0
POLYLINE
  5
165
330
76
100
AcDbEntity
  8
0
 62
     7
370
    25
100
AcDb2dPolyline
 66
     1
 10
0.0
 20
0.0
 30
0.0
 70
     1
  0
VERTEX
  5
166
330
165
100
AcDbEntity
  8
0
370
     0
100
AcDbVertex
100
AcDb2dVertex
 10
220.441078
 20
590.21613
 30
0.0
  0
VERTEX
  5
167
330
165
100
AcDbEntity
  8
0
370
     0
100
AcDbVertex
100
AcDb2dVertex
 10
219.509316
 20
593.693455
 30
0.0
  0
VERTEX
  5
168
330
165
100
AcDbEntity
  8
0
370
     0
100
AcDbVertex
100
AcDb2dVertex
 10
218.577584
 20
590.21613
 30
0.0
  0
SEQEND
  5
169
330
165
100
AcDbEntity
  8
0
 62
     7
370
    25
  0
POLYLINE
  5
16A
330
76
100
AcDbEntity
  8
0
 62
     7
370
    25
100
AcDb2dPolyline
 66
     1
 10
0.0
 20
0.0
 30
0.0
 70
     1
  0
VERTEX
  5
16B
330
16A
100
AcDbEntity
  8
0
370
     0
100
AcDbVertex
100
AcDb2dVertex
 10
218.577584
 20
182.925663
 30
0.0
  0
VERTEX
  5
16C
330
16A
100
AcDbEntity
  8
0
370
     0
100
AcDbVertex
100
AcDb2dVertex
 10
219.509316
 20
179.448338
 30
0.0
  0
VERTEX
  5
16D
330
16A
100
AcDbEntity
  8
0
370
     0
100
AcDbVertex
100
AcDb2dVertex
 10
220.441078
 20
182.925663
 30
0.0
  0
SEQEND
  5
16E
330
16A
100
AcDbEntity
  8
0
 62
     7
370
    25
  0
ENDBLK
  5
78
330
76
100
AcDbEntity
  8
0
100
AcDbBlockEnd
  0
BLOCK
  5
7A
330
79
100
AcDbEntity
  8
0
100
AcDbBlockBegin
  2
*D4
 70
     1
 10
0.0
 20
0.0
 30
0.0
  3
*D4
  1

  0
SOLID
  5
16F
330
79
100
AcDbEntity
  8
0
 62
     7
370
    25
100
AcDbTrace
 10
732.717324
 20
631.192448
 30
0.0
 11
736.194649
 21
632.124195
 31
0.0
 12
732.717324
 22
631.192448
 32
0.0
 13
732.717324
 23
633.055958
 33
0.0
  0
SOLID
  5
170
330
79
100
AcDbEntity
  8
0
 62
     7
370
    25
100
AcDbTrace
 10
292.549416
 20
633.055958
 30
0.0
 11
289.07209
 21
632.124195
 31
0.0
 12
292.549416
 22
633.055958
 32
0.0
 13
292.549416
 23
631.192448
 33
0.0
  0
TEXT
  5
171
330
79
100
AcDbEntity
  8
0
 62
     7
370
    25
100
AcDbText
 10
499.907289
 20
633.124195
 30
0.0
 40
3.5
  1
447.123
 41
1.202464
 72
     5
 11
525.359451
 21
633.124195
 31
0.0
100
AcDbText
  0
LINE
  5
172
330
79
100
AcDbEntity
  8
0
 62
     7
370
    25
100
AcDbLine
 10
289.07209
 20
623.97089
 30
0.0
 11
289.07209
 21
634.124195
 31
0.0
  0
LINE
  5
173
330
79
100
AcDbEntity
  8
0
 62
     7
370
    25
100
AcDbLine
 10
736.194649
 20
623.97089
 30
0.0
 11
736.194649
 21
634.124195
 31
0.0
  0
LINE
  5
174
330
79
100
AcDbEntity
  8
0
 62
     7
370
    25
100
AcDbLine
 10
292.549416
 20
632.124195
 30
0.0
 11
732.717324
 21
632.124195
 31
0.0
  0
POLYLINE
  5
175
330
79
100
AcDbEntity
  8
0
 62
     7
370
    25
100
AcDb2dPolyline
 66
     1
 10
0.0
 20
0.0
 30
0.0
 70
     1
  0
VERTEX
  5
176
330
175
100
AcDbEntity
  8
0
370
     0
100
AcDbVertex
100
AcDb2dVertex
 10
732.717324
 20
631.192448
 30
0.0
  0
VERTEX
  5
177
330
175
100
AcDbEntity
  8
0
370
     0
100
AcDbVertex
100
AcDb2dVertex
 10
736.194649
 20
632.124195
 30
0.0
  0
VERTEX
  5
178
330
175
100
AcDbEntity
  8
0
370
     0
100
AcDbVertex
100
AcDb2dVertex
 10
732.717324
 20
633.055958
 30
0.0
  0
SEQEND
  5
179
330
175
100
AcDbEntity
  8
0
 62
     7
370
    25
  0
POLYLINE
  5
17A
330
79
100
AcDbEntity
  8
0
 62
     7
370
    25
100
AcDb2dPolyline
 66
     1
 10
0.0
 20
0.0
 30
0.0
 70
     1
  0
VERTEX
  5
17B
330
17A
100
AcDbEntity
  8
0
370
     0
100
AcDbVertex
100
AcDb2dVertex
 10
292.549416
 20
633.055958
 30
0.0
  0
VERTEX
  5
17C
330
17A
100
AcDbEntity
  8
0
370
     0
100
AcDbVertex
100
AcDb2dVertex
 10
289.07209
 20
632.124195
 30
0.0
  0
VERTEX
  5
17D
330
17A
100
AcDbEntity
  8
0
370
     0
100
AcDbVertex
100
AcDb2dVertex
 10
292.549416
 20
631.192448
 30
0.0
  0
SEQEND
  5
17E
330
17A
100
AcDbEntity
  8
0
 62
     7
370
    25
  0
ENDBLK
  5
7B
330
79
100
AcDbEntity
  8
0
100
AcDbBlockEnd
  0
BLOCK
  5
7D
330
7C
100
AcDbEntity
  8
0
100
AcDbBlockBegin
  2
*D5
 70
     1
 10
0.0
 20
0.0
 30
0.0
  3
*D5
  1

  0
SOLID
  5
17F
330
7C
100
AcDbEntity
  8
0
 62
     7
370
    25
100
AcDbTrace
 10
238.107582
 20
191.486943
 30
0.0
 11
239.039314
 21
188.009617
 31
0.0
 12
238.107582
 22
191.486943
 32
0.0
 13
239.971077
 23
191.486943
 33
0.0
  0
SOLID
  5
180
330
7C
100
AcDbEntity
  8
0
 62
     7
370
    25
100
AcDbTrace
 10
239.971077
 20
581.65485
 30
0.0
 11
239.039314
 21
585.132176
 31
0.0
 12
239.971077
 22
581.65485
 32
0.0
 13
238.107582
 23
581.65485
 33
0.0
  0
TEXT
  5
181
330
7C
100
AcDbEntity
  8
0
 62
     7
370
    25
100
AcDbText
 10
238.039314
 20
373.844816
 30
0.0
 40
3.5
  1
397.123
 50
90.0
 41
1.202464
 72
     5
 11
238.039314
 21
399.296977
 31
0.0
100
AcDbText
  0
LINE
  5
182
330
7C
100
AcDbEntity
  8
0
 62
     7
370
    25
100
AcDbLine
 10
245.233376
 20
188.009617
 30
0.0
 11
237.039314
 21
188.009617
 31
0.0
  0
LINE
  5
183
330
7C
100
AcDbEntity
  8
0
 62
     7
370
    25
100
AcDbLine
 10
245.233376
 20
585.132176
 30
0.0
 11
237.039314
 21
585.132176
 31
0.0
  0
LINE
  5
184
330
7C
100
AcDbEntity
  8
0
 62
     7
370
    25
100
AcDbLine
 10
239.039314
 20
191.486943
 30
0.0
 11
239.039314
 21
581.65485
 31
0.0
  0
POLYLINE
  5
185
330
7C
100
AcDbEntity
  8
0
 62
     7
370
    25
100
AcDb2dPolyline
 66
     1
 10
0.0
 20
0.0
 30
0.0
 70
     1
  0
VERTEX
  5
186
330
185
100
AcDbEntity
  8
0
370
     0
100
AcDbVertex
100
AcDb2dVertex
 10
238.107582
 20
191.486943
 30
0.0
  0
VERTEX
  5
187
330
185
100
AcDbEntity
  8
0
370
     0
100
AcDbVertex
100
AcDb2dVertex
 10
239.039314
 20
188.009617
 30
0.0
  0
VERTEX
  5
188
330
185
100
AcDbEntity
  8
0
370
     0
100
AcDbVertex
100
AcDb2dVertex
 10
239.971077
 20
191.486943
 30
0.0
  0
SEQEND
  5
189
330
185
100
AcDbEntity
  8
0
 62
     7
370
    25
  0
POLYLINE
  5
18A
330
7C
100
AcDbEntity
  8
0
 62
     7
370
    25
100
AcDb2dPolyline
 66
     1
 10
0.0
 20
0.0
 30
0.0
 70
     1
  0
VERTEX
  5
18B
330
18A
100
AcDbEntity
  8
0
370
     0
100
AcDbVertex
100
AcDb2dVertex
 10
239.971077
 20
581.65485
 30
0.0
  0
VERTEX
  5
18C
330
18A
100
AcDbEntity
  8
0
370
     0
100
AcDbVertex
100
AcDb2dVertex
 10
239.039314
 20
585.132176
 30
0.0
  0
VERTEX
  5
18D
330
18A
100
AcDbEntity
  8
0
370
     0
100
AcDbVertex
100
AcDb2dVertex
 10
238.107582
 20
581.65485
 30
0.0
  0
SEQEND
  5
18E
330
18A
100
AcDbEntity
  8
0
 62
     7
370
    25
  0
ENDBLK
  5
7E
330
7C
100
AcDbEntity
  8
0
100
AcDbBlockEnd
  0
BLOCK
  5
80
330
7F
100
AcDbEntity
  8
0
100
AcDbBlockBegin
  2
BLOCK2
 70
     0
 10
0.0
 20
0.0
 30
0.0
  3
BLOCK2
  1

  0
LINE
  5
18F
330
7F
100
AcDbEntity
  8
0
  6
DASHDOT
 62
     7
 48
0.2145
370
    25
100
AcDbLine
 10
-13.71
 20
-167.0
 30
0.0
 11
-22.290001
 21
-167.0
 31
0.0
  0
LINE
  5
190
330
7F
100
AcDbEntity
  8
0
  6
DASHDOT
 62
     7
 48
0.2145
370
    25
100
AcDbLine
 10
-18.0
 20
-162.710007
 30
0.0
 11
-18.0
 21
-171.289993
 31
0.0
  0
ENDBLK
  5
81
330
7F
100
AcDbEntity
  8
0
100
AcDbBlockEnd
  0
BLOCK
  5
83
330
82
100
AcDbEntity
  8
0
100
AcDbBlockBegin
  2
BLOCK3
 70
     0
 10
0.0
 20
0.0
 30
0.0
  3
BLOCK3
  1

  0
LINE
  5
191
330
82
100
AcDbEntity
  8
0
  6
DASHDOT
 62
     7
 48
0.2145
370
    25
100
AcDbLine
 10
22.290001
 20
-175.0
 30
0.0
 11
13.71
 21
-175.0
 31
0.0
  0
LINE
  5
192
330
82
100
AcDbEntity
  8
0
  6
DASHDOT
 62
     7
 48
0.2145
370
    25
100
AcDbLine
 10
18.0
 20
-170.710007
 30
0.0
 11
18.0
 21
-179.289993
 31
0.0
  0
ENDBLK
  5
84
330
82
100
AcDbEntity
  8
0
100
AcDbBlockEnd
  0
BLOCK
  5
86
330
85
100
AcDbEntity
  8
0
100
AcDbBlockBegin
  2
BLOCK4
 70
     0
 10
0.0
 20
0.0
 30
0.0
  3
BLOCK4
  1

  0
LINE
  5
193
330
85
100
AcDbEntity
  8
0
  6
DASHDOT
 62
     7
 48
0.2145
370
    25
100
AcDbLine
 10
-13.71
 20
-175.0
 30
0.0
 11
-22.290001
 21
-175.0
 31
0.0
  0
LINE
  5
194
330
85
100
AcDbEntity
  8
0
  6
DASHDOT
 62
     7
 48
0.2145
370
    25
100
AcDbLine
 10
-18.0
 20
-170.710007
 30
0.0
 11
-18.0
 21
-179.289993
 31
0.0
  0
ENDBLK
  5
87
330
85
100
AcDbEntity
  8
0
100
AcDbBlockEnd
  0
BLOCK
  5
89
330
88
100
AcDbEntity
  8
0
100
AcDbBlockBegin
  2
BLOCK5
 70
     0
 10
0.0
 20
0.0
 30
0.0
  3
BLOCK5
  1

  0
LINE
  5
195
330
88
100
AcDbEntity
  8
0
  6
DASHDOT
 62
     7
 48
0.2145
370
    25
100
AcDbLine
 10
22.290001
 20
-183.0
 30
0.0
 11
13.71
 21
-183.0
 31
0.0
  0
LINE
  5
196
330
88
100
AcDbEntity
  8
0
  6
DASHDOT
 62
     7
 48
0.2145
370
    25
100
AcDbLine
 10
18.0
 20
-178.710007
 30
0.0
 11
18.0
 21
-187.289993
 31
0.0
  0
ENDBLK
  5
8A
330
88
100
AcDbEntity
  8
0
100
AcDbBlockEnd
  0
BLOCK
  5
8C
330
8B
100
AcDbEntity
  8
0
100
AcDbBlockBegin
  2
BLOCK6
 70
     0
 10
0.0
 20
0.0
 30
0.0
  3
BLOCK6
  1

  0
LINE
  5
197
330
8B
100
AcDbEntity
  8
0
  6
DASHDOT
 62
     7
 48
0.2145
370
    25
100
AcDbLine
 10
-13.71
 20
-183.0
 30
0.0
 11
-22.290001
 21
-183.0
 31
0.0
  0
LINE
  5
198
330
8B
100
AcDbEntity
  8
0
  6
DASHDOT
 62
     7
 48
0.2145
370
    25
100
AcDbLine
 10
-18.0
 20
-178.710007
 30
0.0
 11
-18.0
 21
-187.289993
 31
0.0
  0
ENDBLK
  5
8D
330
8B
100
AcDbEntity
  8
0
100
AcDbBlockEnd
  0
BLOCK
  5
8F
330
8E
100
AcDbEntity
  8
0
100
AcDbBlockBegin
  2
BLOCK7
 70
     0
 10
0.0
 20
0.0
 30
0.0
  3
BLOCK7
  1

  0
LINE
  5
199
330
8E
100
AcDbEntity
  8
0
  6
DASHDOT
 62
     7
 48
0.2145
370
    25
100
AcDbLine
 10
22.290001
 20
-191.0
 30
0.0
 11
13.71
 21
-191.0
 31
0.0
  0
LINE
  5
19A
330
8E
100
AcDbEntity
  8
0
  6
DASHDOT
 62
     7
 48
0.2145
370
    25
100
AcDbLine
 10
18.0
 20
-186.710007
 30
0.0
 11
18.0
 21
-195.289993
 31
0.0
  0
ENDBLK
  5
90
330
8E
100
AcDbEntity
  8
0
100
AcDbBlockEnd
  0
BLOCK
  5
92
330
91
100
AcDbEntity
  8
0
100
AcDbBlockBegin
  2
BLOCK8
 70
     0
 10
0.0
 20
0.0
 30
0.0
  3
BLOCK8
  1

  0
LINE
  5
19B
330
91
100
AcDbEntity
  8
0
  6
DASHDOT
 62
     7
 48
0.2145
370
    25
100
AcDbLine
 10
-13.71
 20
-191.0
 30
0.0
 11
-22.290001
 21
-191.0
 31
0.0
  0
LINE
  5
19C
330
91
100
AcDbEntity
  8
0
  6
DASHDOT
 62
     7
 48
0.2145
370
    25
100
AcDbLine
 10
-18.0
 20
-186.710007
 30
0.0
 11
-18.0
 21
-195.289993
 31
0.0
  0
ENDBLK
  5
93
330
91
100
AcDbEntity
  8
0
100
AcDbBlockEnd
  0
BLOCK
  5
95
330
94
100
AcDbEntity
  8
0
100
AcDbBlockBegin
  2
BLOCK9
 70
     0
 10
0.0
 20
0.0
 30
0.0
  3
BLOCK9
  1

  0
LINE
  5
19D
330
94
100
AcDbEntity
  8
0
  6
DASHDOT
 62
     7
 48
0.2145
370
    25
100
AcDbLine
 10
150.789993
 20
-55.0
 30
0.0
 11
142.210007
 21
-55.0
 31
0.0
  0
LINE
  5
19E
330
94
100
AcDbEntity
  8
0
  6
DASHDOT
 62
     7
 48
0.2145
370
    25
100
AcDbLine
 10
146.5
 20
-50.709999
 30
0.0
 11
146.5
 21
-59.290001
 31
0.0
  0
ENDBLK
  5
96
330
94
100
AcDbEntity
  8
0
100
AcDbBlockEnd
  0
BLOCK
  5
98
330
97
100
AcDbEntity
  8
0
100
AcDbBlockBegin
  2
BLOCK10
 70
     0
 10
0.0
 20
0.0
 30
0.0
  3
BLOCK10
  1

  0
LINE
  5
19F
330
97
100
AcDbEntity
  8
0
  6
DASHDOT
 62
     7
 48
0.2145
370
    25
100
AcDbLine
 10
160.789993
 20
-55.0
 30
0.0
 11
152.210007
 21
-55.0
 31
0.0
  0
LINE
  5
1A0
330
97
100
AcDbEntity
  8
0
  6
DASHDOT
 62
     7
 48
0.2145
370
    25
100
AcDbLine
 10
156.5
 20
-50.709999
 30
0.0
 11
156.5
 21
-59.290001
 31
0.0
  0
ENDBLK
  5
99
330
97
100
AcDbEntity
  8
0
100
AcDbBlockEnd
  0
BLOCK
  5
9B
330
9A
100
AcDbEntity
  8
0
100
AcDbBlockBegin
  2
BLOCK11
 70
     0
 10
0.0
 20
0.0
 30
0.0
  3
BLOCK11
  1

  0
LINE
  5
1A1
330
9A
100
AcDbEntity
  8
0
  6
DASHDOT
 62
     7
 48
0.2145
370
    25
100
AcDbLine
 10
140.789993
 20
55.0
 30
0.0
 11
132.210007
 21
55.0
 31
0.0
  0
LINE
  5
1A2
330
9A
100
AcDbEntity
  8
0
  6
DASHDOT
 62
     7
 48
0.2145
370
    25
100
AcDbLine
 10
136.5
 20
59.290001
 30
0.0
 11
136.5
 21
50.709999
 31
0.0
  0
ENDBLK
  5
9C
330
9A
100
AcDbEntity
  8
0
100
AcDbBlockEnd
  0
BLOCK
  5
9E
330
9D
100
AcDbEntity
  8
0
100
AcDbBlockBegin
  2
BLOCK12
 70
     0
 10
0.0
 20
0.0
 30
0.0
  3
BLOCK12
  1

  0
LINE
  5
1A3
330
9D
100
AcDbEntity
  8
0
  6
DASHDOT
 62
     7
 48
0.2145
370
    25
100
AcDbLine
 10
150.789993
 20
55.0
 30
0.0
 11
142.210007
 21
55.0
 31
0.0
  0
LINE
  5
1A4
330
9D
100
AcDbEntity
  8
0
  6
DASHDOT
 62
     7
 48
0.2145
370
    25
100
AcDbLine
 10
146.5
 20
59.290001
 30
0.0
 11
146.5
 21
50.709999
 31
0.0
  0
ENDBLK
  5
9F
330
9D
100
AcDbEntity
  8
0
100
AcDbBlockEnd
  0
BLOCK
  5
A1
330
A0
100
AcDbEntity
  8
0
100
AcDbBlockBegin
  2
BLOCK13
 70
     0
 10
0.0
 20
0.0
 30
0.0
  3
BLOCK13
  1

  0
LINE
  5
1A5
330
A0
100
AcDbEntity
  8
0
  6
DASHDOT
 62
     7
 48
0.2145
370
    25
100
AcDbLine
 10
160.789993
 20
55.0
 30
0.0
 11
152.210007
 21
55.0
 31
0.0
  0
LINE
  5
1A6
330
A0
100
AcDbEntity
  8
0
  6
DASHDOT
 62
     7
 48
0.2145
370
    25
100
AcDbLine
 10
156.5
 20
59.290001
 30
0.0
 11
156.5
 21
50.709999
 31
0.0
  0
ENDBLK
  5
A2
330
A0
100
AcDbEntity
  8
0
100
AcDbBlockEnd
  0
BLOCK
  5
A4
330
A3
100
AcDbEntity
  8
0
100
AcDbBlockBegin
  2
BLOCK14
 70
     0
 10
0.0
 20
0.0
 30
0.0
  3
BLOCK14
  1

  0
LINE
  5
1A7
330
A3
100
AcDbEntity
  8
0
  6
DASHDOT
 62
     7
 48
0.2145
370
    25
100
AcDbLine
 10
-142.210007
 20
-55.0
 30
0.0
 11
-150.789993
 21
-55.0
 31
0.0
  0
LINE
  5
1A8
330
A3
100
AcDbEntity
  8
0
  6
DASHDOT
 62
     7
 48
0.2145
370
    25
100
AcDbLine
 10
-146.5
 20
-50.709999
 30
0.0
 11
-146.5
 21
-59.290001
 31
0.0
  0
ENDBLK
  5
A5
330
A3
100
AcDbEntity
  8
0
100
AcDbBlockEnd
  0
BLOCK
  5
A7
330
A6
100
AcDbEntity
  8
0
100
AcDbBlockBegin
  2
BLOCK15
 70
     0
 10
0.0
 20
0.0
 30
0.0
  3
BLOCK15
  1

  0
LINE
  5
1A9
330
A6
100
AcDbEntity
  8
0
  6
DASHDOT
 62
     7
 48
0.2145
370
    25
100
AcDbLine
 10
-152.210007
 20
-55.0
 30
0.0
 11
-160.789993
 21
-55.0
 31
0.0
  0
LINE
  5
1AA
330
A6
100
AcDbEntity
  8
0
  6
DASHDOT
 62
     7
 48
0.2145
370
    25
100
AcDbLine
 10
-156.5
 20
-50.709999
 30
0.0
 11
-156.5
 21
-59.290001
 31
0.0
  0
ENDBLK
  5
A8
330
A6
100
AcDbEntity
  8
0
100
AcDbBlockEnd
  0
BLOCK
  5
AA
330
A9
100
AcDbEntity
  8
0
100
AcDbBlockBegin
  2
BLOCK16
 70
     0
 10
0.0
 20
0.0
 30
0.0
  3
BLOCK16
  1

  0
LINE
  5
1AB
330
A9
100
AcDbEntity
  8
0
  6
DASHDOT
 62
     7
 48
0.2145
370
    25
100
AcDbLine
 10
-132.210007
 20
55.0
 30
0.0
 11
-140.789993
 21
55.0
 31
0.0
  0
LINE
  5
1AC
330
A9
100
AcDbEntity
  8
0
  6
DASHDOT
 62
     7
 48
0.2145
370
    25
100
AcDbLine
 10
-136.5
 20
59.290001
 30
0.0
 11
-136.5
 21
50.709999
 31
0.0
  0
ENDBLK
  5
AB
330
A9
100
AcDbEntity
  8
0
100
AcDbBlockEnd
  0
BLOCK
  5
AD
330
AC
100
AcDbEntity
  8
0
100
AcDbBlockBegin
  2
BLOCK17
 70
     0
 10
0.0
 20
0.0
 30
0.0
  3
BLOCK17
  1

  0
LINE
  5
1AD
330
AC
100
AcDbEntity
  8
0
  6
DASHDOT
 62
     7
 48
0.2145
370
    25
100
AcDbLine
 10
-142.210007
 20
55.0
 30
0.0
 11
-150.789993
 21
55.0
 31
0.0
  0
LINE
  5
1AE
330
AC
100
AcDbEntity
  8
0
  6
DASHDOT
 62
     7
 48
0.2145
370
    25
100
AcDbLine
 10
-146.5
 20
59.290001
 30
0.0
 11
-146.5
 21
50.709999
 31
0.0
  0
ENDBLK
  5
AE
330
AC
100
AcDbEntity
  8
0
100
AcDbBlockEnd
  0
BLOCK
  5
B0
330
AF
100
AcDbEntity
  8
0
100
AcDbBlockBegin
  2
BLOCK18
 70
     0
 10
0.0
 20
0.0
 30
0.0
  3
BLOCK18
  1

  0
LINE
  5
1AF
330
AF
100
AcDbEntity
  8
0
  6
DASHDOT
 62
     7
 48
0.2145
370
    25
100
AcDbLine
 10
-152.210007
 20
55.0
 30
0.0
 11
-160.789993
 21
55.0
 31
0.0
  0
LINE
  5
1B0
330
AF
100
AcDbEntity
  8
0
  6
DASHDOT
 62
     7
 48
0.2145
370
    25
100
AcDbLine
 10
-156.5
 20
59.290001
 30
0.0
 11
-156.5
 21
50.709999
 31
0.0
  0
ENDBLK
  5
B1
330
AF
100
AcDbEntity
  8
0
100
AcDbBlockEnd
  0
BLOCK
  5
B3
330
B2
100
AcDbEntity
  8
0
100
AcDbBlockBegin
  2
BLOCK19
 70
     0
 10
0.0
 20
0.0
 30
0.0
  3
BLOCK19
  1

  0
LINE
  5
1B1
330
B2
100
AcDbEntity
  8
0
  6
DASHDOT
 62
     7
 48
0.2145
370
    25
100
AcDbLine
 10
123.290001
 20
-17.5
 30
0.0
 11
114.709999
 21
-17.5
 31
0.0
  0
LINE
  5
1B2
330
B2
100
AcDbEntity
  8
0
  6
DASHDOT
 62
     7
 48
0.2145
370
    25
100
AcDbLine
 10
119.0
 20
-13.21
 30
0.0
 11
119.0
 21
-21.790001
 31
0.0
  0
ENDBLK
  5
B4
330
B2
100
AcDbEntity
  8
0
100
AcDbBlockEnd
  0
BLOCK
  5
B6
330
B5
100
AcDbEntity
  8
0
100
AcDbBlockBegin
  2
BLOCK20
 70
     0
 10
0.0
 20
0.0
 30
0.0
  3
BLOCK20
  1

  0
LINE
  5
1B3
330
B5
100
AcDbEntity
  8
0
  6
DASHDOT
 62
     7
 48
0.2145
370
    25
100
AcDbLine
 10
133.289993
 20
-17.5
 30
0.0
 11
124.709999
 21
-17.5
 31
0.0
  0
LINE
  5
1B4
330
B5
100
AcDbEntity
  8
0
  6
DASHDOT
 62
     7
 48
0.2145
370
    25
100
AcDbLine
 10
129.0
 20
-13.21
 30
0.0
 11
129.0
 21
-21.790001
 31
0.0
  0
ENDBLK
  5
B7
330
B5
100
AcDbEntity
  8
0
100
AcDbBlockEnd
  0
BLOCK
  5
B9
330
B8
100
AcDbEntity
  8
0
100
AcDbBlockBegin
  2
BLOCK21
 70
     0
 10
0.0
 20
0.0
 30
0.0
  3
BLOCK21
  1

  0
LINE
  5
1B5
330
B8
100
AcDbEntity
  8
0
  6
DASHDOT
 62
     7
 48
0.2145
370
    25
100
AcDbLine
 10
113.290001
 20
17.5
 30
0.0
 11
104.709999
 21
17.5
 31
0.0
  0
LINE
  5
1B6
330
B8
100
AcDbEntity
  8
0
  6
DASHDOT
 62
     7
 48
0.2145
370
    25
100
AcDbLine
 10
109.0
 20
21.790001
 30
0.0
 11
109.0
 21
13.21
 31
0.0
  0
ENDBLK
  5
BA
330
B8
100
AcDbEntity
  8
0
100
AcDbBlockEnd
  0
BLOCK
  5
BC
330
BB
100
AcDbEntity
  8
0
100
AcDbBlockBegin
  2
BLOCK22
 70
     0
 10
0.0
 20
0.0
 30
0.0
  3
BLOCK22
  1

  0
LINE
  5
1B7
330
BB
100
AcDbEntity
  8
0
  6
DASHDOT
 62
     7
 48
0.2145
370
    25
100
AcDbLine
 10
123.290001
 20
17.5
 30
0.0
 11
114.709999
 21
17.5
 31
0.0
  0
LINE
  5
1B8
330
BB
100
AcDbEntity
  8
0
  6
DASHDOT
 62
     7
 48
0.2145
370
    25
100
AcDbLine
 10
119.0
 20
21.790001
 30
0.0
 11
119.0
 21
13.21
 31
0.0
  0
ENDBLK
  5
BD
330
BB
100
AcDbEntity
  8
0
100
AcDbBlockEnd
  0
BLOCK
  5
BF
330
BE
100
AcDbEntity
  8
0
100
AcDbBlockBegin
  2
BLOCK23
 70
     0
 10
0.0
 20
0.0
 30
0.0
  3
BLOCK23
  1

  0
LINE
  5
1B9
330
BE
100
AcDbEntity
  8
0
  6
DASHDOT
 62
     7
 48
0.2145
370
    25
100
AcDbLine
 10
133.289993
 20
17.5
 30
0.0
 11
124.709999
 21
17.5
 31
0.0
  0
LINE
  5
1BA
330
BE
100
AcDbEntity
  8
0
  6
DASHDOT
 62
     7
 48
0.2145
370
    25
100
AcDbLine
 10
129.0
 20
21.790001
 30
0.0
 11
129.0
 21
13.21
 31
0.0
  0
ENDBLK
  5
C0
330
BE
100
AcDbEntity
  8
0
100
AcDbBlockEnd
  0
BLOCK
  5
C2
330
C1
100
AcDbEntity
  8
0
100
AcDbBlockBegin
  2
BLOCK24
 70
     0
 10
0.0
 20
0.0
 30
0.0
  3
BLOCK24
  1

  0
LINE
  5
1BB
330
C1
100
AcDbEntity
  8
0
  6
DASHDOT
 62
     7
 48
0.2145
370
    25
100
AcDbLine
 10
22.290001
 20
31.0
 30
0.0
 11
13.71
 21
31.0
 31
0.0
  0
LINE
  5
1BC
330
C1
100
AcDbEntity
  8
0
  6
DASHDOT
 62
     7
 48
0.2145
370
    25
100
AcDbLine
 10
18.0
 20
35.290001
 30
0.0
 11
18.0
 21
26.709999
 31
0.0
  0
ENDBLK
  5
C3
330
C1
100
AcDbEntity
  8
0
100
AcDbBlockEnd
  0
BLOCK
  5
C5
330
C4
100
AcDbEntity
  8
0
100
AcDbBlockBegin
  2
BLOCK25
 70
     0
 10
0.0
 20
0.0
 30
0.0
  3
BLOCK25
  1

  0
LINE
  5
1BD
330
C4
100
AcDbEntity
  8
0
  6
DASHDOT
 62
     7
 48
0.2145
370
    25
100
AcDbLine
 10
-13.71
 20
23.0
 30
0.0
 11
-22.290001
 21
23.0
 31
0.0
  0
LINE
  5
1BE
330
C4
100
AcDbEntity
  8
0
  6
DASHDOT
 62
     7
 48
0.2145
370
    25
100
AcDbLine
 10
-18.0
 20
27.290001
 30
0.0
 11
-18.0
 21
18.709999
 31
0.0
  0
ENDBLK
  5
C6
330
C4
100
AcDbEntity
  8
0
100
AcDbBlockEnd
  0
BLOCK
  5
C8
330
C7
100
AcDbEntity
  8
0
100
AcDbBlockBegin
  2
BLOCK26
 70
     0
 10
0.0
 20
0.0
 30
0.0
  3
BLOCK26
  1

  0
LINE
  5
1BF
330
C7
100
AcDbEntity
  8
0
  6
DASHDOT
 62
     7
 48
0.2145
370
    25
100
AcDbLine
 10
22.290001
 20
23.0
 30
0.0
 11
13.71
 21
23.0
 31
0.0
  0
LINE
  5
1C0
330
C7
100
AcDbEntity
  8
0
  6
DASHDOT
 62
     7
 48
0.2145
370
    25
100
AcDbLine
 10
18.0
 20
27.290001
 30
0.0
 11
18.0
 21
18.709999
 31
0.0
  0
ENDBLK
  5
C9
330
C7
100
AcDbEntity
  8
0
100
AcDbBlockEnd
  0
BLOCK
  5
CB
330
CA
100
AcDbEntity
  8
0
100
AcDbBlockBegin
  2
BLOCK27
 70
     0
 10
0.0
 20
0.0
 30
0.0
  3
BLOCK27
  1

  0
LINE
  5
1C1
330
CA
100
AcDbEntity
  8
0
  6
DASHDOT
 62
     7
 48
0.2145
370
    25
100
AcDbLine
 10
-13.71
 20
15.0
 30
0.0
 11
-22.290001
 21
15.0
 31
0.0
  0
LINE
  5
1C2
330
CA
100
AcDbEntity
  8
0
  6
DASHDOT
 62
     7
 48
0.2145
370
    25
100
AcDbLine
 10
-18.0
 20
19.290001
 30
0.0
 11
-18.0
 21
10.71
 31
0.0
  0
ENDBLK
  5
CC
330
CA
100
AcDbEntity
  8
0
100
AcDbBlockEnd
  0
BLOCK
  5
CE
330
CD
100
AcDbEntity
  8
0
100
AcDbBlockBegin
  2
BLOCK28
 70
     0
 10
0.0
 20
0.0
 30
0.0
  3
BLOCK28
  1

  0
LINE
  5
1C3
330
CD
100
AcDbEntity
  8
0
  6
DASHDOT
 62
     7
 48
0.2145
370
    25
100
AcDbLine
 10
22.290001
 20
15.0
 30
0.0
 11
13.71
 21
15.0
 31
0.0
  0
LINE
  5
1C4
330
CD
100
AcDbEntity
  8
0
  6
DASHDOT
 62
     7
 48
0.2145
370
    25
100
AcDbLine
 10
18.0
 20
19.290001
 30
0.0
 11
18.0
 21
10.71
 31
0.0
  0
ENDBLK
  5
CF
330
CD
100
AcDbEntity
  8
0
100
AcDbBlockEnd
  0
BLOCK
  5
D1
330
D0
100
AcDbEntity
  8
0
100
AcDbBlockBegin
  2
BLOCK29
 70
     0
 10
0.0
 20
0.0
 30
0.0
  3
BLOCK29
  1

  0
LINE
  5
1C5
330
D0
100
AcDbEntity
  8
0
  6
DASHDOT
 62
     7
 48
0.2145
370
    25
100
AcDbLine
 10
-13.71
 20
7.0
 30
0.0
 11
-22.290001
 21
7.0
 31
0.0
  0
LINE
  5
1C6
330
D0
100
AcDbEntity
  8
0
  6
DASHDOT
 62
     7
 48
0.2145
370
    25
100
AcDbLine
 10
-18.0
 20
11.29
 30
0.0
 11
-18.0
 21
2.71
 31
0.0
  0
ENDBLK
  5
D2
330
D0
100
AcDbEntity
  8
0
100
AcDbBlockEnd
  0
BLOCK
  5
D4
330
D3
100
AcDbEntity
  8
0
100
AcDbBlockBegin
  2
BLOCK30
 70
     0
 10
0.0
 20
0.0
 30
0.0
  3
BLOCK30
  1

  0
LINE
  5
1C7
330
D3
100
AcDbEntity
  8
0
  6
DASHDOT
 62
     7
 48
0.2145
370
    25
100
AcDbLine
 10
22.290001
 20
7.0
 30
0.0
 11
13.71
 21
7.0
 31
0.0
  0
LINE
  5
1C8
330
D3
100
AcDbEntity
  8
0
  6
DASHDOT
 62
     7
 48
0.2145
370
    25
100
AcDbLine
 10
18.0
 20
11.29
 30
0.0
 11
18.0
 21
2.71
 31
0.0
  0
ENDBLK
  5
D5
330
D3
100
AcDbEntity
  8
0
100
AcDbBlockEnd
  0
BLOCK
  5
D7
330
D6
100
AcDbEntity
  8
0
100
AcDbBlockBegin
  2
BLOCK31
 70
     0
 10
0.0
 20
0.0
 30
0.0
  3
BLOCK31
  1

  0
LINE
  5
1C9
330
D6
100
AcDbEntity
  8
0
  6
DASHDOT
 62
     7
 48
0.2145
370
    25
100
AcDbLine
 10
-167.210007
 20
-55.0
 30
0.0
 11
-175.789993
 21
-55.0
 31
0.0
  0
LINE
  5
1CA
330
D6
100
AcDbEntity
  8
0
  6
DASHDOT
 62
     7
 48
0.2145
370
    25
100
AcDbLine
 10
-171.5
 20
-50.709999
 30
0.0
 11
-171.5
 21
-59.290001
 31
0.0
  0
ENDBLK
  5
D8
330
D6
100
AcDbEntity
  8
0
100
AcDbBlockEnd
  0
BLOCK
  5
DA
330
D9
100
AcDbEntity
  8
0
100
AcDbBlockBegin
  2
BLOCK32
 70
     0
 10
0.0
 20
0.0
 30
0.0
  3
BLOCK32
  1

  0
LINE
  5
1CB
330
D9
100
AcDbEntity
  8
0
  6
DASHDOT
 62
     7
 48
0.2145
370
    25
100
AcDbLine
 10
22.290001
 20
167.0
 30
0.0
 11
13.71
 21
167.0
 31
0.0
  0
LINE
  5
1CC
330
D9
100
AcDbEntity
  8
0
  6
DASHDOT
 62
     7
 48
0.2145
370
    25
100
AcDbLine
 10
18.0
 20
171.289993
 30
0.0
 11
18.0
 21
162.710007
 31
0.0
  0
ENDBLK
  5
DB
330
D9
100
AcDbEntity
  8
0
100
AcDbBlockEnd
  0
BLOCK
  5
DD
330
DC
100
AcDbEntity
  8
0
100
AcDbBlockBegin
  2
BLOCK33
 70
     0
 10
0.0
 20
0.0
 30
0.0
  3
BLOCK33
  1

  0
LINE
  5
1CD
330
DC
100
AcDbEntity
  8
0
  6
DASHDOT
 62
     7
 48
0.2145
370
    25
100
AcDbLine
 10
175.789993
 20
-55.0
 30
0.0
 11
167.210007
 21
-55.0
 31
0.0
  0
LINE
  5
1CE
330
DC
100
AcDbEntity
  8
0
  6
DASHDOT
 62
     7
 48
0.2145
370
    25
100
AcDbLine
 10
171.5
 20
-50.709999
 30
0.0
 11
171.5
 21
-59.290001
 31
0.0
  0
ENDBLK
  5
DE
330
DC
100
AcDbEntity
  8
0
100
AcDbBlockEnd
  0
BLOCK
  5
E0
330
DF
100
AcDbEntity
  8
0
100
AcDbBlockBegin
  2
BLOCK34
 70
     0
 10
0.0
 20
0.0
 30
0.0
  3
BLOCK34
  1

  0
LINE
  5
1CF
330
DF
100
AcDbEntity
  8
0
  6
DASHDOT
 62
     7
 48
0.2145
370
    25
100
AcDbLine
 10
22.290001
 20
-167.0
 30
0.0
 11
13.71
 21
-167.0
 31
0.0
  0
LINE
  5
1D0
330
DF
100
AcDbEntity
  8
0
  6
DASHDOT
 62
     7
 48
0.2145
370
    25
100
AcDbLine
 10
18.0
 20
-162.710007
 30
0.0
 11
18.0
 21
-171.289993
 31
0.0
  0
ENDBLK
  5
E1
330
DF
100
AcDbEntity
  8
0
100
AcDbBlockEnd
  0
BLOCK
  5
E3
330
E2
100
AcDbEntity
  8
0
100
AcDbBlockBegin
  2
BLOCK35
 70
     0
 10
0.0
 20
0.0
 30
0.0
  3
BLOCK35
  1

  0
LINE
  5
1D1
330
E2
100
AcDbEntity
  8
0
  6
DASHDOT
 62
     7
 48
0.2145
370
    25
100
AcDbLine
 10
-13.71
 20
31.0
 30
0.0
 11
-22.290001
 21
31.0
 31
0.0
  0
LINE
  5
1D2
330
E2
100
AcDbEntity
  8
0
  6
DASHDOT
 62
     7
 48
0.2145
370
    25
100
AcDbLine
 10
-18.0
 20
35.290001
 30
0.0
 11
-18.0
 21
26.709999
 31
0.0
  0
ENDBLK
  5
E4
330
E2
100
AcDbEntity
  8
0
100
AcDbBlockEnd
  0
BLOCK
  5
E6
330
E5
100
AcDbEntity
  8
0
100
AcDbBlockBegin
  2
BLOCK36
 70
     0
 10
0.0
 20
0.0
 30
0.0
  3
BLOCK36
  1

  0
LINE
  5
1D3
330
E5
100
AcDbEntity
  8
0
  6
DASHDOT
 62
     7
 48
0.2145
370
    25
100
AcDbLine
 10
-104.709999
 20
-17.5
 30
0.0
 11
-113.290001
 21
-17.5
 31
0.0
  0
LINE
  5
1D4
330
E5
100
AcDbEntity
  8
0
  6
DASHDOT
 62
     7
 48
0.2145
370
    25
100
AcDbLine
 10
-109.0
 20
-13.21
 30
0.0
 11
-109.0
 21
-21.790001
 31
0.0
  0
ENDBLK
  5
E7
330
E5
100
AcDbEntity
  8
0
100
AcDbBlockEnd
  0
BLOCK
  5
E9
330
E8
100
AcDbEntity
  8
0
100
AcDbBlockBegin
  2
BLOCK37
 70
     0
 10
0.0
 20
0.0
 30
0.0
  3
BLOCK37
  1

  0
LINE
  5
1D5
330
E8
100
AcDbEntity
  8
0
  6
DASHDOT
 62
     7
 48
0.2145
370
    25
100
AcDbLine
 10
-13.71
 20
-31.0
 30
0.0
 11
-22.290001
 21
-31.0
 31
0.0
  0
LINE
  5
1D6
330
E8
100
AcDbEntity
  8
0
  6
DASHDOT
 62
     7
 48
0.2145
370
    25
100
AcDbLine
 10
-18.0
 20
-26.709999
 30
0.0
 11
-18.0
 21
-35.290001
 31
0.0
  0
ENDBLK
  5
EA
330
E8
100
AcDbEntity
  8
0
100
AcDbBlockEnd
  0
BLOCK
  5
EC
330
EB
100
AcDbEntity
  8
0
100
AcDbBlockBegin
  2
BLOCK38
 70
     0
 10
0.0
 20
0.0
 30
0.0
  3
BLOCK38
  1

  0
LINE
  5
1D7
330
EB
100
AcDbEntity
  8
0
  6
DASHDOT
 62
     7
 48
0.2145
370
    25
100
AcDbLine
 10
140.789993
 20
-55.0
 30
0.0
 11
132.210007
 21
-55.0
 31
0.0
  0
LINE
  5
1D8
330
EB
100
AcDbEntity
  8
0
  6
DASHDOT
 62
     7
 48
0.2145
370
    25
100
AcDbLine
 10
136.5
 20
-50.709999
 30
0.0
 11
136.5
 21
-59.290001
 31
0.0
  0
ENDBLK
  5
ED
330
EB
100
AcDbEntity
  8
0
100
AcDbBlockEnd
  0
BLOCK
  5
EF
330
EE
100
AcDbEntity
  8
0
100
AcDbBlockBegin
  2
BLOCK39
 70
     0
 10
0.0
 20
0.0
 30
0.0
  3
BLOCK39
  1

  0
LINE
  5
1D9
330
EE
100
AcDbEntity
  8
0
  6
DASHDOT
 62
     7
 48
0.2145
370
    25
100
AcDbLine
 10
113.290001
 20
-17.5
 30
0.0
 11
104.709999
 21
-17.5
 31
0.0
  0
LINE
  5
1DA
330
EE
100
AcDbEntity
  8
0
  6
DASHDOT
 62
     7
 48
0.2145
370
    25
100
AcDbLine
 10
109.0
 20
-13.21
 30
0.0
 11
109.0
 21
-21.790001
 31
0.0
  0
ENDBLK
  5
F0
330
EE
100
AcDbEntity
  8
0
100
AcDbBlockEnd
  0
BLOCK
  5
F2
330
F1
100
AcDbEntity
  8
0
100
AcDbBlockBegin
  2
BLOCK40
 70
     0
 10
0.0
 20
0.0
 30
0.0
  3
BLOCK40
  1

  0
LINE
  5
1DB
330
F1
100
AcDbEntity
  8
0
  6
DASHDOT
 62
     7
 48
0.2145
370
    25
100
AcDbLine
 10
-132.210007
 20
-55.0
 30
0.0
 11
-140.789993
 21
-55.0
 31
0.0
  0
LINE
  5
1DC
330
F1
100
AcDbEntity
  8
0
  6
DASHDOT
 62
     7
 48
0.2145
370
    25
100
AcDbLine
 10
-136.5
 20
-50.709999
 30
0.0
 11
-136.5
 21
-59.290001
 31
0.0
  0
ENDBLK
  5
F3
330
F1
100
AcDbEntity
  8
0
100
AcDbBlockEnd
  0
BLOCK
  5
F5
330
F4
100
AcDbEntity
  8
0
100
AcDbBlockBegin
  2
BLOCK41
 70
     0
 10
0.0
 20
0.0
 30
0.0
  3
BLOCK41
  1

  0
LINE
  5
1DD
330
F4
100
AcDbEntity
  8
0
  6
DASHDOT
 62
     7
 48
0.2145
370
    25
100
AcDbLine
 10
-13.71
 20
191.0
 30
0.0
 11
-22.290001
 21
191.0
 31
0.0
  0
LINE
  5
1DE
330
F4
100
AcDbEntity
  8
0
  6
DASHDOT
 62
     7
 48
0.2145
370
    25
100
AcDbLine
 10
-18.0
 20
195.289993
 30
0.0
 11
-18.0
 21
186.710007
 31
0.0
  0
ENDBLK
  5
F6
330
F4
100
AcDbEntity
  8
0
100
AcDbBlockEnd
  0
BLOCK
  5
F8
330
F7
100
AcDbEntity
  8
0
100
AcDbBlockBegin
  2
BLOCK42
 70
     0
 10
0.0
 20
0.0
 30
0.0
  3
BLOCK42
  1

  0
LINE
  5
1DF
330
F7
100
AcDbEntity
  8
0
  6
DASHDOT
 62
     7
 48
0.2145
370
    25
100
AcDbLine
 10
22.290001
 20
191.0
 30
0.0
 11
13.71
 21
191.0
 31
0.0
  0
LINE
  5
1E0
330
F7
100
AcDbEntity
  8
0
  6
DASHDOT
 62
     7
 48
0.2145
370
    25
100
AcDbLine
 10
18.0
 20
195.289993
 30
0.0
 11
18.0
 21
186.710007
 31
0.0
  0
ENDBLK
  5
F9
330
F7
100
AcDbEntity
  8
0
100
AcDbBlockEnd
  0
BLOCK
  5
FB
330
FA
100
AcDbEntity
  8
0
100
AcDbBlockBegin
  2
BLOCK43
 70
     0
 10
0.0
 20
0.0
 30
0.0
  3
BLOCK43
  1

  0
LINE
  5
1E1
330
FA
100
AcDbEntity
  8
0
  6
DASHDOT
 62
     7
 48
0.2145
370
    25
100
AcDbLine
 10
-13.71
 20
183.0
 30
0.0
 11
-22.290001
 21
183.0
 31
0.0
  0
LINE
  5
1E2
330
FA
100
AcDbEntity
  8
0
  6
DASHDOT
 62
     7
 48
0.2145
370
    25
100
AcDbLine
 10
-18.0
 20
187.289993
 30
0.0
 11
-18.0
 21
178.710007
 31
0.0
  0
ENDBLK
  5
FC
330
FA
100
AcDbEntity
  8
0
100
AcDbBlockEnd
  0
BLOCK
  5
FE
330
FD
100
AcDbEntity
  8
0
100
AcDbBlockBegin
  2
BLOCK44
 70
     0
 10
0.0
 20
0.0
 30
0.0
  3
BLOCK44
  1

  0
LINE
  5
1E3
330
FD
100
AcDbEntity
  8
0
  6
DASHDOT
 62
     7
 48
0.2145
370
    25
100
AcDbLine
 10
22.290001
 20
183.0
 30
0.0
 11
13.71
 21
183.0
 31
0.0
  0
LINE
  5
1E4
330
FD
100
AcDbEntity
  8
0
  6
DASHDOT
 62
     7
 48
0.2145
370
    25
100
AcDbLine
 10
18.0
 20
187.289993
 30
0.0
 11
18.0
 21
178.710007
 31
0.0
  0
ENDBLK
  5
FF
330
FD
100
AcDbEntity
  8
0
100
AcDbBlockEnd
  0
BLOCK
  5
101
330
100
100
AcDbEntity
  8
0
100
AcDbBlockBegin
  2
BLOCK45
 70
     0
 10
0.0
 20
0.0
 30
0.0
  3
BLOCK45
  1

  0
LINE
  5
1E5
330
100
100
AcDbEntity
  8
0
  6
DASHDOT
 62
     7
 48
0.2145
370
    25
100
AcDbLine
 10
-13.71
 20
175.0
 30
0.0
 11
-22.290001
 21
175.0
 31
0.0
  0
LINE
  5
1E6
330
100
100
AcDbEntity
  8
0
  6
DASHDOT
 62
     7
 48
0.2145
370
    25
100
AcDbLine
 10
-18.0
 20
179.289993
 30
0.0
 11
-18.0
 21
170.710007
 31
0.0
  0
ENDBLK
  5
102
330
100
100
AcDbEntity
  8
0
100
AcDbBlockEnd
  0
BLOCK
  5
104
330
103
100
AcDbEntity
  8
0
100
AcDbBlockBegin
  2
BLOCK46
 70
     0
 10
0.0
 20
0.0
 30
0.0
  3
BLOCK46
  1

  0
LINE
  5
1E7
330
103
100
AcDbEntity
  8
0
  6
DASHDOT
 62
     7
 48
0.2145
370
    25
100
AcDbLine
 10
22.290001
 20
175.0
 30
0.0
 11
13.71
 21
175.0
 31
0.0
  0
LINE
  5
1E8
330
103
100
AcDbEntity
  8
0
  6
DASHDOT
 62
     7
 48
0.2145
370
    25
100
AcDbLine
 10
18.0
 20
179.289993
 30
0.0
 11
18.0
 21
170.710007
 31
0.0
  0
ENDBLK
  5
105
330
103
100
AcDbEntity
  8
0
100
AcDbBlockEnd
  0
BLOCK
  5
107
330
106
100
AcDbEntity
  8
0
100
AcDbBlockBegin
  2
BLOCK47
 70
     0
 10
0.0
 20
0.0
 30
0.0
  3
BLOCK47
  1

  0
LINE
  5
1E9
330
106
100
AcDbEntity
  8
0
  6
DASHDOT
 62
     7
 48
0.2145
370
    25
100
AcDbLine
 10
-13.71
 20
167.0
 30
0.0
 11
-22.290001
 21
167.0
 31
0.0
  0
LINE
  5
1EA
330
106
100
AcDbEntity
  8
0
  6
DASHDOT
 62
     7
 48
0.2145
370
    25
100
AcDbLine
 10
-18.0
 20
171.289993
 30
0.0
 11
-18.0
 21
162.710007
 31
0.0
  0
ENDBLK
  5
108
330
106
100
AcDbEntity
  8
0
100
AcDbBlockEnd
  0
BLOCK
  5
10A
330
109
100
AcDbEntity
  8
0
100
AcDbBlockBegin
  2
BLOCK48
 70
     0
 10
0.0
 20
0.0
 30
0.0
  3
BLOCK48
  1

  0
LINE
  5
1EB
330
109
100
AcDbEntity
  8
0
  6
DASHDOT
 62
     7
 48
0.2145
370
    25
100
AcDbLine
 10
22.290001
 20
-7.0
 30
0.0
 11
13.71
 21
-7.0
 31
0.0
  0
LINE
  5
1EC
330
109
100
AcDbEntity
  8
0
  6
DASHDOT
 62
     7
 48
0.2145
370
    25
100
AcDbLine
 10
18.0
 20
-2.71
 30
0.0
 11
18.0
 21
-11.29
 31
0.0
  0
ENDBLK
  5
10B
330
109
100
AcDbEntity
  8
0
100
AcDbBlockEnd
  0
BLOCK
  5
10D
330
10C
100
AcDbEntity
  8
0
100
AcDbBlockBegin
  2
BLOCK49
 70
     0
 10
0.0
 20
0.0
 30
0.0
  3
BLOCK49
  1

  0
LINE
  5
1ED
330
10C
100
AcDbEntity
  8
0
  6
DASHDOT
 62
     7
 48
0.2145
370
    25
100
AcDbLine
 10
-13.71
 20
-7.0
 30
0.0
 11
-22.290001
 21
-7.0
 31
0.0
  0
LINE
  5
1EE
330
10C
100
AcDbEntity
  8
0
  6
DASHDOT
 62
     7
 48
0.2145
370
    25
100
AcDbLine
 10
-18.0
 20
-2.71
 30
0.0
 11
-18.0
 21
-11.29
 31
0.0
  0
ENDBLK
  5
10E
330
10C
100
AcDbEntity
  8
0
100
AcDbBlockEnd
  0
BLOCK
  5
110
330
10F
100
AcDbEntity
  8
0
100
AcDbBlockBegin
  2
BLOCK50
 70
     0
 10
0.0
 20
0.0
 30
0.0
  3
BLOCK50
  1

  0
LINE
  5
1EF
330
10F
100
AcDbEntity
  8
0
  6
DASHDOT
 62
     7
 48
0.2145
370
    25
100
AcDbLine
 10
22.290001
 20
-15.0
 30
0.0
 11
13.71
 21
-15.0
 31
0.0
  0
LINE
  5
1F0
330
10F
100
AcDbEntity
  8
0
  6
DASHDOT
 62
     7
 48
0.2145
370
    25
100
AcDbLine
 10
18.0
 20
-10.71
 30
0.0
 11
18.0
 21
-19.290001
 31
0.0
  0
ENDBLK
  5
111
330
10F
100
AcDbEntity
  8
0
100
AcDbBlockEnd
  0
BLOCK
  5
113
330
112
100
AcDbEntity
  8
0
100
AcDbBlockBegin
  2
BLOCK51
 70
     0
 10
0.0
 20
0.0
 30
0.0
  3
BLOCK51
  1

  0
LINE
  5
1F1
330
112
100
AcDbEntity
  8
0
  6
DASHDOT
 62
     7
 48
0.2145
370
    25
100
AcDbLine
 10
-13.71
 20
-15.0
 30
0.0
 11
-22.290001
 21
-15.0
 31
0.0
  0
LINE
  5
1F2
330
112
100
AcDbEntity
  8
0
  6
DASHDOT
 62
     7
 48
0.2145
370
    25
100
AcDbLine
 10
-18.0
 20
-10.71
 30
0.0
 11
-18.0
 21
-19.290001
 31
0.0
  0
ENDBLK
  5
114
330
112
100
AcDbEntity
  8
0
100
AcDbBlockEnd
  0
BLOCK
  5
116
330
115
100
AcDbEntity
  8
0
100
AcDbBlockBegin
  2
BLOCK52
 70
     0
 10
0.0
 20
0.0
 30
0.0
  3
BLOCK52
  1

  0
LINE
  5
1F3
330
115
100
AcDbEntity
  8
0
  6
DASHDOT
 62
     7
 48
0.2145
370
    25
100
AcDbLine
 10
22.290001
 20
-23.0
 30
0.0
 11
13.71
 21
-23.0
 31
0.0
  0
LINE
  5
1F4
330
115
100
AcDbEntity
  8
0
  6
DASHDOT
 62
     7
 48
0.2145
370
    25
100
AcDbLine
 10
18.0
 20
-18.709999
 30
0.0
 11
18.0
 21
-27.290001
 31
0.0
  0
ENDBLK
  5
117
330
115
100
AcDbEntity
  8
0
100
AcDbBlockEnd
  0
BLOCK
  5
119
330
118
100
AcDbEntity
  8
0
100
AcDbBlockBegin
  2
BLOCK53
 70
     0
 10
0.0
 20
0.0
 30
0.0
  3
BLOCK53
  1

  0
LINE
  5
1F5
330
118
100
AcDbEntity
  8
0
  6
DASHDOT
 62
     7
 48
0.2145
370
    25
100
AcDbLine
 10
-13.71
 20
-23.0
 30
0.0
 11
-22.290001
 21
-23.0
 31
0.0
  0
LINE
  5
1F6
330
118
100
AcDbEntity
  8
0
  6
DASHDOT
 62
     7
 48
0.2145
370
    25
100
AcDbLine
 10
-18.0
 20
-18.709999
 30
0.0
 11
-18.0
 21
-27.290001
 31
0.0
  0
ENDBLK
  5
11A
330
118
100
AcDbEntity
  8
0
100
AcDbBlockEnd
  0
BLOCK
  5
11C
330
11B
100
AcDbEntity
  8
0
100
AcDbBlockBegin
  2
BLOCK54
 70
     0
 10
0.0
 20
0.0
 30
0.0
  3
BLOCK54
  1

  0
LINE
  5
1F7
330
11B
100
AcDbEntity
  8
0
  6
DASHDOT
 62
     7
 48
0.2145
370
    25
100
AcDbLine
 10
22.290001
 20
-31.0
 30
0.0
 11
13.71
 21
-31.0
 31
0.0
  0
LINE
  5
1F8
330
11B
100
AcDbEntity
  8
0
  6
DASHDOT
 62
     7
 48
0.2145
370
    25
100
AcDbLine
 10
18.0
 20
-26.709999
 30
0.0
 11
18.0
 21
-35.290001
 31
0.0
  0
ENDBLK
  5
11D
330
11B
100
AcDbEntity
  8
0
100
AcDbBlockEnd
  0
BLOCK
  5
11F
330
11E
100
AcDbEntity
  8
0
100
AcDbBlockBegin
  2
BLOCK55
 70
     0
 10
0.0
 20
0.0
 30
0.0
  3
BLOCK55
  1

  0
LINE
  5
1F9
330
11E
100
AcDbEntity
  8
0
  6
DASHDOT
 62
     7
 48
0.2145
370
    25
100
AcDbLine
 10
-124.709999
 20
17.5
 30
0.0
 11
-133.289993
 21
17.5
 31
0.0
  0
LINE
  5
1FA
330
11E
100
AcDbEntity
  8
0
  6
DASHDOT
 62
     7
 48
0.2145
370
    25
100
AcDbLine
 10
-129.0
 20
21.790001
 30
0.0
 11
-129.0
 21
13.21
 31
0.0
  0
ENDBLK
  5
120
330
11E
100
AcDbEntity
  8
0
100
AcDbBlockEnd
  0
BLOCK
  5
122
330
121
100
AcDbEntity
  8
0
100
AcDbBlockBegin
  2
BLOCK56
 70
     0
 10
0.0
 20
0.0
 30
0.0
  3
BLOCK56
  1

  0
LINE
  5
1FB
330
121
100
AcDbEntity
  8
0
  6
DASHDOT
 62
     7
 48
0.2145
370
    25
100
AcDbLine
 10
-114.709999
 20
17.5
 30
0.0
 11
-123.290001
 21
17.5
 31
0.0
  0
LINE
  5
1FC
330
121
100
AcDbEntity
  8
0
  6
DASHDOT
 62
     7
 48
0.2145
370
    25
100
AcDbLine
 10
-119.0
 20
21.790001
 30
0.0
 11
-119.0
 21
13.21
 31
0.0
  0
ENDBLK
  5
123
330
121
100
AcDbEntity
  8
0
100
AcDbBlockEnd
  0
BLOCK
  5
125
330
124
100
AcDbEntity
  8
0
100
AcDbBlockBegin
  2
BLOCK57
 70
     0
 10
0.0
 20
0.0
 30
0.0
  3
BLOCK57
  1

  0
LINE
  5
1FD
330
124
100
AcDbEntity
  8
0
  6
DASHDOT
 62
     7
 48
0.2145
370
    25
100
AcDbLine
 10
-104.709999
 20
17.5
 30
0.0
 11
-113.290001
 21
17.5
 31
0.0
  0
LINE
  5
1FE
330
124
100
AcDbEntity
  8
0
  6
DASHDOT
 62
     7
 48
0.2145
370
    25
100
AcDbLine
 10
-109.0
 20
21.790001
 30
0.0
 11
-109.0
 21
13.21
 31
0.0
  0
ENDBLK
  5
126
330
124
100
AcDbEntity
  8
0
100
AcDbBlockEnd
  0
BLOCK
  5
128
330
127
100
AcDbEntity
  8
0
100
AcDbBlockBegin
  2
BLOCK58
 70
     0
 10
0.0
 20
0.0
 30
0.0
  3
BLOCK58
  1

  0
LINE
  5
1FF
330
127
100
AcDbEntity
  8
0
  6
DASHDOT
 62
     7
 48
0.2145
370
    25
100
AcDbLine
 10
-124.709999
 20
-17.5
 30
0.0
 11
-133.289993
 21
-17.5
 31
0.0
  0
LINE
  5
200
330
127
100
AcDbEntity
  8
0
  6
DASHDOT
 62
     7
 48
0.2145
370
    25
100
AcDbLine
 10
-129.0
 20
-13.21
 30
0.0
 11
-129.0
 21
-21.790001
 31
0.0
  0
ENDBLK
  5
129
330
127
100
AcDbEntity
  8
0
100
AcDbBlockEnd
  0
BLOCK
  5
12B
330
12A
100
AcDbEntity
  8
0
100
AcDbBlockBegin
  2
BLOCK59
 70
     0
 10
0.0
 20
0.0
 30
0.0
  3
BLOCK59
  1

  0
LINE
  5
201
330
12A
100
AcDbEntity
  8
0
  6
DASHDOT
 62
     7
 48
0.2145
370
    25
100
AcDbLine
 10
-114.709999
 20
-17.5
 30
0.0
 11
-123.290001
 21
-17.5
 31
0.0
  0
LINE
  5
202
330
12A
100
AcDbEntity
  8
0
  6
DASHDOT
 62
     7
 48
0.2145
370
    25
100
AcDbLine
 10
-119.0
 20
-13.21
 30
0.0
 11
-119.0
 21
-21.790001
 31
0.0
  0
ENDBLK
  5
12C
330
12A
100
AcDbEntity
  8
0
100
AcDbBlockEnd
  0
BLOCK
  5
12E
330
12D
100
AcDbEntity
  8
0
100
AcDbBlockBegin
  2
BLOCK60
 70
     0
 10
0.0
 20
0.0
 30
0.0
  3
BLOCK60
  1

  0
LINE
  5
203
330
12D
100
AcDbEntity
  8
0
  6
DASHDOT
 62
     7
 48
0.2145
370
    25
100
AcDbLine
 10
-187.210007
 20
55.0
 30
0.0
 11
-195.789993
 21
55.0
 31
0.0
  0
LINE
  5
204
330
12D
100
AcDbEntity
  8
0
  6
DASHDOT
 62
     7
 48
0.2145
370
    25
100
AcDbLine
 10
-191.5
 20
59.290001
 30
0.0
 11
-191.5
 21
50.709999
 31
0.0
  0
ENDBLK
  5
12F
330
12D
100
AcDbEntity
  8
0
100
AcDbBlockEnd
  0
BLOCK
  5
131
330
130
100
AcDbEntity
  8
0
100
AcDbBlockBegin
  2
BLOCK61
 70
     0
 10
0.0
 20
0.0
 30
0.0
  3
BLOCK61
  1

  0
LINE
  5
205
330
130
100
AcDbEntity
  8
0
  6
DASHDOT
 62
     7
 48
0.2145
370
    25
100
AcDbLine
 10
-177.210007
 20
55.0
 30
0.0
 11
-185.789993
 21
55.0
 31
0.0
  0
LINE
  5
206
330
130
100
AcDbEntity
  8
0
  6
DASHDOT
 62
     7
 48
0.2145
370
    25
100
AcDbLine
 10
-181.5
 20
59.290001
 30
0.0
 11
-181.5
 21
50.709999
 31
0.0
  0
ENDBLK
  5
132
330
130
100
AcDbEntity
  8
0
100
AcDbBlockEnd
  0
BLOCK
  5
134
330
133
100
AcDbEntity
  8
0
100
AcDbBlockBegin
  2
BLOCK62
 70
     0
 10
0.0
 20
0.0
 30
0.0
  3
BLOCK62
  1

  0
LINE
  5
207
330
133
100
AcDbEntity
  8
0
  6
DASHDOT
 62
     7
 48
0.2145
370
    25
100
AcDbLine
 10
-167.210007
 20
55.0
 30
0.0
 11
-175.789993
 21
55.0
 31
0.0
  0
LINE
  5
208
330
133
100
AcDbEntity
  8
0
  6
DASHDOT
 62
     7
 48
0.2145
370
    25
100
AcDbLine
 10
-171.5
 20
59.290001
 30
0.0
 11
-171.5
 21
50.709999
 31
0.0
  0
ENDBLK
  5
135
330
133
100
AcDbEntity
  8
0
100
AcDbBlockEnd
  0
BLOCK
  5
137
330
136
100
AcDbEntity
  8
0
100
AcDbBlockBegin
  2
BLOCK63
 70
     0
 10
0.0
 20
0.0
 30
0.0
  3
BLOCK63
  1

  0
LINE
  5
209
330
136
100
AcDbEntity
  8
0
  6
DASHDOT
 62
     7
 48
0.2145
370
    25
100
AcDbLine
 10
-187.210007
 20
-55.0
 30
0.0
 11
-195.789993
 21
-55.0
 31
0.0
  0
LINE
  5
20A
330
136
100
AcDbEntity
  8
0
  6
DASHDOT
 62
     7
 48
0.2145
370
    25
100
AcDbLine
 10
-191.5
 20
-50.709999
 30
0.0
 11
-191.5
 21
-59.290001
 31
0.0
  0
ENDBLK
  5
138
330
136
100
AcDbEntity
  8
0
100
AcDbBlockEnd
  0
BLOCK
  5
13A
330
139
100
AcDbEntity
  8
0
100
AcDbBlockBegin
  2
BLOCK64
 70
     0
 10
0.0
 20
0.0
 30
0.0
  3
BLOCK64
  1

  0
LINE
  5
20B
330
139
100
AcDbEntity
  8
0
  6
DASHDOT
 62
     7
 48
0.2145
370
    25
100
AcDbLine
 10
-177.210007
 20
-55.0
 30
0.0
 11
-185.789993
 21
-55.0
 31
0.0
  0
LINE
  5
20C
330
139
100
AcDbEntity
  8
0
  6
DASHDOT
 62
     7
 48
0.2145
370
    25
100
AcDbLine
 10
-181.5
 20
-50.709999
 30
0.0
 11
-181.5
 21
-59.290001
 31
0.0
  0
ENDBLK
  5
13B
330
139
100
AcDbEntity
  8
0
100
AcDbBlockEnd
  0
BLOCK
  5
13D
330
13C
100
AcDbEntity
  8
0
100
AcDbBlockBegin
  2
BLOCK65
 70
     0
 10
0.0
 20
0.0
 30
0.0
  3
BLOCK65
  1

  0
LINE
  5
20D
330
13C
100
AcDbEntity
  8
0
  6
DASHDOT
 62
     7
 48
0.2145
370
    25
100
AcDbLine
 10
195.789993
 20
55.0
 30
0.0
 11
187.210007
 21
55.0
 31
0.0
  0
LINE
  5
20E
330
13C
100
AcDbEntity
  8
0
  6
DASHDOT
 62
     7
 48
0.2145
370
    25
100
AcDbLine
 10
191.5
 20
59.290001
 30
0.0
 11
191.5
 21
50.709999
 31
0.0
  0
ENDBLK
  5
13E
330
13C
100
AcDbEntity
  8
0
100
AcDbBlockEnd
  0
BLOCK
  5
140
330
13F
100
AcDbEntity
  8
0
100
AcDbBlockBegin
  2
BLOCK66
 70
     0
 10
0.0
 20
0.0
 30
0.0
  3
BLOCK66
  1

  0
LINE
  5
20F
330
13F
100
AcDbEntity
  8
0
  6
DASHDOT
 62
     7
 48
0.2145
370
    25
100
AcDbLine
 10
185.789993
 20
55.0
 30
0.0
 11
177.210007
 21
55.0
 31
0.0
  0
LINE
  5
210
330
13F
100
AcDbEntity
  8
0
  6
DASHDOT
 62
     7
 48
0.2145
370
    25
100
AcDbLine
 10
181.5
 20
59.290001
 30
0.0
 11
181.5
 21
50.709999
 31
0.0
  0
ENDBLK
  5
141
330
13F
100
AcDbEntity
  8
0
100
AcDbBlockEnd
  0
BLOCK
  5
143
330
142
100
AcDbEntity
  8
0
100
AcDbBlockBegin
  2
BLOCK67
 70
     0
 10
0.0
 20
0.0
 30
0.0
  3
BLOCK67
  1

  0
LINE
  5
211
330
142
100
AcDbEntity
  8
0
  6
DASHDOT
 62
     7
 48
0.2145
370
    25
100
AcDbLine
 10
175.789993
 20
55.0
 30
0.0
 11
167.210007
 21
55.0
 31
0.0
  0
LINE
  5
212
330
142
100
AcDbEntity
  8
0
  6
DASHDOT
 62
     7
 48
0.2145
370
    25
100
AcDbLine
 10
171.5
 20
59.290001
 30
0.0
 11
171.5
 21
50.709999
 31
0.0
  0
ENDBLK
  5
144
330
142
100
AcDbEntity
  8
0
100
AcDbBlockEnd
  0
BLOCK
  5
146
330
145
100
AcDbEntity
  8
0
100
AcDbBlockBegin
  2
BLOCK68
 70
     0
 10
0.0
 20
0.0
 30
0.0
  3
BLOCK68
  1

  0
LINE
  5
213
330
145
100
AcDbEntity
  8
0
  6
DASHDOT
 62
     7
 48
0.2145
370
    25
100
AcDbLine
 10
195.789993
 20
-55.0
 30
0.0
 11
187.210007
 21
-55.0
 31
0.0
  0
LINE
  5
214
330
145
100
AcDbEntity
  8
0
  6
DASHDOT
 62
     7
 48
0.2145
370
    25
100
AcDbLine
 10
191.5
 20
-50.709999
 30
0.0
 11
191.5
 21
-59.290001
 31
0.0
  0
ENDBLK
  5
147
330
145
100
AcDbEntity
  8
0
100
AcDbBlockEnd
  0
BLOCK
  5
149
330
148
100
AcDbEntity
  8
0
100
AcDbBlockBegin
  2
BLOCK69
 70
     0
 10
0.0
 20
0.0
 30
0.0
  3
BLOCK69
  1

  0
LINE
  5
215
330
148
100
AcDbEntity
  8
0
  6
DASHDOT
 62
     7
 48
0.2145
370
    25
100
AcDbLine
 10
185.789993
 20
-55.0
 30
0.0
 11
177.210007
 21
-55.0
 31
0.0
  0
LINE
  5
216
330
148
100
AcDbEntity
  8
0
  6
DASHDOT
 62
     7
 48
0.2145
370
    25
100
AcDbLine
 10
181.5
 20
-50.709999
 30
0.0
 11
181.5
 21
-59.290001
 31
0.0
  0
ENDBLK
  5
14A
330
148
100
AcDbEntity
  8
0
100
AcDbBlockEnd
  0
BLOCK
  5
14C
330
14B
100
AcDbEntity
  8
0
100
AcDbBlockBegin
  2
BLOCK70
 70
     0
 10
0.0
 20
0.0
 30
0.0
  3
BLOCK70
  1

  0
CIRCLE
  5
217
330
14B
100
AcDbEntity
  8
0
 62
     7
370
    50
100
AcDbCircle
 10
-18.0
 20
-167.0
 30
0.0
 40
3.300000000000001
  0
CIRCLE
  5
218
330
14B
100
AcDbEntity
  8
0
 62
     7
370
    50
100
AcDbCircle
 10
18.0
 20
-175.0
 30
0.0
 40
3.300000000000001
  0
CIRCLE
  5
219
330
14B
100
AcDbEntity
  8
0
 62
     7
370
    50
100
AcDbCircle
 10
-18.0
 20
-175.0
 30
0.0
 40
3.300000000000001
  0
CIRCLE
  5
21A
330
14B
100
AcDbEntity
  8
0
 62
     7
370
    50
100
AcDbCircle
 10
18.0
 20
-183.0
 30
0.0
 40
3.300000000000001
  0
CIRCLE
  5
21B
330
14B
100
AcDbEntity
  8
0
 62
     7
370
    50
100
AcDbCircle
 10
-18.0
 20
-183.0
 30
0.0
 40
3.300000000000001
  0
CIRCLE
  5
21C
330
14B
100
AcDbEntity
  8
0
 62
     7
370
    50
100
AcDbCircle
 10
18.0
 20
-191.0
 30
0.0
 40
3.300000000000001
  0
CIRCLE
  5
21D
330
14B
100
AcDbEntity
  8
0
 62
     7
370
    50
100
AcDbCircle
 10
-18.0
 20
-191.0
 30
0.0
 40
3.300000000000001
  0
LINE
  5
21E
330
14B
100
AcDbEntity
  8
0
  6
DASHDOT
 62
     7
370
    25
100
AcDbLine
 10
222.0
 20
197.0
 30
0.0
 11
222.0
 21
-197.0
 31
0.0
  0
LINE
  5
21F
330
14B
100
AcDbEntity
  8
0
  6
DASHDOT
 62
     7
370
    25
100
AcDbLine
 10
-222.0
 20
197.0
 30
0.0
 11
222.0
 21
197.0
 31
0.0
  0
LINE
  5
220
330
14B
100
AcDbEntity
  8
0
  6
DASHDOT
 62
     7
370
    25
100
AcDbLine
 10
-222.0
 20
-197.0
 30
0.0
 11
-222.0
 21
197.0
 31
0.0
  0
LINE
  5
221
330
14B
100
AcDbEntity
  8
0
  6
DASHDOT
 62
     7
370
    25
100
AcDbLine
 10
222.0
 20
-197.0
 30
0.0
 11
-222.0
 21
-197.0
 31
0.0
  0
CIRCLE
  5
222
330
14B
100
AcDbEntity
  8
0
 62
     7
370
    50
100
AcDbCircle
 10
-171.5
 20
-55.0
 30
0.0
 40
3.300000000000011
  0
CIRCLE
  5
223
330
14B
100
AcDbEntity
  8
0
 62
     7
370
    50
100
AcDbCircle
 10
-136.5
 20
-55.0
 30
0.0
 40
3.300000000000011
  0
CIRCLE
  5
224
330
14B
100
AcDbEntity
  8
0
 62
     7
370
    50
100
AcDbCircle
 10
18.0
 20
167.0
 30
0.0
 40
3.300000000000001
  0
CIRCLE
  5
225
330
14B
100
AcDbEntity
  8
0
 62
     7
370
    50
100
AcDbCircle
 10
109.0
 20
-17.5
 30
0.0
 40
3.299999999999997
  0
CIRCLE
  5
226
330
14B
100
AcDbEntity
  8
0
 62
     7
370
    50
100
AcDbCircle
 10
171.5
 20
-55.0
 30
0.0
 40
3.300000000000011
  0
CIRCLE
  5
227
330
14B
100
AcDbEntity
  8
0
 62
     7
370
    50
100
AcDbCircle
 10
136.5
 20
-55.0
 30
0.0
 40
3.300000000000011
  0
CIRCLE
  5
228
330
14B
100
AcDbEntity
  8
0
 62
     7
370
    50
100
AcDbCircle
 10
18.0
 20
-167.0
 30
0.0
 40
3.300000000000001
  0
CIRCLE
  5
229
330
14B
100
AcDbEntity
  8
0
 62
     7
370
    50
100
AcDbCircle
 10
-18.0
 20
-31.0
 30
0.0
 40
3.300000000000001
  0
CIRCLE
  5
22A
330
14B
100
AcDbEntity
  8
0
 62
     7
370
    50
100
AcDbCircle
 10
-18.0
 20
31.0
 30
0.0
 40
3.300000000000001
  0
CIRCLE
  5
22B
330
14B
100
AcDbEntity
  8
0
 62
     7
370
    50
100
AcDbCircle
 10
-109.0
 20
-17.5
 30
0.0
 40
3.299999999999997
  0
LINE
  5
22C
330
14B
100
AcDbEntity
  8
0
 62
     7
370
    50
100
AcDbLine
 10
99.9
 20
-35.1
 30
0.0
 11
101.6
 21
-35.1
 31
0.0
  0
LINE
  5
22D
330
14B
100
AcDbEntity
  8
0
 62
     7
370
    50
100
AcDbLine
 10
101.6
 20
-41.9
 30
0.0
 11
101.6
 21
-35.1
 31
0.0
  0
LINE
  5
22E
330
14B
100
AcDbEntity
  8
0
 62
     7
370
    50
100
AcDbLine
 10
99.9
 20
-41.9
 30
0.0
 11
101.6
 21
-41.9
 31
0.0
  0
LINE
  5
22F
330
14B
100
AcDbEntity
  8
0
 62
     7
370
    50
100
AcDbLine
 10
99.9
 20
-41.9
 30
0.0
 11
99.9
 21
-35.1
 31
0.0
  0
LINE
  5
230
330
14B
100
AcDbEntity
  8
0
 62
     7
370
    50
100
AcDbLine
 10
109.9
 20
-35.1
 30
0.0
 11
111.6
 21
-35.1
 31
0.0
  0
LINE
  5
231
330
14B
100
AcDbEntity
  8
0
 62
     7
370
    50
100
AcDbLine
 10
111.6
 20
-41.9
 30
0.0
 11
111.6
 21
-35.1
 31
0.0
  0
LINE
  5
232
330
14B
100
AcDbEntity
  8
0
 62
     7
370
    50
100
AcDbLine
 10
109.9
 20
-41.9
 30
0.0
 11
111.6
 21
-41.9
 31
0.0
  0
LINE
  5
233
330
14B
100
AcDbEntity
  8
0
 62
     7
370
    50
100
AcDbLine
 10
109.9
 20
-41.9
 30
0.0
 11
109.9
 21
-35.1
 31
0.0
  0
LINE
  5
234
330
14B
100
AcDbEntity
  8
0
 62
     7
370
    50
100
AcDbLine
 10
119.9
 20
-35.1
 30
0.0
 11
121.6
 21
-35.1
 31
0.0
  0
LINE
  5
235
330
14B
100
AcDbEntity
  8
0
 62
     7
370
    50
100
AcDbLine
 10
121.6
 20
-41.9
 30
0.0
 11
121.6
 21
-35.1
 31
0.0
  0
LINE
  5
236
330
14B
100
AcDbEntity
  8
0
 62
     7
370
    50
100
AcDbLine
 10
119.9
 20
-41.9
 30
0.0
 11
121.6
 21
-41.9
 31
0.0
  0
LINE
  5
237
330
14B
100
AcDbEntity
  8
0
 62
     7
370
    50
100
AcDbLine
 10
119.9
 20
-41.9
 30
0.0
 11
119.9
 21
-35.1
 31
0.0
  0
LINE
  5
238
330
14B
100
AcDbEntity
  8
0
 62
     7
370
    50
100
AcDbLine
 10
101.6
 20
35.1
 30
0.0
 11
101.6
 21
41.9
 31
0.0
  0
LINE
  5
239
330
14B
100
AcDbEntity
  8
0
 62
     7
370
    50
100
AcDbLine
 10
99.9
 20
35.1
 30
0.0
 11
101.6
 21
35.1
 31
0.0
  0
LINE
  5
23A
330
14B
100
AcDbEntity
  8
0
 62
     7
370
    50
100
AcDbLine
 10
99.9
 20
35.1
 30
0.0
 11
99.9
 21
41.9
 31
0.0
  0
LINE
  5
23B
330
14B
100
AcDbEntity
  8
0
 62
     7
370
    50
100
AcDbLine
 10
99.9
 20
41.9
 30
0.0
 11
101.6
 21
41.9
 31
0.0
  0
LINE
  5
23C
330
14B
100
AcDbEntity
  8
0
 62
     7
370
    50
100
AcDbLine
 10
111.6
 20
35.1
 30
0.0
 11
111.6
 21
41.9
 31
0.0
  0
LINE
  5
23D
330
14B
100
AcDbEntity
  8
0
 62
     7
370
    50
100
AcDbLine
 10
109.9
 20
35.1
 30
0.0
 11
111.6
 21
35.1
 31
0.0
  0
LINE
  5
23E
330
14B
100
AcDbEntity
  8
0
 62
     7
370
    50
100
AcDbLine
 10
109.9
 20
35.1
 30
0.0
 11
109.9
 21
41.9
 31
0.0
  0
LINE
  5
23F
330
14B
100
AcDbEntity
  8
0
 62
     7
370
    50
100
AcDbLine
 10
109.9
 20
41.9
 30
0.0
 11
111.6
 21
41.9
 31
0.0
  0
LINE
  5
240
330
14B
100
AcDbEntity
  8
0
 62
     7
370
    50
100
AcDbLine
 10
121.6
 20
35.1
 30
0.0
 11
121.6
 21
41.9
 31
0.0
  0
LINE
  5
241
330
14B
100
AcDbEntity
  8
0
 62
     7
370
    50
100
AcDbLine
 10
119.9
 20
35.1
 30
0.0
 11
121.6
 21
35.1
 31
0.0
  0
LINE
  5
242
330
14B
100
AcDbEntity
  8
0
 62
     7
370
    50
100
AcDbLine
 10
119.9
 20
35.1
 30
0.0
 11
119.9
 21
41.9
 31
0.0
  0
LINE
  5
243
330
14B
100
AcDbEntity
  8
0
 62
     7
370
    50
100
AcDbLine
 10
119.9
 20
41.9
 30
0.0
 11
121.6
 21
41.9
 31
0.0
  0
LINE
  5
244
330
14B
100
AcDbEntity
  8
0
 62
     7
370
    50
100
AcDbLine
 10
-101.6
 20
-41.9
 30
0.0
 11
-101.6
 21
-35.1
 31
0.0
  0
LINE
  5
245
330
14B
100
AcDbEntity
  8
0
 62
     7
370
    50
100
AcDbLine
 10
-101.6
 20
-35.1
 30
0.0
 11
-99.9
 21
-35.1
 31
0.0
  0
LINE
  5
246
330
14B
100
AcDbEntity
  8
0
 62
     7
370
    50
100
AcDbLine
 10
-99.9
 20
-41.9
 30
0.0
 11
-99.9
 21
-35.1
 31
0.0
  0
LINE
  5
247
330
14B
100
AcDbEntity
  8
0
 62
     7
370
    50
100
AcDbLine
 10
-101.6
 20
-41.9
 30
0.0
 11
-99.9
 21
-41.9
 31
0.0
  0
LINE
  5
248
330
14B
100
AcDbEntity
  8
0
 62
     7
370
    50
100
AcDbLine
 10
-111.6
 20
-41.9
 30
0.0
 11
-111.6
 21
-35.1
 31
0.0
  0
LINE
  5
249
330
14B
100
AcDbEntity
  8
0
 62
     7
370
    50
100
AcDbLine
 10
-111.6
 20
-35.1
 30
0.0
 11
-109.9
 21
-35.1
 31
0.0
  0
LINE
  5
24A
330
14B
100
AcDbEntity
  8
0
 62
     7
370
    50
100
AcDbLine
 10
-109.9
 20
-41.9
 30
0.0
 11
-109.9
 21
-35.1
 31
0.0
  0
LINE
  5
24B
330
14B
100
AcDbEntity
  8
0
 62
     7
370
    50
100
AcDbLine
 10
-111.6
 20
-41.9
 30
0.0
 11
-109.9
 21
-41.9
 31
0.0
  0
LINE
  5
24C
330
14B
100
AcDbEntity
  8
0
 62
     7
370
    50
100
AcDbLine
 10
-121.6
 20
-41.9
 30
0.0
 11
-121.6
 21
-35.1
 31
0.0
  0
LINE
  5
24D
330
14B
100
AcDbEntity
  8
0
 62
     7
370
    50
100
AcDbLine
 10
-121.6
 20
-35.1
 30
0.0
 11
-119.9
 21
-35.1
 31
0.0
  0
LINE
  5
24E
330
14B
100
AcDbEntity
  8
0
 62
     7
370
    50
100
AcDbLine
 10
-119.9
 20
-41.9
 30
0.0
 11
-119.9
 21
-35.1
 31
0.0
  0
LINE
  5
24F
330
14B
100
AcDbEntity
  8
0
 62
     7
370
    50
100
AcDbLine
 10
-121.6
 20
-41.9
 30
0.0
 11
-119.9
 21
-41.9
 31
0.0
  0
LINE
  5
250
330
14B
100
AcDbEntity
  8
0
 62
     7
370
    50
100
AcDbLine
 10
-101.6
 20
35.1
 30
0.0
 11
-99.9
 21
35.1
 31
0.0
  0
LINE
  5
251
330
14B
100
AcDbEntity
  8
0
 62
     7
370
    50
100
AcDbLine
 10
-101.6
 20
35.1
 30
0.0
 11
-101.6
 21
41.9
 31
0.0
  0
LINE
  5
252
330
14B
100
AcDbEntity
  8
0
 62
     7
370
    50
100
AcDbLine
 10
-101.6
 20
41.9
 30
0.0
 11
-99.9
 21
41.9
 31
0.0
  0
LINE
  5
253
330
14B
100
AcDbEntity
  8
0
 62
     7
370
    50
100
AcDbLine
 10
-99.9
 20
35.1
 30
0.0
 11
-99.9
 21
41.9
 31
0.0
  0
LINE
  5
254
330
14B
100
AcDbEntity
  8
0
 62
     7
370
    50
100
AcDbLine
 10
-111.6
 20
35.1
 30
0.0
 11
-109.9
 21
35.1
 31
0.0
  0
LINE
  5
255
330
14B
100
AcDbEntity
  8
0
 62
     7
370
    50
100
AcDbLine
 10
-111.6
 20
35.1
 30
0.0
 11
-111.6
 21
41.9
 31
0.0
  0
LINE
  5
256
330
14B
100
AcDbEntity
  8
0
 62
     7
370
    50
100
AcDbLine
 10
-111.6
 20
41.9
 30
0.0
 11
-109.9
 21
41.9
 31
0.0
  0
LINE
  5
257
330
14B
100
AcDbEntity
  8
0
 62
     7
370
    50
100
AcDbLine
 10
-109.9
 20
35.1
 30
0.0
 11
-109.9
 21
41.9
 31
0.0
  0
LINE
  5
258
330
14B
100
AcDbEntity
  8
0
 62
     7
370
    50
100
AcDbLine
 10
-121.6
 20
35.1
 30
0.0
 11
-119.9
 21
35.1
 31
0.0
  0
LINE
  5
259
330
14B
100
AcDbEntity
  8
0
 62
     7
370
    50
100
AcDbLine
 10
-121.6
 20
35.1
 30
0.0
 11
-121.6
 21
41.9
 31
0.0
  0
LINE
  5
25A
330
14B
100
AcDbEntity
  8
0
 62
     7
370
    50
100
AcDbLine
 10
-121.6
 20
41.9
 30
0.0
 11
-119.9
 21
41.9
 31
0.0
  0
LINE
  5
25B
330
14B
100
AcDbEntity
  8
0
 62
     7
370
    50
100
AcDbLine
 10
-119.9
 20
35.1
 30
0.0
 11
-119.9
 21
41.9
 31
0.0
  0
LINE
  5
25C
330
14B
100
AcDbEntity
  8
0
 62
     7
370
    50
100
AcDbLine
 10
132.1
 20
-64.1
 30
0.0
 11
138.9
 21
-64.1
 31
0.0
  0
LINE
  5
25D
330
14B
100
AcDbEntity
  8
0
 62
     7
370
    50
100
AcDbLine
 10
132.1
 20
-64.1
 30
0.0
 11
132.1
 21
-62.4
 31
0.0
  0
LINE
  5
25E
330
14B
100
AcDbEntity
  8
0
 62
     7
370
    50
100
AcDbLine
 10
132.1
 20
-62.4
 30
0.0
 11
138.9
 21
-62.4
 31
0.0
  0
LINE
  5
25F
330
14B
100
AcDbEntity
  8
0
 62
     7
370
    50
100
AcDbLine
 10
138.9
 20
-64.1
 30
0.0
 11
138.9
 21
-62.4
 31
0.0
  0
LINE
  5
260
330
14B
100
AcDbEntity
  8
0
 62
     7
370
    50
100
AcDbLine
 10
122.1
 20
-62.4
 30
0.0
 11
128.9
 21
-62.4
 31
0.0
  0
LINE
  5
261
330
14B
100
AcDbEntity
  8
0
 62
     7
370
    50
100
AcDbLine
 10
128.9
 20
-64.1
 30
0.0
 11
128.9
 21
-62.4
 31
0.0
  0
LINE
  5
262
330
14B
100
AcDbEntity
  8
0
 62
     7
370
    50
100
AcDbLine
 10
122.1
 20
-64.1
 30
0.0
 11
128.9
 21
-64.1
 31
0.0
  0
LINE
  5
263
330
14B
100
AcDbEntity
  8
0
 62
     7
370
    50
100
AcDbLine
 10
122.1
 20
-64.1
 30
0.0
 11
122.1
 21
-62.4
 31
0.0
  0
LINE
  5
264
330
14B
100
AcDbEntity
  8
0
 62
     7
370
    50
100
AcDbLine
 10
112.1
 20
-64.1
 30
0.0
 11
112.1
 21
-62.4
 31
0.0
  0
LINE
  5
265
330
14B
100
AcDbEntity
  8
0
 62
     7
370
    50
100
AcDbLine
 10
112.1
 20
-62.4
 30
0.0
 11
118.9
 21
-62.4
 31
0.0
  0
LINE
  5
266
330
14B
100
AcDbEntity
  8
0
 62
     7
370
    50
100
AcDbLine
 10
118.9
 20
-64.1
 30
0.0
 11
118.9
 21
-62.4
 31
0.0
  0
LINE
  5
267
330
14B
100
AcDbEntity
  8
0
 62
     7
370
    50
100
AcDbLine
 10
112.1
 20
-64.1
 30
0.0
 11
118.9
 21
-64.1
 31
0.0
  0
LINE
  5
268
330
14B
100
AcDbEntity
  8
0
 62
     7
370
    50
100
AcDbLine
 10
195.9
 20
-64.1
 30
0.0
 11
195.9
 21
-62.4
 31
0.0
  0
LINE
  5
269
330
14B
100
AcDbEntity
  8
0
 62
     7
370
    50
100
AcDbLine
 10
189.1
 20
-64.1
 30
0.0
 11
195.9
 21
-64.1
 31
0.0
  0
LINE
  5
26A
330
14B
100
AcDbEntity
  8
0
 62
     7
370
    50
100
AcDbLine
 10
189.1
 20
-64.1
 30
0.0
 11
189.1
 21
-62.4
 31
0.0
  0
LINE
  5
26B
330
14B
100
AcDbEntity
  8
0
 62
     7
370
    50
100
AcDbLine
 10
189.1
 20
-62.4
 30
0.0
 11
195.9
 21
-62.4
 31
0.0
  0
LINE
  5
26C
330
14B
100
AcDbEntity
  8
0
 62
     7
370
    50
100
AcDbLine
 10
199.1
 20
-64.1
 30
0.0
 11
199.1
 21
-62.4
 31
0.0
  0
LINE
  5
26D
330
14B
100
AcDbEntity
  8
0
 62
     7
370
    50
100
AcDbLine
 10
199.1
 20
-62.4
 30
0.0
 11
205.9
 21
-62.4
 31
0.0
  0
LINE
  5
26E
330
14B
100
AcDbEntity
  8
0
 62
     7
370
    50
100
AcDbLine
 10
205.9
 20
-64.1
 30
0.0
 11
205.9
 21
-62.4
 31
0.0
  0
LINE
  5
26F
330
14B
100
AcDbEntity
  8
0
 62
     7
370
    50
100
AcDbLine
 10
199.1
 20
-64.1
 30
0.0
 11
205.9
 21
-64.1
 31
0.0
  0
LINE
  5
270
330
14B
100
AcDbEntity
  8
0
 62
     7
370
    50
100
AcDbLine
 10
209.1
 20
-62.4
 30
0.0
 11
215.9
 21
-62.4
 31
0.0
  0
LINE
  5
271
330
14B
100
AcDbEntity
  8
0
 62
     7
370
    50
100
AcDbLine
 10
215.9
 20
-64.1
 30
0.0
 11
215.9
 21
-62.4
 31
0.0
  0
LINE
  5
272
330
14B
100
AcDbEntity
  8
0
 62
     7
370
    50
100
AcDbLine
 10
209.1
 20
-64.1
 30
0.0
 11
215.9
 21
-64.1
 31
0.0
  0
LINE
  5
273
330
14B
100
AcDbEntity
  8
0
 62
     7
370
    50
100
AcDbLine
 10
209.1
 20
-64.1
 30
0.0
 11
209.1
 21
-62.4
 31
0.0
  0
LINE
  5
274
330
14B
100
AcDbEntity
  8
0
 62
     7
370
    50
100
AcDbLine
 10
132.1
 20
62.4
 30
0.0
 11
132.1
 21
64.1
 31
0.0
  0
LINE
  5
275
330
14B
100
AcDbEntity
  8
0
 62
     7
370
    50
100
AcDbLine
 10
132.1
 20
64.1
 30
0.0
 11
138.9
 21
64.1
 31
0.0
  0
LINE
  5
276
330
14B
100
AcDbEntity
  8
0
 62
     7
370
    50
100
AcDbLine
 10
138.9
 20
62.4
 30
0.0
 11
138.9
 21
64.1
 31
0.0
  0
LINE
  5
277
330
14B
100
AcDbEntity
  8
0
 62
     7
370
    50
100
AcDbLine
 10
132.1
 20
62.4
 30
0.0
 11
138.9
 21
62.4
 31
0.0
  0
LINE
  5
278
330
14B
100
AcDbEntity
  8
0
 62
     7
370
    50
100
AcDbLine
 10
128.9
 20
62.4
 30
0.0
 11
128.9
 21
64.1
 31
0.0
  0
LINE
  5
279
330
14B
100
AcDbEntity
  8
0
 62
     7
370
    50
100
AcDbLine
 10
122.1
 20
62.4
 30
0.0
 11
128.9
 21
62.4
 31
0.0
  0
LINE
  5
27A
330
14B
100
AcDbEntity
  8
0
 62
     7
370
    50
100
AcDbLine
 10
122.1
 20
62.4
 30
0.0
 11
122.1
 21
64.1
 31
0.0
  0
LINE
  5
27B
330
14B
100
AcDbEntity
  8
0
 62
     7
370
    50
100
AcDbLine
 10
122.1
 20
64.1
 30
0.0
 11
128.9
 21
64.1
 31
0.0
  0
LINE
  5
27C
330
14B
100
AcDbEntity
  8
0
 62
     7
370
    50
100
AcDbLine
 10
112.1
 20
62.4
 30
0.0
 11
118.9
 21
62.4
 31
0.0
  0
LINE
  5
27D
330
14B
100
AcDbEntity
  8
0
 62
     7
370
    50
100
AcDbLine
 10
112.1
 20
62.4
 30
0.0
 11
112.1
 21
64.1
 31
0.0
  0
LINE
  5
27E
330
14B
100
AcDbEntity
  8
0
 62
     7
370
    50
100
AcDbLine
 10
112.1
 20
64.1
 30
0.0
 11
118.9
 21
64.1
 31
0.0
  0
LINE
  5
27F
330
14B
100
AcDbEntity
  8
0
 62
     7
370
    50
100
AcDbLine
 10
118.9
 20
62.4
 30
0.0
 11
118.9
 21
64.1
 31
0.0
  0
LINE
  5
280
330
14B
100
AcDbEntity
  8
0
 62
     7
370
    50
100
AcDbLine
 10
189.1
 20
64.1
 30
0.0
 11
195.9
 21
64.1
 31
0.0
  0
LINE
  5
281
330
14B
100
AcDbEntity
  8
0
 62
     7
370
    50
100
AcDbLine
 10
195.9
 20
62.4
 30
0.0
 11
195.9
 21
64.1
 31
0.0
  0
LINE
  5
282
330
14B
100
AcDbEntity
  8
0
 62
     7
370
    50
100
AcDbLine
 10
189.1
 20
62.4
 30
0.0
 11
195.9
 21
62.4
 31
0.0
  0
LINE
  5
283
330
14B
100
AcDbEntity
  8
0
 62
     7
370
    50
100
AcDbLine
 10
189.1
 20
62.4
 30
0.0
 11
189.1
 21
64.1
 31
0.0
  0
LINE
  5
284
330
14B
100
AcDbEntity
  8
0
 62
     7
370
    50
100
AcDbLine
 10
199.1
 20
62.4
 30
0.0
 11
205.9
 21
62.4
 31
0.0
  0
LINE
  5
285
330
14B
100
AcDbEntity
  8
0
 62
     7
370
    50
100
AcDbLine
 10
199.1
 20
62.4
 30
0.0
 11
199.1
 21
64.1
 31
0.0
  0
LINE
  5
286
330
14B
100
AcDbEntity
  8
0
 62
     7
370
    50
100
AcDbLine
 10
199.1
 20
64.1
 30
0.0
 11
205.9
 21
64.1
 31
0.0
  0
LINE
  5
287
330
14B
100
AcDbEntity
  8
0
 62
     7
370
    50
100
AcDbLine
 10
205.9
 20
62.4
 30
0.0
 11
205.9
 21
64.1
 31
0.0
  0
LINE
  5
288
330
14B
100
AcDbEntity
  8
0
 62
     7
370
    50
100
AcDbLine
 10
215.9
 20
62.4
 30
0.0
 11
215.9
 21
64.1
 31
0.0
  0
LINE
  5
289
330
14B
100
AcDbEntity
  8
0
 62
     7
370
    50
100
AcDbLine
 10
209.1
 20
62.4
 30
0.0
 11
215.9
 21
62.4
 31
0.0
  0
LINE
  5
28A
330
14B
100
AcDbEntity
  8
0
 62
     7
370
    50
100
AcDbLine
 10
209.1
 20
62.4
 30
0.0
 11
209.1
 21
64.1
 31
0.0
  0
LINE
  5
28B
330
14B
100
AcDbEntity
  8
0
 62
     7
370
    50
100
AcDbLine
 10
209.1
 20
64.1
 30
0.0
 11
215.9
 21
64.1
 31
0.0
  0
LINE
  5
28C
330
14B
100
AcDbEntity
  8
0
 62
     7
370
    50
100
AcDbLine
 10
-132.1
 20
-64.1
 30
0.0
 11
-132.1
 21
-62.4
 31
0.0
  0
LINE
  5
28D
330
14B
100
AcDbEntity
  8
0
 62
     7
370
    50
100
AcDbLine
 10
-138.9
 20
-64.1
 30
0.0
 11
-132.1
 21
-64.1
 31
0.0
  0
LINE
  5
28E
330
14B
100
AcDbEntity
  8
0
 62
     7
370
    50
100
AcDbLine
 10
-138.9
 20
-64.1
 30
0.0
 11
-138.9
 21
-62.4
 31
0.0
  0
LINE
  5
28F
330
14B
100
AcDbEntity
  8
0
 62
     7
370
    50
100
AcDbLine
 10
-138.9
 20
-62.4
 30
0.0
 11
-132.1
 21
-62.4
 31
0.0
  0
LINE
  5
290
330
14B
100
AcDbEntity
  8
0
 62
     7
370
    50
100
AcDbLine
 10
-128.9
 20
-64.1
 30
0.0
 11
-128.9
 21
-62.4
 31
0.0
  0
LINE
  5
291
330
14B
100
AcDbEntity
  8
0
 62
     7
370
    50
100
AcDbLine
 10
-128.9
 20
-62.4
 30
0.0
 11
-122.1
 21
-62.4
 31
0.0
  0
LINE
  5
292
330
14B
100
AcDbEntity
  8
0
 62
     7
370
    50
100
AcDbLine
 10
-122.1
 20
-64.1
 30
0.0
 11
-122.1
 21
-62.4
 31
0.0
  0
LINE
  5
293
330
14B
100
AcDbEntity
  8
0
 62
     7
370
    50
100
AcDbLine
 10
-128.9
 20
-64.1
 30
0.0
 11
-122.1
 21
-64.1
 31
0.0
  0
LINE
  5
294
330
14B
100
AcDbEntity
  8
0
 62
     7
370
    50
100
AcDbLine
 10
-118.9
 20
-62.4
 30
0.0
 11
-112.1
 21
-62.4
 31
0.0
  0
LINE
  5
295
330
14B
100
AcDbEntity
  8
0
 62
     7
370
    50
100
AcDbLine
 10
-112.1
 20
-64.1
 30
0.0
 11
-112.1
 21
-62.4
 31
0.0
  0
LINE
  5
296
330
14B
100
AcDbEntity
  8
0
 62
     7
370
    50
100
AcDbLine
 10
-118.9
 20
-64.1
 30
0.0
 11
-112.1
 21
-64.1
 31
0.0
  0
LINE
  5
297
330
14B
100
AcDbEntity
  8
0
 62
     7
370
    50
100
AcDbLine
 10
-118.9
 20
-64.1
 30
0.0
 11
-118.9
 21
-62.4
 31
0.0
  0
LINE
  5
298
330
14B
100
AcDbEntity
  8
0
 62
     7
370
    50
100
AcDbLine
 10
-195.9
 20
-64.1
 30
0.0
 11
-189.1
 21
-64.1
 31
0.0
  0
LINE
  5
299
330
14B
100
AcDbEntity
  8
0
 62
     7
370
    50
100
AcDbLine
 10
-195.9
 20
-64.1
 30
0.0
 11
-195.9
 21
-62.4
 31
0.0
  0
LINE
  5
29A
330
14B
100
AcDbEntity
  8
0
 62
     7
370
    50
100
AcDbLine
 10
-195.9
 20
-62.4
 30
0.0
 11
-189.1
 21
-62.4
 31
0.0
  0
LINE
  5
29B
330
14B
100
AcDbEntity
  8
0
 62
     7
370
    50
100
AcDbLine
 10
-189.1
 20
-64.1
 30
0.0
 11
-189.1
 21
-62.4
 31
0.0
  0
LINE
  5
29C
330
14B
100
AcDbEntity
  8
0
 62
     7
370
    50
100
AcDbLine
 10
-205.9
 20
-62.4
 30
0.0
 11
-199.1
 21
-62.4
 31
0.0
  0
LINE
  5
29D
330
14B
100
AcDbEntity
  8
0
 62
     7
370
    50
100
AcDbLine
 10
-199.1
 20
-64.1
 30
0.0
 11
-199.1
 21
-62.4
 31
0.0
  0
LINE
  5
29E
330
14B
100
AcDbEntity
  8
0
 62
     7
370
    50
100
AcDbLine
 10
-205.9
 20
-64.1
 30
0.0
 11
-199.1
 21
-64.1
 31
0.0
  0
LINE
  5
29F
330
14B
100
AcDbEntity
  8
0
 62
     7
370
    50
100
AcDbLine
 10
-205.9
 20
-64.1
 30
0.0
 11
-205.9
 21
-62.4
 31
0.0
  0
LINE
  5
2A0
330
14B
100
AcDbEntity
  8
0
 62
     7
370
    50
100
AcDbLine
 10
-215.9
 20
-64.1
 30
0.0
 11
-215.9
 21
-62.4
 31
0.0
  0
LINE
  5
2A1
330
14B
100
AcDbEntity
  8
0
 62
     7
370
    50
100
AcDbLine
 10
-215.9
 20
-62.4
 30
0.0
 11
-209.1
 21
-62.4
 31
0.0
  0
LINE
  5
2A2
330
14B
100
AcDbEntity
  8
0
 62
     7
370
    50
100
AcDbLine
 10
-209.1
 20
-64.1
 30
0.0
 11
-209.1
 21
-62.4
 31
0.0
  0
LINE
  5
2A3
330
14B
100
AcDbEntity
  8
0
 62
     7
370
    50
100
AcDbLine
 10
-215.9
 20
-64.1
 30
0.0
 11
-209.1
 21
-64.1
 31
0.0
  0
LINE
  5
2A4
330
14B
100
AcDbEntity
  8
0
 62
     7
370
    50
100
AcDbLine
 10
-138.9
 20
64.1
 30
0.0
 11
-132.1
 21
64.1
 31
0.0
  0
LINE
  5
2A5
330
14B
100
AcDbEntity
  8
0
 62
     7
370
    50
100
AcDbLine
 10
-132.1
 20
62.4
 30
0.0
 11
-132.1
 21
64.1
 31
0.0
  0
LINE
  5
2A6
330
14B
100
AcDbEntity
  8
0
 62
     7
370
    50
100
AcDbLine
 10
-138.9
 20
62.4
 30
0.0
 11
-132.1
 21
62.4
 31
0.0
  0
LINE
  5
2A7
330
14B
100
AcDbEntity
  8
0
 62
     7
370
    50
100
AcDbLine
 10
-138.9
 20
62.4
 30
0.0
 11
-138.9
 21
64.1
 31
0.0
  0
LINE
  5
2A8
330
14B
100
AcDbEntity
  8
0
 62
     7
370
    50
100
AcDbLine
 10
-128.9
 20
62.4
 30
0.0
 11
-122.1
 21
62.4
 31
0.0
  0
LINE
  5
2A9
330
14B
100
AcDbEntity
  8
0
 62
     7
370
    50
100
AcDbLine
 10
-128.9
 20
62.4
 30
0.0
 11
-128.9
 21
64.1
 31
0.0
  0
LINE
  5
2AA
330
14B
100
AcDbEntity
  8
0
 62
     7
370
    50
100
AcDbLine
 10
-128.9
 20
64.1
 30
0.0
 11
-122.1
 21
64.1
 31
0.0
  0
LINE
  5
2AB
330
14B
100
AcDbEntity
  8
0
 62
     7
370
    50
100
AcDbLine
 10
-122.1
 20
62.4
 30
0.0
 11
-122.1
 21
64.1
 31
0.0
  0
LINE
  5
2AC
330
14B
100
AcDbEntity
  8
0
 62
     7
370
    50
100
AcDbLine
 10
-112.1
 20
62.4
 30
0.0
 11
-112.1
 21
64.1
 31
0.0
  0
LINE
  5
2AD
330
14B
100
AcDbEntity
  8
0
 62
     7
370
    50
100
AcDbLine
 10
-118.9
 20
62.4
 30
0.0
 11
-112.1
 21
62.4
 31
0.0
  0
LINE
  5
2AE
330
14B
100
AcDbEntity
  8
0
 62
     7
370
    50
100
AcDbLine
 10
-118.9
 20
62.4
 30
0.0
 11
-118.9
 21
64.1
 31
0.0
  0
LINE
  5
2AF
330
14B
100
AcDbEntity
  8
0
 62
     7
370
    50
100
AcDbLine
 10
-118.9
 20
64.1
 30
0.0
 11
-112.1
 21
64.1
 31
0.0
  0
LINE
  5
2B0
330
14B
100
AcDbEntity
  8
0
 62
     7
370
    50
100
AcDbLine
 10
-195.9
 20
62.4
 30
0.0
 11
-195.9
 21
64.1
 31
0.0
  0
LINE
  5
2B1
330
14B
100
AcDbEntity
  8
0
 62
     7
370
    50
100
AcDbLine
 10
-195.9
 20
64.1
 30
0.0
 11
-189.1
 21
64.1
 31
0.0
  0
LINE
  5
2B2
330
14B
100
AcDbEntity
  8
0
 62
     7
370
    50
100
AcDbLine
 10
-189.1
 20
62.4
 30
0.0
 11
-189.1
 21
64.1
 31
0.0
  0
LINE
  5
2B3
330
14B
100
AcDbEntity
  8
0
 62
     7
370
    50
100
AcDbLine
 10
-195.9
 20
62.4
 30
0.0
 11
-189.1
 21
62.4
 31
0.0
  0
LINE
  5
2B4
330
14B
100
AcDbEntity
  8
0
 62
     7
370
    50
100
AcDbLine
 10
-199.1
 20
62.4
 30
0.0
 11
-199.1
 21
64.1
 31
0.0
  0
LINE
  5
2B5
330
14B
100
AcDbEntity
  8
0
 62
     7
370
    50
100
AcDbLine
 10
-205.9
 20
62.4
 30
0.0
 11
-199.1
 21
62.4
 31
0.0
  0
LINE
  5
2B6
330
14B
100
AcDbEntity
  8
0
 62
     7
370
    50
100
AcDbLine
 10
-205.9
 20
62.4
 30
0.0
 11
-205.9
 21
64.1
 31
0.0
  0
LINE
  5
2B7
330
14B
100
AcDbEntity
  8
0
 62
     7
370
    50
100
AcDbLine
 10
-205.9
 20
64.1
 30
0.0
 11
-199.1
 21
64.1
 31
0.0
  0
LINE
  5
2B8
330
14B
100
AcDbEntity
  8
0
 62
     7
370
    50
100
AcDbLine
 10
-215.9
 20
62.4
 30
0.0
 11
-209.1
 21
62.4
 31
0.0
  0
LINE
  5
2B9
330
14B
100
AcDbEntity
  8
0
 62
     7
370
    50
100
AcDbLine
 10
-215.9
 20
62.4
 30
0.0
 11
-215.9
 21
64.1
 31
0.0
  0
LINE
  5
2BA
330
14B
100
AcDbEntity
  8
0
 62
     7
370
    50
100
AcDbLine
 10
-215.9
 20
64.1
 30
0.0
 11
-209.1
 21
64.1
 31
0.0
  0
LINE
  5
2BB
330
14B
100
AcDbEntity
  8
0
 62
     7
370
    50
100
AcDbLine
 10
-209.1
 20
62.4
 30
0.0
 11
-209.1
 21
64.1
 31
0.0
  0
CIRCLE
  5
2BC
330
14B
100
AcDbEntity
  8
0
 62
     7
370
    50
100
AcDbCircle
 10
-18.0
 20
167.0
 30
0.0
 40
3.300000000000001
  0
CIRCLE
  5
2BD
330
14B
100
AcDbEntity
  8
0
 62
     7
370
    50
100
AcDbCircle
 10
18.0
 20
175.0
 30
0.0
 40
3.300000000000001
  0
CIRCLE
  5
2BE
330
14B
100
AcDbEntity
  8
0
 62
     7
370
    50
100
AcDbCircle
 10
-18.0
 20
175.0
 30
0.0
 40
3.300000000000001
  0
CIRCLE
  5
2BF
330
14B
100
AcDbEntity
  8
0
 62
     7
370
    50
100
AcDbCircle
 10
18.0
 20
183.0
 30
0.0
 40
3.300000000000001
  0
CIRCLE
  5
2C0
330
14B
100
AcDbEntity
  8
0
 62
     7
370
    50
100
AcDbCircle
 10
-18.0
 20
183.0
 30
0.0
 40
3.300000000000001
  0
CIRCLE
  5
2C1
330
14B
100
AcDbEntity
  8
0
 62
     7
370
    50
100
AcDbCircle
 10
18.0
 20
191.0
 30
0.0
 40
3.300000000000001
  0
CIRCLE
  5
2C2
330
14B
100
AcDbEntity
  8
0
 62
     7
370
    50
100
AcDbCircle
 10
-18.0
 20
191.0
 30
0.0
 40
3.300000000000001
  0
CIRCLE
  5
2C3
330
14B
100
AcDbEntity
  8
0
 62
     7
370
    50
100
AcDbCircle
 10
18.0
 20
31.0
 30
0.0
 40
3.300000000000001
  0
CIRCLE
  5
2C4
330
14B
100
AcDbEntity
  8
0
 62
     7
370
    50
100
AcDbCircle
 10
-18.0
 20
23.0
 30
0.0
 40
3.300000000000001
  0
CIRCLE
  5
2C5
330
14B
100
AcDbEntity
  8
0
 62
     7
370
    50
100
AcDbCircle
 10
18.0
 20
23.0
 30
0.0
 40
3.300000000000001
  0
CIRCLE
  5
2C6
330
14B
100
AcDbEntity
  8
0
 62
     7
370
    50
100
AcDbCircle
 10
-18.0
 20
15.0
 30
0.0
 40
3.300000000000001
  0
CIRCLE
  5
2C7
330
14B
100
AcDbEntity
  8
0
 62
     7
370
    50
100
AcDbCircle
 10
18.0
 20
15.0
 30
0.0
 40
3.300000000000001
  0
CIRCLE
  5
2C8
330
14B
100
AcDbEntity
  8
0
 62
     7
370
    50
100
AcDbCircle
 10
-18.0
 20
7.0
 30
0.0
 40
3.300000000000001
  0
CIRCLE
  5
2C9
330
14B
100
AcDbEntity
  8
0
 62
     7
370
    50
100
AcDbCircle
 10
18.0
 20
7.0
 30
0.0
 40
3.300000000000001
  0
CIRCLE
  5
2CA
330
14B
100
AcDbEntity
  8
0
 62
     7
370
    50
100
AcDbCircle
 10
18.0
 20
-31.0
 30
0.0
 40
3.300000000000001
  0
CIRCLE
  5
2CB
330
14B
100
AcDbEntity
  8
0
 62
     7
370
    50
100
AcDbCircle
 10
-18.0
 20
-23.0
 30
0.0
 40
3.300000000000001
  0
CIRCLE
  5
2CC
330
14B
100
AcDbEntity
  8
0
 62
     7
370
    50
100
AcDbCircle
 10
18.0
 20
-23.0
 30
0.0
 40
3.300000000000001
  0
CIRCLE
  5
2CD
330
14B
100
AcDbEntity
  8
0
 62
     7
370
    50
100
AcDbCircle
 10
-18.0
 20
-15.0
 30
0.0
 40
3.300000000000001
  0
CIRCLE
  5
2CE
330
14B
100
AcDbEntity
  8
0
 62
     7
370
    50
100
AcDbCircle
 10
18.0
 20
-15.0
 30
0.0
 40
3.300000000000001
  0
CIRCLE
  5
2CF
330
14B
100
AcDbEntity
  8
0
 62
     7
370
    50
100
AcDbCircle
 10
-18.0
 20
-7.0
 30
0.0
 40
3.300000000000001
  0
CIRCLE
  5
2D0
330
14B
100
AcDbEntity
  8
0
 62
     7
370
    50
100
AcDbCircle
 10
18.0
 20
-7.0
 30
0.0
 40
3.300000000000001
  0
CIRCLE
  5
2D1
330
14B
100
AcDbEntity
  8
0
 62
     7
370
    50
100
AcDbCircle
 10
119.0
 20
-17.5
 30
0.0
 40
3.299999999999997
  0
CIRCLE
  5
2D2
330
14B
100
AcDbEntity
  8
0
 62
     7
370
    50
100
AcDbCircle
 10
129.0
 20
-17.5
 30
0.0
 40
3.299999999999997
  0
CIRCLE
  5
2D3
330
14B
100
AcDbEntity
  8
0
 62
     7
370
    50
100
AcDbCircle
 10
109.0
 20
17.5
 30
0.0
 40
3.299999999999997
  0
CIRCLE
  5
2D4
330
14B
100
AcDbEntity
  8
0
 62
     7
370
    50
100
AcDbCircle
 10
119.0
 20
17.5
 30
0.0
 40
3.299999999999997
  0
CIRCLE
  5
2D5
330
14B
100
AcDbEntity
  8
0
 62
     7
370
    50
100
AcDbCircle
 10
129.0
 20
17.5
 30
0.0
 40
3.299999999999997
  0
CIRCLE
  5
2D6
330
14B
100
AcDbEntity
  8
0
 62
     7
370
    50
100
AcDbCircle
 10
-119.0
 20
-17.5
 30
0.0
 40
3.299999999999997
  0
CIRCLE
  5
2D7
330
14B
100
AcDbEntity
  8
0
 62
     7
370
    50
100
AcDbCircle
 10
-129.0
 20
-17.5
 30
0.0
 40
3.299999999999997
  0
CIRCLE
  5
2D8
330
14B
100
AcDbEntity
  8
0
 62
     7
370
    50
100
AcDbCircle
 10
-109.0
 20
17.5
 30
0.0
 40
3.299999999999997
  0
CIRCLE
  5
2D9
330
14B
100
AcDbEntity
  8
0
 62
     7
370
    50
100
AcDbCircle
 10
-119.0
 20
17.5
 30
0.0
 40
3.299999999999997
  0
CIRCLE
  5
2DA
330
14B
100
AcDbEntity
  8
0
 62
     7
370
    50
100
AcDbCircle
 10
-129.0
 20
17.5
 30
0.0
 40
3.299999999999997
  0
CIRCLE
  5
2DB
330
14B
100
AcDbEntity
  8
0
 62
     7
370
    50
100
AcDbCircle
 10
-146.5
 20
-55.0
 30
0.0
 40
3.300000000000011
  0
CIRCLE
  5
2DC
330
14B
100
AcDbEntity
  8
0
 62
     7
370
    50
100
AcDbCircle
 10
-156.5
 20
-55.0
 30
0.0
 40
3.300000000000011
  0
CIRCLE
  5
2DD
330
14B
100
AcDbEntity
  8
0
 62
     7
370
    50
100
AcDbCircle
 10
-136.5
 20
55.0
 30
0.0
 40
3.300000000000011
  0
CIRCLE
  5
2DE
330
14B
100
AcDbEntity
  8
0
 62
     7
370
    50
100
AcDbCircle
 10
-146.5
 20
55.0
 30
0.0
 40
3.300000000000011
  0
CIRCLE
  5
2DF
330
14B
100
AcDbEntity
  8
0
 62
     7
370
    50
100
AcDbCircle
 10
-156.5
 20
55.0
 30
0.0
 40
3.300000000000011
  0
CIRCLE
  5
2E0
330
14B
100
AcDbEntity
  8
0
 62
     7
370
    50
100
AcDbCircle
 10
-181.5
 20
-55.0
 30
0.0
 40
3.300000000000011
  0
CIRCLE
  5
2E1
330
14B
100
AcDbEntity
  8
0
 62
     7
370
    50
100
AcDbCircle
 10
-191.5
 20
-55.0
 30
0.0
 40
3.300000000000011
  0
CIRCLE
  5
2E2
330
14B
100
AcDbEntity
  8
0
 62
     7
370
    50
100
AcDbCircle
 10
-171.5
 20
55.0
 30
0.0
 40
3.300000000000011
  0
CIRCLE
  5
2E3
330
14B
100
AcDbEntity
  8
0
 62
     7
370
    50
100
AcDbCircle
 10
-181.5
 20
55.0
 30
0.0
 40
3.300000000000011
  0
CIRCLE
  5
2E4
330
14B
100
AcDbEntity
  8
0
 62
     7
370
    50
100
AcDbCircle
 10
-191.5
 20
55.0
 30
0.0
 40
3.300000000000011
  0
CIRCLE
  5
2E5
330
14B
100
AcDbEntity
  8
0
 62
     7
370
    50
100
AcDbCircle
 10
146.5
 20
-55.0
 30
0.0
 40
3.300000000000011
  0
CIRCLE
  5
2E6
330
14B
100
AcDbEntity
  8
0
 62
     7
370
    50
100
AcDbCircle
 10
156.5
 20
-55.0
 30
0.0
 40
3.300000000000011
  0
CIRCLE
  5
2E7
330
14B
100
AcDbEntity
  8
0
 62
     7
370
    50
100
AcDbCircle
 10
136.5
 20
55.0
 30
0.0
 40
3.300000000000011
  0
CIRCLE
  5
2E8
330
14B
100
AcDbEntity
  8
0
 62
     7
370
    50
100
AcDbCircle
 10
146.5
 20
55.0
 30
0.0
 40
3.300000000000011
  0
CIRCLE
  5
2E9
330
14B
100
AcDbEntity
  8
0
 62
     7
370
    50
100
AcDbCircle
 10
156.5
 20
55.0
 30
0.0
 40
3.300000000000011
  0
CIRCLE
  5
2EA
330
14B
100
AcDbEntity
  8
0
 62
     7
370
    50
100
AcDbCircle
 10
181.5
 20
-55.0
 30
0.0
 40
3.300000000000011
  0
CIRCLE
  5
2EB
330
14B
100
AcDbEntity
  8
0
 62
     7
370
    50
100
AcDbCircle
 10
191.5
 20
-55.0
 30
0.0
 40
3.300000000000011
  0
CIRCLE
  5
2EC
330
14B
100
AcDbEntity
  8
0
 62
     7
370
    50
100
AcDbCircle
 10
171.5
 20
55.0
 30
0.0
 40
3.300000000000011
  0
CIRCLE
  5
2ED
330
14B
100
AcDbEntity
  8
0
 62
     7
370
    50
100
AcDbCircle
 10
181.5
 20
55.0
 30
0.0
 40
3.300000000000011
  0
CIRCLE
  5
2EE
330
14B
100
AcDbEntity
  8
0
 62
     7
370
    50
100
AcDbCircle
 10
191.5
 20
55.0
 30
0.0
 40
3.300000000000011
  0
LINE
  5
2EF
330
14B
100
AcDbEntity
  8
0
 62
     7
370
    50
100
AcDbLine
 10
222.0
 20
-207.122564
 30
0.0
 11
222.0
 21
-200.122564
 31
0.0
  0
LINE
  5
2F0
330
14B
100
AcDbEntity
  8
0
 62
     7
370
    50
100
AcDbLine
 10
-222.0
 20
-207.122564
 30
0.0
 11
222.0
 21
-207.122564
 31
0.0
  0
LINE
  5
2F1
330
14B
100
AcDbEntity
  8
0
 62
     7
370
    50
100
AcDbLine
 10
-222.0
 20
-207.122564
 30
0.0
 11
-222.0
 21
-200.122564
 31
0.0
  0
LINE
  5
2F2
330
14B
100
AcDbEntity
  8
0
  6
DASHDOT
 62
     7
370
    25
100
AcDbLine
 10
222.0
 20
-200.122564
 30
0.0
 11
-222.0
 21
-200.122564
 31
0.0
  0
LINE
  5
2F3
330
14B
100
AcDbEntity
  8
0
 62
     7
370
    50
100
AcDbLine
 10
222.0
 20
-200.122564
 30
0.0
 11
222.0
 21
-197.0
 31
0.0
  0
LINE
  5
2F4
330
14B
100
AcDbEntity
  8
0
 62
     7
370
    50
100
AcDbLine
 10
-222.0
 20
-200.122564
 30
0.0
 11
-222.0
 21
-197.0
 31
0.0
  0
LINE
  5
2F5
330
14B
100
AcDbEntity
  8
0
 62
     7
370
    50
100
AcDbLine
 10
222.0
 20
-197.0
 30
0.0
 11
225.122564
 21
-197.0
 31
0.0
  0
LINE
  5
2F6
330
14B
100
AcDbEntity
  8
0
 62
     7
370
    50
100
AcDbLine
 10
225.122564
 20
-200.0
 30
0.0
 11
225.122564
 21
-197.0
 31
0.0
  0
LINE
  5
2F7
330
14B
100
AcDbEntity
  8
0
 62
     7
370
    50
100
AcDbLine
 10
232.122564
 20
-200.0
 30
0.0
 11
232.122564
 21
200.0
 31
0.0
  0
LINE
  5
2F8
330
14B
100
AcDbEntity
  8
0
 62
     7
370
    50
100
AcDbLine
 10
225.122564
 20
-200.0
 30
0.0
 11
232.122564
 21
-200.0
 31
0.0
  0
LINE
  5
2F9
330
14B
100
AcDbEntity
  8
0
  6
DASHDOT
 62
     7
370
    25
100
AcDbLine
 10
225.122564
 20
197.0
 30
0.0
 11
225.122564
 21
-197.0
 31
0.0
  0
LINE
  5
2FA
330
14B
100
AcDbEntity
  8
0
 62
     7
370
    50
100
AcDbLine
 10
225.122564
 20
197.0
 30
0.0
 11
225.122564
 21
200.0
 31
0.0
  0
LINE
  5
2FB
330
14B
100
AcDbEntity
  8
0
 62
     7
370
    50
100
AcDbLine
 10
225.122564
 20
200.0
 30
0.0
 11
232.122564
 21
200.0
 31
0.0
  0
LINE
  5
2FC
330
14B
100
AcDbEntity
  8
0
 62
     7
370
    50
100
AcDbLine
 10
222.0
 20
197.0
 30
0.0
 11
225.122564
 21
197.0
 31
0.0
  0
LINE
  5
2FD
330
14B
100
AcDbEntity
  8
0
 62
     7
370
    50
100
AcDbLine
 10
-225.122564
 20
197.0
 30
0.0
 11
-222.0
 21
197.0
 31
0.0
  0
LINE
  5
2FE
330
14B
100
AcDbEntity
  8
0
  6
DASHDOT
 62
     7
370
    25
100
AcDbLine
 10
-225.122564
 20
-197.0
 30
0.0
 11
-225.122564
 21
197.0
 31
0.0
  0
LINE
  5
2FF
330
14B
100
AcDbEntity
  8
0
 62
     7
370
    50
100
AcDbLine
 10
-225.122564
 20
-197.0
 30
0.0
 11
-222.0
 21
-197.0
 31
0.0
  0
LINE
  5
300
330
14B
100
AcDbEntity
  8
0
 62
     7
370
    50
100
AcDbLine
 10
-225.122564
 20
-200.0
 30
0.0
 11
-225.122564
 21
-197.0
 31
0.0
  0
LINE
  5
301
330
14B
100
AcDbEntity
  8
0
 62
     7
370
    50
100
AcDbLine
 10
-232.122564
 20
-200.0
 30
0.0
 11
-232.122564
 21
200.0
 31
0.0
  0
LINE
  5
302
330
14B
100
AcDbEntity
  8
0
 62
     7
370
    50
100
AcDbLine
 10
-232.122564
 20
200.0
 30
0.0
 11
-225.122564
 21
200.0
 31
0.0
  0
LINE
  5
303
330
14B
100
AcDbEntity
  8
0
 62
     7
370
    50
100
AcDbLine
 10
-225.122564
 20
197.0
 30
0.0
 11
-225.122564
 21
200.0
 31
0.0
  0
LINE
  5
304
330
14B
100
AcDbEntity
  8
0
 62
     7
370
    50
100
AcDbLine
 10
-232.122564
 20
-200.0
 30
0.0
 11
-225.122564
 21
-200.0
 31
0.0
  0
LINE
  5
305
330
14B
100
AcDbEntity
  8
0
 62
     7
370
    50
100
AcDbLine
 10
222.0
 20
197.0
 30
0.0
 11
222.0
 21
200.122564
 31
0.0
  0
LINE
  5
306
330
14B
100
AcDbEntity
  8
0
  6
DASHDOT
 62
     7
370
    25
100
AcDbLine
 10
-222.0
 20
200.122564
 30
0.0
 11
222.0
 21
200.122564
 31
0.0
  0
LINE
  5
307
330
14B
100
AcDbEntity
  8
0
 62
     7
370
    50
100
AcDbLine
 10
-222.0
 20
197.0
 30
0.0
 11
-222.0
 21
200.122564
 31
0.0
  0
LINE
  5
308
330
14B
100
AcDbEntity
  8
0
 62
     7
370
    50
100
AcDbLine
 10
222.0
 20
200.122564
 30
0.0
 11
222.0
 21
207.122564
 31
0.0
  0
LINE
  5
309
330
14B
100
AcDbEntity
  8
0
 62
     7
370
    50
100
AcDbLine
 10
-222.0
 20
200.122564
 30
0.0
 11
-222.0
 21
207.122564
 31
0.0
  0
LINE
  5
30A
330
14B
100
AcDbEntity
  8
0
 62
     7
370
    50
100
AcDbLine
 10
-222.0
 20
207.122564
 30
0.0
 11
222.0
 21
207.122564
 31
0.0
  0
ENDBLK
  5
14D
330
14B
100
AcDbEntity
  8
0
100
AcDbBlockEnd
  0
ENDSEC
  0
SECTION
  2
ENTITIES
  0
INSERT
  5
30B
330
1F
100
AcDbEntity
  8
0
370
     0
100
AcDbBlockReference
  2
BLOCK1
 10
512.63337
 20
386.570897
 30
0.0
  0
DIMENSION
  5
30C
102
{ACAD_XDICTIONARY
360
30D
102
}
330
1F
100
AcDbEntity
  8
0
 62
     0
370
     0
100
AcDbDimension
  2
*D2
 10
744.755934
 20
652.674892
 30
0.0
 11
512.63337
 21
652.674892
 31
0.0
 70
   161
 71
     5
 42
-1.0
 73
     0
 74
     0
 75
     0
 52
5156.620156
  3
STANDARD
100
AcDbAlignedDimension
 13
280.510805
 23
586.570897
 33
0.0
 14
744.755934
 24
586.570897
 34
0.0
  0
DIMENSION
  5
30E
102
{ACAD_XDICTIONARY
360
30F
102
}
330
1F
100
AcDbEntity
  8
0
 62
     0
370
     0
100
AcDbDimension
  2
*D3
 10
219.509331
 20
593.693461
 30
0.0
 11
219.509331
 21
386.570897
 31
0.0
 70
   161
 71
     5
 42
-1.0
 73
     0
 74
     0
 75
     0
 52
5156.620156
  3
STANDARD
100
AcDbAlignedDimension
 13
290.63337
 23
179.448332
 33
0.0
 14
290.63337
 24
593.693461
 34
0.0
  0
DIMENSION
  5
310
102
{ACAD_XDICTIONARY
360
311
102
}
330
1F
100
AcDbEntity
  8
0
 62
     0
370
     0
100
AcDbDimension
  2
*D4
 10
736.194652
 20
632.124202
 30
0.0
 11
512.63337
 21
632.124202
 31
0.0
 70
   161
 71
     5
 42
-1.0
 73
     0
 74
     0
 75
     0
 52
5156.620156
  3
STANDARD
100
AcDbAlignedDimension
 13
289.072087
 23
622.970897
 33
0.0
 14
736.194652
 24
622.970897
 34
0.0
  0
DIMENSION
  5
312
102
{ACAD_XDICTIONARY
360
313
102
}
330
1F
100
AcDbEntity
  8
0
 62
     0
370
     0
100
AcDbDimension
  2
*D5
 10
239.039329
 20
188.009614
 30
0.0
 11
239.039329
 21
386.570897
 31
0.0
 70
   161
 71
     5
 42
-1.0
 73
     0
 74
     0
 75
     0
 52
5156.620156
  3
STANDARD
100
AcDbAlignedDimension
 13
246.23337
 23
585.132179
 33
0.0
 14
246.23337
 24
188.009614
 34
0.0
  0
LINE
  5
314
330
1F
100
AcDbEntity
  8
0
  6
DASHDOT
 62
     7
370
    25
100
AcDbLine
 10
736.194649
 20
622.97089
 30
0.0
 11
736.194649
 21
150.170903
 31
0.0
  0
LINE
  5
315
330
1F
100
AcDbEntity
  8
0
  6
DASHDOT
 62
     7
370
    25
100
AcDbLine
 10
289.07209
 20
150.170903
 30
0.0
 11
289.07209
 21
622.97089
 31
0.0
  0
LINE
  5
316
330
1F
100
AcDbEntity
  8
0
  6
DASHDOT
 62
     7
370
    25
100
AcDbLine
 10
779.033364
 20
188.009617
 30
0.0
 11
246.233376
 21
188.009617
 31
0.0
  0
LINE
  5
317
330
1F
100
AcDbEntity
  8
0
  6
DASHDOT
 62
     7
370
    25
100
AcDbLine
 10
246.233376
 20
585.132176
 30
0.0
 11
779.033364
 21
585.132176
 31
0.0
  0
LINE
  5
318
330
1F
100
AcDbEntity
  8
0
  6
DASHDOT
 62
     7
370
    25
100
AcDbLine
 10
512.63337
 20
146.570897
 30
0.0
 11
512.63337
 21
626.570897
 31
0.0
  0
LINE
  5
319
330
1F
100
AcDbEntity
  8
0
  6
DASHDOT
 62
     7
370
    25
100
AcDbLine
 10
246.233376
 20
386.570897
 30
0.0
 11
779.033364
 21
386.570897
 31
0.0
  0
INSERT
  5
31A
330
1F
100
AcDbEntity
  8
0
370
     0
100
AcDbBlockReference
  2
BLOCK2
 10
512.63337
 20
386.570897
 30
0.0
  0
INSERT
  5
31B
330
1F
100
AcDbEntity
  8
0
370
     0
100
AcDbBlockReference
  2
BLOCK3
 10
512.63337
 20
386.570897
 30
0.0
  0
INSERT
  5
31C
330
1F
100
AcDbEntity
  8
0
370
     0
100
AcDbBlockReference
  2
BLOCK4
 10
512.63337
 20
386.570897
 30
0.0
  0
INSERT
  5
31D
330
1F
100
AcDbEntity
  8
0
370
     0
100
AcDbBlockReference
  2
BLOCK5
 10
512.63337
 20
386.570897
 30
0.0
  0
INSERT
  5
31E
330
1F
100
AcDbEntity
  8
0
370
     0
100
AcDbBlockReference
  2
BLOCK6
 10
512.63337
 20
386.570897
 30
0.0
  0
INSERT
  5
31F
330
1F
100
AcDbEntity
  8
0
370
     0
100
AcDbBlockReference
  2
BLOCK7
 10
512.63337
 20
386.570897
 30
0.0
  0
INSERT
  5
320
330
1F
100
AcDbEntity
  8
0
370
     0
100
AcDbBlockReference
  2
BLOCK8
 10
512.63337
 20
386.570897
 30
0.0
  0
INSERT
  5
321
330
1F
100
AcDbEntity
  8
0
370
     0
100
AcDbBlockReference
  2
BLOCK9
 10
512.63337
 20
386.570897
 30
0.0
  0
INSERT
  5
322
330
1F
100
AcDbEntity
  8
0
370
     0
100
AcDbBlockReference
  2
BLOCK10
 10
512.63337
 20
386.570897
 30
0.0
  0
INSERT
  5
323
330
1F
100
AcDbEntity
  8
0
370
     0
100
AcDbBlockReference
  2
BLOCK11
 10
512.63337
 20
386.570897
 30
0.0
  0
INSERT
  5
324
330
1F
100
AcDbEntity
  8
0
370
     0
100
AcDbBlockReference
  2
BLOCK12
 10
512.63337
 20
386.570897
 30
0.0
  0
INSERT
  5
325
330
1F
100
AcDbEntity
  8
0
370
     0
100
AcDbBlockReference
  2
BLOCK13
 10
512.63337
 20
386.570897
 30
0.0
  0
INSERT
  5
326
330
1F
100
AcDbEntity
  8
0
370
     0
100
AcDbBlockReference
  2
BLOCK14
 10
512.63337
 20
386.570897
 30
0.0
  0
INSERT
  5
327
330
1F
100
AcDbEntity
  8
0
370
     0
100
AcDbBlockReference
  2
BLOCK15
 10
512.63337
 20
386.570897
 30
0.0
  0
INSERT
  5
328
330
1F
100
AcDbEntity
  8
0
370
     0
100
AcDbBlockReference
  2
BLOCK16
 10
512.63337
 20
386.570897
 30
0.0
  0
INSERT
  5
329
330
1F
100
AcDbEntity
  8
0
370
     0
100
AcDbBlockReference
  2
BLOCK17
 10
512.63337
 20
386.570897
 30
0.0
  0
INSERT
  5
32A
330
1F
100
AcDbEntity
  8
0
370
     0
100
AcDbBlockReference
  2
BLOCK18
 10
512.63337
 20
386.570897
 30
0.0
  0
INSERT
  5
32B
330
1F
100
AcDbEntity
  8
0
370
     0
100
AcDbBlockReference
  2
BLOCK19
 10
512.63337
 20
386.570897
 30
0.0
  0
INSERT
  5
32C
330
1F
100
AcDbEntity
  8
0
370
     0
100
AcDbBlockReference
  2
BLOCK20
 10
512.63337
 20
386.570897
 30
0.0
  0
INSERT
  5
32D
330
1F
100
AcDbEntity
  8
0
370
     0
100
AcDbBlockReference
  2
BLOCK21
 10
512.63337
 20
386.570897
 30
0.0
  0
INSERT
  5
32E
330
1F
100
AcDbEntity
  8
0
370
     0
100
AcDbBlockReference
  2
BLOCK22
 10
512.63337
 20
386.570897
 30
0.0
  0
INSERT
  5
32F
330
1F
100
AcDbEntity
  8
0
370
     0
100
AcDbBlockReference
  2
BLOCK23
 10
512.63337
 20
386.570897
 30
0.0
  0
INSERT
  5
330
330
1F
100
AcDbEntity
  8
0
370
     0
100
AcDbBlockReference
  2
BLOCK24
 10
512.63337
 20
386.570897
 30
0.0
  0
INSERT
  5
331
330
1F
100
AcDbEntity
  8
0
370
     0
100
AcDbBlockReference
  2
BLOCK25
 10
512.63337
 20
386.570897
 30
0.0
  0
INSERT
  5
332
330
1F
100
AcDbEntity
  8
0
370
     0
100
AcDbBlockReference
  2
BLOCK26
 10
512.63337
 20
386.570897
 30
0.0
  0
INSERT
  5
333
330
1F
100
AcDbEntity
  8
0
370
     0
100
AcDbBlockReference
  2
BLOCK27
 10
512.63337
 20
386.570897
 30
0.0
  0
INSERT
  5
334
330
1F
100
AcDbEntity
  8
0
370
     0
100
AcDbBlockReference
  2
BLOCK28
 10
512.63337
 20
386.570897
 30
0.0
  0
INSERT
  5
335
330
1F
100
AcDbEntity
  8
0
370
     0
100
AcDbBlockReference
  2
BLOCK29
 10
512.63337
 20
386.570897
 30
0.0
  0
INSERT
  5
336
330
1F
100
AcDbEntity
  8
0
370
     0
100
AcDbBlockReference
  2
BLOCK30
 10
512.63337
 20
386.570897
 30
0.0
  0
INSERT
  5
337
330
1F
100
AcDbEntity
  8
0
370
     0
100
AcDbBlockReference
  2
BLOCK31
 10
512.63337
 20
386.570897
 30
0.0
  0
INSERT
  5
338
330
1F
100
AcDbEntity
  8
0
370
     0
100
AcDbBlockReference
  2
BLOCK32
 10
512.63337
 20
386.570897
 30
0.0
  0
INSERT
  5
339
330
1F
100
AcDbEntity
  8
0
370
     0
100
AcDbBlockReference
  2
BLOCK33
 10
512.63337
 20
386.570897
 30
0.0
  0
INSERT
  5
33A
330
1F
100
AcDbEntity
  8
0
370
     0
100
AcDbBlockReference
  2
BLOCK34
 10
512.63337
 20
386.570897
 30
0.0
  0
INSERT
  5
33B
330
1F
100
AcDbEntity
  8
0
370
     0
100
AcDbBlockReference
  2
BLOCK35
 10
512.63337
 20
386.570897
 30
0.0
  0
INSERT
  5
33C
330
1F
100
AcDbEntity
  8
0
370
     0
100
AcDbBlockReference
  2
BLOCK36
 10
512.63337
 20
386.570897
 30
0.0
  0
INSERT
  5
33D
330
1F
100
AcDbEntity
  8
0
370
     0
100
AcDbBlockReference
  2
BLOCK37
 10
512.63337
 20
386.570897
 30
0.0
  0
INSERT
  5
33E
330
1F
100
AcDbEntity
  8
0
370
     0
100
AcDbBlockReference
  2
BLOCK38
 10
512.63337
 20
386.570897
 30
0.0
  0
INSERT
  5
33F
330
1F
100
AcDbEntity
  8
0
370
     0
100
AcDbBlockReference
  2
BLOCK39
 10
512.63337
 20
386.570897
 30
0.0
  0
INSERT
  5
340
330
1F
100
AcDbEntity
  8
0
370
     0
100
AcDbBlockReference
  2
BLOCK40
 10
512.63337
 20
386.570897
 30
0.0
  0
INSERT
  5
341
330
1F
100
AcDbEntity
  8
0
370
     0
100
AcDbBlockReference
  2
BLOCK41
 10
512.63337
 20
386.570897
 30
0.0
  0
INSERT
  5
342
330
1F
100
AcDbEntity
  8
0
370
     0
100
AcDbBlockReference
  2
BLOCK42
 10
512.63337
 20
386.570897
 30
0.0
  0
INSERT
  5
343
330
1F
100
AcDbEntity
  8
0
370
     0
100
AcDbBlockReference
  2
BLOCK43
 10
512.63337
 20
386.570897
 30
0.0
  0
INSERT
  5
344
330
1F
100
AcDbEntity
  8
0
370
     0
100
AcDbBlockReference
  2
BLOCK44
 10
512.63337
 20
386.570897
 30
0.0
  0
INSERT
  5
345
330
1F
100
AcDbEntity
  8
0
370
     0
100
AcDbBlockReference
  2
BLOCK45
 10
512.63337
 20
386.570897
 30
0.0
  0
INSERT
  5
346
330
1F
100
AcDbEntity
  8
0
370
     0
100
AcDbBlockReference
  2
BLOCK46
 10
512.63337
 20
386.570897
 30
0.0
  0
INSERT
  5
347
330
1F
100
AcDbEntity
  8
0
370
     0
100
AcDbBlockReference
  2
BLOCK47
 10
512.63337
 20
386.570897
 30
0.0
  0
INSERT
  5
348
330
1F
100
AcDbEntity
  8
0
370
     0
100
AcDbBlockReference
  2
BLOCK48
 10
512.63337
 20
386.570897
 30
0.0
  0
INSERT
  5
349
330
1F
100
AcDbEntity
  8
0
370
     0
100
AcDbBlockReference
  2
BLOCK49
 10
512.63337
 20
386.570897
 30
0.0
  0
INSERT
  5
34A
330
1F
100
AcDbEntity
  8
0
370
     0
100
AcDbBlockReference
  2
BLOCK50
 10
512.63337
 20
386.570897
 30
0.0
  0
INSERT
  5
34B
330
1F
100
AcDbEntity
  8
0
370
     0
100
AcDbBlockReference
  2
BLOCK51
 10
512.63337
 20
386.570897
 30
0.0
  0
INSERT
  5
34C
330
1F
100
AcDbEntity
  8
0
370
     0
100
AcDbBlockReference
  2
BLOCK52
 10
512.63337
 20
386.570897
 30
0.0
  0
INSERT
  5
34D
330
1F
100
AcDbEntity
  8
0
370
     0
100
AcDbBlockReference
  2
BLOCK53
 10
512.63337
 20
386.570897
 30
0.0
  0
INSERT
  5
34E
330
1F
100
AcDbEntity
  8
0
370
     0
100
AcDbBlockReference
  2
BLOCK54
 10
512.63337
 20
386.570897
 30
0.0
  0
INSERT
  5
34F
330
1F
100
AcDbEntity
  8
0
370
     0
100
AcDbBlockReference
  2
BLOCK55
 10
512.63337
 20
386.570897
 30
0.0
  0
INSERT
  5
350
330
1F
100
AcDbEntity
  8
0
370
     0
100
AcDbBlockReference
  2
BLOCK56
 10
512.63337
 20
386.570897
 30
0.0
  0
INSERT
  5
351
330
1F
100
AcDbEntity
  8
0
370
     0
100
AcDbBlockReference
  2
BLOCK57
 10
512.63337
 20
386.570897
 30
0.0
  0
INSERT
  5
352
330
1F
100
AcDbEntity
  8
0
370
     0
100
AcDbBlockReference
  2
BLOCK58
 10
512.63337
 20
386.570897
 30
0.0
  0
INSERT
  5
353
330
1F
100
AcDbEntity
  8
0
370
     0
100
AcDbBlockReference
  2
BLOCK59
 10
512.63337
 20
386.570897
 30
0.0
  0
INSERT
  5
354
330
1F
100
AcDbEntity
  8
0
370
     0
100
AcDbBlockReference
  2
BLOCK60
 10
512.63337
 20
386.570897
 30
0.0
  0
INSERT
  5
355
330
1F
100
AcDbEntity
  8
0
370
     0
100
AcDbBlockReference
  2
BLOCK61
 10
512.63337
 20
386.570897
 30
0.0
  0
INSERT
  5
356
330
1F
100
AcDbEntity
  8
0
370
     0
100
AcDbBlockReference
  2
BLOCK62
 10
512.63337
 20
386.570897
 30
0.0
  0
INSERT
  5
357
330
1F
100
AcDbEntity
  8
0
370
     0
100
AcDbBlockReference
  2
BLOCK63
 10
512.63337
 20
386.570897
 30
0.0
  0
INSERT
  5
358
330
1F
100
AcDbEntity
  8
0
370
     0
100
AcDbBlockReference
  2
BLOCK64
 10
512.63337
 20
386.570897
 30
0.0
  0
INSERT
  5
359
330
1F
100
AcDbEntity
  8
0
370
     0
100
AcDbBlockReference
  2
BLOCK65
 10
512.63337
 20
386.570897
 30
0.0
  0
INSERT
  5
35A
330
1F
100
AcDbEntity
  8
0
370
     0
100
AcDbBlockReference
  2
BLOCK66
 10
512.63337
 20
386.570897
 30
0.0
  0
INSERT
  5
35B
330
1F
100
AcDbEntity
  8
0
370
     0
100
AcDbBlockReference
  2
BLOCK67
 10
512.63337
 20
386.570897
 30
0.0
  0
INSERT
  5
35C
330
1F
100
AcDbEntity
  8
0
370
     0
100
AcDbBlockReference
  2
BLOCK68
 10
512.63337
 20
386.570897
 30
0.0
  0
INSERT
  5
35D
330
1F
100
AcDbEntity
  8
0
370
     0
100
AcDbBlockReference
  2
BLOCK69
 10
512.63337
 20
386.570897
 30
0.0
  0
INSERT
  5
35E
330
1F
100
AcDbEntity
  8
0
370
     0
100
AcDbBlockReference
  2
BLOCK70
 10
512.63337
 20
386.570897
 30
0.0
  0
ENDSEC
  0
SECTION
  2
OBJECTS
  0
DICTIONARY
  5
C
330
0
100
AcDbDictionary
281
     1
  3
ACAD_DETAILVIEWSTYLE
350
368
  3
ACAD_GROUP
350
D
  3
ACAD_LAYOUT
350
1A
  3
ACAD_MATERIAL
350
43
  3
ACAD_MLEADERSTYLE
350
6B
  3
ACAD_MLINESTYLE
350
17
  3
ACAD_PLOTSETTINGS
350
19
  3
ACAD_PLOTSTYLENAME
350
E
  3
ACAD_SCALELIST
350
47
  3
ACAD_SECTIONVIEWSTYLE
350
369
  3
ACAD_TABLESTYLE
350
69
  3
ACAD_VISUALSTYLE
350
2A
  3
ACDB_RECOMPOSE_DATA
350
364
  3
AcDbVariableDictionary
350
35F
  0
SUN
  5
6D
330
29
100
AcDbSun
 90
        1
290
     0
 63
     7
421
 16777215
 40
1.0
291
     1
 91
  2455826
 92
 54000000
292
     0
 70
     2
 71
   256
280
     1
  0
DICTIONARY
  5
30D
330
30C
100
AcDbDictionary
280
     1
281
     1
  0
DICTIONARY
  5
30F
330
30E
100
AcDbDictionary
280
     1
281
     1
  0
DICTIONARY
  5
311
330
310
100
AcDbDictionary
280
     1
281
     1
  0
DICTIONARY
  5
313
330
312
100
AcDbDictionary
280
     1
281
     1
  0
DICTIONARY
  5
368
102
{ACAD_REACTORS
330
C
102
}
330
C
100
AcDbDictionary
281
     1
  0
DICTIONARY
  5
D
102
{ACAD_REACTORS
330
C
102
}
330
C
100
AcDbDictionary
281
     1
  0
DICTIONARY
  5
1A
102
{ACAD_REACTORS
330
C
102
}
330
C
100
AcDbDictionary
281
     1
  3
Layout1
350
1E
  3
Layout2
350
26
  3
Model
350
22
  0
DICTIONARY
  5
43
102
{ACAD_REACTORS
330
C
102
}
330
C
100
AcDbDictionary
281
     1
  3
ByBlock
350
45
  3
ByLayer
350
44
  3
Global
350
46
  0
DICTIONARY
  5
6B
102
{ACAD_REACTORS
330
C
102
}
330
C
100
AcDbDictionary
281
     1
  3
Standard
350
6C
  0
DICTIONARY
  5
17
102
{ACAD_REACTORS
330
C
102
}
330
C
100
AcDbDictionary
281
     1
  3
Standard
350
18
  0
DICTIONARY
  5
19
102
{ACAD_REACTORS
330
C
102
}
330
C
100
AcDbDictionary
281
     1
  0
ACDBDICTIONARYWDFLT
  5
E
102
{ACAD_REACTORS
330
C
102
}
330
C
100
AcDbDictionary
281
     1
  3
Normal
350
F
100
AcDbDictionaryWithDefault
340
F
  0
DICTIONARY
  5
47
102
{ACAD_REACTORS
330
C
102
}
330
C
100
AcDbDictionary
281
     1
  3
A0
350
48
  3
A1
350
49
  3
A2
350
4A
  3
A3
350
4B
  3
A4
350
4C
  3
A5
350
4D
  3
A6
350
4E
  3
A7
350
4F
  3
A8
350
50
  3
A9
350
51
  3
B0
350
52
  3
B1
350
53
  3
B2
350
54
  3
B3
350
55
  3
B4
350
56
  3
B5
350
57
  3
B6
350
58
  3
B7
350
59
  3
B8
350
5A
  3
B9
350
5B
  3
C0
350
5C
  3
C1
350
5D
  3
C2
350
5E
  3
C3
350
5F
  3
C4
350
60
  3
C5
350
61
  3
C6
350
62
  3
C7
350
63
  3
C8
350
64
  3
C9
350
65
  3
D0
350
66
  3
D1
350
67
  3
D2
350
68
  0
DICTIONARY
  5
369
102
{ACAD_REACTORS
330
C
102
}
330
C
100
AcDbDictionary
281
     1
  0
DICTIONARY
  5
69
102
{ACAD_REACTORS
330
C
102
}
330
C
100
AcDbDictionary
281
     1
  3
Standard
350
6A
  0
DICTIONARY
  5
2A
102
{ACAD_REACTORS
330
C
102
}
330
C
100
AcDbDictionary
281
     1
  3
2dWireframe
350
2F
  3
Basic
350
32
  3
Brighten
350
36
  3
ColorChange
350
3A
  3
Conceptual
350
34
  3
Dim
350
35
  3
EdgeColorOff
350
3D
  3
Facepattern
350
39
  3
Flat
350
2B
  3
FlatWithEdges
350
2C
  3
Gouraud
350
2D
  3
GouraudWithEdges
350
2E
  3
Hidden
350
31
  3
JitterOff
350
3B
  3
Linepattern
350
38
  3
OverhangOff
350
3C
  3
Realistic
350
33
  3
Shaded
350
42
  3
Shaded with edges
350
41
  3
Shades of Gray
350
3E
  3
Sketchy
350
3F
  3
Thicken
350
37
  3
Wireframe
350
30
  3
X-Ray
350
40
  0
XRECORD
  5
364
102
{ACAD_REACTORS
330
C
102
}
330
C
100
AcDbXrecord
280
     1
 90
        1
330
6A
  0
DICTIONARY
  5
35F
102
{ACAD_REACTORS
330
C
102
}
330
C
100
AcDbDictionary
281
     1
  3
CANNOSCALE
350
360
  3
CMLEADERSTYLE
350
366
  3
CTABLESTYLE
350
365
  3
XCLIPFRAME
350
367
  0
LAYOUT
  5
1E
102
{ACAD_REACTORS
330
1A
102
}
330
1A
100
AcDbPlotSettings
  1

  2
none_device
  4

  6

 40
0.0
 41
0.0
 42
0.0
 43
0.0
 44
0.0
 45
0.0
 46
0.0
 47
0.0
 48
0.0
 49
0.0
140
0.0
141
0.0
142
1.0
143
1.0
 70
  4784
 72
     0
 73
     0
 74
     5
  7

 75
    16
 76
     0
 77
     2
 78
   300
147
1.0
148
0.0
149
0.0
100
AcDbLayout
  1
Layout1
 70
     1
 71
     1
 10
0.0
 20
0.0
 11
420.0
 21
297.0
 12
0.0
 22
0.0
 32
0.0
 14
0.0
 24
0.0
 34
0.0
 15
266.399994
 25
316.0
 35
2.0
146
0.0
 13
0.0
 23
0.0
 33
0.0
 16
1.0
 26
0.0
 36
0.0
 17
0.0
 27
1.0
 37
0.0
 76
     0
330
1B
  0
LAYOUT
  5
26
102
{ACAD_REACTORS
330
1A
102
}
330
1A
100
AcDbPlotSettings
  1

  2
none_device
  4

  6

 40
0.0
 41
0.0
 42
0.0
 43
0.0
 44
0.0
 45
0.0
 46
0.0
 47
0.0
 48
0.0
 49
0.0
140
0.0
141
0.0
142
1.0
143
1.0
 70
  4784
 72
     0
 73
     0
 74
     5
  7

 75
    16
 76
     0
 77
     2
 78
   300
147
1.0
148
0.0
149
0.0
100
AcDbLayout
  1
Layout2
 70
     1
 71
     2
 10
0.0
 20
0.0
 11
0.0
 21
0.0
 12
0.0
 22
0.0
 32
0.0
 14
0.0
 24
0.0
 34
0.0
 15
0.0
 25
0.0
 35
0.0
146
0.0
 13
0.0
 23
0.0
 33
0.0
 16
1.0
 26
0.0
 36
0.0
 17
0.0
 27
1.0
 37
0.0
 76
     0
330
23
  0
LAYOUT
  5
22
102
{ACAD_REACTORS
330
1A
102
}
330
1A
100
AcDbPlotSettings
  1

  2
none_device
  4
Letter_(8.50_x_11.00_Inches)
  6

 40
6.35
 41
6.35
 42
6.350005
 43
6.350005
 44
215.9
 45
279.4
 46
0.0
 47
0.0
 48
0.0
 49
0.0
140
0.0
141
0.0
142
1.0
143
1.0
 70
  5808
 72
     0
 73
     0
 74
     0
  7

 75
     0
 76
     0
 77
     2
 78
   300
147
1.0
148
0.0
149
0.0
100
AcDbLayout
  1
Model
 70
     1
 71
     0
 10
0.0
 20
0.0
 11
420.0
 21
297.0
 12
0.0
 22
0.0
 32
0.0
 14
0.0
 24
0.0
 34
0.0
 15
266.399994
 25
316.0
 35
2.0
146
0.0
 13
0.0
 23
0.0
 33
0.0
 16
1.0
 26
0.0
 36
0.0
 17
0.0
 27
1.0
 37
0.0
 76
     0
330
1F
331
29
  0
MATERIAL
  5
45
102
{ACAD_REACTORS
330
43
102
}
330
43
100
AcDbMaterial
  1
ByBlock
 72
     1
 94
      127
  0
MATERIAL
  5
44
102
{ACAD_REACTORS
330
43
102
}
330
43
100
AcDbMaterial
  1
ByLayer
 72
     1
 94
      127
  0
MATERIAL
  5
46
102
{ACAD_REACTORS
330
43
102
}
330
43
100
AcDbMaterial
  1
Global
 72
     1
 94
      127
  0
MLEADERSTYLE
  5
6C
102
{ACAD_REACTORS
330
6B
102
}
330
6B
100
AcDbMLeaderStyle
170
     2
171
     1
172
     0
 90
        2
 40
0.0
 41
0.0
173
     1
 91
-1056964608
340
14
 92
       -2
290
     1
 42
0.09
291
     1
 43
0.36
  3
Standard
341
0
 44
0.18
300

342
11
174
     1
178
     6
175
     1
176
     0
 93
-1056964608
 45
0.18
292
     0
297
     0
 46
0.18
343
0
 94
-1056964608
 47
1.0
 49
1.0
140
1.0
293
     1
141
0.0
294
     1
177
     0
142
1.0
295
     0
296
     0
143
0.125
1001
ACAD_MLEADERVER
1070
     2
  0
MLINESTYLE
  5
18
102
{ACAD_REACTORS
330
17
102
}
330
17
100
AcDbMlineStyle
  2
Standard
 70
     0
  3

 62
   256
 51
90.0
 52
90.0
 71
     2
 49
0.5
 62
   256
  6
BYLAYER
 49
-0.5
 62
   256
  6
BYLAYER
  0
ACDBPLACEHOLDER
  5
F
102
{ACAD_REACTORS
330
E
102
}
330
E
  0
SCALE
  5
48
102
{ACAD_REACTORS
330
47
102
}
330
47
100
AcDbScale
 70
     0
300
1:1
140
1.0
141
1.0
290
     1
  0
SCALE
  5
49
102
{ACAD_REACTORS
330
47
102
}
330
47
100
AcDbScale
 70
     0
300
1:2
140
1.0
141
2.0
290
     0
  0
SCALE
  5
4A
102
{ACAD_REACTORS
330
47
102
}
330
47
100
AcDbScale
 70
     0
300
1:4
140
1.0
141
4.0
290
     0
  0
SCALE
  5
4B
102
{ACAD_REACTORS
330
47
102
}
330
47
100
AcDbScale
 70
     0
300
1:5
140
1.0
141
5.0
290
     0
  0
SCALE
  5
4C
102
{ACAD_REACTORS
330
47
102
}
330
47
100
AcDbScale
 70
     0
300
1:8
140
1.0
141
8.0
290
     0
  0
SCALE
  5
4D
102
{ACAD_REACTORS
330
47
102
}
330
47
100
AcDbScale
 70
     0
300
1:10
140
1.0
141
10.0
290
     0
  0
SCALE
  5
4E
102
{ACAD_REACTORS
330
47
102
}
330
47
100
AcDbScale
 70
     0
300
1:16
140
1.0
141
16.0
290
     0
  0
SCALE
  5
4F
102
{ACAD_REACTORS
330
47
102
}
330
47
100
AcDbScale
 70
     0
300
1:20
140
1.0
141
20.0
290
     0
  0
SCALE
  5
50
102
{ACAD_REACTORS
330
47
102
}
330
47
100
AcDbScale
 70
     0
300
1:30
140
1.0
141
30.0
290
     0
  0
SCALE
  5
51
102
{ACAD_REACTORS
330
47
102
}
330
47
100
AcDbScale
 70
     0
300
1:40
140
1.0
141
40.0
290
     0
  0
SCALE
  5
52
102
{ACAD_REACTORS
330
47
102
}
330
47
100
AcDbScale
 70
     0
300
1:50
140
1.0
141
50.0
290
     0
  0
SCALE
  5
53
102
{ACAD_REACTORS
330
47
102
}
330
47
100
AcDbScale
 70
     0
300
1:100
140
1.0
141
100.0
290
     0
  0
SCALE
  5
54
102
{ACAD_REACTORS
330
47
102
}
330
47
100
AcDbScale
 70
     0
300
2:1
140
2.0
141
1.0
290
     0
  0
SCALE
  5
55
102
{ACAD_REACTORS
330
47
102
}
330
47
100
AcDbScale
 70
     0
300
4:1
140
4.0
141
1.0
290
     0
  0
SCALE
  5
56
102
{ACAD_REACTORS
330
47
102
}
330
47
100
AcDbScale
 70
     0
300
8:1
140
8.0
141
1.0
290
     0
  0
SCALE
  5
57
102
{ACAD_REACTORS
330
47
102
}
330
47
100
AcDbScale
 70
     0
300
10:1
140
10.0
141
1.0
290
     0
  0
SCALE
  5
58
102
{ACAD_REACTORS
330
47
102
}
330
47
100
AcDbScale
 70
     0
300
100:1
140
100.0
141
1.0
290
     0
  0
SCALE
  5
59
102
{ACAD_REACTORS
330
47
102
}
330
47
100
AcDbScale
 70
     0
300
1/128" = 1'-0"
140
0.007812
141
12.0
290
     0
  0
SCALE
  5
5A
102
{ACAD_REACTORS
330
47
102
}
330
47
100
AcDbScale
 70
     0
300
1/64" = 1'-0"
140
0.015625
141
12.0
290
     0
  0
SCALE
  5
5B
102
{ACAD_REACTORS
330
47
102
}
330
47
100
AcDbScale
 70
     0
300
1/32" = 1'-0"
140
0.03125
141
12.0
290
     0
  0
SCALE
  5
5C
102
{ACAD_REACTORS
330
47
102
}
330
47
100
AcDbScale
 70
     0
300
1/16" = 1'-0"
140
0.0625
141
12.0
290
     0
  0
SCALE
  5
5D
102
{ACAD_REACTORS
330
47
102
}
330
47
100
AcDbScale
 70
     0
300
3/32" = 1'-0"
140
0.09375
141
12.0
290
     0
  0
SCALE
  5
5E
102
{ACAD_REACTORS
330
47
102
}
330
47
100
AcDbScale
 70
     0
300
1/8" = 1'-0"
140
0.125
141
12.0
290
     0
  0
SCALE
  5
5F
102
{ACAD_REACTORS
330
47
102
}
330
47
100
AcDbScale
 70
     0
300
3/16" = 1'-0"
140
0.1875
141
12.0
290
     0
  0
SCALE
  5
60
102
{ACAD_REACTORS
330
47
102
}
330
47
100
AcDbScale
 70
     0
300
1/4" = 1'-0"
140
0.25
141
12.0
290
     0
  0
SCALE
  5
61
102
{ACAD_REACTORS
330
47
102
}
330
47
100
AcDbScale
 70
     0
300
3/8" = 1'-0"
140
0.375
141
12.0
290
     0
  0
SCALE
  5
62
102
{ACAD_REACTORS
330
47
102
}
330
47
100
AcDbScale
 70
     0
300
1/2" = 1'-0"
140
0.5
141
12.0
290
     0
  0
SCALE
  5
63
102
{ACAD_REACTORS
330
47
102
}
330
47
100
AcDbScale
 70
     0
300
3/4" = 1'-0"
140
0.75
141
12.0
290
     0
  0
SCALE
  5
64
102
{ACAD_REACTORS
330
47
102
}
330
47
100
AcDbScale
 70
     0
300
1" = 1'-0"
140
1.0
141
12.0
290
     0
  0
SCALE
  5
65
102
{ACAD_REACTORS
330
47
102
}
330
47
100
AcDbScale
 70
     0
300
1-1/2" = 1'-0"
140
1.5
141
12.0
290
     0
  0
SCALE
  5
66
102
{ACAD_REACTORS
330
47
102
}
330
47
100
AcDbScale
 70
     0
300
3" = 1'-0"
140
3.0
141
12.0
290
     0
  0
SCALE
  5
67
102
{ACAD_REACTORS
330
47
102
}
330
47
100
AcDbScale
 70
     0
300
6" = 1'-0"
140
6.0
141
12.0
290
     0
  0
SCALE
  5
68
102
{ACAD_REACTORS
330
47
102
}
330
47
100
AcDbScale
 70
     0
300
1'-0" = 1'-0"
140
12.0
141
12.0
290
     0
  0
TABLESTYLE
  5
6A
102
{ACAD_REACTORS
330
69
102
}
102
{ACAD_XDICTIONARY
360
361
102
}
330
69
100
AcDbTableStyle
  3
Standard
 70
     0
 71
     0
 40
0.06
 41
0.06
280
     0
281
     0
  7
Standard
140
0.18
170
     2
 62
     0
 63
   257
283
     0
 90
        4
 91
        0
  1

274
    -2
284
     1
 64
     0
275
    -2
285
     1
 65
     0
276
    -2
286
     1
 66
     0
277
    -2
287
     1
 67
     0
278
    -2
288
     1
 68
     0
279
    -2
289
     1
 69
     0
  7
Standard
140
0.25
170
     5
 62
     0
 63
   257
283
     0
 90
        4
 91
        0
  1

274
    -2
284
     1
 64
     0
275
    -2
285
     1
 65
     0
276
    -2
286
     1
 66
     0
277
    -2
287
     1
 67
     0
278
    -2
288
     1
 68
     0
279
    -2
289
     1
 69
     0
  7
Standard
140
0.18
170
     5
 62
     0
 63
   257
283
     0
 90
        4
 91
        0
  1

274
    -2
284
     1
 64
     0
275
    -2
285
     1
 65
     0
276
    -2
286
     1
 66
     0
277
    -2
287
     1
 67
     0
278
    -2
288
     1
 68
     0
279
    -2
289
     1
 69
     0
  0
VISUALSTYLE
  5
2F
102
{ACAD_REACTORS
330
2A
102
}
330
2A
100
AcDbVisualStyle
  2
2dWireframe
 70
     4
 71
     0
 72
     2
 73
     0
 90
        0
 40
0.6
 41
30.0
 62
     5
 63
     7
421
 16777215
 74
     1
 91
        4
 64
     7
 65
   257
 75
     1
175
     1
 42
1.0
 92
        0
 66
   257
 43
1.0
 76
     1
 77
     6
 78
     2
 67
     7
 79
     5
170
     0
171
     0
290
     0
174
     0
 93
        1
 44
0.0
173
     0
291
     0
 45
0.0
  0
VISUALSTYLE
  5
32
102
{ACAD_REACTORS
330
2A
102
}
330
2A
100
AcDbVisualStyle
  2
Basic
 70
     7
 71
     1
 72
     0
 73
     1
 90
        0
 40
0.6
 41
30.0
 62
     5
 63
     7
421
 16777215
 74
     0
 91
        4
 64
     7
 65
   257
 75
     1
175
     1
 42
1.0
 92
        8
 66
     7
 43
1.0
 76
     1
 77
     6
 78
     2
 67
     7
 79
     5
170
     0
171
     0
290
     0
174
     0
 93
        1
 44
0.0
173
     0
291
     1
 45
0.0
  0
VISUALSTYLE
  5
36
102
{ACAD_REACTORS
330
2A
102
}
330
2A
100
AcDbVisualStyle
  2
Brighten
 70
    12
 71
     2
 72
     2
 73
     0
 90
        0
 40
0.6
 41
30.0
 62
     5
 63
     7
421
 16777215
 74
     1
 91
        4
 64
     7
 65
   257
 75
     1
175
     1
 42
1.0
 92
        8
 66
     7
 43
1.0
 76
     1
 77
     6
 78
     2
 67
     7
 79
     5
170
     0
171
     0
290
     0
174
     0
 93
        1
 44
50.0
173
     0
291
     1
 45
0.0
  0
VISUALSTYLE
  5
3A
102
{ACAD_REACTORS
330
2A
102
}
330
2A
100
AcDbVisualStyle
  2
ColorChange
 70
    16
 71
     2
 72
     2
 73
     3
 90
        0
 40
0.6
 41
30.0
 62
     5
 63
     8
421
  8421504
 74
     1
 91
        4
 64
     7
 65
   257
 75
     1
175
     1
 42
1.0
 92
        8
 66
     8
424
  8421504
 43
1.0
 76
     1
 77
     6
 78
     2
 67
     7
 79
     5
170
     0
171
     0
290
     0
174
     0
 93
        1
 44
0.0
173
     0
291
     1
 45
0.0
  0
VISUALSTYLE
  5
34
102
{ACAD_REACTORS
330
2A
102
}
330
2A
100
AcDbVisualStyle
  2
Conceptual
 70
     9
 71
     3
 72
     2
 73
     0
 90
        0
 40
0.6
 41
30.0
 62
     5
 63
     7
421
 16777215
 74
     2
 91
        2
 64
     7
 65
   257
 75
     1
175
     1
 42
179.0
 92
        8
 66
     7
 43
1.0
 76
     1
 77
     6
 78
     2
 67
     7
 79
     3
170
     0
171
     0
290
     0
174
     0
 93
        1
 44
0.0
173
     0
291
     0
 45
0.0
  0
VISUALSTYLE
  5
35
102
{ACAD_REACTORS
330
2A
102
}
330
2A
100
AcDbVisualStyle
  2
Dim
 70
    11
 71
     2
 72
     2
 73
     0
 90
        0
 40
0.6
 41
30.0
 62
     5
 63
     7
421
 16777215
 74
     1
 91
        4
 64
     7
 65
   257
 75
     1
175
     1
 42
1.0
 92
        8
 66
     7
 43
1.0
 76
     1
 77
     6
 78
     2
 67
     7
 79
     5
170
     0
171
     0
290
     0
174
     0
 93
        1
 44
-50.0
173
     0
291
     1
 45
0.0
  0
VISUALSTYLE
  5
3D
102
{ACAD_REACTORS
330
2A
102
}
330
2A
100
AcDbVisualStyle
  2
EdgeColorOff
 70
    22
 71
     2
 72
     2
 73
     0
 90
        0
 40
0.6
 41
30.0
 62
     5
 63
     7
421
 16777215
 74
     1
 91
        4
 64
     7
 65
   257
 75
     1
175
     1
 42
1.0
 92
        8
 66
     7
 43
1.0
 76
     1
 77
     6
 78
     2
 67
     7
 79
     5
170
     0
171
     0
290
     0
174
     0
 93
        1
 44
0.0
173
     0
291
     1
 45
0.0
  0
VISUALSTYLE
  5
39
102
{ACAD_REACTORS
330
2A
102
}
330
2A
100
AcDbVisualStyle
  2
Facepattern
 70
    15
 71
     2
 72
     2
 73
     0
 90
        0
 40
0.6
 41
30.0
 62
     5
 63
     7
421
 16777215
 74
     1
 91
        4
 64
     7
 65
   257
 75
     1
175
     1
 42
1.0
 92
        8
 66
     7
 43
1.0
 76
     1
 77
     6
 78
     2
 67
     7
 79
     5
170
     0
171
     0
290
     0
174
     0
 93
        1
 44
0.0
173
     0
291
     1
 45
0.0
  0
VISUALSTYLE
  5
2B
102
{ACAD_REACTORS
330
2A
102
}
330
2A
100
AcDbVisualStyle
  2
Flat
 70
     0
 71
     2
 72
     1
 73
     1
 90
        2
 40
0.6
 41
30.0
 62
     5
 63
     7
421
 16777215
 74
     0
 91
        0
 64
     7
 65
   257
 75
     1
175
     1
 42
1.0
 92
        8
 66
     7
 43
1.0
 76
     1
 77
     6
 78
     2
 67
     7
 79
     5
170
     0
171
     0
290
     0
174
     0
 93
       13
 44
0.0
173
     0
291
     1
 45
0.0
  0
VISUALSTYLE
  5
2C
102
{ACAD_REACTORS
330
2A
102
}
330
2A
100
AcDbVisualStyle
  2
FlatWithEdges
 70
     1
 71
     2
 72
     1
 73
     1
 90
        2
 40
0.6
 41
30.0
 62
     5
 63
     7
421
 16777215
 74
     1
 91
        0
 64
     7
 65
   257
 75
     1
175
     1
 42
1.0
 92
        0
 66
   257
 43
1.0
 76
     1
 77
     6
 78
     2
 67
     7
 79
     5
170
     0
171
     0
290
     0
174
     0
 93
       13
 44
0.0
173
     0
291
     1
 45
0.0
  0
VISUALSTYLE
  5
2D
102
{ACAD_REACTORS
330
2A
102
}
330
2A
100
AcDbVisualStyle
  2
Gouraud
 70
     2
 71
     2
 72
     2
 73
     1
 90
        2
 40
0.6
 41
30.0
 62
     5
 63
     7
421
 16777215
 74
     0
 91
        0
 64
     7
 65
   257
 75
     1
175
     1
 42
1.0
 92
        0
 66
     7
 43
1.0
 76
     1
 77
     6
 78
     2
 67
     7
 79
     5
170
     0
171
     0
290
     0
174
     0
 93
       13
 44
0.0
173
     0
291
     1
 45
0.0
  0
VISUALSTYLE
  5
2E
102
{ACAD_REACTORS
330
2A
102
}
330
2A
100
AcDbVisualStyle
  2
GouraudWithEdges
 70
     3
 71
     2
 72
     2
 73
     1
 90
        2
 40
0.6
 41
30.0
 62
     5
 63
     7
421
 16777215
 74
     1
 91
        0
 64
     7
 65
   257
 75
     1
175
     1
 42
1.0
 92
        0
 66
   257
 43
1.0
 76
     1
 77
     6
 78
     2
 67
     7
 79
     5
170
     0
171
     0
290
     0
174
     0
 93
       13
 44
0.0
173
     0
291
     1
 45
0.0
  0
VISUALSTYLE
  5
31
102
{ACAD_REACTORS
330
2A
102
}
330
2A
100
AcDbVisualStyle
  2
Hidden
 70
     6
 71
     1
 72
     2
 73
     2
 90
        0
 40
0.6
 41
30.0
 62
     5
 63
     7
421
 16777215
 74
     2
 91
        2
 64
     7
 65
   257
 75
     2
175
     1
 42
40.0
 92
        0
 66
   257
 43
1.0
 76
     1
 77
     6
 78
     2
 67
     7
 79
     3
170
     0
171
     0
290
     0
174
     0
 93
        1
 44
0.0
173
     0
291
     0
 45
0.0
  0
VISUALSTYLE
  5
3B
102
{ACAD_REACTORS
330
2A
102
}
330
2A
100
AcDbVisualStyle
  2
JitterOff
 70
    20
 71
     2
 72
     2
 73
     0
 90
        0
 40
0.6
 41
30.0
 62
     5
 63
     7
421
 16777215
 74
     1
 91
        4
 64
     7
 65
   257
 75
     1
175
     1
 42
1.0
 92
       10
 66
     7
 43
1.0
 76
     1
 77
     6
 78
     2
 67
     7
 79
     5
170
     0
171
     0
290
     0
174
     0
 93
        1
 44
0.0
173
     0
291
     1
 45
0.0
  0
VISUALSTYLE
  5
38
102
{ACAD_REACTORS
330
2A
102
}
330
2A
100
AcDbVisualStyle
  2
Linepattern
 70
    14
 71
     2
 72
     2
 73
     0
 90
        0
 40
0.6
 41
30.0
 62
     5
 63
     7
421
 16777215
 74
     1
 91
        4
 64
     7
 65
   257
 75
     7
175
     7
 42
1.0
 92
        8
 66
     7
 43
1.0
 76
     1
 77
     6
 78
     2
 67
     7
 79
     5
170
     0
171
     0
290
     0
174
     0
 93
        1
 44
0.0
173
     0
291
     1
 45
0.0
  0
VISUALSTYLE
  5
3C
102
{ACAD_REACTORS
330
2A
102
}
330
2A
100
AcDbVisualStyle
  2
OverhangOff
 70
    21
 71
     2
 72
     2
 73
     0
 90
        0
 40
0.6
 41
30.0
 62
     5
 63
     7
421
 16777215
 74
     1
 91
        4
 64
     7
 65
   257
 75
     1
175
     1
 42
1.0
 92
        9
 66
     7
 43
1.0
 76
     1
 77
     6
 78
     2
 67
     7
 79
     5
170
     0
171
     0
290
     0
174
     0
 93
        1
 44
0.0
173
     0
291
     1
 45
0.0
  0
VISUALSTYLE
  5
33
102
{ACAD_REACTORS
330
2A
102
}
330
2A
100
AcDbVisualStyle
  2
Realistic
 70
     8
 71
     2
 72
     3
 73
     0
 90
        2
 40
0.6
 41
30.0
 62
     5
 63
     7
421
 16777215
 74
     0
 91
        0
 64
     7
 65
   257
 75
     1
175
     1
 42
1.0
 92
        8
 66
   257
 43
1.0
 76
     1
 77
     6
 78
     2
 67
     7
 79
     3
170
     0
171
     0
290
     0
174
     0
 93
       13
 44
0.0
173
     0
291
     0
 45
0.0
  0
VISUALSTYLE
  5
42
102
{ACAD_REACTORS
330
2A
102
}
330
2A
100
AcDbVisualStyle
  2
Shaded
 70
    27
 71
     2
 72
     2
 73
     1
 90
        2
 40
0.6
 41
30.0
 62
     5
 63
     7
421
 16777215
 74
     0
 91
        4
 64
     7
 65
   257
 75
     1
175
     1
 42
1.0
 92
        8
 66
   257
 43
1.0
 76
     1
 77
     6
 78
     2
 67
     8
425
  7895160
 79
     3
170
     0
171
     0
290
     0
174
     0
 93
        5
 44
0.0
173
     0
291
     0
 45
0.0
  0
VISUALSTYLE
  5
41
102
{ACAD_REACTORS
330
2A
102
}
330
2A
100
AcDbVisualStyle
  2
Shaded with edges
 70
    26
 71
     2
 72
     2
 73
     1
 90
        2
 40
0.6
 41
30.0
 62
     5
 63
     7
421
 16777215
 74
     1
 91
       10
 64
     7
 65
   257
 75
     2
175
     1
 42
1.0
 92
        8
 66
   257
 43
1.0
 76
     1
 77
     6
 78
     2
 67
     7
 79
     3
170
     0
171
     0
290
     0
174
     0
 93
        5
 44
0.0
173
     0
291
     0
 45
0.0
  0
VISUALSTYLE
  5
3E
102
{ACAD_REACTORS
330
2A
102
}
330
2A
100
AcDbVisualStyle
  2
Shades of Gray
 70
    23
 71
     2
 72
     2
 73
     3
 90
        0
 40
0.6
 41
30.0
 62
     5
 63
     7
421
 16777215
 74
     2
 91
        2
 64
     7
 65
     7
 75
     1
175
     1
 42
40.0
 92
        8
 66
     7
 43
1.0
 76
     1
 77
     6
 78
     2
 67
     7
 79
     3
170
     0
171
     0
290
     0
174
     0
 93
        1
 44
0.0
173
     0
291
     0
 45
0.0
  0
VISUALSTYLE
  5
3F
102
{ACAD_REACTORS
330
2A
102
}
330
2A
100
AcDbVisualStyle
  2
Sketchy
 70
    24
 71
     1
 72
     2
 73
     2
 90
        0
 40
0.6
 41
30.0
 62
     5
 63
     7
421
 16777215
 74
     2
 91
        2
 64
     7
 65
     7
 75
     1
175
     1
 42
40.0
 92
       11
 66
     7
 43
1.0
 76
     1
 77
     6
 78
     2
 67
     7
 79
     6
170
     0
171
     0
290
     0
174
     0
 93
        1
 44
0.0
173
     0
291
     0
 45
0.0
  0
VISUALSTYLE
  5
37
102
{ACAD_REACTORS
330
2A
102
}
330
2A
100
AcDbVisualStyle
  2
Thicken
 70
    13
 71
     2
 72
     2
 73
     0
 90
        0
 40
0.6
 41
30.0
 62
     5
 63
     7
421
 16777215
 74
     1
 91
        4
 64
     7
 65
   257
 75
     1
175
     1
 42
1.0
 92
       12
 66
     7
 43
1.0
 76
     1
 77
     6
 78
     2
 67
     7
 79
     5
170
     0
171
     0
290
     0
174
     0
 93
        1
 44
0.0
173
     0
291
     1
 45
0.0
  0
VISUALSTYLE
  5
30
102
{ACAD_REACTORS
330
2A
102
}
330
2A
100
AcDbVisualStyle
  2
Wireframe
 70
     5
 71
     0
 72
     2
 73
     0
 90
        0
 40
0.6
 41
30.0
 62
     5
 63
     7
421
 16777215
 74
     1
 91
        4
 64
     7
 65
   257
 75
     1
175
     1
 42
1.0
 92
        0
 66
   257
 43
1.0
 76
     1
 77
     6
 78
     2
 67
     7
 79
     3
170
     0
171
     0
290
     0
174
     0
 93
        1
 44
0.0
173
     0
291
     0
 45
0.0
  0
VISUALSTYLE
  5
40
102
{ACAD_REACTORS
330
2A
102
}
330
2A
100
AcDbVisualStyle
  2
X-Ray
 70
    25
 71
     2
 72
     2
 73
     1
 90
        1
 40
0.5
 41
30.0
 62
     5
 63
     7
421
 16777215
 74
     1
 91
        0
 64
     7
 65
   257
 75
     1
175
     1
 42
1.0
 92
        8
 66
     7
 43
1.0
 76
     1
 77
     6
 78
     2
 67
     7
 79
     3
170
     0
171
     0
290
     0
174
     0
 93
       13
 44
0.0
173
     0
291
     0
 45
0.0
  0
DICTIONARYVAR
  5
360
102
{ACAD_REACTORS
330
35F
102
}
330
35F
100
DictionaryVariables
280
     0
  1
1:1
  0
DICTIONARYVAR
  5
366
102
{ACAD_REACTORS
330
35F
102
}
330
35F
100
DictionaryVariables
280
     0
  1
Standard
  0
DICTIONARYVAR
  5
365
102
{ACAD_REACTORS
330
35F
102
}
330
35F
100
DictionaryVariables
280
     0
  1
Standard
  0
DICTIONARYVAR
  5
367
102
{ACAD_REACTORS
330
35F
102
}
330
35F
100
DictionaryVariables
280
     0
  1
0
  0
DICTIONARY
  5
361
330
6A
100
AcDbDictionary
280
     1
281
     1
  3
ACAD_ROUNDTRIP_2008_TABLESTYLE_CELLSTYLEMAP
360
362
  0
CELLSTYLEMAP
  5
362
102
{ACAD_REACTORS
330
361
102
}
330
361
100
AcDbCellStyleMap
 90
        3
300
CELLSTYLE
  1
TABLEFORMAT_BEGIN
 90
        5
170
     1
 91
        0
 92
    32768
 62
   257
 93
        1
300
CONTENTFORMAT
  1
CONTENTFORMAT_BEGIN
 90
        0
 91
        0
 92
        4
 93
        0
300

 40
0.0
140
1.0
 94
        5
 62
     0
340
11
144
0.25
309
CONTENTFORMAT_END
171
     1
301
MARGIN
  1
CELLMARGIN_BEGIN
 40
0.06
 40
0.06
 40
0.06
 40
0.06
 40
0.06
 40
0.06
309
CELLMARGIN_END
 94
        6
 95
        1
302
GRIDFORMAT
  1
GRIDFORMAT_BEGIN
 90
        0
 91
        1
 62
     0
 92
       -2
340
14
 93
        0
 40
0.045
309
GRIDFORMAT_END
 95
        2
302
GRIDFORMAT
  1
GRIDFORMAT_BEGIN
 90
        0
 91
        1
 62
     0
 92
       -2
340
14
 93
        0
 40
0.045
309
GRIDFORMAT_END
 95
        4
302
GRIDFORMAT
  1
GRIDFORMAT_BEGIN
 90
        0
 91
        1
 62
     0
 92
       -2
340
14
 93
        0
 40
0.045
309
GRIDFORMAT_END
 95
        8
302
GRIDFORMAT
  1
GRIDFORMAT_BEGIN
 90
        0
 91
        1
 62
     0
 92
       -2
340
14
 93
        0
 40
0.045
309
GRIDFORMAT_END
 95
       16
302
GRIDFORMAT
  1
GRIDFORMAT_BEGIN
 90
        0
 91
        1
 62
     0
 92
       -2
340
14
 93
        0
 40
0.045
309
GRIDFORMAT_END
 95
       32
302
GRIDFORMAT
  1
GRIDFORMAT_BEGIN
 90
        0
 91
        1
 62
     0
 92
       -2
340
14
 93
        0
 40
0.045
309
GRIDFORMAT_END
309
TABLEFORMAT_END
  1
CELLSTYLE_BEGIN
 90
        1
 91
        1
300
_TITLE
309
CELLSTYLE_END
300
CELLSTYLE
  1
TABLEFORMAT_BEGIN
 90
        5
170
     1
 91
        0
 92
        0
 62
   257
 93
        1
300
CONTENTFORMAT
  1
CONTENTFORMAT_BEGIN
 90
        0
 91
        0
 92
        4
 93
        0
300

 40
0.0
140
1.0
 94
        5
 62
     0
340
11
144
0.18
309
CONTENTFORMAT_END
171
     1
301
MARGIN
  1
CELLMARGIN_BEGIN
 40
0.06
 40
0.06
 40
0.06
 40
0.06
 40
0.06
 40
0.06
309
CELLMARGIN_END
 94
        6
 95
        1
302
GRIDFORMAT
  1
GRIDFORMAT_BEGIN
 90
        0
 91
        1
 62
     0
 92
       -2
340
14
 93
        0
 40
0.045
309
GRIDFORMAT_END
 95
        2
302
GRIDFORMAT
  1
GRIDFORMAT_BEGIN
 90
        0
 91
        1
 62
     0
 92
       -2
340
14
 93
        0
 40
0.045
309
GRIDFORMAT_END
 95
        4
302
GRIDFORMAT
  1
GRIDFORMAT_BEGIN
 90
        0
 91
        1
 62
     0
 92
       -2
340
14
 93
        0
 40
0.045
309
GRIDFORMAT_END
 95
        8
302
GRIDFORMAT
  1
GRIDFORMAT_BEGIN
 90
        0
 91
        1
 62
     0
 92
       -2
340
14
 93
        0
 40
0.045
309
GRIDFORMAT_END
 95
       16
302
GRIDFORMAT
  1
GRIDFORMAT_BEGIN
 90
        0
 91
        1
 62
     0
 92
       -2
340
14
 93
        0
 40
0.045
309
GRIDFORMAT_END
 95
       32
302
GRIDFORMAT
  1
GRIDFORMAT_BEGIN
 90
        0
 91
        1
 62
     0
 92
       -2
340
14
 93
        0
 40
0.045
309
GRIDFORMAT_END
309
TABLEFORMAT_END
  1
CELLSTYLE_BEGIN
 90
        2
 91
        1
300
_HEADER
309
CELLSTYLE_END
300
CELLSTYLE
  1
TABLEFORMAT_BEGIN
 90
        5
170
     1
 91
        0
 92
        0
 62
   257
 93
        1
300
CONTENTFORMAT
  1
CONTENTFORMAT_BEGIN
 90
        0
 91
        0
 92
        4
 93
        0
300

 40
0.0
140
1.0
 94
        2
 62
     0
340
11
144
0.18
309
CONTENTFORMAT_END
171
     1
301
MARGIN
  1
CELLMARGIN_BEGIN
 40
0.06
 40
0.06
 40
0.06
 40
0.06
 40
0.06
 40
0.06
309
CELLMARGIN_END
 94
        6
 95
        1
302
GRIDFORMAT
  1
GRIDFORMAT_BEGIN
 90
        0
 91
        1
 62
     0
 92
       -2
340
14
 93
        0
 40
0.045
309
GRIDFORMAT_END
 95
        2
302
GRIDFORMAT
  1
GRIDFORMAT_BEGIN
 90
        0
 91
        1
 62
     0
 92
       -2
340
14
 93
        0
 40
0.045
309
GRIDFORMAT_END
 95
        4
302
GRIDFORMAT
  1
GRIDFORMAT_BEGIN
 90
        0
 91
        1
 62
     0
 92
       -2
340
14
 93
        0
 40
0.045
309
GRIDFORMAT_END
 95
        8
302
GRIDFORMAT
  1
GRIDFORMAT_BEGIN
 90
        0
 91
        1
 62
     0
 92
       -2
340
14
 93
        0
 40
0.045
309
GRIDFORMAT_END
 95
       16
302
GRIDFORMAT
  1
GRIDFORMAT_BEGIN
 90
        0
 91
        1
 62
     0
 92
       -2
340
14
 93
        0
 40
0.045
309
GRIDFORMAT_END
 95
       32
302
GRIDFORMAT
  1
GRIDFORMAT_BEGIN
 90
        0
 91
        1
 62
     0
 92
       -2
340
14
 93
        0
 40
0.045
309
GRIDFORMAT_END
309
TABLEFORMAT_END
  1
CELLSTYLE_BEGIN
 90
        3
 91
        2
300
_DATA
309
CELLSTYLE_END
  0
ENDSEC
  0
EOF
