  0
SECTION
  2
HEADER
  9
$ACADVER
  1
AC1021
  9
$ACADMAINTVER
 70
    25
  9
$DWGCODEPAGE
  3
ANSI_1252
  9
$INSBASE
 10
0.0
 20
0.0
 30
0.0
  9
$EXTMIN
 10
0.0
 20
0.0
 30
0.0
  9
$EXTMAX
 10
105.915222
 20
75.163742
 30
2.0
  9
$LIMMIN
 10
0.0
 20
0.0
  9
$LIMMAX
 10
420.0
 20
297.0
  9
$ORTHOMODE
 70
     0
  9
$REGENMODE
 70
     1
  9
$FILLMODE
 70
     1
  9
$QTEXTMODE
 70
     0
  9
$MIRRTEXT
 70
     1
  9
$LTSCALE
 40
1.0
  9
$ATTMODE
 70
     1
  9
$TEXTSIZE
 40
2.5
  9
$TRACEWID
 40
1.0
  9
$TEXTSTYLE
  7
Standard
  9
$CLAYER
  8
0
  9
$CELTYPE
  6
ByLayer
  9
$CECOLOR
 62
   256
  9
$CELTSCALE
 40
1.0
  9
$DISPSILH
 70
     0
  9
$DIMSCALE
 40
1.0
  9
$DIMASZ
 40
2.5
  9
$DIMEXO
 40
0.625
  9
$DIMDLI
 40
3.75
  9
$DIMRND
 40
0.0
  9
$DIMDLE
 40
0.0
  9
$DIMEXE
 40
1.25
  9
$DIMTP
 40
0.0
  9
$DIMTM
 40
0.0
  9
$DIMTXT
 40
2.5
  9
$DIMCEN
 40
2.5
  9
$DIMTSZ
 40
0.0
  9
$DIMTOL
 70
     0
  9
$DIMLIM
 70
     0
  9
$DIMTIH
 70
     0
  9
$DIMTOH
 70
     0
  9
$DIMSE1
 70
     0
  9
$DIMSE2
 70
     0
  9
$DIMTAD
 70
     1
  9
$DIMZIN
 70
     8
  9
$DIMBLK
  1

  9
$DIMASO
 70
     1
  9
$DIMSHO
 70
     1
  9
$DIMPOST
  1

  9
$DIMAPOST
  1

  9
$DIMALT
 70
     0
  9
$DIMALTD
 70
     3
  9
$DIMALTF
 40
0.03937
  9
$DIMLFAC
 40
1.0
  9
$DIMTOFL
 70
     1
  9
$DIMTVP
 40
0.0
  9
$DIMTIX
 70
     0
  9
$DIMSOXD
 70
     0
  9
$DIMSAH
 70
     0
  9
$DIMBLK1
  1

  9
$DIMBLK2
  1

  9
$DIMSTYLE
  2
STANDARD
  9
$DIMCLRD
 70
     0
  9
$DIMCLRE
 70
     0
  9
$DIMCLRT
 70
     0
  9
$DIMTFAC
 40
1.0
  9
$DIMGAP
 40
0.625
  9
$DIMJUST
 70
     0
  9
$DIMSD1
 70
     0
  9
$DIMSD2
 70
     0
  9
$DIMTOLJ
 70
     0
  9
$DIMTZIN
 70
     8
  9
$DIMALTZ
 70
     0
  9
$DIMALTTZ
 70
     0
  9
$DIMUPT
 70
     0
  9
$DIMDEC
 70
     2
  9
$DIMTDEC
 70
     2
  9
$DIMALTU
 70
     2
  9
$DIMALTTD
 70
     3
  9
$DIMTXSTY
  7
Standard
  9
$DIMAUNIT
 70
     0
  9
$DIMADEC
 70
     0
  9
$DIMALTRND
 40
0.0
  9
$DIMAZIN
 70
     0
  9
$DIMDSEP
 70
    44
  9
$DIMATFIT
 70
     0
  9
$DIMFRAC
 70
     0
  9
$DIMLDRBLK
  1

  9
$DIMLUNIT
 70
     2
  9
$DIMLWD
 70
    -2
  9
$DIMLWE
 70
    -2
  9
$DIMTMOVE
 70
     0
  9
$DIMFXL
 40
1.0
  9
$DIMFXLON
 70
     0
  9
$DIMJOGANG
 40
0.785398
  9
$DIMTFILL
 70
     0
  9
$DIMTFILLCLR
 70
     0
  9
$DIMARCSYM
 70
     0
  9
$DIMLTYPE
  6

  9
$DIMLTEX1
  6

  9
$DIMLTEX2
  6

  9
$LUNITS
 70
     2
  9
$LUPREC
 70
     4
  9
$SKETCHINC
 40
1.0
  9
$FILLETRAD
 40
2.5
  9
$AUNITS
 70
     0
  9
$AUPREC
 70
     0
  9
$MENU
  1
.
  9
$ELEVATION
 40
0.0
  9
$PELEVATION
 40
0.0
  9
$THICKNESS
 40
0.0
  9
$LIMCHECK
 70
     0
  9
$CHAMFERA
 40
2.5
  9
$CHAMFERB
 40
2.5
  9
$CHAMFERC
 40
0.0
  9
$CHAMFERD
 40
0.0
  9
$SKPOLY
 70
     0
  9
$TDCREATE
 40
2447893.083333333
  9
$TDUCREATE
 40
0.0
  9
$TDUPDATE
 40
2458941.70889691
  9
$TDUUPDATE
 40
2458941.625563576
  9
$TDINDWG
 40
0.0
  9
$TDUSRTIMER
 40
0.0
  9
$USRTIMER
 70
     1
  9
$ANGBASE
 50
0.0
  9
$ANGDIR
 70
     0
  9
$PDMODE
 70
     0
  9
$PDSIZE
 40
0.0
  9
$PLINEWID
 40
0.0
  9
$SPLFRAME
 70
     0
  9
$SPLINETYPE
 70
     6
  9
$SPLINESEGS
 70
     8
  9
$HANDSEED
  5
1AD
  9
$SURFTAB1
 70
     6
  9
$SURFTAB2
 70
     6
  9
$SURFTYPE
 70
     6
  9
$SURFU
 70
     6
  9
$SURFV
 70
     6
  9
$UCSBASE
  2

  9
$UCSNAME
  2

  9
$UCSORG
 10
0.0
 20
0.0
 30
0.0
  9
$UCSXDIR
 10
1.0
 20
0.0
 30
0.0
  9
$UCSYDIR
 10
0.0
 20
1.0
 30
0.0
  9
$UCSORTHOREF
  2

  9
$UCSORTHOVIEW
 70
     1
  9
$UCSORGTOP
 10
0.0
 20
0.0
 30
0.0
  9
$UCSORGBOTTOM
 10
0.0
 20
0.0
 30
0.0
  9
$UCSORGLEFT
 10
0.0
 20
0.0
 30
0.0
  9
$UCSORGRIGHT
 10
0.0
 20
0.0
 30
0.0
  9
$UCSORGFRONT
 10
0.0
 20
0.0
 30
0.0
  9
$UCSORGBACK
 10
0.0
 20
0.0
 30
0.0
  9
$PUCSBASE
  2

  9
$PUCSNAME
  2

  9
$PUCSORG
 10
0.0
 20
0.0
 30
0.0
  9
$PUCSXDIR
 10
1.0
 20
0.0
 30
0.0
  9
$PUCSYDIR
 10
0.0
 20
1.0
 30
0.0
  9
$PUCSORTHOREF
  2

  9
$PUCSORTHOVIEW
 70
     0
  9
$PUCSORGTOP
 10
0.0
 20
0.0
 30
0.0
  9
$PUCSORGBOTTOM
 10
0.0
 20
0.0
 30
0.0
  9
$PUCSORGLEFT
 10
0.0
 20
0.0
 30
0.0
  9
$PUCSORGRIGHT
 10
0.0
 20
0.0
 30
0.0
  9
$PUCSORGFRONT
 10
0.0
 20
0.0
 30
0.0
  9
$PUCSORGBACK
 10
0.0
 20
0.0
 30
0.0
  9
$USERI1
 70
     0
  9
$USERI2
 70
     0
  9
$USERI3
 70
     0
  9
$USERI4
 70
     0
  9
$USERI5
 70
     0
  9
$USERR1
 40
0.0
  9
$USERR2
 40
0.0
  9
$USERR3
 40
0.0
  9
$USERR4
 40
0.0
  9
$USERR5
 40
0.0
  9
$WORLDVIEW
 70
     1
  9
$SHADEDGE
 70
     3
  9
$SHADEDIF
 70
    70
  9
$TILEMODE
 70
     1
  9
$MAXACTVP
 70
    64
  9
$PINSBASE
 10
0.0
 20
0.0
 30
0.0
  9
$PLIMCHECK
 70
     0
  9
$PEXTMIN
 10
0.0
 20
0.0
 30
0.0
  9
$PEXTMAX
 10
105.915222
 20
75.163742
 30
2.0
  9
$PLIMMIN
 10
0.0
 20
0.0
  9
$PLIMMAX
 10
420.0
 20
297.0
  9
$UNITMODE
 70
     0
  9
$VISRETAIN
 70
     0
  9
$PLINEGEN
 70
     0
  9
$PSLTSCALE
 70
     1
  9
$TREEDEPTH
 70
  3020
  9
$CMLSTYLE
  2
Standard
  9
$CMLJUST
 70
     0
  9
$CMLSCALE
 40
20.0
  9
$PROXYGRAPHICS
 70
     1
  9
$MEASUREMENT
 70
     1
  9
$CELWEIGHT
370
    -1
  9
$ENDCAPS
280
     0
  9
$JOINSTYLE
280
     0
  9
$LWDISPLAY
290
     0
  9
$INSUNITS
 70
     0
  9
$HYPERLINKBASE
  1

  9
$STYLESHEET
  1

  9
$XEDIT
290
     1
  9
$CEPSNTYPE
380
     0
  9
$PSTYLEMODE
290
     0
  9
$FINGERPRINTGUID
  2
{0DA78FB5-7BB4-4DBA-9792-C84CFE6BCEEF}
  9
$VERSIONGUID
  2
{FAEB1C32-E019-11D5-929B-00C0DF256EC4}
  9
$EXTNAMES
290
     1
  9
$PSVPSCALE
 40
0.0
  9
$OLESTARTUP
290
     0
  9
$SORTENTS
280
     0
  9
$INDEXCTL
280
     0
  9
$HIDETEXT
280
     0
  9
$XCLIPFRAME
290
     0
  9
$HALOGAP
280
     0
  9
$OBSCOLOR
 70
     0
  9
$OBSLTYPE
280
     0
  9
$INTERSECTIONDISPLAY
280
     0
  9
$INTERSECTIONCOLOR
 70
     0
  9
$DIMASSOC
280
     0
  9
$PROJECTNAME
  1

  9
$CAMERADISPLAY
290
     0
  9
$LENSLENGTH
 40
50.0
  9
$CAMERAHEIGHT
 40
0.0
  9
$STEPSPERSEC
 40
2.0
  9
$STEPSIZE
 40
6.0
  9
$3DDWFPREC
 40
2.0
  9
$PSOLWIDTH
 40
0.25
  9
$PSOLHEIGHT
 40
4.0
  9
$LOFTANG1
 40
1.570796
  9
$LOFTANG2
 40
1.570796
  9
$LOFTMAG1
 40
0.0
  9
$LOFTMAG2
 40
0.0
  9
$LOFTPARAM
 70
     7
  9
$LOFTNORMALS
280
     1
  9
$LATITUDE
 40
37.795
  9
$LONGITUDE
 40
-122.394
  9
$NORTHDIRECTION
 40
0.0
  9
$TIMEZONE
 70
 -8000
  9
$LIGHTGLYPHDISPLAY
280
     1
  9
$TILEMODELIGHTSYNCH
280
     1
  9
$CMATERIAL
347
44
  9
$SOLIDHIST
280
     0
  9
$SHOWHIST
280
     1
  9
$DWFFRAME
280
     2
  9
$DGNFRAME
280
     2
  9
$REALWORLDSCALE
290
     1
  9
$INTERFERECOLOR
 62
   256
  9
$CSHADOW
280
     0
  9
$SHADOWPLANELOCATION
 40
0.0
  0
ENDSEC
  0
SECTION
  2
CLASSES
  0
CLASS
  1
ACDBDICTIONARYWDFLT
  2
AcDbDictionaryWithDefault
  3
ObjectDBX Classes
 90
        0
 91
        4
280
     0
281
     0
  0
CLASS
  1
VISUALSTYLE
  2
AcDbVisualStyle
  3
ObjectDBX Classes
 90
     4095
 91
        4
280
     0
281
     0
  0
CLASS
  1
MATERIAL
  2
AcDbMaterial
  3
ObjectDBX Classes
 90
     1153
 91
        4
280
     0
281
     0
  0
CLASS
  1
SCALE
  2
AcDbScale
  3
ObjectDBX Classes
 90
     1153
 91
        4
280
     0
281
     0
  0
CLASS
  1
TABLESTYLE
  2
AcDbTableStyle
  3
ObjectDBX Classes
 90
     4095
 91
        4
280
     0
281
     0
  0
CLASS
  1
MLEADERSTYLE
  2
AcDbMLeaderStyle
  3
ACDB_MLEADERSTYLE_CLASS
 90
     4095
 91
        4
280
     0
281
     0
  0
CLASS
  1
SUN
  2
AcDbSun
  3
SCENEOE
 90
     1153
 91
        4
280
     0
281
     0
  0
CLASS
  1
DICTIONARYVAR
  2
AcDbDictionaryVar
  3
ObjectDBX Classes
 90
        0
 91
        4
280
     0
281
     0
  0
CLASS
  1
CELLSTYLEMAP
  2
AcDbCellStyleMap
  3
ObjectDBX Classes
 90
     1152
 91
        4
280
     0
281
     0
  0
ENDSEC
  0
SECTION
  2
TABLES
  0
TABLE
  2
VPORT
  5
8
330
0
100
AcDbSymbolTable
 70
     1
  0
VPORT
  5
29
330
8
100
AcDbSymbolTableRecord
100
AcDbViewportTableRecord
  2
*Active
 70
     0
 10
0.0
 20
0.0
 11
1.0
 21
1.0
 12
10.429907
 22
4.5
 13
0.0
 23
0.0
 14
0.5
 24
0.5
 15
0.5
 25
0.5
 16
0.0
 26
0.0
 36
1.0
 17
0.0
 27
0.0
 37
0.0
 40
9.0
 41
1.972973
 42
50.0
 43
0.0
 44
0.0
 50
0.0
 51
0.0
 71
     0
 72
   100
 73
     1
 74
     3
 75
     0
 76
     0
 77
     0
 78
     0
281
     0
 65
     1
110
0.0
120
0.0
130
0.0
111
1.0
121
0.0
131
0.0
112
0.0
122
1.0
132
0.0
 79
     0
146
0.0
348
2F
 60
     3
 61
     5
292
     1
282
     1
141
0.0
142
0.0
 63
   250
361
6D
  0
ENDTAB
  0
TABLE
  2
LTYPE
  5
5
330
0
100
AcDbSymbolTable
 70
     2
  0
LTYPE
  5
14
330
5
100
AcDbSymbolTableRecord
100
AcDbLinetypeTableRecord
  2
ByBlock
 70
     0
  3

 72
    65
 73
     0
 40
0.0
  0
LTYPE
  5
15
330
5
100
AcDbSymbolTableRecord
100
AcDbLinetypeTableRecord
  2
ByLayer
 70
     0
  3

 72
    65
 73
     0
 40
0.0
  0
LTYPE
  5
16
330
5
100
AcDbSymbolTableRecord
100
AcDbLinetypeTableRecord
  2
Continuous
 70
     0
  3
Solid line
 72
    65
 73
     0
 40
0.0
  0
LTYPE
  5
6F
330
5
100
AcDbSymbolTableRecord
100
AcDbLinetypeTableRecord
  2
DASHDOT
 70
     0
  3
 __ . __ . __ . __ . __ . __ . __ . 
 72
    65
 73
     4
 40
18.5
 49
12.0
 74
     0
 49
-3.0
 74
     0
 49
0.5
 74
     0
 49
-3.0
 74
     0
  0
ENDTAB
  0
TABLE
  2
LAYER
  5
2
330
0
100
AcDbSymbolTable
 70
     1
  0
LAYER
  5
10
330
2
100
AcDbSymbolTableRecord
100
AcDbLayerTableRecord
  2
0
 70
     0
 62
     7
  6
Continuous
370
    13
390
F
347
46
  0
ENDTAB
  0
TABLE
  2
STYLE
  5
3
330
0
100
AcDbSymbolTable
 70
     2
  0
STYLE
  5
11
330
3
100
AcDbSymbolTableRecord
100
AcDbTextStyleTableRecord
  2
Standard
 70
     0
 40
0.0
 41
1.0
 50
0.0
 71
     0
 42
2.5
  3
isocp.shx
  4

  0
STYLE
  5
6E
330
3
100
AcDbSymbolTableRecord
100
AcDbTextStyleTableRecord
  2
GDT
 70
     0
 40
0.0
 41
1.0
 50
0.0
 71
     0
 42
0.2
  3
gdt.shx
  4

  0
ENDTAB
  0
TABLE
  2
VIEW
  5
6
330
0
100
AcDbSymbolTable
 70
     0
  0
ENDTAB
  0
TABLE
  2
UCS
  5
7
330
0
100
AcDbSymbolTable
 70
     0
  0
ENDTAB
  0
TABLE
  2
APPID
  5
9
330
0
100
AcDbSymbolTable
 70
     2
  0
APPID
  5
12
330
9
100
AcDbSymbolTableRecord
100
AcDbRegAppTableRecord
  2
ACAD
 70
     0
  0
APPID
  5
1A6
330
9
100
AcDbSymbolTableRecord
100
AcDbRegAppTableRecord
  2
ACAD_MLEADERVER
 70
     0
  0
ENDTAB
  0
TABLE
  2
DIMSTYLE
  5
A
330
0
100
AcDbSymbolTable
 70
     1
100
AcDbDimStyleTable
  0
DIMSTYLE
105
27
102
{ACAD_REACTORS
330
185
330
187
330
189
330
18B
330
18D
330
18F
330
191
330
193
102
}
330
A
100
AcDbSymbolTableRecord
100
AcDbDimStyleTableRecord
  2
STANDARD
 70
     0
 41
2.5
 42
0.625
 43
3.75
 44
1.25
 73
     0
 74
     0
 77
     1
 78
     8
140
2.5
141
2.5
143
0.03937
147
0.625
171
     3
172
     1
178
     0
271
     2
272
     2
274
     3
283
     0
284
     8
289
     0
340
0
  0
ENDTAB
  0
TABLE
  2
BLOCK_RECORD
  5
1
330
0
100
AcDbSymbolTable
 70
    22
  0
BLOCK_RECORD
  5
1F
330
1
100
AcDbSymbolTableRecord
100
AcDbBlockTableRecord
  2
*Model_Space
340
22
 70
     0
280
     1
281
     0
  0
BLOCK_RECORD
  5
1B
330
1
100
AcDbSymbolTableRecord
100
AcDbBlockTableRecord
  2
*Paper_Space
340
1E
 70
     0
280
     1
281
     0
  0
BLOCK_RECORD
  5
23
330
1
100
AcDbSymbolTableRecord
100
AcDbBlockTableRecord
  2
*Paper_Space0
340
26
 70
     0
280
     1
281
     0
  0
BLOCK_RECORD
  5
70
330
1
100
AcDbSymbolTableRecord
100
AcDbBlockTableRecord
  2
*D1
340
0
 70
     0
280
     1
281
     0
  0
BLOCK_RECORD
  5
73
330
1
100
AcDbSymbolTableRecord
100
AcDbBlockTableRecord
  2
*D2
340
0
 70
     0
280
     1
281
     0
  0
BLOCK_RECORD
  5
76
330
1
100
AcDbSymbolTableRecord
100
AcDbBlockTableRecord
  2
*D3
340
0
 70
     0
280
     1
281
     0
  0
BLOCK_RECORD
  5
79
330
1
100
AcDbSymbolTableRecord
100
AcDbBlockTableRecord
  2
*D4
340
0
 70
     0
280
     1
281
     0
  0
BLOCK_RECORD
  5
7C
330
1
100
AcDbSymbolTableRecord
100
AcDbBlockTableRecord
  2
*D5
340
0
 70
     0
280
     1
281
     0
  0
BLOCK_RECORD
  5
7F
330
1
100
AcDbSymbolTableRecord
100
AcDbBlockTableRecord
  2
*D6
340
0
 70
     0
280
     1
281
     0
  0
BLOCK_RECORD
  5
82
330
1
100
AcDbSymbolTableRecord
100
AcDbBlockTableRecord
  2
*D7
340
0
 70
     0
280
     1
281
     0
  0
BLOCK_RECORD
  5
85
330
1
100
AcDbSymbolTableRecord
100
AcDbBlockTableRecord
  2
*D8
340
0
 70
     0
280
     1
281
     0
  0
BLOCK_RECORD
  5
88
330
1
100
AcDbSymbolTableRecord
100
AcDbBlockTableRecord
  2
BLOCK197
340
0
102
{BLKREFS
331
195
102
}
 70
     0
280
     1
281
     0
  0
BLOCK_RECORD
  5
8B
330
1
100
AcDbSymbolTableRecord
100
AcDbBlockTableRecord
  2
BLOCK198
340
0
102
{BLKREFS
331
196
102
}
 70
     0
280
     1
281
     0
  0
BLOCK_RECORD
  5
8E
330
1
100
AcDbSymbolTableRecord
100
AcDbBlockTableRecord
  2
BLOCK199
340
0
102
{BLKREFS
331
197
102
}
 70
     0
280
     1
281
     0
  0
BLOCK_RECORD
  5
91
330
1
100
AcDbSymbolTableRecord
100
AcDbBlockTableRecord
  2
BLOCK200
340
0
102
{BLKREFS
331
198
102
}
 70
     0
280
     1
281
     0
  0
BLOCK_RECORD
  5
94
330
1
100
AcDbSymbolTableRecord
100
AcDbBlockTableRecord
  2
BLOCK201
340
0
102
{BLKREFS
331
199
102
}
 70
     0
280
     1
281
     0
  0
BLOCK_RECORD
  5
97
330
1
100
AcDbSymbolTableRecord
100
AcDbBlockTableRecord
  2
BLOCK202
340
0
102
{BLKREFS
331
19A
102
}
 70
     0
280
     1
281
     0
  0
BLOCK_RECORD
  5
9A
330
1
100
AcDbSymbolTableRecord
100
AcDbBlockTableRecord
  2
BLOCK203
340
0
102
{BLKREFS
331
19B
102
}
 70
     0
280
     1
281
     0
  0
BLOCK_RECORD
  5
9D
330
1
100
AcDbSymbolTableRecord
100
AcDbBlockTableRecord
  2
BLOCK204
340
0
102
{BLKREFS
331
19C
102
}
 70
     0
280
     1
281
     0
  0
BLOCK_RECORD
  5
A0
330
1
100
AcDbSymbolTableRecord
100
AcDbBlockTableRecord
  2
BLOCK205
340
0
102
{BLKREFS
331
19D
102
}
 70
     0
280
     1
281
     0
  0
BLOCK_RECORD
  5
A3
330
1
100
AcDbSymbolTableRecord
100
AcDbBlockTableRecord
  2
BLOCK206
340
0
102
{BLKREFS
331
19E
102
}
 70
     0
280
     1
281
     0
  0
BLOCK_RECORD
  5
A6
330
1
100
AcDbSymbolTableRecord
100
AcDbBlockTableRecord
  2
BLOCK207
340
0
102
{BLKREFS
331
19F
102
}
 70
     0
280
     1
281
     0
  0
BLOCK_RECORD
  5
A9
330
1
100
AcDbSymbolTableRecord
100
AcDbBlockTableRecord
  2
BLOCK208
340
0
102
{BLKREFS
331
1A0
102
}
 70
     0
280
     1
281
     0
  0
BLOCK_RECORD
  5
AC
330
1
100
AcDbSymbolTableRecord
100
AcDbBlockTableRecord
  2
BLOCK209
340
0
102
{BLKREFS
331
1A1
102
}
 70
     0
280
     1
281
     0
  0
ENDTAB
  0
ENDSEC
  0
SECTION
  2
BLOCKS
  0
BLOCK
  5
20
330
1F
100
AcDbEntity
  8
0
100
AcDbBlockBegin
  2
*Model_Space
 70
     0
 10
0.0
 20
0.0
 30
0.0
  3
*Model_Space
  1

  0
ENDBLK
  5
21
330
1F
100
AcDbEntity
  8
0
100
AcDbBlockEnd
  0
BLOCK
  5
1C
330
1B
100
AcDbEntity
 67
     1
  8
0
100
AcDbBlockBegin
  2
*Paper_Space
 70
     0
 10
0.0
 20
0.0
 30
0.0
  3
*Paper_Space
  1

  0
ENDBLK
  5
1D
330
1B
100
AcDbEntity
 67
     1
  8
0
100
AcDbBlockEnd
  0
BLOCK
  5
24
330
23
100
AcDbEntity
  8
0
100
AcDbBlockBegin
  2
*Paper_Space0
 70
     0
 10
0.0
 20
0.0
 30
0.0
  3
*Paper_Space0
  1

  0
ENDBLK
  5
25
330
23
100
AcDbEntity
  8
0
100
AcDbBlockEnd
  0
BLOCK
  5
71
330
70
100
AcDbEntity
  8
0
100
AcDbBlockBegin
  2
*D1
 70
     1
 10
0.0
 20
0.0
 30
0.0
  3
*D1
  1

  0
SOLID
  5
AF
330
70
100
AcDbEntity
  8
0
 62
     7
370
    25
100
AcDbTrace
 10
92.885975
 20
208.350533
 30
0.0
 11
91.954227
 21
211.827866
 31
0.0
 12
92.885975
 22
208.350533
 32
0.0
 13
91.02248
 23
208.350533
 33
0.0
  0
SOLID
  5
B0
330
70
100
AcDbEntity
  8
0
 62
     7
370
    25
100
AcDbTrace
 10
91.02248
 20
173.305199
 30
0.0
 11
91.954227
 21
169.827866
 31
0.0
 12
91.02248
 22
173.305199
 32
0.0
 13
92.885975
 23
173.305199
 33
0.0
  0
TEXT
  5
B1
330
70
100
AcDbEntity
  8
0
 62
     7
370
    25
100
AcDbText
 10
90.954227
 20
187.441843
 30
0.0
 40
3.5
  1
42
 50
90.0
 41
1.09817
 72
     5
 11
90.954227
 21
194.213889
 31
0.0
100
AcDbText
  0
LINE
  5
B2
330
70
100
AcDbEntity
  8
0
 62
     7
370
    25
100
AcDbLine
 10
109.847202
 20
169.827866
 30
0.0
 11
89.954227
 21
169.827866
 31
0.0
  0
LINE
  5
B3
330
70
100
AcDbEntity
  8
0
 62
     7
370
    25
100
AcDbLine
 10
109.847202
 20
211.827866
 30
0.0
 11
89.954227
 21
211.827866
 31
0.0
  0
LINE
  5
B4
330
70
100
AcDbEntity
  8
0
 62
     7
370
    25
100
AcDbLine
 10
91.954227
 20
173.305199
 30
0.0
 11
91.954227
 21
208.350533
 31
0.0
  0
POLYLINE
  5
B5
330
70
100
AcDbEntity
  8
0
 62
     7
370
    25
100
AcDb2dPolyline
 66
     1
 10
0.0
 20
0.0
 30
0.0
 70
     1
  0
VERTEX
  5
B6
330
B5
100
AcDbEntity
  8
0
370
     0
100
AcDbVertex
100
AcDb2dVertex
 10
92.885975
 20
208.350533
 30
0.0
  0
VERTEX
  5
B7
330
B5
100
AcDbEntity
  8
0
370
     0
100
AcDbVertex
100
AcDb2dVertex
 10
91.954227
 20
211.827866
 30
0.0
  0
VERTEX
  5
B8
330
B5
100
AcDbEntity
  8
0
370
     0
100
AcDbVertex
100
AcDb2dVertex
 10
91.02248
 20
208.350533
 30
0.0
  0
SEQEND
  5
B9
330
B5
100
AcDbEntity
  8
0
 62
     7
370
    25
  0
POLYLINE
  5
BA
330
70
100
AcDbEntity
  8
0
 62
     7
370
    25
100
AcDb2dPolyline
 66
     1
 10
0.0
 20
0.0
 30
0.0
 70
     1
  0
VERTEX
  5
BB
330
BA
100
AcDbEntity
  8
0
370
     0
100
AcDbVertex
100
AcDb2dVertex
 10
91.02248
 20
173.305199
 30
0.0
  0
VERTEX
  5
BC
330
BA
100
AcDbEntity
  8
0
370
     0
100
AcDbVertex
100
AcDb2dVertex
 10
91.954227
 20
169.827866
 30
0.0
  0
VERTEX
  5
BD
330
BA
100
AcDbEntity
  8
0
370
     0
100
AcDbVertex
100
AcDb2dVertex
 10
92.885975
 20
173.305199
 30
0.0
  0
SEQEND
  5
BE
330
BA
100
AcDbEntity
  8
0
 62
     7
370
    25
  0
ENDBLK
  5
72
330
70
100
AcDbEntity
  8
0
100
AcDbBlockEnd
  0
BLOCK
  5
74
330
73
100
AcDbEntity
  8
0
100
AcDbBlockBegin
  2
*D2
 70
     1
 10
0.0
 20
0.0
 30
0.0
  3
*D2
  1

  0
SOLID
  5
BF
330
73
100
AcDbEntity
  8
0
 62
     7
370
    25
100
AcDbTrace
 10
145.340431
 20
233.105125
 30
0.0
 11
148.817764
 21
234.036873
 31
0.0
 12
145.340431
 22
233.105125
 32
0.0
 13
145.340431
 23
234.96862
 33
0.0
  0
SOLID
  5
C0
330
73
100
AcDbEntity
  8
0
 62
     7
370
    25
100
AcDbTrace
 10
110.295097
 20
234.96862
 30
0.0
 11
106.817764
 21
234.036873
 31
0.0
 12
110.295097
 22
234.96862
 32
0.0
 13
110.295097
 23
233.105125
 33
0.0
  0
TEXT
  5
C1
330
73
100
AcDbEntity
  8
0
 62
     7
370
    25
100
AcDbText
 10
124.431741
 20
235.036873
 30
0.0
 40
3.5
  1
42
 41
1.09817
 72
     5
 11
131.203787
 21
235.036873
 31
0.0
100
AcDbText
  0
LINE
  5
C2
330
73
100
AcDbEntity
  8
0
 62
     7
370
    25
100
AcDbLine
 10
106.817764
 20
208.798428
 30
0.0
 11
106.817764
 21
236.036873
 31
0.0
  0
LINE
  5
C3
330
73
100
AcDbEntity
  8
0
 62
     7
370
    25
100
AcDbLine
 10
148.817764
 20
208.798428
 30
0.0
 11
148.817764
 21
236.036873
 31
0.0
  0
LINE
  5
C4
330
73
100
AcDbEntity
  8
0
 62
     7
370
    25
100
AcDbLine
 10
110.295097
 20
234.036873
 30
0.0
 11
145.340431
 21
234.036873
 31
0.0
  0
POLYLINE
  5
C5
330
73
100
AcDbEntity
  8
0
 62
     7
370
    25
100
AcDb2dPolyline
 66
     1
 10
0.0
 20
0.0
 30
0.0
 70
     1
  0
VERTEX
  5
C6
330
C5
100
AcDbEntity
  8
0
370
     0
100
AcDbVertex
100
AcDb2dVertex
 10
145.340431
 20
233.105125
 30
0.0
  0
VERTEX
  5
C7
330
C5
100
AcDbEntity
  8
0
370
     0
100
AcDbVertex
100
AcDb2dVertex
 10
148.817764
 20
234.036873
 30
0.0
  0
VERTEX
  5
C8
330
C5
100
AcDbEntity
  8
0
370
     0
100
AcDbVertex
100
AcDb2dVertex
 10
145.340431
 20
234.96862
 30
0.0
  0
SEQEND
  5
C9
330
C5
100
AcDbEntity
  8
0
 62
     7
370
    25
  0
POLYLINE
  5
CA
330
73
100
AcDbEntity
  8
0
 62
     7
370
    25
100
AcDb2dPolyline
 66
     1
 10
0.0
 20
0.0
 30
0.0
 70
     1
  0
VERTEX
  5
CB
330
CA
100
AcDbEntity
  8
0
370
     0
100
AcDbVertex
100
AcDb2dVertex
 10
110.295097
 20
234.96862
 30
0.0
  0
VERTEX
  5
CC
330
CA
100
AcDbEntity
  8
0
370
     0
100
AcDbVertex
100
AcDb2dVertex
 10
106.817764
 20
234.036873
 30
0.0
  0
VERTEX
  5
CD
330
CA
100
AcDbEntity
  8
0
370
     0
100
AcDbVertex
100
AcDb2dVertex
 10
110.295097
 20
233.105125
 30
0.0
  0
SEQEND
  5
CE
330
CA
100
AcDbEntity
  8
0
 62
     7
370
    25
  0
ENDBLK
  5
75
330
73
100
AcDbEntity
  8
0
100
AcDbBlockEnd
  0
BLOCK
  5
77
330
76
100
AcDbEntity
  8
0
100
AcDbBlockBegin
  2
*D3
 70
     1
 10
0.0
 20
0.0
 30
0.0
  3
*D3
  1

  0
SOLID
  5
CF
330
76
100
AcDbEntity
  8
0
 62
     7
370
    25
100
AcDbTrace
 10
139.938478
 20
211.008856
 30
0.0
 11
140.792359
 21
214.506123
 31
0.0
 12
139.938478
 22
211.008856
 32
0.0
 13
138.304242
 23
211.904341
 33
0.0
  0
SOLID
  5
D0
330
76
100
AcDbEntity
  8
0
 62
     7
370
    25
100
AcDbTrace
 10
115.697051
 20
170.646875
 30
0.0
 11
114.843169
 21
167.149609
 31
0.0
 12
115.697051
 22
170.646875
 32
0.0
 13
117.331286
 23
169.75139
 33
0.0
  0
TEXT
  5
D1
330
76
100
AcDbEntity
  8
0
 62
     7
370
    25
100
AcDbText
 10
95.122425
 20
153.643463
 30
0.0
 40
3.5
  1
54
 41
1.06927
 72
     5
 11
101.89447
 21
153.643463
 31
0.0
100
AcDbText
  0
TEXT
  5
D2
330
76
100
AcDbEntity
  8
0
 62
     7
370
    25
100
AcDbText
 10
91.555759
 20
153.643463
 30
0.0
 40
3.5
  1
%%c
 41
0.905882
 72
     5
 11
94.122425
 21
153.643463
 31
0.0
100
AcDbText
  0
LINE
  5
D3
330
76
100
AcDbEntity
  8
0
 62
     7
370
    25
100
AcDbLine
 10
106.89447
 20
152.643463
 30
0.0
 11
91.555756
 21
152.643463
 31
0.0
  0
ARC
  5
D4
330
76
100
AcDbEntity
  8
0
 62
     7
370
    25
100
AcDbCircle
 10
127.817764
 20
190.827866
 30
0.0
 40
27.0
100
AcDbArc
 50
143.17963
 51
245.523414
  0
ARC
  5
D5
330
76
100
AcDbEntity
  8
0
 62
     7
370
    25
100
AcDbCircle
 10
127.817764
 20
190.827866
 30
0.0
 40
27.0
100
AcDbArc
 50
57.035157
 51
126.820371
  0
LINE
  5
D6
330
76
100
AcDbEntity
  8
0
 62
     7
370
    25
100
AcDbLine
 10
106.89447
 20
152.643463
 30
0.0
 11
114.84317
 21
167.149609
 31
0.0
  0
LINE
  5
D7
330
76
100
AcDbEntity
  8
0
 62
     7
370
    25
100
AcDbLine
 10
116.514169
 20
170.199133
 30
0.0
 11
139.12136
 21
211.456598
 31
0.0
  0
POLYLINE
  5
D8
330
76
100
AcDbEntity
  8
0
 62
     7
370
    25
100
AcDb2dPolyline
 66
     1
 10
0.0
 20
0.0
 30
0.0
 70
     1
  0
VERTEX
  5
D9
330
D8
100
AcDbEntity
  8
0
370
     0
100
AcDbVertex
100
AcDb2dVertex
 10
139.938478
 20
211.008856
 30
0.0
  0
VERTEX
  5
DA
330
D8
100
AcDbEntity
  8
0
370
     0
100
AcDbVertex
100
AcDb2dVertex
 10
140.792359
 20
214.506123
 30
0.0
  0
VERTEX
  5
DB
330
D8
100
AcDbEntity
  8
0
370
     0
100
AcDbVertex
100
AcDb2dVertex
 10
138.304242
 20
211.904341
 30
0.0
  0
SEQEND
  5
DC
330
D8
100
AcDbEntity
  8
0
 62
     7
370
    25
  0
POLYLINE
  5
DD
330
76
100
AcDbEntity
  8
0
 62
     7
370
    25
100
AcDb2dPolyline
 66
     1
 10
0.0
 20
0.0
 30
0.0
 70
     1
  0
VERTEX
  5
DE
330
DD
100
AcDbEntity
  8
0
370
     0
100
AcDbVertex
100
AcDb2dVertex
 10
115.697051
 20
170.646875
 30
0.0
  0
VERTEX
  5
DF
330
DD
100
AcDbEntity
  8
0
370
     0
100
AcDbVertex
100
AcDb2dVertex
 10
114.843169
 20
167.149609
 30
0.0
  0
VERTEX
  5
E0
330
DD
100
AcDbEntity
  8
0
370
     0
100
AcDbVertex
100
AcDb2dVertex
 10
117.331286
 20
169.75139
 30
0.0
  0
SEQEND
  5
E1
330
DD
100
AcDbEntity
  8
0
 62
     7
370
    25
  0
ENDBLK
  5
78
330
76
100
AcDbEntity
  8
0
100
AcDbBlockEnd
  0
BLOCK
  5
7A
330
79
100
AcDbEntity
  8
0
100
AcDbBlockBegin
  2
*D4
 70
     1
 10
0.0
 20
0.0
 30
0.0
  3
*D4
  1

  0
SOLID
  5
E2
330
79
100
AcDbEntity
  8
0
 62
     7
370
    25
100
AcDbTrace
 10
109.810596
 20
186.827275
 30
0.0
 11
106.706219
 21
185.00441
 31
0.0
 12
109.810596
 22
186.827275
 32
0.0
 13
110.306122
 23
185.030869
 33
0.0
  0
SOLID
  5
E3
330
79
100
AcDbEntity
  8
0
 62
     7
370
    25
100
AcDbTrace
 10
145.824932
 20
194.828456
 30
0.0
 11
148.92931
 21
196.651321
 31
0.0
 12
145.824932
 22
194.828456
 32
0.0
 13
145.329407
 23
196.624863
 33
0.0
  0
TEXT
  5
E4
330
79
100
AcDbEntity
  8
0
 62
     7
370
    25
100
AcDbText
 10
216.488892
 20
215.924057
 30
0.0
 40
3.5
  1
43.8
 41
1.275591
 72
     5
 11
230.732986
 21
215.924057
 31
0.0
100
AcDbText
  0
TEXT
  5
E5
330
79
100
AcDbEntity
  8
0
 62
     7
370
    25
100
AcDbText
 10
212.922226
 20
215.924057
 30
0.0
 40
3.5
  1
%%c
 41
0.905882
 72
     5
 11
215.488892
 21
215.924057
 31
0.0
100
AcDbText
  0
LINE
  5
E6
330
79
100
AcDbEntity
  8
0
 62
     7
370
    25
100
AcDbLine
 10
207.922226
 20
212.924057
 30
0.0
 11
232.732986
 21
212.924057
 31
0.0
  0
LINE
  5
E7
330
79
100
AcDbEntity
  8
0
 62
     7
370
    25
100
AcDbLine
 10
110.058359
 20
185.929072
 30
0.0
 11
145.577169
 21
195.726659
 31
0.0
  0
LINE
  5
E8
330
79
100
AcDbEntity
  8
0
 62
     7
370
    25
100
AcDbLine
 10
148.92931
 20
196.651321
 30
0.0
 11
207.922226
 21
212.924057
 31
0.0
  0
POLYLINE
  5
E9
330
79
100
AcDbEntity
  8
0
 62
     7
370
    25
100
AcDb2dPolyline
 66
     1
 10
0.0
 20
0.0
 30
0.0
 70
     1
  0
VERTEX
  5
EA
330
E9
100
AcDbEntity
  8
0
370
     0
100
AcDbVertex
100
AcDb2dVertex
 10
210.922226
 20
221.424057
 30
0.0
  0
VERTEX
  5
EB
330
E9
100
AcDbEntity
  8
0
370
     0
100
AcDbVertex
100
AcDb2dVertex
 10
210.922226
 20
213.924057
 30
0.0
  0
VERTEX
  5
EC
330
E9
100
AcDbEntity
  8
0
370
     0
100
AcDbVertex
100
AcDb2dVertex
 10
232.732986
 20
213.924057
 30
0.0
  0
VERTEX
  5
ED
330
E9
100
AcDbEntity
  8
0
370
     0
100
AcDbVertex
100
AcDb2dVertex
 10
232.732986
 20
221.424057
 30
0.0
  0
SEQEND
  5
EE
330
E9
100
AcDbEntity
  8
0
 62
     7
370
    25
  0
POLYLINE
  5
EF
330
79
100
AcDbEntity
  8
0
 62
     7
370
    25
100
AcDb2dPolyline
 66
     1
 10
0.0
 20
0.0
 30
0.0
 70
     1
  0
VERTEX
  5
F0
330
EF
100
AcDbEntity
  8
0
370
     0
100
AcDbVertex
100
AcDb2dVertex
 10
109.810596
 20
186.827275
 30
0.0
  0
VERTEX
  5
F1
330
EF
100
AcDbEntity
  8
0
370
     0
100
AcDbVertex
100
AcDb2dVertex
 10
106.706219
 20
185.00441
 30
0.0
  0
VERTEX
  5
F2
330
EF
100
AcDbEntity
  8
0
370
     0
100
AcDbVertex
100
AcDb2dVertex
 10
110.306122
 20
185.030869
 30
0.0
  0
SEQEND
  5
F3
330
EF
100
AcDbEntity
  8
0
 62
     7
370
    25
  0
POLYLINE
  5
F4
330
79
100
AcDbEntity
  8
0
 62
     7
370
    25
100
AcDb2dPolyline
 66
     1
 10
0.0
 20
0.0
 30
0.0
 70
     1
  0
VERTEX
  5
F5
330
F4
100
AcDbEntity
  8
0
370
     0
100
AcDbVertex
100
AcDb2dVertex
 10
145.824932
 20
194.828456
 30
0.0
  0
VERTEX
  5
F6
330
F4
100
AcDbEntity
  8
0
370
     0
100
AcDbVertex
100
AcDb2dVertex
 10
148.92931
 20
196.651321
 30
0.0
  0
VERTEX
  5
F7
330
F4
100
AcDbEntity
  8
0
370
     0
100
AcDbVertex
100
AcDb2dVertex
 10
145.329407
 20
196.624863
 30
0.0
  0
SEQEND
  5
F8
330
F4
100
AcDbEntity
  8
0
 62
     7
370
    25
  0
ENDBLK
  5
7B
330
79
100
AcDbEntity
  8
0
100
AcDbBlockEnd
  0
BLOCK
  5
7D
330
7C
100
AcDbEntity
  8
0
100
AcDbBlockBegin
  2
*D5
 70
     1
 10
0.0
 20
0.0
 30
0.0
  3
*D5
  1

  0
SOLID
  5
F9
330
7C
100
AcDbEntity
  8
0
 62
     7
370
    25
100
AcDbTrace
 10
114.366137
 20
192.496514
 30
0.0
 11
110.843121
 21
191.756006
 31
0.0
 12
114.366137
 22
192.496514
 32
0.0
 13
114.264396
 23
190.635797
 33
0.0
  0
SOLID
  5
FA
330
7C
100
AcDbEntity
  8
0
 62
     7
370
    25
100
AcDbTrace
 10
141.269392
 20
189.159217
 30
0.0
 11
144.792408
 21
189.899726
 31
0.0
 12
141.269392
 22
189.159217
 32
0.0
 13
141.371133
 23
191.019935
 33
0.0
  0
TEXT
  5
FB
330
7C
100
AcDbEntity
  8
0
 62
     7
370
    25
100
AcDbText
 10
216.278854
 20
189.459396
 30
0.0
 40
3.5
  1
34
 41
1.069271
 72
     5
 11
223.050903
 21
189.459396
 31
0.0
100
AcDbText
  0
TEXT
  5
FC
330
7C
100
AcDbEntity
  8
0
 62
     7
370
    25
100
AcDbText
 10
212.712189
 20
189.459396
 30
0.0
 40
3.5
  1
%%c
 41
0.905882
 72
     5
 11
215.278854
 21
189.459396
 31
0.0
100
AcDbText
  0
LINE
  5
FD
330
7C
100
AcDbEntity
  8
0
 62
     7
370
    25
100
AcDbLine
 10
207.712189
 20
186.459396
 30
0.0
 11
225.050903
 21
186.459396
 31
0.0
  0
LINE
  5
FE
330
7C
100
AcDbEntity
  8
0
 62
     7
370
    25
100
AcDbLine
 10
114.315267
 20
191.566156
 30
0.0
 11
141.320263
 21
190.089576
 31
0.0
  0
LINE
  5
FF
330
7C
100
AcDbEntity
  8
0
 62
     7
370
    25
100
AcDbLine
 10
144.792408
 20
189.899726
 30
0.0
 11
207.712189
 21
186.459396
 31
0.0
  0
POLYLINE
  5
100
330
7C
100
AcDbEntity
  8
0
 62
     7
370
    25
100
AcDb2dPolyline
 66
     1
 10
0.0
 20
0.0
 30
0.0
 70
     1
  0
VERTEX
  5
101
330
100
100
AcDbEntity
  8
0
370
     0
100
AcDbVertex
100
AcDb2dVertex
 10
210.712189
 20
194.959396
 30
0.0
  0
VERTEX
  5
102
330
100
100
AcDbEntity
  8
0
370
     0
100
AcDbVertex
100
AcDb2dVertex
 10
210.712189
 20
187.459396
 30
0.0
  0
VERTEX
  5
103
330
100
100
AcDbEntity
  8
0
370
     0
100
AcDbVertex
100
AcDb2dVertex
 10
225.050903
 20
187.459396
 30
0.0
  0
VERTEX
  5
104
330
100
100
AcDbEntity
  8
0
370
     0
100
AcDbVertex
100
AcDb2dVertex
 10
225.050903
 20
194.959396
 30
0.0
  0
SEQEND
  5
105
330
100
100
AcDbEntity
  8
0
 62
     7
370
    25
  0
POLYLINE
  5
106
330
7C
100
AcDbEntity
  8
0
 62
     7
370
    25
100
AcDb2dPolyline
 66
     1
 10
0.0
 20
0.0
 30
0.0
 70
     1
  0
VERTEX
  5
107
330
106
100
AcDbEntity
  8
0
370
     0
100
AcDbVertex
100
AcDb2dVertex
 10
114.366137
 20
192.496514
 30
0.0
  0
VERTEX
  5
108
330
106
100
AcDbEntity
  8
0
370
     0
100
AcDbVertex
100
AcDb2dVertex
 10
110.843121
 20
191.756006
 30
0.0
  0
VERTEX
  5
109
330
106
100
AcDbEntity
  8
0
370
     0
100
AcDbVertex
100
AcDb2dVertex
 10
114.264396
 20
190.635797
 30
0.0
  0
SEQEND
  5
10A
330
106
100
AcDbEntity
  8
0
 62
     7
370
    25
  0
POLYLINE
  5
10B
330
7C
100
AcDbEntity
  8
0
 62
     7
370
    25
100
AcDb2dPolyline
 66
     1
 10
0.0
 20
0.0
 30
0.0
 70
     1
  0
VERTEX
  5
10C
330
10B
100
AcDbEntity
  8
0
370
     0
100
AcDbVertex
100
AcDb2dVertex
 10
141.269392
 20
189.159217
 30
0.0
  0
VERTEX
  5
10D
330
10B
100
AcDbEntity
  8
0
370
     0
100
AcDbVertex
100
AcDb2dVertex
 10
144.792408
 20
189.899726
 30
0.0
  0
VERTEX
  5
10E
330
10B
100
AcDbEntity
  8
0
370
     0
100
AcDbVertex
100
AcDb2dVertex
 10
141.371133
 20
191.019935
 30
0.0
  0
SEQEND
  5
10F
330
10B
100
AcDbEntity
  8
0
 62
     7
370
    25
  0
ENDBLK
  5
7E
330
7C
100
AcDbEntity
  8
0
100
AcDbBlockEnd
  0
BLOCK
  5
80
330
7F
100
AcDbEntity
  8
0
100
AcDbBlockBegin
  2
*D6
 70
     1
 10
0.0
 20
0.0
 30
0.0
  3
*D6
  1

  0
SOLID
  5
110
330
7F
100
AcDbEntity
  8
0
 62
     7
370
    25
100
AcDbTrace
 10
117.443078
 20
196.974293
 30
0.0
 11
113.911797
 21
197.67433
 31
0.0
 12
117.443078
 22
196.974293
 32
0.0
 13
116.619958
 23
195.302439
 33
0.0
  0
SOLID
  5
111
330
7F
100
AcDbEntity
  8
0
 62
     7
370
    25
100
AcDbTrace
 10
138.192451
 20
184.681438
 30
0.0
 11
141.723732
 21
183.981401
 31
0.0
 12
138.192451
 22
184.681438
 32
0.0
 13
139.015571
 23
186.353292
 33
0.0
  0
TEXT
  5
112
330
7F
100
AcDbEntity
  8
0
 62
     7
370
    25
100
AcDbText
 10
201.996353
 20
161.52449
 30
0.0
 40
3.5
  1
31
 41
1.310719
 72
     5
 11
208.768402
 21
161.52449
 31
0.0
100
AcDbText
  0
TEXT
  5
113
330
7F
100
AcDbEntity
  8
0
 62
     7
370
    25
100
AcDbText
 10
198.429688
 20
161.52449
 30
0.0
 40
3.5
  1
%%c
 41
0.905882
 72
     5
 11
200.996353
 21
161.52449
 31
0.0
100
AcDbText
  0
LINE
  5
114
330
7F
100
AcDbEntity
  8
0
 62
     7
370
    25
100
AcDbLine
 10
193.429688
 20
158.52449
 30
0.0
 11
210.768402
 21
158.52449
 31
0.0
  0
LINE
  5
115
330
7F
100
AcDbEntity
  8
0
 62
     7
370
    25
100
AcDbLine
 10
117.031518
 20
196.138366
 30
0.0
 11
138.604011
 21
185.517365
 31
0.0
  0
LINE
  5
116
330
7F
100
AcDbEntity
  8
0
 62
     7
370
    25
100
AcDbLine
 10
141.723732
 20
183.981401
 30
0.0
 11
193.429688
 21
158.52449
 31
0.0
  0
POLYLINE
  5
117
330
7F
100
AcDbEntity
  8
0
 62
     7
370
    25
100
AcDb2dPolyline
 66
     1
 10
0.0
 20
0.0
 30
0.0
 70
     1
  0
VERTEX
  5
118
330
117
100
AcDbEntity
  8
0
370
     0
100
AcDbVertex
100
AcDb2dVertex
 10
196.429688
 20
167.02449
 30
0.0
  0
VERTEX
  5
119
330
117
100
AcDbEntity
  8
0
370
     0
100
AcDbVertex
100
AcDb2dVertex
 10
196.429688
 20
159.52449
 30
0.0
  0
VERTEX
  5
11A
330
117
100
AcDbEntity
  8
0
370
     0
100
AcDbVertex
100
AcDb2dVertex
 10
210.768402
 20
159.52449
 30
0.0
  0
VERTEX
  5
11B
330
117
100
AcDbEntity
  8
0
370
     0
100
AcDbVertex
100
AcDb2dVertex
 10
210.768402
 20
167.02449
 30
0.0
  0
SEQEND
  5
11C
330
117
100
AcDbEntity
  8
0
 62
     7
370
    25
  0
POLYLINE
  5
11D
330
7F
100
AcDbEntity
  8
0
 62
     7
370
    25
100
AcDb2dPolyline
 66
     1
 10
0.0
 20
0.0
 30
0.0
 70
     1
  0
VERTEX
  5
11E
330
11D
100
AcDbEntity
  8
0
370
     0
100
AcDbVertex
100
AcDb2dVertex
 10
117.443078
 20
196.974293
 30
0.0
  0
VERTEX
  5
11F
330
11D
100
AcDbEntity
  8
0
370
     0
100
AcDbVertex
100
AcDb2dVertex
 10
113.911797
 20
197.67433
 30
0.0
  0
VERTEX
  5
120
330
11D
100
AcDbEntity
  8
0
370
     0
100
AcDbVertex
100
AcDb2dVertex
 10
116.619958
 20
195.302439
 30
0.0
  0
SEQEND
  5
121
330
11D
100
AcDbEntity
  8
0
 62
     7
370
    25
  0
POLYLINE
  5
122
330
7F
100
AcDbEntity
  8
0
 62
     7
370
    25
100
AcDb2dPolyline
 66
     1
 10
0.0
 20
0.0
 30
0.0
 70
     1
  0
VERTEX
  5
123
330
122
100
AcDbEntity
  8
0
370
     0
100
AcDbVertex
100
AcDb2dVertex
 10
138.192451
 20
184.681438
 30
0.0
  0
VERTEX
  5
124
330
122
100
AcDbEntity
  8
0
370
     0
100
AcDbVertex
100
AcDb2dVertex
 10
141.723732
 20
183.981401
 30
0.0
  0
VERTEX
  5
125
330
122
100
AcDbEntity
  8
0
370
     0
100
AcDbVertex
100
AcDb2dVertex
 10
139.015571
 20
186.353292
 30
0.0
  0
SEQEND
  5
126
330
122
100
AcDbEntity
  8
0
 62
     7
370
    25
  0
ENDBLK
  5
81
330
7F
100
AcDbEntity
  8
0
100
AcDbBlockEnd
  0
BLOCK
  5
83
330
82
100
AcDbEntity
  8
0
100
AcDbBlockBegin
  2
*D7
 70
     1
 10
0.0
 20
0.0
 30
0.0
  3
*D7
  1

  0
SOLID
  5
127
330
82
100
AcDbEntity
  8
0
 62
     7
370
    25
100
AcDbTrace
 10
168.178997
 20
226.271408
 30
0.0
 11
165.061306
 21
228.071407
 31
0.0
 12
168.178997
 22
226.271408
 32
0.0
 13
166.861305
 23
224.953716
 33
0.0
  0
SOLID
  5
128
330
82
100
AcDbEntity
  8
0
 62
     7
370
    25
100
AcDbTrace
 10
124.340431
 20
242.566441
 30
0.0
 11
127.817764
 21
243.498188
 31
0.0
 12
124.340431
 22
242.566441
 32
0.0
 13
124.340431
 23
244.429935
 33
0.0
  0
TEXT
  5
129
330
82
100
AcDbEntity
  8
0
 62
     7
370
    25
100
AcDbText
 10
164.619095
 20
232.859402
 30
0.0
 40
3.5
  1
45
 50
314.001273
 41
1.09817
 72
     5
 11
169.323463
 21
227.988102
 31
0.0
100
AcDbText
  0
TEXT
  5
12A
330
82
100
AcDbEntity
  8
0
 62
     7
370
    25
100
AcDbText
 10
169.826988
 20
228.474377
 30
0.0
 40
3.5
  1
%%d
 50
314.001239
 41
3.080001
 72
     5
 11
171.609985
 21
226.628109
 31
0.0
100
AcDbText
  0
TEXT
  5
12B
330
82
100
AcDbEntity
  8
0
 62
     7
370
    25
100
AcDbText
 10
155.487144
 20
242.819218
 30
0.0
 40
3.5
  1
4x 
 50
314.001282
 41
1.087042
 72
     5
 11
162.786831
 21
235.260509
 31
0.0
100
AcDbText
  0
LINE
  5
12C
330
82
100
AcDbEntity
  8
0
 62
     7
370
    25
100
AcDbLine
 10
141.507352
 20
204.517453
 30
0.0
 11
166.475521
 21
229.485622
 31
0.0
  0
LINE
  5
12D
330
82
100
AcDbEntity
  8
0
 62
     7
370
    25
100
AcDbLine
 10
127.817764
 20
215.993565
 30
0.0
 11
127.817764
 21
245.498188
 31
0.0
  0
ARC
  5
12E
330
82
100
AcDbEntity
  8
0
 62
     7
370
    25
100
AcDbCircle
 10
127.817764
 20
190.827866
 30
0.0
 40
52.67032241821289
100
AcDbArc
 50
36.917722
 51
41.21454
  0
ARC
  5
12F
330
82
100
AcDbEntity
  8
0
 62
     7
370
    25
100
AcDbCircle
 10
127.817764
 20
190.827866
 30
0.0
 40
52.67032241821289
100
AcDbArc
 50
45.000001
 51
90.000003
  0
ARC
  5
130
330
82
100
AcDbEntity
  8
0
 62
     7
370
    25
100
AcDbCircle
 10
127.817764
 20
190.827866
 30
0.0
 40
52.67032241821289
100
AcDbArc
 50
93.785457
 51
95.439087
  0
POLYLINE
  5
131
330
82
100
AcDbEntity
  8
0
 62
     7
370
    25
100
AcDb2dPolyline
 66
     1
 10
0.0
 20
0.0
 30
0.0
 70
     1
  0
VERTEX
  5
132
330
131
100
AcDbEntity
  8
0
370
     0
100
AcDbVertex
100
AcDb2dVertex
 10
167.689556
 20
238.60503
 30
0.0
  0
VERTEX
  5
133
330
131
100
AcDbEntity
  8
0
370
     0
100
AcDbVertex
100
AcDb2dVertex
 10
161.791096
 20
232.908699
 30
0.0
  0
VERTEX
  5
134
330
131
100
AcDbEntity
  8
0
370
     0
100
AcDbVertex
100
AcDb2dVertex
 10
171.057159
 20
223.313839
 30
0.0
  0
VERTEX
  5
135
330
131
100
AcDbEntity
  8
0
370
     0
100
AcDbVertex
100
AcDb2dVertex
 10
176.95562
 20
229.01017
 30
0.0
  0
SEQEND
  5
136
330
131
100
AcDbEntity
  8
0
 62
     7
370
    25
  0
POLYLINE
  5
137
330
82
100
AcDbEntity
  8
0
 62
     7
370
    25
100
AcDb2dPolyline
 66
     1
 10
0.0
 20
0.0
 30
0.0
 70
     1
  0
VERTEX
  5
138
330
137
100
AcDbEntity
  8
0
370
     0
100
AcDbVertex
100
AcDb2dVertex
 10
168.178997
 20
226.271408
 30
0.0
  0
VERTEX
  5
139
330
137
100
AcDbEntity
  8
0
370
     0
100
AcDbVertex
100
AcDb2dVertex
 10
165.061306
 20
228.071407
 30
0.0
  0
VERTEX
  5
13A
330
137
100
AcDbEntity
  8
0
370
     0
100
AcDbVertex
100
AcDb2dVertex
 10
166.861305
 20
224.953716
 30
0.0
  0
SEQEND
  5
13B
330
137
100
AcDbEntity
  8
0
 62
     7
370
    25
  0
POLYLINE
  5
13C
330
82
100
AcDbEntity
  8
0
 62
     7
370
    25
100
AcDb2dPolyline
 66
     1
 10
0.0
 20
0.0
 30
0.0
 70
     1
  0
VERTEX
  5
13D
330
13C
100
AcDbEntity
  8
0
370
     0
100
AcDbVertex
100
AcDb2dVertex
 10
124.340431
 20
242.566441
 30
0.0
  0
VERTEX
  5
13E
330
13C
100
AcDbEntity
  8
0
370
     0
100
AcDbVertex
100
AcDb2dVertex
 10
127.817764
 20
243.498188
 30
0.0
  0
VERTEX
  5
13F
330
13C
100
AcDbEntity
  8
0
370
     0
100
AcDbVertex
100
AcDb2dVertex
 10
124.340431
 20
244.429935
 30
0.0
  0
SEQEND
  5
140
330
13C
100
AcDbEntity
  8
0
 62
     7
370
    25
  0
ENDBLK
  5
84
330
82
100
AcDbEntity
  8
0
100
AcDbBlockEnd
  0
BLOCK
  5
86
330
85
100
AcDbEntity
  8
0
100
AcDbBlockBegin
  2
*D8
 70
     1
 10
0.0
 20
0.0
 30
0.0
  3
*D8
  1

  0
SOLID
  5
141
330
85
100
AcDbEntity
  8
0
 62
     7
370
    25
100
AcDbTrace
 10
182.013744
 20
226.133209
 30
0.0
 11
184.55933
 21
223.587624
 31
0.0
 12
182.013744
 22
226.133209
 32
0.0
 13
183.627583
 23
227.064957
 33
0.0
  0
SOLID
  5
142
330
85
100
AcDbEntity
  8
0
 62
     7
370
    25
100
AcDbTrace
 10
131.295097
 20
257.279129
 30
0.0
 11
127.817764
 21
256.347382
 31
0.0
 12
131.295097
 22
257.279129
 32
0.0
 13
131.295097
 23
255.415634
 33
0.0
  0
TEXT
  5
143
330
85
100
AcDbEntity
  8
0
 62
     7
370
    25
100
AcDbText
 10
158.033741
 20
252.502186
 30
0.0
 40
3.5
  1
60
 50
329.999979
 41
1.098169
 72
     5
 11
163.898502
 21
249.116161
 31
0.0
100
AcDbText
  0
TEXT
  5
144
330
85
100
AcDbEntity
  8
0
 62
     7
370
    25
100
AcDbText
 10
164.248505
 20
249.722382
 30
0.0
 40
3.5
  1
%%d
 50
330.00004
 41
3.080002
 72
     5
 11
166.471306
 21
248.439049
 31
0.0
100
AcDbText
  0
TEXT
  5
145
330
85
100
AcDbEntity
  8
0
 62
     7
370
    25
100
AcDbText
 10
146.51041
 20
259.559334
 30
0.0
 40
3.5
  1
2x 
 50
329.999973
 41
1.087042
 72
     5
 11
155.610664
 21
254.305294
 31
0.0
100
AcDbText
  0
LINE
  5
146
330
85
100
AcDbEntity
  8
0
 62
     7
370
    25
100
AcDbLine
 10
144.70093
 20
200.575366
 30
0.0
 11
186.291382
 21
224.587624
 31
0.0
  0
LINE
  5
147
330
85
100
AcDbEntity
  8
0
 62
     7
370
    25
100
AcDbLine
 10
127.817764
 20
215.993565
 30
0.0
 11
127.817764
 21
258.347382
 31
0.0
  0
ARC
  5
148
330
85
100
AcDbEntity
  8
0
 62
     7
370
    25
100
AcDbCircle
 10
127.817764
 20
190.827866
 30
0.0
 40
65.51951599121094
100
AcDbArc
 50
33.0423
 51
86.9577
  0
POLYLINE
  5
149
330
85
100
AcDbEntity
  8
0
 62
     7
370
    25
100
AcDb2dPolyline
 66
     1
 10
0.0
 20
0.0
 30
0.0
 70
     1
  0
VERTEX
  5
14A
330
149
100
AcDbEntity
  8
0
370
     0
100
AcDbVertex
100
AcDb2dVertex
 10
159.401691
 20
258.871544
 30
0.0
  0
VERTEX
  5
14B
330
149
100
AcDbEntity
  8
0
370
     0
100
AcDbVertex
100
AcDb2dVertex
 10
155.301691
 20
251.770134
 30
0.0
  0
VERTEX
  5
14C
330
149
100
AcDbEntity
  8
0
370
     0
100
AcDbVertex
100
AcDb2dVertex
 10
166.853355
 20
245.100777
 30
0.0
  0
VERTEX
  5
14D
330
149
100
AcDbEntity
  8
0
370
     0
100
AcDbVertex
100
AcDb2dVertex
 10
170.953354
 20
252.202187
 30
0.0
  0
SEQEND
  5
14E
330
149
100
AcDbEntity
  8
0
 62
     7
370
    25
  0
POLYLINE
  5
14F
330
85
100
AcDbEntity
  8
0
 62
     7
370
    25
100
AcDb2dPolyline
 66
     1
 10
0.0
 20
0.0
 30
0.0
 70
     1
  0
VERTEX
  5
150
330
14F
100
AcDbEntity
  8
0
370
     0
100
AcDbVertex
100
AcDb2dVertex
 10
182.013744
 20
226.133209
 30
0.0
  0
VERTEX
  5
151
330
14F
100
AcDbEntity
  8
0
370
     0
100
AcDbVertex
100
AcDb2dVertex
 10
184.55933
 20
223.587624
 30
0.0
  0
VERTEX
  5
152
330
14F
100
AcDbEntity
  8
0
370
     0
100
AcDbVertex
100
AcDb2dVertex
 10
183.627583
 20
227.064957
 30
0.0
  0
SEQEND
  5
153
330
14F
100
AcDbEntity
  8
0
 62
     7
370
    25
  0
POLYLINE
  5
154
330
85
100
AcDbEntity
  8
0
 62
     7
370
    25
100
AcDb2dPolyline
 66
     1
 10
0.0
 20
0.0
 30
0.0
 70
     1
  0
VERTEX
  5
155
330
154
100
AcDbEntity
  8
0
370
     0
100
AcDbVertex
100
AcDb2dVertex
 10
131.295097
 20
257.279129
 30
0.0
  0
VERTEX
  5
156
330
154
100
AcDbEntity
  8
0
370
     0
100
AcDbVertex
100
AcDb2dVertex
 10
127.817764
 20
256.347382
 30
0.0
  0
VERTEX
  5
157
330
154
100
AcDbEntity
  8
0
370
     0
100
AcDbVertex
100
AcDb2dVertex
 10
131.295097
 20
255.415634
 30
0.0
  0
SEQEND
  5
158
330
154
100
AcDbEntity
  8
0
 62
     7
370
    25
  0
ENDBLK
  5
87
330
85
100
AcDbEntity
  8
0
100
AcDbBlockEnd
  0
BLOCK
  5
89
330
88
100
AcDbEntity
  8
0
100
AcDbBlockBegin
  2
BLOCK197
 70
     0
 10
0.0
 20
0.0
 30
0.0
  3
BLOCK197
  1

  0
LINE
  5
159
330
88
100
AcDbEntity
  8
0
  6
DASHDOT
 62
     7
 48
0.071906
370
    25
100
AcDbLine
 10
-14.047524
 20
15.485639
 30
0.0
 11
-16.923752
 21
15.485639
 31
0.0
  0
LINE
  5
15A
330
88
100
AcDbEntity
  8
0
  6
DASHDOT
 62
     7
 48
0.071906
370
    25
100
AcDbLine
 10
-15.485639
 20
16.923752
 30
0.0
 11
-15.485639
 21
14.047524
 31
0.0
  0
ENDBLK
  5
8A
330
88
100
AcDbEntity
  8
0
100
AcDbBlockEnd
  0
BLOCK
  5
8C
330
8B
100
AcDbEntity
  8
0
100
AcDbBlockBegin
  2
BLOCK198
 70
     0
 10
0.0
 20
0.0
 30
0.0
  3
BLOCK198
  1

  0
LINE
  5
15B
330
8B
100
AcDbEntity
  8
0
  6
DASHDOT
 62
     7
370
    25
100
AcDbLine
 10
24.165699
 20
0.0
 30
0.0
 11
-24.165699
 21
0.0
 31
0.0
  0
LINE
  5
15C
330
8B
100
AcDbEntity
  8
0
  6
DASHDOT
 62
     7
370
    25
100
AcDbLine
 10
0.0
 20
24.165699
 30
0.0
 11
0.0
 21
-24.165699
 31
0.0
  0
ENDBLK
  5
8D
330
8B
100
AcDbEntity
  8
0
100
AcDbBlockEnd
  0
BLOCK
  5
8F
330
8E
100
AcDbEntity
  8
0
100
AcDbBlockBegin
  2
BLOCK199
 70
     0
 10
0.0
 20
0.0
 30
0.0
  3
BLOCK199
  1

  0
LINE
  5
15D
330
8E
100
AcDbEntity
  8
0
  6
DASHDOT
 62
     7
 48
0.10725
370
    25
100
AcDbLine
 10
-13.340638
 20
-15.485639
 30
0.0
 11
-17.630638
 21
-15.485639
 31
0.0
  0
LINE
  5
15E
330
8E
100
AcDbEntity
  8
0
  6
DASHDOT
 62
     7
 48
0.10725
370
    25
100
AcDbLine
 10
-15.485639
 20
-13.340638
 30
0.0
 11
-15.485639
 21
-17.630638
 31
0.0
  0
ENDBLK
  5
90
330
8E
100
AcDbEntity
  8
0
100
AcDbBlockEnd
  0
BLOCK
  5
92
330
91
100
AcDbEntity
  8
0
100
AcDbBlockBegin
  2
BLOCK200
 70
     0
 10
0.0
 20
0.0
 30
0.0
  3
BLOCK200
  1

  0
LINE
  5
15F
330
91
100
AcDbEntity
  8
0
  6
DASHDOT
 62
     7
 48
0.10725
370
    25
100
AcDbLine
 10
17.630638
 20
-15.485639
 30
0.0
 11
13.340638
 21
-15.485639
 31
0.0
  0
LINE
  5
160
330
91
100
AcDbEntity
  8
0
  6
DASHDOT
 62
     7
 48
0.10725
370
    25
100
AcDbLine
 10
15.485639
 20
-13.340638
 30
0.0
 11
15.485639
 21
-17.630638
 31
0.0
  0
ENDBLK
  5
93
330
91
100
AcDbEntity
  8
0
100
AcDbBlockEnd
  0
BLOCK
  5
95
330
94
100
AcDbEntity
  8
0
100
AcDbBlockBegin
  2
BLOCK201
 70
     0
 10
0.0
 20
0.0
 30
0.0
  3
BLOCK201
  1

  0
LINE
  5
161
330
94
100
AcDbEntity
  8
0
  6
DASHDOT
 62
     7
 48
0.10725
370
    25
100
AcDbLine
 10
17.002382
 20
17.002382
 30
0.0
 11
13.968894
 21
13.968894
 31
0.0
  0
CIRCLE
  5
162
330
94
100
AcDbEntity
  8
0
  6
DASHDOT
 62
     7
370
    25
100
AcDbCircle
 10
0.0
 20
0.0
 30
0.0
 40
21.89999961853027
  0
ENDBLK
  5
96
330
94
100
AcDbEntity
  8
0
100
AcDbBlockEnd
  0
BLOCK
  5
98
330
97
100
AcDbEntity
  8
0
100
AcDbBlockBegin
  2
BLOCK202
 70
     0
 10
0.0
 20
0.0
 30
0.0
  3
BLOCK202
  1

  0
LINE
  5
163
330
97
100
AcDbEntity
  8
0
  6
DASHDOT
 62
     7
 48
0.07475
370
    25
100
AcDbLine
 10
1.495
 20
-17.0
 30
0.0
 11
-1.495
 21
-17.0
 31
0.0
  0
LINE
  5
164
330
97
100
AcDbEntity
  8
0
  6
DASHDOT
 62
     7
 48
0.07475
370
    25
100
AcDbLine
 10
0.0
 20
-15.505
 30
0.0
 11
0.0
 21
-18.495001
 31
0.0
  0
ENDBLK
  5
99
330
97
100
AcDbEntity
  8
0
100
AcDbBlockEnd
  0
BLOCK
  5
9B
330
9A
100
AcDbEntity
  8
0
100
AcDbBlockBegin
  2
BLOCK203
 70
     0
 10
0.0
 20
0.0
 30
0.0
  3
BLOCK203
  1

  0
LINE
  5
165
330
9A
100
AcDbEntity
  8
0
  6
DASHDOT
 62
     7
 48
0.143
370
    25
100
AcDbLine
 10
13.820155
 20
-10.960155
 30
0.0
 11
8.100155
 21
-10.960155
 31
0.0
  0
LINE
  5
166
330
9A
100
AcDbEntity
  8
0
  6
DASHDOT
 62
     7
 48
0.143
370
    25
100
AcDbLine
 10
10.960155
 20
-8.100155
 30
0.0
 11
10.960155
 21
-13.820155
 31
0.0
  0
ENDBLK
  5
9C
330
9A
100
AcDbEntity
  8
0
100
AcDbBlockEnd
  0
BLOCK
  5
9E
330
9D
100
AcDbEntity
  8
0
100
AcDbBlockBegin
  2
BLOCK204
 70
     0
 10
0.0
 20
0.0
 30
0.0
  3
BLOCK204
  1

  0
LINE
  5
167
330
9D
100
AcDbEntity
  8
0
  6
DASHDOT
 62
     7
 48
0.143
370
    25
100
AcDbLine
 10
-8.100155
 20
-10.960155
 30
0.0
 11
-13.820155
 21
-10.960155
 31
0.0
  0
LINE
  5
168
330
9D
100
AcDbEntity
  8
0
  6
DASHDOT
 62
     7
 48
0.143
370
    25
100
AcDbLine
 10
-10.960155
 20
-8.100155
 30
0.0
 11
-10.960155
 21
-13.820155
 31
0.0
  0
ENDBLK
  5
9F
330
9D
100
AcDbEntity
  8
0
100
AcDbBlockEnd
  0
BLOCK
  5
A1
330
A0
100
AcDbEntity
  8
0
100
AcDbBlockBegin
  2
BLOCK205
 70
     0
 10
0.0
 20
0.0
 30
0.0
  3
BLOCK205
  1

  0
LINE
  5
169
330
A0
100
AcDbEntity
  8
0
  6
DASHDOT
 62
     7
 48
0.143
370
    25
100
AcDbLine
 10
-8.100155
 20
10.960155
 30
0.0
 11
-13.820155
 21
10.960155
 31
0.0
  0
LINE
  5
16A
330
A0
100
AcDbEntity
  8
0
  6
DASHDOT
 62
     7
 48
0.143
370
    25
100
AcDbLine
 10
-10.960155
 20
13.820155
 30
0.0
 11
-10.960155
 21
8.100155
 31
0.0
  0
ENDBLK
  5
A2
330
A0
100
AcDbEntity
  8
0
100
AcDbBlockEnd
  0
BLOCK
  5
A4
330
A3
100
AcDbEntity
  8
0
100
AcDbBlockBegin
  2
BLOCK206
 70
     0
 10
0.0
 20
0.0
 30
0.0
  3
BLOCK206
  1

  0
LINE
  5
16B
330
A3
100
AcDbEntity
  8
0
  6
DASHDOT
 62
     7
 48
0.07475
370
    25
100
AcDbLine
 10
-13.227432
 20
8.5
 30
0.0
 11
-16.217432
 21
8.5
 31
0.0
  0
LINE
  5
16C
330
A3
100
AcDbEntity
  8
0
  6
DASHDOT
 62
     7
 48
0.07475
370
    25
100
AcDbLine
 10
-14.722432
 20
9.995
 30
0.0
 11
-14.722432
 21
7.005
 31
0.0
  0
ENDBLK
  5
A5
330
A3
100
AcDbEntity
  8
0
100
AcDbBlockEnd
  0
BLOCK
  5
A7
330
A6
100
AcDbEntity
  8
0
100
AcDbBlockBegin
  2
BLOCK207
 70
     0
 10
0.0
 20
0.0
 30
0.0
  3
BLOCK207
  1

  0
LINE
  5
16D
330
A6
100
AcDbEntity
  8
0
  6
DASHDOT
 62
     7
 48
0.143
370
    25
100
AcDbLine
 10
12.98248
 20
12.98248
 30
0.0
 11
8.93783
 21
8.93783
 31
0.0
  0
CIRCLE
  5
16E
330
A6
100
AcDbEntity
  8
0
  6
DASHDOT
 62
     7
370
    25
100
AcDbCircle
 10
0.0
 20
0.0
 30
0.0
 40
15.5
  0
ENDBLK
  5
A8
330
A6
100
AcDbEntity
  8
0
100
AcDbBlockEnd
  0
BLOCK
  5
AA
330
A9
100
AcDbEntity
  8
0
100
AcDbBlockBegin
  2
BLOCK208
 70
     0
 10
0.0
 20
0.0
 30
0.0
  3
BLOCK208
  1

  0
LINE
  5
16F
330
A9
100
AcDbEntity
  8
0
  6
DASHDOT
 62
     7
 48
0.07475
370
    25
100
AcDbLine
 10
16.017139
 20
9.2475
 30
0.0
 11
13.427724
 21
7.7525
 31
0.0
  0
CIRCLE
  5
170
330
A9
100
AcDbEntity
  8
0
  6
DASHDOT
 62
     7
370
    25
100
AcDbCircle
 10
0.0
 20
0.0
 30
0.0
 40
17.0
  0
ENDBLK
  5
AB
330
A9
100
AcDbEntity
  8
0
100
AcDbBlockEnd
  0
BLOCK
  5
AD
330
AC
100
AcDbEntity
  8
0
100
AcDbBlockBegin
  2
BLOCK209
 70
     0
 10
0.0
 20
0.0
 30
0.0
  3
BLOCK209
  1

  0
CIRCLE
  5
171
330
AC
100
AcDbEntity
  8
0
 62
     7
370
    50
100
AcDbCircle
 10
0.0
 20
-17.0
 30
0.0
 40
1.15
  0
LINE
  5
172
330
AC
100
AcDbEntity
  8
0
 62
     7
370
    50
100
AcDbLine
 10
21.0
 20
-16.970563
 30
0.0
 11
21.0
 21
16.970563
 31
0.0
  0
ARC
  5
173
330
AC
100
AcDbEntity
  8
0
 62
     7
370
    50
100
AcDbCircle
 10
0.0
 20
0.0
 30
0.0
 40
27.0
100
AcDbArc
 50
38.942441
 51
51.057559
  0
LINE
  5
174
330
AC
100
AcDbEntity
  8
0
 62
     7
370
    50
100
AcDbLine
 10
16.970563
 20
21.0
 30
0.0
 11
-16.970563
 21
21.0
 31
0.0
  0
ARC
  5
175
330
AC
100
AcDbEntity
  8
0
 62
     7
370
    50
100
AcDbCircle
 10
0.0
 20
0.0
 30
0.0
 40
27.0
100
AcDbArc
 50
128.942441
 51
141.057559
  0
LINE
  5
176
330
AC
100
AcDbEntity
  8
0
 62
     7
370
    50
100
AcDbLine
 10
-21.0
 20
16.970563
 30
0.0
 11
-21.0
 21
-16.970563
 31
0.0
  0
ARC
  5
177
330
AC
100
AcDbEntity
  8
0
 62
     7
370
    50
100
AcDbCircle
 10
0.0
 20
0.0
 30
0.0
 40
27.0
100
AcDbArc
 50
218.942441
 51
231.057559
  0
LINE
  5
178
330
AC
100
AcDbEntity
  8
0
 62
     7
370
    50
100
AcDbLine
 10
-16.970563
 20
-21.0
 30
0.0
 11
16.970563
 21
-21.0
 31
0.0
  0
ARC
  5
179
330
AC
100
AcDbEntity
  8
0
 62
     7
370
    50
100
AcDbCircle
 10
0.0
 20
0.0
 30
0.0
 40
27.0
100
AcDbArc
 50
308.942441
 51
321.057559
  0
CIRCLE
  5
17A
330
AC
100
AcDbEntity
  8
0
 62
     7
370
    50
100
AcDbCircle
 10
-10.960155
 20
10.960155
 30
0.0
 40
2.199999999999999
  0
CIRCLE
  5
17B
330
AC
100
AcDbEntity
  8
0
 62
     7
370
    50
100
AcDbCircle
 10
-15.485639
 20
15.485639
 30
0.0
 40
1.65
  0
CIRCLE
  5
17C
330
AC
100
AcDbEntity
  8
0
 62
     7
370
    50
100
AcDbCircle
 10
0.0
 20
0.0
 30
0.0
 40
11.0
  0
CIRCLE
  5
17D
330
AC
100
AcDbEntity
  8
0
 62
     7
370
    50
100
AcDbCircle
 10
-15.485639
 20
-15.485639
 30
0.0
 40
1.65
  0
CIRCLE
  5
17E
330
AC
100
AcDbEntity
  8
0
 62
     7
370
    50
100
AcDbCircle
 10
15.485639
 20
-15.485639
 30
0.0
 40
1.65
  0
CIRCLE
  5
17F
330
AC
100
AcDbEntity
  8
0
 62
     7
370
    50
100
AcDbCircle
 10
15.485639
 20
15.485639
 30
0.0
 40
1.65
  0
CIRCLE
  5
180
330
AC
100
AcDbEntity
  8
0
 62
     7
370
    50
100
AcDbCircle
 10
-10.960155
 20
-10.960155
 30
0.0
 40
2.199999999999999
  0
CIRCLE
  5
181
330
AC
100
AcDbEntity
  8
0
 62
     7
370
    50
100
AcDbCircle
 10
10.960155
 20
-10.960155
 30
0.0
 40
2.199999999999999
  0
CIRCLE
  5
182
330
AC
100
AcDbEntity
  8
0
 62
     7
370
    50
100
AcDbCircle
 10
10.960155
 20
10.960155
 30
0.0
 40
2.199999999999999
  0
CIRCLE
  5
183
330
AC
100
AcDbEntity
  8
0
 62
     7
370
    50
100
AcDbCircle
 10
14.722432
 20
8.5
 30
0.0
 40
1.15
  0
CIRCLE
  5
184
330
AC
100
AcDbEntity
  8
0
 62
     7
370
    50
100
AcDbCircle
 10
-14.722432
 20
8.5
 30
0.0
 40
1.15
  0
ENDBLK
  5
AE
330
AC
100
AcDbEntity
  8
0
100
AcDbBlockEnd
  0
ENDSEC
  0
SECTION
  2
ENTITIES
  0
DIMENSION
  5
185
102
{ACAD_XDICTIONARY
360
186
102
}
330
1F
100
AcDbEntity
  8
0
 62
     0
370
     0
100
AcDbDimension
  2
*D1
 10
91.954227
 20
211.827866
 30
0.0
 11
91.954227
 21
190.827866
 31
0.0
 70
   160
 71
     5
 42
-1.0
 73
     0
 74
     0
 75
     0
 52
5156.620156
  3
STANDARD
100
AcDbAlignedDimension
 13
110.847202
 23
169.827866
 33
0.0
 14
110.847202
 24
211.827866
 34
0.0
 50
90.0
100
AcDbRotatedDimension
  0
DIMENSION
  5
187
102
{ACAD_XDICTIONARY
360
188
102
}
330
1F
100
AcDbEntity
  8
0
 62
     0
370
     0
100
AcDbDimension
  2
*D2
 10
148.817764
 20
234.036873
 30
0.0
 11
127.817764
 21
234.036873
 31
0.0
 70
   160
 71
     5
 42
-1.0
 73
     0
 74
     0
 75
     0
 52
5156.620156
  3
STANDARD
100
AcDbAlignedDimension
 13
106.817764
 23
207.798428
 33
0.0
 14
148.817764
 24
207.798428
 34
0.0
 50
360.0
100
AcDbRotatedDimension
  0
DIMENSION
  5
189
102
{ACAD_XDICTIONARY
360
18A
102
}
330
1F
100
AcDbEntity
  8
0
 62
     0
370
     0
100
AcDbDimension
  2
*D3
 10
140.792359
 20
214.506123
 30
0.0
 11
105.705078
 21
150.472856
 31
0.0
 70
   163
 71
     5
 42
-1.0
 73
     0
 74
     0
 75
     0
  3
STANDARD
100
AcDbDiametricDimension
 15
114.843169
 25
167.149608
 35
0.0
 40
0.0
  0
DIMENSION
  5
18B
102
{ACAD_XDICTIONARY
360
18C
102
}
330
1F
100
AcDbEntity
  8
0
 62
     0
370
     0
100
AcDbDimension
  2
*D4
 10
106.706218
 20
185.00441
 30
0.0
 11
222.061978
 21
216.824397
 31
0.0
 70
   163
 71
     5
 42
-1.0
 73
     0
 74
     0
 75
     0
  3
STANDARD
100
AcDbDiametricDimension
 15
148.92931
 25
196.651321
 35
0.0
 40
0.0
  0
DIMENSION
  5
18D
102
{ACAD_XDICTIONARY
360
18E
102
}
330
1F
100
AcDbEntity
  8
0
 62
     0
370
     0
100
AcDbDimension
  2
*D5
 10
110.84312
 20
191.756006
 30
0.0
 11
217.592285
 21
185.919172
 31
0.0
 70
   163
 71
     5
 42
-1.0
 73
     0
 74
     0
 75
     0
  3
STANDARD
100
AcDbDiametricDimension
 15
144.792409
 25
189.899726
 35
0.0
 40
0.0
  0
DIMENSION
  5
18F
102
{ACAD_XDICTIONARY
360
190
102
}
330
1F
100
AcDbEntity
  8
0
 62
     0
370
     0
100
AcDbDimension
  2
*D6
 10
113.911797
 20
197.67433
 30
0.0
 11
199.732607
 21
155.421311
 31
0.0
 70
   163
 71
     5
 42
-1.0
 73
     0
 74
     0
 75
     0
  3
STANDARD
100
AcDbDiametricDimension
 15
141.723732
 25
183.981401
 35
0.0
 40
0.0
  0
DIMENSION
  5
191
102
{ACAD_XDICTIONARY
360
192
102
}
330
1F
100
AcDbEntity
  8
0
 62
     0
370
     0
100
AcDbDimension
  2
*D7
 10
127.817764
 20
214.993565
 30
0.0
 11
161.891896
 21
230.991486
 31
0.0
 70
   162
  1
4x <>
 71
     5
 42
-1.0
 73
     0
 74
     0
 75
     0
  3
STANDARD
100
AcDb2LineAngularDimension
 13
127.817764
 23
190.827866
 33
0.0
 14
140.800245
 24
203.810346
 34
0.0
 15
127.817764
 25
190.827866
 35
0.0
 16
154.152926
 26
236.441703
 36
0.0
  0
DIMENSION
  5
193
102
{ACAD_XDICTIONARY
360
194
102
}
330
1F
100
AcDbEntity
  8
0
 62
     0
370
     0
100
AcDbDimension
  2
*D8
 10
127.817764
 20
214.993565
 30
0.0
 11
155.86132
 21
250.042442
 31
0.0
 70
   162
  1
2x <>
 71
     5
 42
-1.0
 73
     0
 74
     0
 75
     0
  3
STANDARD
100
AcDb2LineAngularDimension
 13
127.817764
 23
190.827866
 33
0.0
 14
143.834904
 24
200.075366
 34
0.0
 15
127.817764
 25
190.827866
 35
0.0
 16
169.932898
 26
241.018727
 36
0.0
  0
INSERT
  5
195
330
1F
100
AcDbEntity
  8
0
370
     0
100
AcDbBlockReference
  2
BLOCK197
 10
127.817764
 20
190.827866
 30
0.0
  0
INSERT
  5
196
330
1F
100
AcDbEntity
  8
0
370
     0
100
AcDbBlockReference
  2
BLOCK198
 10
127.817764
 20
190.827866
 30
0.0
  0
INSERT
  5
197
330
1F
100
AcDbEntity
  8
0
370
     0
100
AcDbBlockReference
  2
BLOCK199
 10
127.817764
 20
190.827866
 30
0.0
  0
INSERT
  5
198
330
1F
100
AcDbEntity
  8
0
370
     0
100
AcDbBlockReference
  2
BLOCK200
 10
127.817764
 20
190.827866
 30
0.0
  0
INSERT
  5
199
330
1F
100
AcDbEntity
  8
0
370
     0
100
AcDbBlockReference
  2
BLOCK201
 10
127.817764
 20
190.827866
 30
0.0
  0
INSERT
  5
19A
330
1F
100
AcDbEntity
  8
0
370
     0
100
AcDbBlockReference
  2
BLOCK202
 10
127.817764
 20
190.827866
 30
0.0
  0
INSERT
  5
19B
330
1F
100
AcDbEntity
  8
0
370
     0
100
AcDbBlockReference
  2
BLOCK203
 10
127.817764
 20
190.827866
 30
0.0
  0
INSERT
  5
19C
330
1F
100
AcDbEntity
  8
0
370
     0
100
AcDbBlockReference
  2
BLOCK204
 10
127.817764
 20
190.827866
 30
0.0
  0
INSERT
  5
19D
330
1F
100
AcDbEntity
  8
0
370
     0
100
AcDbBlockReference
  2
BLOCK205
 10
127.817764
 20
190.827866
 30
0.0
  0
INSERT
  5
19E
330
1F
100
AcDbEntity
  8
0
370
     0
100
AcDbBlockReference
  2
BLOCK206
 10
127.817764
 20
190.827866
 30
0.0
  0
INSERT
  5
19F
330
1F
100
AcDbEntity
  8
0
370
     0
100
AcDbBlockReference
  2
BLOCK207
 10
127.817764
 20
190.827866
 30
0.0
  0
INSERT
  5
1A0
330
1F
100
AcDbEntity
  8
0
370
     0
100
AcDbBlockReference
  2
BLOCK208
 10
127.817764
 20
190.827866
 30
0.0
  0
INSERT
  5
1A1
330
1F
100
AcDbEntity
  8
0
370
     0
100
AcDbBlockReference
  2
BLOCK209
 10
127.817764
 20
190.827866
 30
0.0
  0
ENDSEC
  0
SECTION
  2
OBJECTS
  0
DICTIONARY
  5
C
330
0
100
AcDbDictionary
281
     1
  3
ACAD_DETAILVIEWSTYLE
350
1AB
  3
ACAD_GROUP
350
D
  3
ACAD_LAYOUT
350
1A
  3
ACAD_MATERIAL
350
43
  3
ACAD_MLEADERSTYLE
350
6B
  3
ACAD_MLINESTYLE
350
17
  3
ACAD_PLOTSETTINGS
350
19
  3
ACAD_PLOTSTYLENAME
350
E
  3
ACAD_SCALELIST
350
47
  3
ACAD_SECTIONVIEWSTYLE
350
1AC
  3
ACAD_TABLESTYLE
350
69
  3
ACAD_VISUALSTYLE
350
2A
  3
ACDB_RECOMPOSE_DATA
350
1A7
  3
AcDbVariableDictionary
350
1A2
  0
SUN
  5
6D
330
29
100
AcDbSun
 90
        1
290
     0
 63
     7
421
 16777215
 40
1.0
291
     1
 91
  2455826
 92
 54000000
292
     0
 70
     2
 71
   256
280
     1
  0
DICTIONARY
  5
186
330
185
100
AcDbDictionary
280
     1
281
     1
  0
DICTIONARY
  5
188
330
187
100
AcDbDictionary
280
     1
281
     1
  0
DICTIONARY
  5
18A
330
189
100
AcDbDictionary
280
     1
281
     1
  0
DICTIONARY
  5
18C
330
18B
100
AcDbDictionary
280
     1
281
     1
  0
DICTIONARY
  5
18E
330
18D
100
AcDbDictionary
280
     1
281
     1
  0
DICTIONARY
  5
190
330
18F
100
AcDbDictionary
280
     1
281
     1
  0
DICTIONARY
  5
192
330
191
100
AcDbDictionary
280
     1
281
     1
  0
DICTIONARY
  5
194
330
193
100
AcDbDictionary
280
     1
281
     1
  0
DICTIONARY
  5
1AB
102
{ACAD_REACTORS
330
C
102
}
330
C
100
AcDbDictionary
281
     1
  0
DICTIONARY
  5
D
102
{ACAD_REACTORS
330
C
102
}
330
C
100
AcDbDictionary
281
     1
  0
DICTIONARY
  5
1A
102
{ACAD_REACTORS
330
C
102
}
330
C
100
AcDbDictionary
281
     1
  3
Layout1
350
1E
  3
Layout2
350
26
  3
Model
350
22
  0
DICTIONARY
  5
43
102
{ACAD_REACTORS
330
C
102
}
330
C
100
AcDbDictionary
281
     1
  3
ByBlock
350
45
  3
ByLayer
350
44
  3
Global
350
46
  0
DICTIONARY
  5
6B
102
{ACAD_REACTORS
330
C
102
}
330
C
100
AcDbDictionary
281
     1
  3
Standard
350
6C
  0
DICTIONARY
  5
17
102
{ACAD_REACTORS
330
C
102
}
330
C
100
AcDbDictionary
281
     1
  3
Standard
350
18
  0
DICTIONARY
  5
19
102
{ACAD_REACTORS
330
C
102
}
330
C
100
AcDbDictionary
281
     1
  0
ACDBDICTIONARYWDFLT
  5
E
102
{ACAD_REACTORS
330
C
102
}
330
C
100
AcDbDictionary
281
     1
  3
Normal
350
F
100
AcDbDictionaryWithDefault
340
F
  0
DICTIONARY
  5
47
102
{ACAD_REACTORS
330
C
102
}
330
C
100
AcDbDictionary
281
     1
  3
A0
350
48
  3
A1
350
49
  3
A2
350
4A
  3
A3
350
4B
  3
A4
350
4C
  3
A5
350
4D
  3
A6
350
4E
  3
A7
350
4F
  3
A8
350
50
  3
A9
350
51
  3
B0
350
52
  3
B1
350
53
  3
B2
350
54
  3
B3
350
55
  3
B4
350
56
  3
B5
350
57
  3
B6
350
58
  3
B7
350
59
  3
B8
350
5A
  3
B9
350
5B
  3
C0
350
5C
  3
C1
350
5D
  3
C2
350
5E
  3
C3
350
5F
  3
C4
350
60
  3
C5
350
61
  3
C6
350
62
  3
C7
350
63
  3
C8
350
64
  3
C9
350
65
  3
D0
350
66
  3
D1
350
67
  3
D2
350
68
  0
DICTIONARY
  5
1AC
102
{ACAD_REACTORS
330
C
102
}
330
C
100
AcDbDictionary
281
     1
  0
DICTIONARY
  5
69
102
{ACAD_REACTORS
330
C
102
}
330
C
100
AcDbDictionary
281
     1
  3
Standard
350
6A
  0
DICTIONARY
  5
2A
102
{ACAD_REACTORS
330
C
102
}
330
C
100
AcDbDictionary
281
     1
  3
2dWireframe
350
2F
  3
Basic
350
32
  3
Brighten
350
36
  3
ColorChange
350
3A
  3
Conceptual
350
34
  3
Dim
350
35
  3
EdgeColorOff
350
3D
  3
Facepattern
350
39
  3
Flat
350
2B
  3
FlatWithEdges
350
2C
  3
Gouraud
350
2D
  3
GouraudWithEdges
350
2E
  3
Hidden
350
31
  3
JitterOff
350
3B
  3
Linepattern
350
38
  3
OverhangOff
350
3C
  3
Realistic
350
33
  3
Shaded
350
42
  3
Shaded with edges
350
41
  3
Shades of Gray
350
3E
  3
Sketchy
350
3F
  3
Thicken
350
37
  3
Wireframe
350
30
  3
X-Ray
350
40
  0
XRECORD
  5
1A7
102
{ACAD_REACTORS
330
C
102
}
330
C
100
AcDbXrecord
280
     1
 90
        1
330
6A
  0
DICTIONARY
  5
1A2
102
{ACAD_REACTORS
330
C
102
}
330
C
100
AcDbDictionary
281
     1
  3
CANNOSCALE
350
1A3
  3
CMLEADERSTYLE
350
1A9
  3
CTABLESTYLE
350
1A8
  3
XCLIPFRAME
350
1AA
  0
LAYOUT
  5
1E
102
{ACAD_REACTORS
330
1A
102
}
330
1A
100
AcDbPlotSettings
  1

  2
none_device
  4

  6

 40
0.0
 41
0.0
 42
0.0
 43
0.0
 44
0.0
 45
0.0
 46
0.0
 47
0.0
 48
0.0
 49
0.0
140
0.0
141
0.0
142
1.0
143
1.0
 70
  4784
 72
     0
 73
     0
 74
     5
  7

 75
    16
 76
     0
 77
     2
 78
   300
147
1.0
148
0.0
149
0.0
100
AcDbLayout
  1
Layout1
 70
     1
 71
     1
 10
0.0
 20
0.0
 11
420.0
 21
297.0
 12
0.0
 22
0.0
 32
0.0
 14
0.0
 24
0.0
 34
0.0
 15
105.915222
 25
75.163742
 35
2.0
146
0.0
 13
0.0
 23
0.0
 33
0.0
 16
1.0
 26
0.0
 36
0.0
 17
0.0
 27
1.0
 37
0.0
 76
     0
330
1B
  0
LAYOUT
  5
26
102
{ACAD_REACTORS
330
1A
102
}
330
1A
100
AcDbPlotSettings
  1

  2
none_device
  4

  6

 40
0.0
 41
0.0
 42
0.0
 43
0.0
 44
0.0
 45
0.0
 46
0.0
 47
0.0
 48
0.0
 49
0.0
140
0.0
141
0.0
142
1.0
143
1.0
 70
  4784
 72
     0
 73
     0
 74
     5
  7

 75
    16
 76
     0
 77
     2
 78
   300
147
1.0
148
0.0
149
0.0
100
AcDbLayout
  1
Layout2
 70
     1
 71
     2
 10
0.0
 20
0.0
 11
0.0
 21
0.0
 12
0.0
 22
0.0
 32
0.0
 14
0.0
 24
0.0
 34
0.0
 15
0.0
 25
0.0
 35
0.0
146
0.0
 13
0.0
 23
0.0
 33
0.0
 16
1.0
 26
0.0
 36
0.0
 17
0.0
 27
1.0
 37
0.0
 76
     0
330
23
  0
LAYOUT
  5
22
102
{ACAD_REACTORS
330
1A
102
}
330
1A
100
AcDbPlotSettings
  1

  2
none_device
  4
Letter_(8.50_x_11.00_Inches)
  6

 40
6.35
 41
6.35
 42
6.350005
 43
6.350005
 44
215.9
 45
279.4
 46
0.0
 47
0.0
 48
0.0
 49
0.0
140
0.0
141
0.0
142
1.0
143
1.0
 70
  5808
 72
     0
 73
     0
 74
     0
  7

 75
     0
 76
     0
 77
     2
 78
   300
147
1.0
148
0.0
149
0.0
100
AcDbLayout
  1
Model
 70
     1
 71
     0
 10
0.0
 20
0.0
 11
420.0
 21
297.0
 12
0.0
 22
0.0
 32
0.0
 14
0.0
 24
0.0
 34
0.0
 15
105.915222
 25
75.163742
 35
2.0
146
0.0
 13
0.0
 23
0.0
 33
0.0
 16
1.0
 26
0.0
 36
0.0
 17
0.0
 27
1.0
 37
0.0
 76
     0
330
1F
331
29
  0
MATERIAL
  5
45
102
{ACAD_REACTORS
330
43
102
}
330
43
100
AcDbMaterial
  1
ByBlock
 72
     1
 94
      127
  0
MATERIAL
  5
44
102
{ACAD_REACTORS
330
43
102
}
330
43
100
AcDbMaterial
  1
ByLayer
 72
     1
 94
      127
  0
MATERIAL
  5
46
102
{ACAD_REACTORS
330
43
102
}
330
43
100
AcDbMaterial
  1
Global
 72
     1
 94
      127
  0
MLEADERSTYLE
  5
6C
102
{ACAD_REACTORS
330
6B
102
}
330
6B
100
AcDbMLeaderStyle
170
     2
171
     1
172
     0
 90
        2
 40
0.0
 41
0.0
173
     1
 91
-1056964608
340
14
 92
       -2
290
     1
 42
0.09
291
     1
 43
0.36
  3
Standard
341
0
 44
0.18
300

342
11
174
     1
178
     6
175
     1
176
     0
 93
-1056964608
 45
0.18
292
     0
297
     0
 46
0.18
343
0
 94
-1056964608
 47
1.0
 49
1.0
140
1.0
293
     1
141
0.0
294
     1
177
     0
142
1.0
295
     0
296
     0
143
0.125
1001
ACAD_MLEADERVER
1070
     2
  0
MLINESTYLE
  5
18
102
{ACAD_REACTORS
330
17
102
}
330
17
100
AcDbMlineStyle
  2
Standard
 70
     0
  3

 62
   256
 51
90.0
 52
90.0
 71
     2
 49
0.5
 62
   256
  6
BYLAYER
 49
-0.5
 62
   256
  6
BYLAYER
  0
ACDBPLACEHOLDER
  5
F
102
{ACAD_REACTORS
330
E
102
}
330
E
  0
SCALE
  5
48
102
{ACAD_REACTORS
330
47
102
}
330
47
100
AcDbScale
 70
     0
300
1:1
140
1.0
141
1.0
290
     1
  0
SCALE
  5
49
102
{ACAD_REACTORS
330
47
102
}
330
47
100
AcDbScale
 70
     0
300
1:2
140
1.0
141
2.0
290
     0
  0
SCALE
  5
4A
102
{ACAD_REACTORS
330
47
102
}
330
47
100
AcDbScale
 70
     0
300
1:4
140
1.0
141
4.0
290
     0
  0
SCALE
  5
4B
102
{ACAD_REACTORS
330
47
102
}
330
47
100
AcDbScale
 70
     0
300
1:5
140
1.0
141
5.0
290
     0
  0
SCALE
  5
4C
102
{ACAD_REACTORS
330
47
102
}
330
47
100
AcDbScale
 70
     0
300
1:8
140
1.0
141
8.0
290
     0
  0
SCALE
  5
4D
102
{ACAD_REACTORS
330
47
102
}
330
47
100
AcDbScale
 70
     0
300
1:10
140
1.0
141
10.0
290
     0
  0
SCALE
  5
4E
102
{ACAD_REACTORS
330
47
102
}
330
47
100
AcDbScale
 70
     0
300
1:16
140
1.0
141
16.0
290
     0
  0
SCALE
  5
4F
102
{ACAD_REACTORS
330
47
102
}
330
47
100
AcDbScale
 70
     0
300
1:20
140
1.0
141
20.0
290
     0
  0
SCALE
  5
50
102
{ACAD_REACTORS
330
47
102
}
330
47
100
AcDbScale
 70
     0
300
1:30
140
1.0
141
30.0
290
     0
  0
SCALE
  5
51
102
{ACAD_REACTORS
330
47
102
}
330
47
100
AcDbScale
 70
     0
300
1:40
140
1.0
141
40.0
290
     0
  0
SCALE
  5
52
102
{ACAD_REACTORS
330
47
102
}
330
47
100
AcDbScale
 70
     0
300
1:50
140
1.0
141
50.0
290
     0
  0
SCALE
  5
53
102
{ACAD_REACTORS
330
47
102
}
330
47
100
AcDbScale
 70
     0
300
1:100
140
1.0
141
100.0
290
     0
  0
SCALE
  5
54
102
{ACAD_REACTORS
330
47
102
}
330
47
100
AcDbScale
 70
     0
300
2:1
140
2.0
141
1.0
290
     0
  0
SCALE
  5
55
102
{ACAD_REACTORS
330
47
102
}
330
47
100
AcDbScale
 70
     0
300
4:1
140
4.0
141
1.0
290
     0
  0
SCALE
  5
56
102
{ACAD_REACTORS
330
47
102
}
330
47
100
AcDbScale
 70
     0
300
8:1
140
8.0
141
1.0
290
     0
  0
SCALE
  5
57
102
{ACAD_REACTORS
330
47
102
}
330
47
100
AcDbScale
 70
     0
300
10:1
140
10.0
141
1.0
290
     0
  0
SCALE
  5
58
102
{ACAD_REACTORS
330
47
102
}
330
47
100
AcDbScale
 70
     0
300
100:1
140
100.0
141
1.0
290
     0
  0
SCALE
  5
59
102
{ACAD_REACTORS
330
47
102
}
330
47
100
AcDbScale
 70
     0
300
1/128" = 1'-0"
140
0.007812
141
12.0
290
     0
  0
SCALE
  5
5A
102
{ACAD_REACTORS
330
47
102
}
330
47
100
AcDbScale
 70
     0
300
1/64" = 1'-0"
140
0.015625
141
12.0
290
     0
  0
SCALE
  5
5B
102
{ACAD_REACTORS
330
47
102
}
330
47
100
AcDbScale
 70
     0
300
1/32" = 1'-0"
140
0.03125
141
12.0
290
     0
  0
SCALE
  5
5C
102
{ACAD_REACTORS
330
47
102
}
330
47
100
AcDbScale
 70
     0
300
1/16" = 1'-0"
140
0.0625
141
12.0
290
     0
  0
SCALE
  5
5D
102
{ACAD_REACTORS
330
47
102
}
330
47
100
AcDbScale
 70
     0
300
3/32" = 1'-0"
140
0.09375
141
12.0
290
     0
  0
SCALE
  5
5E
102
{ACAD_REACTORS
330
47
102
}
330
47
100
AcDbScale
 70
     0
300
1/8" = 1'-0"
140
0.125
141
12.0
290
     0
  0
SCALE
  5
5F
102
{ACAD_REACTORS
330
47
102
}
330
47
100
AcDbScale
 70
     0
300
3/16" = 1'-0"
140
0.1875
141
12.0
290
     0
  0
SCALE
  5
60
102
{ACAD_REACTORS
330
47
102
}
330
47
100
AcDbScale
 70
     0
300
1/4" = 1'-0"
140
0.25
141
12.0
290
     0
  0
SCALE
  5
61
102
{ACAD_REACTORS
330
47
102
}
330
47
100
AcDbScale
 70
     0
300
3/8" = 1'-0"
140
0.375
141
12.0
290
     0
  0
SCALE
  5
62
102
{ACAD_REACTORS
330
47
102
}
330
47
100
AcDbScale
 70
     0
300
1/2" = 1'-0"
140
0.5
141
12.0
290
     0
  0
SCALE
  5
63
102
{ACAD_REACTORS
330
47
102
}
330
47
100
AcDbScale
 70
     0
300
3/4" = 1'-0"
140
0.75
141
12.0
290
     0
  0
SCALE
  5
64
102
{ACAD_REACTORS
330
47
102
}
330
47
100
AcDbScale
 70
     0
300
1" = 1'-0"
140
1.0
141
12.0
290
     0
  0
SCALE
  5
65
102
{ACAD_REACTORS
330
47
102
}
330
47
100
AcDbScale
 70
     0
300
1-1/2" = 1'-0"
140
1.5
141
12.0
290
     0
  0
SCALE
  5
66
102
{ACAD_REACTORS
330
47
102
}
330
47
100
AcDbScale
 70
     0
300
3" = 1'-0"
140
3.0
141
12.0
290
     0
  0
SCALE
  5
67
102
{ACAD_REACTORS
330
47
102
}
330
47
100
AcDbScale
 70
     0
300
6" = 1'-0"
140
6.0
141
12.0
290
     0
  0
SCALE
  5
68
102
{ACAD_REACTORS
330
47
102
}
330
47
100
AcDbScale
 70
     0
300
1'-0" = 1'-0"
140
12.0
141
12.0
290
     0
  0
TABLESTYLE
  5
6A
102
{ACAD_REACTORS
330
69
102
}
102
{ACAD_XDICTIONARY
360
1A4
102
}
330
69
100
AcDbTableStyle
  3
Standard
 70
     0
 71
     0
 40
0.06
 41
0.06
280
     0
281
     0
  7
Standard
140
0.18
170
     2
 62
     0
 63
   257
283
     0
 90
        4
 91
        0
  1

274
    -2
284
     1
 64
     0
275
    -2
285
     1
 65
     0
276
    -2
286
     1
 66
     0
277
    -2
287
     1
 67
     0
278
    -2
288
     1
 68
     0
279
    -2
289
     1
 69
     0
  7
Standard
140
0.25
170
     5
 62
     0
 63
   257
283
     0
 90
        4
 91
        0
  1

274
    -2
284
     1
 64
     0
275
    -2
285
     1
 65
     0
276
    -2
286
     1
 66
     0
277
    -2
287
     1
 67
     0
278
    -2
288
     1
 68
     0
279
    -2
289
     1
 69
     0
  7
Standard
140
0.18
170
     5
 62
     0
 63
   257
283
     0
 90
        4
 91
        0
  1

274
    -2
284
     1
 64
     0
275
    -2
285
     1
 65
     0
276
    -2
286
     1
 66
     0
277
    -2
287
     1
 67
     0
278
    -2
288
     1
 68
     0
279
    -2
289
     1
 69
     0
  0
VISUALSTYLE
  5
2F
102
{ACAD_REACTORS
330
2A
102
}
330
2A
100
AcDbVisualStyle
  2
2dWireframe
 70
     4
 71
     0
 72
     2
 73
     0
 90
        0
 40
0.6
 41
30.0
 62
     5
 63
     7
421
 16777215
 74
     1
 91
        4
 64
     7
 65
   257
 75
     1
175
     1
 42
1.0
 92
        0
 66
   257
 43
1.0
 76
     1
 77
     6
 78
     2
 67
     7
 79
     5
170
     0
171
     0
290
     0
174
     0
 93
        1
 44
0.0
173
     0
291
     0
 45
0.0
  0
VISUALSTYLE
  5
32
102
{ACAD_REACTORS
330
2A
102
}
330
2A
100
AcDbVisualStyle
  2
Basic
 70
     7
 71
     1
 72
     0
 73
     1
 90
        0
 40
0.6
 41
30.0
 62
     5
 63
     7
421
 16777215
 74
     0
 91
        4
 64
     7
 65
   257
 75
     1
175
     1
 42
1.0
 92
        8
 66
     7
 43
1.0
 76
     1
 77
     6
 78
     2
 67
     7
 79
     5
170
     0
171
     0
290
     0
174
     0
 93
        1
 44
0.0
173
     0
291
     1
 45
0.0
  0
VISUALSTYLE
  5
36
102
{ACAD_REACTORS
330
2A
102
}
330
2A
100
AcDbVisualStyle
  2
Brighten
 70
    12
 71
     2
 72
     2
 73
     0
 90
        0
 40
0.6
 41
30.0
 62
     5
 63
     7
421
 16777215
 74
     1
 91
        4
 64
     7
 65
   257
 75
     1
175
     1
 42
1.0
 92
        8
 66
     7
 43
1.0
 76
     1
 77
     6
 78
     2
 67
     7
 79
     5
170
     0
171
     0
290
     0
174
     0
 93
        1
 44
50.0
173
     0
291
     1
 45
0.0
  0
VISUALSTYLE
  5
3A
102
{ACAD_REACTORS
330
2A
102
}
330
2A
100
AcDbVisualStyle
  2
ColorChange
 70
    16
 71
     2
 72
     2
 73
     3
 90
        0
 40
0.6
 41
30.0
 62
     5
 63
     8
421
  8421504
 74
     1
 91
        4
 64
     7
 65
   257
 75
     1
175
     1
 42
1.0
 92
        8
 66
     8
424
  8421504
 43
1.0
 76
     1
 77
     6
 78
     2
 67
     7
 79
     5
170
     0
171
     0
290
     0
174
     0
 93
        1
 44
0.0
173
     0
291
     1
 45
0.0
  0
VISUALSTYLE
  5
34
102
{ACAD_REACTORS
330
2A
102
}
330
2A
100
AcDbVisualStyle
  2
Conceptual
 70
     9
 71
     3
 72
     2
 73
     0
 90
        0
 40
0.6
 41
30.0
 62
     5
 63
     7
421
 16777215
 74
     2
 91
        2
 64
     7
 65
   257
 75
     1
175
     1
 42
179.0
 92
        8
 66
     7
 43
1.0
 76
     1
 77
     6
 78
     2
 67
     7
 79
     3
170
     0
171
     0
290
     0
174
     0
 93
        1
 44
0.0
173
     0
291
     0
 45
0.0
  0
VISUALSTYLE
  5
35
102
{ACAD_REACTORS
330
2A
102
}
330
2A
100
AcDbVisualStyle
  2
Dim
 70
    11
 71
     2
 72
     2
 73
     0
 90
        0
 40
0.6
 41
30.0
 62
     5
 63
     7
421
 16777215
 74
     1
 91
        4
 64
     7
 65
   257
 75
     1
175
     1
 42
1.0
 92
        8
 66
     7
 43
1.0
 76
     1
 77
     6
 78
     2
 67
     7
 79
     5
170
     0
171
     0
290
     0
174
     0
 93
        1
 44
-50.0
173
     0
291
     1
 45
0.0
  0
VISUALSTYLE
  5
3D
102
{ACAD_REACTORS
330
2A
102
}
330
2A
100
AcDbVisualStyle
  2
EdgeColorOff
 70
    22
 71
     2
 72
     2
 73
     0
 90
        0
 40
0.6
 41
30.0
 62
     5
 63
     7
421
 16777215
 74
     1
 91
        4
 64
     7
 65
   257
 75
     1
175
     1
 42
1.0
 92
        8
 66
     7
 43
1.0
 76
     1
 77
     6
 78
     2
 67
     7
 79
     5
170
     0
171
     0
290
     0
174
     0
 93
        1
 44
0.0
173
     0
291
     1
 45
0.0
  0
VISUALSTYLE
  5
39
102
{ACAD_REACTORS
330
2A
102
}
330
2A
100
AcDbVisualStyle
  2
Facepattern
 70
    15
 71
     2
 72
     2
 73
     0
 90
        0
 40
0.6
 41
30.0
 62
     5
 63
     7
421
 16777215
 74
     1
 91
        4
 64
     7
 65
   257
 75
     1
175
     1
 42
1.0
 92
        8
 66
     7
 43
1.0
 76
     1
 77
     6
 78
     2
 67
     7
 79
     5
170
     0
171
     0
290
     0
174
     0
 93
        1
 44
0.0
173
     0
291
     1
 45
0.0
  0
VISUALSTYLE
  5
2B
102
{ACAD_REACTORS
330
2A
102
}
330
2A
100
AcDbVisualStyle
  2
Flat
 70
     0
 71
     2
 72
     1
 73
     1
 90
        2
 40
0.6
 41
30.0
 62
     5
 63
     7
421
 16777215
 74
     0
 91
        0
 64
     7
 65
   257
 75
     1
175
     1
 42
1.0
 92
        8
 66
     7
 43
1.0
 76
     1
 77
     6
 78
     2
 67
     7
 79
     5
170
     0
171
     0
290
     0
174
     0
 93
       13
 44
0.0
173
     0
291
     1
 45
0.0
  0
VISUALSTYLE
  5
2C
102
{ACAD_REACTORS
330
2A
102
}
330
2A
100
AcDbVisualStyle
  2
FlatWithEdges
 70
     1
 71
     2
 72
     1
 73
     1
 90
        2
 40
0.6
 41
30.0
 62
     5
 63
     7
421
 16777215
 74
     1
 91
        0
 64
     7
 65
   257
 75
     1
175
     1
 42
1.0
 92
        0
 66
   257
 43
1.0
 76
     1
 77
     6
 78
     2
 67
     7
 79
     5
170
     0
171
     0
290
     0
174
     0
 93
       13
 44
0.0
173
     0
291
     1
 45
0.0
  0
VISUALSTYLE
  5
2D
102
{ACAD_REACTORS
330
2A
102
}
330
2A
100
AcDbVisualStyle
  2
Gouraud
 70
     2
 71
     2
 72
     2
 73
     1
 90
        2
 40
0.6
 41
30.0
 62
     5
 63
     7
421
 16777215
 74
     0
 91
        0
 64
     7
 65
   257
 75
     1
175
     1
 42
1.0
 92
        0
 66
     7
 43
1.0
 76
     1
 77
     6
 78
     2
 67
     7
 79
     5
170
     0
171
     0
290
     0
174
     0
 93
       13
 44
0.0
173
     0
291
     1
 45
0.0
  0
VISUALSTYLE
  5
2E
102
{ACAD_REACTORS
330
2A
102
}
330
2A
100
AcDbVisualStyle
  2
GouraudWithEdges
 70
     3
 71
     2
 72
     2
 73
     1
 90
        2
 40
0.6
 41
30.0
 62
     5
 63
     7
421
 16777215
 74
     1
 91
        0
 64
     7
 65
   257
 75
     1
175
     1
 42
1.0
 92
        0
 66
   257
 43
1.0
 76
     1
 77
     6
 78
     2
 67
     7
 79
     5
170
     0
171
     0
290
     0
174
     0
 93
       13
 44
0.0
173
     0
291
     1
 45
0.0
  0
VISUALSTYLE
  5
31
102
{ACAD_REACTORS
330
2A
102
}
330
2A
100
AcDbVisualStyle
  2
Hidden
 70
     6
 71
     1
 72
     2
 73
     2
 90
        0
 40
0.6
 41
30.0
 62
     5
 63
     7
421
 16777215
 74
     2
 91
        2
 64
     7
 65
   257
 75
     2
175
     1
 42
40.0
 92
        0
 66
   257
 43
1.0
 76
     1
 77
     6
 78
     2
 67
     7
 79
     3
170
     0
171
     0
290
     0
174
     0
 93
        1
 44
0.0
173
     0
291
     0
 45
0.0
  0
VISUALSTYLE
  5
3B
102
{ACAD_REACTORS
330
2A
102
}
330
2A
100
AcDbVisualStyle
  2
JitterOff
 70
    20
 71
     2
 72
     2
 73
     0
 90
        0
 40
0.6
 41
30.0
 62
     5
 63
     7
421
 16777215
 74
     1
 91
        4
 64
     7
 65
   257
 75
     1
175
     1
 42
1.0
 92
       10
 66
     7
 43
1.0
 76
     1
 77
     6
 78
     2
 67
     7
 79
     5
170
     0
171
     0
290
     0
174
     0
 93
        1
 44
0.0
173
     0
291
     1
 45
0.0
  0
VISUALSTYLE
  5
38
102
{ACAD_REACTORS
330
2A
102
}
330
2A
100
AcDbVisualStyle
  2
Linepattern
 70
    14
 71
     2
 72
     2
 73
     0
 90
        0
 40
0.6
 41
30.0
 62
     5
 63
     7
421
 16777215
 74
     1
 91
        4
 64
     7
 65
   257
 75
     7
175
     7
 42
1.0
 92
        8
 66
     7
 43
1.0
 76
     1
 77
     6
 78
     2
 67
     7
 79
     5
170
     0
171
     0
290
     0
174
     0
 93
        1
 44
0.0
173
     0
291
     1
 45
0.0
  0
VISUALSTYLE
  5
3C
102
{ACAD_REACTORS
330
2A
102
}
330
2A
100
AcDbVisualStyle
  2
OverhangOff
 70
    21
 71
     2
 72
     2
 73
     0
 90
        0
 40
0.6
 41
30.0
 62
     5
 63
     7
421
 16777215
 74
     1
 91
        4
 64
     7
 65
   257
 75
     1
175
     1
 42
1.0
 92
        9
 66
     7
 43
1.0
 76
     1
 77
     6
 78
     2
 67
     7
 79
     5
170
     0
171
     0
290
     0
174
     0
 93
        1
 44
0.0
173
     0
291
     1
 45
0.0
  0
VISUALSTYLE
  5
33
102
{ACAD_REACTORS
330
2A
102
}
330
2A
100
AcDbVisualStyle
  2
Realistic
 70
     8
 71
     2
 72
     3
 73
     0
 90
        2
 40
0.6
 41
30.0
 62
     5
 63
     7
421
 16777215
 74
     0
 91
        0
 64
     7
 65
   257
 75
     1
175
     1
 42
1.0
 92
        8
 66
   257
 43
1.0
 76
     1
 77
     6
 78
     2
 67
     7
 79
     3
170
     0
171
     0
290
     0
174
     0
 93
       13
 44
0.0
173
     0
291
     0
 45
0.0
  0
VISUALSTYLE
  5
42
102
{ACAD_REACTORS
330
2A
102
}
330
2A
100
AcDbVisualStyle
  2
Shaded
 70
    27
 71
     2
 72
     2
 73
     1
 90
        2
 40
0.6
 41
30.0
 62
     5
 63
     7
421
 16777215
 74
     0
 91
        4
 64
     7
 65
   257
 75
     1
175
     1
 42
1.0
 92
        8
 66
   257
 43
1.0
 76
     1
 77
     6
 78
     2
 67
     8
425
  7895160
 79
     3
170
     0
171
     0
290
     0
174
     0
 93
        5
 44
0.0
173
     0
291
     0
 45
0.0
  0
VISUALSTYLE
  5
41
102
{ACAD_REACTORS
330
2A
102
}
330
2A
100
AcDbVisualStyle
  2
Shaded with edges
 70
    26
 71
     2
 72
     2
 73
     1
 90
        2
 40
0.6
 41
30.0
 62
     5
 63
     7
421
 16777215
 74
     1
 91
       10
 64
     7
 65
   257
 75
     2
175
     1
 42
1.0
 92
        8
 66
   257
 43
1.0
 76
     1
 77
     6
 78
     2
 67
     7
 79
     3
170
     0
171
     0
290
     0
174
     0
 93
        5
 44
0.0
173
     0
291
     0
 45
0.0
  0
VISUALSTYLE
  5
3E
102
{ACAD_REACTORS
330
2A
102
}
330
2A
100
AcDbVisualStyle
  2
Shades of Gray
 70
    23
 71
     2
 72
     2
 73
     3
 90
        0
 40
0.6
 41
30.0
 62
     5
 63
     7
421
 16777215
 74
     2
 91
        2
 64
     7
 65
     7
 75
     1
175
     1
 42
40.0
 92
        8
 66
     7
 43
1.0
 76
     1
 77
     6
 78
     2
 67
     7
 79
     3
170
     0
171
     0
290
     0
174
     0
 93
        1
 44
0.0
173
     0
291
     0
 45
0.0
  0
VISUALSTYLE
  5
3F
102
{ACAD_REACTORS
330
2A
102
}
330
2A
100
AcDbVisualStyle
  2
Sketchy
 70
    24
 71
     1
 72
     2
 73
     2
 90
        0
 40
0.6
 41
30.0
 62
     5
 63
     7
421
 16777215
 74
     2
 91
        2
 64
     7
 65
     7
 75
     1
175
     1
 42
40.0
 92
       11
 66
     7
 43
1.0
 76
     1
 77
     6
 78
     2
 67
     7
 79
     6
170
     0
171
     0
290
     0
174
     0
 93
        1
 44
0.0
173
     0
291
     0
 45
0.0
  0
VISUALSTYLE
  5
37
102
{ACAD_REACTORS
330
2A
102
}
330
2A
100
AcDbVisualStyle
  2
Thicken
 70
    13
 71
     2
 72
     2
 73
     0
 90
        0
 40
0.6
 41
30.0
 62
     5
 63
     7
421
 16777215
 74
     1
 91
        4
 64
     7
 65
   257
 75
     1
175
     1
 42
1.0
 92
       12
 66
     7
 43
1.0
 76
     1
 77
     6
 78
     2
 67
     7
 79
     5
170
     0
171
     0
290
     0
174
     0
 93
        1
 44
0.0
173
     0
291
     1
 45
0.0
  0
VISUALSTYLE
  5
30
102
{ACAD_REACTORS
330
2A
102
}
330
2A
100
AcDbVisualStyle
  2
Wireframe
 70
     5
 71
     0
 72
     2
 73
     0
 90
        0
 40
0.6
 41
30.0
 62
     5
 63
     7
421
 16777215
 74
     1
 91
        4
 64
     7
 65
   257
 75
     1
175
     1
 42
1.0
 92
        0
 66
   257
 43
1.0
 76
     1
 77
     6
 78
     2
 67
     7
 79
     3
170
     0
171
     0
290
     0
174
     0
 93
        1
 44
0.0
173
     0
291
     0
 45
0.0
  0
VISUALSTYLE
  5
40
102
{ACAD_REACTORS
330
2A
102
}
330
2A
100
AcDbVisualStyle
  2
X-Ray
 70
    25
 71
     2
 72
     2
 73
     1
 90
        1
 40
0.5
 41
30.0
 62
     5
 63
     7
421
 16777215
 74
     1
 91
        0
 64
     7
 65
   257
 75
     1
175
     1
 42
1.0
 92
        8
 66
     7
 43
1.0
 76
     1
 77
     6
 78
     2
 67
     7
 79
     3
170
     0
171
     0
290
     0
174
     0
 93
       13
 44
0.0
173
     0
291
     0
 45
0.0
  0
DICTIONARYVAR
  5
1A3
102
{ACAD_REACTORS
330
1A2
102
}
330
1A2
100
DictionaryVariables
280
     0
  1
1:1
  0
DICTIONARYVAR
  5
1A9
102
{ACAD_REACTORS
330
1A2
102
}
330
1A2
100
DictionaryVariables
280
     0
  1
Standard
  0
DICTIONARYVAR
  5
1A8
102
{ACAD_REACTORS
330
1A2
102
}
330
1A2
100
DictionaryVariables
280
     0
  1
Standard
  0
DICTIONARYVAR
  5
1AA
102
{ACAD_REACTORS
330
1A2
102
}
330
1A2
100
DictionaryVariables
280
     0
  1
0
  0
DICTIONARY
  5
1A4
330
6A
100
AcDbDictionary
280
     1
281
     1
  3
ACAD_ROUNDTRIP_2008_TABLESTYLE_CELLSTYLEMAP
360
1A5
  0
CELLSTYLEMAP
  5
1A5
102
{ACAD_REACTORS
330
1A4
102
}
330
1A4
100
AcDbCellStyleMap
 90
        3
300
CELLSTYLE
  1
TABLEFORMAT_BEGIN
 90
        5
170
     1
 91
        0
 92
    32768
 62
   257
 93
        1
300
CONTENTFORMAT
  1
CONTENTFORMAT_BEGIN
 90
        0
 91
        0
 92
        4
 93
        0
300

 40
0.0
140
1.0
 94
        5
 62
     0
340
11
144
0.25
309
CONTENTFORMAT_END
171
     1
301
MARGIN
  1
CELLMARGIN_BEGIN
 40
0.06
 40
0.06
 40
0.06
 40
0.06
 40
0.06
 40
0.06
309
CELLMARGIN_END
 94
        6
 95
        1
302
GRIDFORMAT
  1
GRIDFORMAT_BEGIN
 90
        0
 91
        1
 62
     0
 92
       -2
340
14
 93
        0
 40
0.045
309
GRIDFORMAT_END
 95
        2
302
GRIDFORMAT
  1
GRIDFORMAT_BEGIN
 90
        0
 91
        1
 62
     0
 92
       -2
340
14
 93
        0
 40
0.045
309
GRIDFORMAT_END
 95
        4
302
GRIDFORMAT
  1
GRIDFORMAT_BEGIN
 90
        0
 91
        1
 62
     0
 92
       -2
340
14
 93
        0
 40
0.045
309
GRIDFORMAT_END
 95
        8
302
GRIDFORMAT
  1
GRIDFORMAT_BEGIN
 90
        0
 91
        1
 62
     0
 92
       -2
340
14
 93
        0
 40
0.045
309
GRIDFORMAT_END
 95
       16
302
GRIDFORMAT
  1
GRIDFORMAT_BEGIN
 90
        0
 91
        1
 62
     0
 92
       -2
340
14
 93
        0
 40
0.045
309
GRIDFORMAT_END
 95
       32
302
GRIDFORMAT
  1
GRIDFORMAT_BEGIN
 90
        0
 91
        1
 62
     0
 92
       -2
340
14
 93
        0
 40
0.045
309
GRIDFORMAT_END
309
TABLEFORMAT_END
  1
CELLSTYLE_BEGIN
 90
        1
 91
        1
300
_TITLE
309
CELLSTYLE_END
300
CELLSTYLE
  1
TABLEFORMAT_BEGIN
 90
        5
170
     1
 91
        0
 92
        0
 62
   257
 93
        1
300
CONTENTFORMAT
  1
CONTENTFORMAT_BEGIN
 90
        0
 91
        0
 92
        4
 93
        0
300

 40
0.0
140
1.0
 94
        5
 62
     0
340
11
144
0.18
309
CONTENTFORMAT_END
171
     1
301
MARGIN
  1
CELLMARGIN_BEGIN
 40
0.06
 40
0.06
 40
0.06
 40
0.06
 40
0.06
 40
0.06
309
CELLMARGIN_END
 94
        6
 95
        1
302
GRIDFORMAT
  1
GRIDFORMAT_BEGIN
 90
        0
 91
        1
 62
     0
 92
       -2
340
14
 93
        0
 40
0.045
309
GRIDFORMAT_END
 95
        2
302
GRIDFORMAT
  1
GRIDFORMAT_BEGIN
 90
        0
 91
        1
 62
     0
 92
       -2
340
14
 93
        0
 40
0.045
309
GRIDFORMAT_END
 95
        4
302
GRIDFORMAT
  1
GRIDFORMAT_BEGIN
 90
        0
 91
        1
 62
     0
 92
       -2
340
14
 93
        0
 40
0.045
309
GRIDFORMAT_END
 95
        8
302
GRIDFORMAT
  1
GRIDFORMAT_BEGIN
 90
        0
 91
        1
 62
     0
 92
       -2
340
14
 93
        0
 40
0.045
309
GRIDFORMAT_END
 95
       16
302
GRIDFORMAT
  1
GRIDFORMAT_BEGIN
 90
        0
 91
        1
 62
     0
 92
       -2
340
14
 93
        0
 40
0.045
309
GRIDFORMAT_END
 95
       32
302
GRIDFORMAT
  1
GRIDFORMAT_BEGIN
 90
        0
 91
        1
 62
     0
 92
       -2
340
14
 93
        0
 40
0.045
309
GRIDFORMAT_END
309
TABLEFORMAT_END
  1
CELLSTYLE_BEGIN
 90
        2
 91
        1
300
_HEADER
309
CELLSTYLE_END
300
CELLSTYLE
  1
TABLEFORMAT_BEGIN
 90
        5
170
     1
 91
        0
 92
        0
 62
   257
 93
        1
300
CONTENTFORMAT
  1
CONTENTFORMAT_BEGIN
 90
        0
 91
        0
 92
        4
 93
        0
300

 40
0.0
140
1.0
 94
        2
 62
     0
340
11
144
0.18
309
CONTENTFORMAT_END
171
     1
301
MARGIN
  1
CELLMARGIN_BEGIN
 40
0.06
 40
0.06
 40
0.06
 40
0.06
 40
0.06
 40
0.06
309
CELLMARGIN_END
 94
        6
 95
        1
302
GRIDFORMAT
  1
GRIDFORMAT_BEGIN
 90
        0
 91
        1
 62
     0
 92
       -2
340
14
 93
        0
 40
0.045
309
GRIDFORMAT_END
 95
        2
302
GRIDFORMAT
  1
GRIDFORMAT_BEGIN
 90
        0
 91
        1
 62
     0
 92
       -2
340
14
 93
        0
 40
0.045
309
GRIDFORMAT_END
 95
        4
302
GRIDFORMAT
  1
GRIDFORMAT_BEGIN
 90
        0
 91
        1
 62
     0
 92
       -2
340
14
 93
        0
 40
0.045
309
GRIDFORMAT_END
 95
        8
302
GRIDFORMAT
  1
GRIDFORMAT_BEGIN
 90
        0
 91
        1
 62
     0
 92
       -2
340
14
 93
        0
 40
0.045
309
GRIDFORMAT_END
 95
       16
302
GRIDFORMAT
  1
GRIDFORMAT_BEGIN
 90
        0
 91
        1
 62
     0
 92
       -2
340
14
 93
        0
 40
0.045
309
GRIDFORMAT_END
 95
       32
302
GRIDFORMAT
  1
GRIDFORMAT_BEGIN
 90
        0
 91
        1
 62
     0
 92
       -2
340
14
 93
        0
 40
0.045
309
GRIDFORMAT_END
309
TABLEFORMAT_END
  1
CELLSTYLE_BEGIN
 90
        3
 91
        2
300
_DATA
309
CELLSTYLE_END
  0
ENDSEC
  0
EOF
