  0
SECTION
  2
HEADER
  9
$ACADVER
  1
AC1021
  9
$ACADMAINTVER
 70
    25
  9
$DWGCODEPAGE
  3
ANSI_1252
  9
$INSBASE
 10
0.0
 20
0.0
 30
0.0
  9
$EXTMIN
 10
0.0
 20
0.0
 30
0.0
  9
$EXTMAX
 10
94.881531
 20
91.922562
 30
2.0
  9
$LIMMIN
 10
0.0
 20
0.0
  9
$LIMMAX
 10
420.0
 20
297.0
  9
$ORTHOMODE
 70
     0
  9
$REGENMODE
 70
     1
  9
$FILLMODE
 70
     1
  9
$QTEXTMODE
 70
     0
  9
$MIRRTEXT
 70
     1
  9
$LTSCALE
 40
1.0
  9
$ATTMODE
 70
     1
  9
$TEXTSIZE
 40
2.5
  9
$TRACEWID
 40
1.0
  9
$TEXTSTYLE
  7
Standard
  9
$CLAYER
  8
0
  9
$CELTYPE
  6
ByLayer
  9
$CECOLOR
 62
   256
  9
$CELTSCALE
 40
1.0
  9
$DISPSILH
 70
     0
  9
$DIMSCALE
 40
1.0
  9
$DIMASZ
 40
2.5
  9
$DIMEXO
 40
0.625
  9
$DIMDLI
 40
3.75
  9
$DIMRND
 40
0.0
  9
$DIMDLE
 40
0.0
  9
$DIMEXE
 40
1.25
  9
$DIMTP
 40
0.0
  9
$DIMTM
 40
0.0
  9
$DIMTXT
 40
2.5
  9
$DIMCEN
 40
2.5
  9
$DIMTSZ
 40
0.0
  9
$DIMTOL
 70
     0
  9
$DIMLIM
 70
     0
  9
$DIMTIH
 70
     0
  9
$DIMTOH
 70
     0
  9
$DIMSE1
 70
     0
  9
$DIMSE2
 70
     0
  9
$DIMTAD
 70
     1
  9
$DIMZIN
 70
     8
  9
$DIMBLK
  1

  9
$DIMASO
 70
     1
  9
$DIMSHO
 70
     1
  9
$DIMPOST
  1

  9
$DIMAPOST
  1

  9
$DIMALT
 70
     0
  9
$DIMALTD
 70
     3
  9
$DIMALTF
 40
0.03937
  9
$DIMLFAC
 40
1.0
  9
$DIMTOFL
 70
     1
  9
$DIMTVP
 40
0.0
  9
$DIMTIX
 70
     0
  9
$DIMSOXD
 70
     0
  9
$DIMSAH
 70
     0
  9
$DIMBLK1
  1

  9
$DIMBLK2
  1

  9
$DIMSTYLE
  2
STANDARD
  9
$DIMCLRD
 70
     0
  9
$DIMCLRE
 70
     0
  9
$DIMCLRT
 70
     0
  9
$DIMTFAC
 40
1.0
  9
$DIMGAP
 40
0.625
  9
$DIMJUST
 70
     0
  9
$DIMSD1
 70
     0
  9
$DIMSD2
 70
     0
  9
$DIMTOLJ
 70
     0
  9
$DIMTZIN
 70
     8
  9
$DIMALTZ
 70
     0
  9
$DIMALTTZ
 70
     0
  9
$DIMUPT
 70
     0
  9
$DIMDEC
 70
     2
  9
$DIMTDEC
 70
     2
  9
$DIMALTU
 70
     2
  9
$DIMALTTD
 70
     3
  9
$DIMTXSTY
  7
Standard
  9
$DIMAUNIT
 70
     0
  9
$DIMADEC
 70
     0
  9
$DIMALTRND
 40
0.0
  9
$DIMAZIN
 70
     0
  9
$DIMDSEP
 70
    44
  9
$DIMATFIT
 70
     0
  9
$DIMFRAC
 70
     0
  9
$DIMLDRBLK
  1

  9
$DIMLUNIT
 70
     2
  9
$DIMLWD
 70
    -2
  9
$DIMLWE
 70
    -2
  9
$DIMTMOVE
 70
     0
  9
$DIMFXL
 40
1.0
  9
$DIMFXLON
 70
     0
  9
$DIMJOGANG
 40
0.785398
  9
$DIMTFILL
 70
     0
  9
$DIMTFILLCLR
 70
     0
  9
$DIMARCSYM
 70
     0
  9
$DIMLTYPE
  6

  9
$DIMLTEX1
  6

  9
$DIMLTEX2
  6

  9
$LUNITS
 70
     2
  9
$LUPREC
 70
     4
  9
$SKETCHINC
 40
1.0
  9
$FILLETRAD
 40
2.5
  9
$AUNITS
 70
     0
  9
$AUPREC
 70
     0
  9
$MENU
  1
.
  9
$ELEVATION
 40
0.0
  9
$PELEVATION
 40
0.0
  9
$THICKNESS
 40
0.0
  9
$LIMCHECK
 70
     0
  9
$CHAMFERA
 40
2.5
  9
$CHAMFERB
 40
2.5
  9
$CHAMFERC
 40
0.0
  9
$CHAMFERD
 40
0.0
  9
$SKPOLY
 70
     0
  9
$TDCREATE
 40
2447893.083333333
  9
$TDUCREATE
 40
0.0
  9
$TDUPDATE
 40
2458941.705553553
  9
$TDUUPDATE
 40
2458941.62222022
  9
$TDINDWG
 40
0.0
  9
$TDUSRTIMER
 40
0.0
  9
$USRTIMER
 70
     1
  9
$ANGBASE
 50
0.0
  9
$ANGDIR
 70
     0
  9
$PDMODE
 70
     0
  9
$PDSIZE
 40
0.0
  9
$PLINEWID
 40
0.0
  9
$SPLFRAME
 70
     0
  9
$SPLINETYPE
 70
     6
  9
$SPLINESEGS
 70
     8
  9
$HANDSEED
  5
30A
  9
$SURFTAB1
 70
     6
  9
$SURFTAB2
 70
     6
  9
$SURFTYPE
 70
     6
  9
$SURFU
 70
     6
  9
$SURFV
 70
     6
  9
$UCSBASE
  2

  9
$UCSNAME
  2

  9
$UCSORG
 10
0.0
 20
0.0
 30
0.0
  9
$UCSXDIR
 10
1.0
 20
0.0
 30
0.0
  9
$UCSYDIR
 10
0.0
 20
1.0
 30
0.0
  9
$UCSORTHOREF
  2

  9
$UCSORTHOVIEW
 70
     1
  9
$UCSORGTOP
 10
0.0
 20
0.0
 30
0.0
  9
$UCSORGBOTTOM
 10
0.0
 20
0.0
 30
0.0
  9
$UCSORGLEFT
 10
0.0
 20
0.0
 30
0.0
  9
$UCSORGRIGHT
 10
0.0
 20
0.0
 30
0.0
  9
$UCSORGFRONT
 10
0.0
 20
0.0
 30
0.0
  9
$UCSORGBACK
 10
0.0
 20
0.0
 30
0.0
  9
$PUCSBASE
  2

  9
$PUCSNAME
  2

  9
$PUCSORG
 10
0.0
 20
0.0
 30
0.0
  9
$PUCSXDIR
 10
1.0
 20
0.0
 30
0.0
  9
$PUCSYDIR
 10
0.0
 20
1.0
 30
0.0
  9
$PUCSORTHOREF
  2

  9
$PUCSORTHOVIEW
 70
     0
  9
$PUCSORGTOP
 10
0.0
 20
0.0
 30
0.0
  9
$PUCSORGBOTTOM
 10
0.0
 20
0.0
 30
0.0
  9
$PUCSORGLEFT
 10
0.0
 20
0.0
 30
0.0
  9
$PUCSORGRIGHT
 10
0.0
 20
0.0
 30
0.0
  9
$PUCSORGFRONT
 10
0.0
 20
0.0
 30
0.0
  9
$PUCSORGBACK
 10
0.0
 20
0.0
 30
0.0
  9
$USERI1
 70
     0
  9
$USERI2
 70
     0
  9
$USERI3
 70
     0
  9
$USERI4
 70
     0
  9
$USERI5
 70
     0
  9
$USERR1
 40
0.0
  9
$USERR2
 40
0.0
  9
$USERR3
 40
0.0
  9
$USERR4
 40
0.0
  9
$USERR5
 40
0.0
  9
$WORLDVIEW
 70
     1
  9
$SHADEDGE
 70
     3
  9
$SHADEDIF
 70
    70
  9
$TILEMODE
 70
     1
  9
$MAXACTVP
 70
    64
  9
$PINSBASE
 10
0.0
 20
0.0
 30
0.0
  9
$PLIMCHECK
 70
     0
  9
$PEXTMIN
 10
0.0
 20
0.0
 30
0.0
  9
$PEXTMAX
 10
94.881531
 20
91.922562
 30
2.0
  9
$PLIMMIN
 10
0.0
 20
0.0
  9
$PLIMMAX
 10
420.0
 20
297.0
  9
$UNITMODE
 70
     0
  9
$VISRETAIN
 70
     0
  9
$PLINEGEN
 70
     0
  9
$PSLTSCALE
 70
     1
  9
$TREEDEPTH
 70
  3020
  9
$CMLSTYLE
  2
Standard
  9
$CMLJUST
 70
     0
  9
$CMLSCALE
 40
20.0
  9
$PROXYGRAPHICS
 70
     1
  9
$MEASUREMENT
 70
     1
  9
$CELWEIGHT
370
    -1
  9
$ENDCAPS
280
     0
  9
$JOINSTYLE
280
     0
  9
$LWDISPLAY
290
     0
  9
$INSUNITS
 70
     0
  9
$HYPERLINKBASE
  1

  9
$STYLESHEET
  1

  9
$XEDIT
290
     1
  9
$CEPSNTYPE
380
     0
  9
$PSTYLEMODE
290
     0
  9
$FINGERPRINTGUID
  2
{9AA59369-24D7-44F5-83D0-6E20175E849A}
  9
$VERSIONGUID
  2
{FAEB1C32-E019-11D5-929B-00C0DF256EC4}
  9
$EXTNAMES
290
     1
  9
$PSVPSCALE
 40
0.0
  9
$OLESTARTUP
290
     0
  9
$SORTENTS
280
     0
  9
$INDEXCTL
280
     0
  9
$HIDETEXT
280
     0
  9
$XCLIPFRAME
290
     0
  9
$HALOGAP
280
     0
  9
$OBSCOLOR
 70
     0
  9
$OBSLTYPE
280
     0
  9
$INTERSECTIONDISPLAY
280
     0
  9
$INTERSECTIONCOLOR
 70
     0
  9
$DIMASSOC
280
     0
  9
$PROJECTNAME
  1

  9
$CAMERADISPLAY
290
     0
  9
$LENSLENGTH
 40
50.0
  9
$CAMERAHEIGHT
 40
0.0
  9
$STEPSPERSEC
 40
2.0
  9
$STEPSIZE
 40
6.0
  9
$3DDWFPREC
 40
2.0
  9
$PSOLWIDTH
 40
0.25
  9
$PSOLHEIGHT
 40
4.0
  9
$LOFTANG1
 40
1.570796
  9
$LOFTANG2
 40
1.570796
  9
$LOFTMAG1
 40
0.0
  9
$LOFTMAG2
 40
0.0
  9
$LOFTPARAM
 70
     7
  9
$LOFTNORMALS
280
     1
  9
$LATITUDE
 40
37.795
  9
$LONGITUDE
 40
-122.394
  9
$NORTHDIRECTION
 40
0.0
  9
$TIMEZONE
 70
 -8000
  9
$LIGHTGLYPHDISPLAY
280
     1
  9
$TILEMODELIGHTSYNCH
280
     1
  9
$CMATERIAL
347
44
  9
$SOLIDHIST
280
     0
  9
$SHOWHIST
280
     1
  9
$DWFFRAME
280
     2
  9
$DGNFRAME
280
     2
  9
$REALWORLDSCALE
290
     1
  9
$INTERFERECOLOR
 62
   256
  9
$CSHADOW
280
     0
  9
$SHADOWPLANELOCATION
 40
0.0
  0
ENDSEC
  0
SECTION
  2
CLASSES
  0
CLASS
  1
ACDBDICTIONARYWDFLT
  2
AcDbDictionaryWithDefault
  3
ObjectDBX Classes
 90
        0
 91
        4
280
     0
281
     0
  0
CLASS
  1
VISUALSTYLE
  2
AcDbVisualStyle
  3
ObjectDBX Classes
 90
     4095
 91
        4
280
     0
281
     0
  0
CLASS
  1
MATERIAL
  2
AcDbMaterial
  3
ObjectDBX Classes
 90
     1153
 91
        4
280
     0
281
     0
  0
CLASS
  1
SCALE
  2
AcDbScale
  3
ObjectDBX Classes
 90
     1153
 91
        4
280
     0
281
     0
  0
CLASS
  1
TABLESTYLE
  2
AcDbTableStyle
  3
ObjectDBX Classes
 90
     4095
 91
        4
280
     0
281
     0
  0
CLASS
  1
MLEADERSTYLE
  2
AcDbMLeaderStyle
  3
ACDB_MLEADERSTYLE_CLASS
 90
     4095
 91
        4
280
     0
281
     0
  0
CLASS
  1
SUN
  2
AcDbSun
  3
SCENEOE
 90
     1153
 91
        4
280
     0
281
     0
  0
CLASS
  1
DICTIONARYVAR
  2
AcDbDictionaryVar
  3
ObjectDBX Classes
 90
        0
 91
        4
280
     0
281
     0
  0
CLASS
  1
CELLSTYLEMAP
  2
AcDbCellStyleMap
  3
ObjectDBX Classes
 90
     1152
 91
        4
280
     0
281
     0
  0
ENDSEC
  0
SECTION
  2
TABLES
  0
TABLE
  2
VPORT
  5
8
330
0
100
AcDbSymbolTable
 70
     1
  0
VPORT
  5
29
330
8
100
AcDbSymbolTableRecord
100
AcDbViewportTableRecord
  2
*Active
 70
     0
 10
0.0
 20
0.0
 11
1.0
 21
1.0
 12
10.429907
 22
4.5
 13
0.0
 23
0.0
 14
0.5
 24
0.5
 15
0.5
 25
0.5
 16
0.0
 26
0.0
 36
1.0
 17
0.0
 27
0.0
 37
0.0
 40
9.0
 41
1.972973
 42
50.0
 43
0.0
 44
0.0
 50
0.0
 51
0.0
 71
     0
 72
   100
 73
     1
 74
     3
 75
     0
 76
     0
 77
     0
 78
     0
281
     0
 65
     1
110
0.0
120
0.0
130
0.0
111
1.0
121
0.0
131
0.0
112
0.0
122
1.0
132
0.0
 79
     0
146
0.0
348
2F
 60
     3
 61
     5
292
     1
282
     1
141
0.0
142
0.0
 63
   250
361
6D
  0
ENDTAB
  0
TABLE
  2
LTYPE
  5
5
330
0
100
AcDbSymbolTable
 70
     2
  0
LTYPE
  5
14
330
5
100
AcDbSymbolTableRecord
100
AcDbLinetypeTableRecord
  2
ByBlock
 70
     0
  3

 72
    65
 73
     0
 40
0.0
  0
LTYPE
  5
15
330
5
100
AcDbSymbolTableRecord
100
AcDbLinetypeTableRecord
  2
ByLayer
 70
     0
  3

 72
    65
 73
     0
 40
0.0
  0
LTYPE
  5
16
330
5
100
AcDbSymbolTableRecord
100
AcDbLinetypeTableRecord
  2
Continuous
 70
     0
  3
Solid line
 72
    65
 73
     0
 40
0.0
  0
LTYPE
  5
6F
330
5
100
AcDbSymbolTableRecord
100
AcDbLinetypeTableRecord
  2
DASHDOT
 70
     0
  3
 __ . __ . __ . __ . __ . __ . __ . 
 72
    65
 73
     4
 40
18.5
 49
12.0
 74
     0
 49
-3.0
 74
     0
 49
0.5
 74
     0
 49
-3.0
 74
     0
  0
ENDTAB
  0
TABLE
  2
LAYER
  5
2
330
0
100
AcDbSymbolTable
 70
     1
  0
LAYER
  5
10
330
2
100
AcDbSymbolTableRecord
100
AcDbLayerTableRecord
  2
0
 70
     0
 62
     7
  6
Continuous
370
    13
390
F
347
46
  0
ENDTAB
  0
TABLE
  2
STYLE
  5
3
330
0
100
AcDbSymbolTable
 70
     2
  0
STYLE
  5
11
330
3
100
AcDbSymbolTableRecord
100
AcDbTextStyleTableRecord
  2
Standard
 70
     0
 40
0.0
 41
1.0
 50
0.0
 71
     0
 42
2.5
  3
isocp.shx
  4

  0
STYLE
  5
6E
330
3
100
AcDbSymbolTableRecord
100
AcDbTextStyleTableRecord
  2
GDT
 70
     0
 40
0.0
 41
1.0
 50
0.0
 71
     0
 42
0.2
  3
gdt.shx
  4

  0
ENDTAB
  0
TABLE
  2
VIEW
  5
6
330
0
100
AcDbSymbolTable
 70
     0
  0
ENDTAB
  0
TABLE
  2
UCS
  5
7
330
0
100
AcDbSymbolTable
 70
     0
  0
ENDTAB
  0
TABLE
  2
APPID
  5
9
330
0
100
AcDbSymbolTable
 70
     2
  0
APPID
  5
12
330
9
100
AcDbSymbolTableRecord
100
AcDbRegAppTableRecord
  2
ACAD
 70
     0
  0
APPID
  5
303
330
9
100
AcDbSymbolTableRecord
100
AcDbRegAppTableRecord
  2
ACAD_MLEADERVER
 70
     0
  0
ENDTAB
  0
TABLE
  2
DIMSTYLE
  5
A
330
0
100
AcDbSymbolTable
 70
     1
100
AcDbDimStyleTable
  0
DIMSTYLE
105
27
102
{ACAD_REACTORS
330
2BC
330
2BE
330
2C0
330
2C2
330
2C4
330
2C6
330
2C8
330
2CA
330
2CC
330
2CE
330
2D0
330
2D2
330
2D4
330
2D6
330
2D8
330
2DA
330
2DC
330
2DE
330
2E0
330
2E2
102
}
330
A
100
AcDbSymbolTableRecord
100
AcDbDimStyleTableRecord
  2
STANDARD
 70
     0
 41
2.5
 42
0.625
 43
3.75
 44
1.25
 73
     0
 74
     0
 77
     1
 78
     8
140
2.5
141
2.5
143
0.03937
147
0.625
171
     3
172
     1
178
     0
271
     2
272
     2
274
     3
283
     0
284
     8
289
     0
340
0
  0
ENDTAB
  0
TABLE
  2
BLOCK_RECORD
  5
1
330
0
100
AcDbSymbolTable
 70
    44
  0
BLOCK_RECORD
  5
1F
330
1
100
AcDbSymbolTableRecord
100
AcDbBlockTableRecord
  2
*Model_Space
340
22
 70
     0
280
     1
281
     0
  0
BLOCK_RECORD
  5
1B
330
1
100
AcDbSymbolTableRecord
100
AcDbBlockTableRecord
  2
*Paper_Space
340
1E
 70
     0
280
     1
281
     0
  0
BLOCK_RECORD
  5
23
330
1
100
AcDbSymbolTableRecord
100
AcDbBlockTableRecord
  2
*Paper_Space0
340
26
 70
     0
280
     1
281
     0
  0
BLOCK_RECORD
  5
70
330
1
100
AcDbSymbolTableRecord
100
AcDbBlockTableRecord
  2
BLOCK137
340
0
102
{BLKREFS
331
2BB
102
}
 70
     0
280
     1
281
     0
  0
BLOCK_RECORD
  5
73
330
1
100
AcDbSymbolTableRecord
100
AcDbBlockTableRecord
  2
*D2
340
0
 70
     0
280
     1
281
     0
  0
BLOCK_RECORD
  5
76
330
1
100
AcDbSymbolTableRecord
100
AcDbBlockTableRecord
  2
*D3
340
0
 70
     0
280
     1
281
     0
  0
BLOCK_RECORD
  5
79
330
1
100
AcDbSymbolTableRecord
100
AcDbBlockTableRecord
  2
*D4
340
0
 70
     0
280
     1
281
     0
  0
BLOCK_RECORD
  5
7C
330
1
100
AcDbSymbolTableRecord
100
AcDbBlockTableRecord
  2
*D5
340
0
 70
     0
280
     1
281
     0
  0
BLOCK_RECORD
  5
7F
330
1
100
AcDbSymbolTableRecord
100
AcDbBlockTableRecord
  2
*D6
340
0
 70
     0
280
     1
281
     0
  0
BLOCK_RECORD
  5
82
330
1
100
AcDbSymbolTableRecord
100
AcDbBlockTableRecord
  2
*D7
340
0
 70
     0
280
     1
281
     0
  0
BLOCK_RECORD
  5
85
330
1
100
AcDbSymbolTableRecord
100
AcDbBlockTableRecord
  2
*D8
340
0
 70
     0
280
     1
281
     0
  0
BLOCK_RECORD
  5
88
330
1
100
AcDbSymbolTableRecord
100
AcDbBlockTableRecord
  2
*D9
340
0
 70
     0
280
     1
281
     0
  0
BLOCK_RECORD
  5
8B
330
1
100
AcDbSymbolTableRecord
100
AcDbBlockTableRecord
  2
*D10
340
0
 70
     0
280
     1
281
     0
  0
BLOCK_RECORD
  5
8E
330
1
100
AcDbSymbolTableRecord
100
AcDbBlockTableRecord
  2
*D11
340
0
 70
     0
280
     1
281
     0
  0
BLOCK_RECORD
  5
91
330
1
100
AcDbSymbolTableRecord
100
AcDbBlockTableRecord
  2
*D12
340
0
 70
     0
280
     1
281
     0
  0
BLOCK_RECORD
  5
94
330
1
100
AcDbSymbolTableRecord
100
AcDbBlockTableRecord
  2
*D13
340
0
 70
     0
280
     1
281
     0
  0
BLOCK_RECORD
  5
97
330
1
100
AcDbSymbolTableRecord
100
AcDbBlockTableRecord
  2
*D14
340
0
 70
     0
280
     1
281
     0
  0
BLOCK_RECORD
  5
9A
330
1
100
AcDbSymbolTableRecord
100
AcDbBlockTableRecord
  2
*D15
340
0
 70
     0
280
     1
281
     0
  0
BLOCK_RECORD
  5
9D
330
1
100
AcDbSymbolTableRecord
100
AcDbBlockTableRecord
  2
*D16
340
0
 70
     0
280
     1
281
     0
  0
BLOCK_RECORD
  5
A0
330
1
100
AcDbSymbolTableRecord
100
AcDbBlockTableRecord
  2
*D17
340
0
 70
     0
280
     1
281
     0
  0
BLOCK_RECORD
  5
A3
330
1
100
AcDbSymbolTableRecord
100
AcDbBlockTableRecord
  2
*D18
340
0
 70
     0
280
     1
281
     0
  0
BLOCK_RECORD
  5
A6
330
1
100
AcDbSymbolTableRecord
100
AcDbBlockTableRecord
  2
*D19
340
0
 70
     0
280
     1
281
     0
  0
BLOCK_RECORD
  5
A9
330
1
100
AcDbSymbolTableRecord
100
AcDbBlockTableRecord
  2
*D20
340
0
 70
     0
280
     1
281
     0
  0
BLOCK_RECORD
  5
AC
330
1
100
AcDbSymbolTableRecord
100
AcDbBlockTableRecord
  2
*D21
340
0
 70
     0
280
     1
281
     0
  0
BLOCK_RECORD
  5
AF
330
1
100
AcDbSymbolTableRecord
100
AcDbBlockTableRecord
  2
BLOCK138
340
0
102
{BLKREFS
331
2E9
102
}
 70
     0
280
     1
281
     0
  0
BLOCK_RECORD
  5
B2
330
1
100
AcDbSymbolTableRecord
100
AcDbBlockTableRecord
  2
BLOCK139
340
0
102
{BLKREFS
331
2EA
102
}
 70
     0
280
     1
281
     0
  0
BLOCK_RECORD
  5
B5
330
1
100
AcDbSymbolTableRecord
100
AcDbBlockTableRecord
  2
BLOCK140
340
0
102
{BLKREFS
331
2EB
102
}
 70
     0
280
     1
281
     0
  0
BLOCK_RECORD
  5
B8
330
1
100
AcDbSymbolTableRecord
100
AcDbBlockTableRecord
  2
BLOCK141
340
0
102
{BLKREFS
331
2EC
102
}
 70
     0
280
     1
281
     0
  0
BLOCK_RECORD
  5
BB
330
1
100
AcDbSymbolTableRecord
100
AcDbBlockTableRecord
  2
BLOCK142
340
0
102
{BLKREFS
331
2ED
102
}
 70
     0
280
     1
281
     0
  0
BLOCK_RECORD
  5
BE
330
1
100
AcDbSymbolTableRecord
100
AcDbBlockTableRecord
  2
BLOCK143
340
0
102
{BLKREFS
331
2EE
102
}
 70
     0
280
     1
281
     0
  0
BLOCK_RECORD
  5
C1
330
1
100
AcDbSymbolTableRecord
100
AcDbBlockTableRecord
  2
BLOCK144
340
0
102
{BLKREFS
331
2EF
102
}
 70
     0
280
     1
281
     0
  0
BLOCK_RECORD
  5
C4
330
1
100
AcDbSymbolTableRecord
100
AcDbBlockTableRecord
  2
BLOCK145
340
0
102
{BLKREFS
331
2F0
102
}
 70
     0
280
     1
281
     0
  0
BLOCK_RECORD
  5
C7
330
1
100
AcDbSymbolTableRecord
100
AcDbBlockTableRecord
  2
BLOCK146
340
0
102
{BLKREFS
331
2F1
102
}
 70
     0
280
     1
281
     0
  0
BLOCK_RECORD
  5
CA
330
1
100
AcDbSymbolTableRecord
100
AcDbBlockTableRecord
  2
BLOCK147
340
0
102
{BLKREFS
331
2F2
102
}
 70
     0
280
     1
281
     0
  0
BLOCK_RECORD
  5
CD
330
1
100
AcDbSymbolTableRecord
100
AcDbBlockTableRecord
  2
BLOCK148
340
0
102
{BLKREFS
331
2F3
102
}
 70
     0
280
     1
281
     0
  0
BLOCK_RECORD
  5
D0
330
1
100
AcDbSymbolTableRecord
100
AcDbBlockTableRecord
  2
BLOCK149
340
0
102
{BLKREFS
331
2F4
102
}
 70
     0
280
     1
281
     0
  0
BLOCK_RECORD
  5
D3
330
1
100
AcDbSymbolTableRecord
100
AcDbBlockTableRecord
  2
BLOCK150
340
0
102
{BLKREFS
331
2F5
102
}
 70
     0
280
     1
281
     0
  0
BLOCK_RECORD
  5
D6
330
1
100
AcDbSymbolTableRecord
100
AcDbBlockTableRecord
  2
BLOCK151
340
0
102
{BLKREFS
331
2F6
102
}
 70
     0
280
     1
281
     0
  0
BLOCK_RECORD
  5
D9
330
1
100
AcDbSymbolTableRecord
100
AcDbBlockTableRecord
  2
BLOCK152
340
0
102
{BLKREFS
331
2F7
102
}
 70
     0
280
     1
281
     0
  0
BLOCK_RECORD
  5
DC
330
1
100
AcDbSymbolTableRecord
100
AcDbBlockTableRecord
  2
BLOCK153
340
0
102
{BLKREFS
331
2F8
102
}
 70
     0
280
     1
281
     0
  0
BLOCK_RECORD
  5
DF
330
1
100
AcDbSymbolTableRecord
100
AcDbBlockTableRecord
  2
BLOCK154
340
0
102
{BLKREFS
331
2F9
102
}
 70
     0
280
     1
281
     0
  0
BLOCK_RECORD
  5
E2
330
1
100
AcDbSymbolTableRecord
100
AcDbBlockTableRecord
  2
BLOCK155
340
0
102
{BLKREFS
331
2FA
102
}
 70
     0
280
     1
281
     0
  0
BLOCK_RECORD
  5
E5
330
1
100
AcDbSymbolTableRecord
100
AcDbBlockTableRecord
  2
BLOCK156
340
0
102
{BLKREFS
331
2FB
102
}
 70
     0
280
     1
281
     0
  0
BLOCK_RECORD
  5
E8
330
1
100
AcDbSymbolTableRecord
100
AcDbBlockTableRecord
  2
BLOCK157
340
0
102
{BLKREFS
331
2FC
102
}
 70
     0
280
     1
281
     0
  0
BLOCK_RECORD
  5
EB
330
1
100
AcDbSymbolTableRecord
100
AcDbBlockTableRecord
  2
BLOCK158
340
0
102
{BLKREFS
331
2FD
102
}
 70
     0
280
     1
281
     0
  0
BLOCK_RECORD
  5
EE
330
1
100
AcDbSymbolTableRecord
100
AcDbBlockTableRecord
  2
BLOCK159
340
0
102
{BLKREFS
331
2FE
102
}
 70
     0
280
     1
281
     0
  0
ENDTAB
  0
ENDSEC
  0
SECTION
  2
BLOCKS
  0
BLOCK
  5
20
330
1F
100
AcDbEntity
  8
0
100
AcDbBlockBegin
  2
*Model_Space
 70
     0
 10
0.0
 20
0.0
 30
0.0
  3
*Model_Space
  1

  0
ENDBLK
  5
21
330
1F
100
AcDbEntity
  8
0
100
AcDbBlockEnd
  0
BLOCK
  5
1C
330
1B
100
AcDbEntity
 67
     1
  8
0
100
AcDbBlockBegin
  2
*Paper_Space
 70
     0
 10
0.0
 20
0.0
 30
0.0
  3
*Paper_Space
  1

  0
ENDBLK
  5
1D
330
1B
100
AcDbEntity
 67
     1
  8
0
100
AcDbBlockEnd
  0
BLOCK
  5
24
330
23
100
AcDbEntity
  8
0
100
AcDbBlockBegin
  2
*Paper_Space0
 70
     0
 10
0.0
 20
0.0
 30
0.0
  3
*Paper_Space0
  1

  0
ENDBLK
  5
25
330
23
100
AcDbEntity
  8
0
100
AcDbBlockEnd
  0
BLOCK
  5
71
330
70
100
AcDbEntity
  8
0
100
AcDbBlockBegin
  2
BLOCK137
 70
     0
 10
0.0
 20
0.0
 30
0.0
  3
BLOCK137
  1

  0
TEXT
  5
F1
330
70
100
AcDbEntity
  8
0
 62
     7
370
    25
100
AcDbText
 10
-48.0
 20
-147.713257
 30
0.0
 40
7.0
  1
  Unfolded view
 41
1.050931
 72
     5
 11
43.080681
 21
-147.713257
 31
0.0
100
AcDbText
  0
TEXT
  5
F2
330
70
100
AcDbEntity
  8
0
 62
     7
370
    25
100
AcDbText
 10
-48.0
 20
-159.817001
 30
0.0
 40
7.0
  1
for information
 41
1.143272
 72
     5
 11
43.080681
 21
-159.817001
 31
0.0
100
AcDbText
  0
ENDBLK
  5
72
330
70
100
AcDbEntity
  8
0
100
AcDbBlockEnd
  0
BLOCK
  5
74
330
73
100
AcDbEntity
  8
0
100
AcDbBlockBegin
  2
*D2
 70
     1
 10
0.0
 20
0.0
 30
0.0
  3
*D2
  1

  0
SOLID
  5
F3
330
73
100
AcDbEntity
  8
0
 62
     7
370
    25
100
AcDbTrace
 10
424.170863
 20
399.452716
 30
0.0
 11
420.69353
 21
398.520968
 31
0.0
 12
424.170863
 22
399.452716
 32
0.0
 13
424.170863
 23
397.589213
 33
0.0
  0
SOLID
  5
F4
330
73
100
AcDbEntity
  8
0
 62
     7
370
    25
100
AcDbTrace
 10
531.261325
 20
397.589213
 30
0.0
 11
534.738658
 21
398.520968
 31
0.0
 12
531.261325
 22
397.589213
 32
0.0
 13
531.261325
 23
399.452716
 33
0.0
  0
TEXT
  5
F5
330
73
100
AcDbEntity
  8
0
 62
     7
370
    25
100
AcDbText
 10
464.990013
 20
399.520968
 30
0.0
 40
3.5
  1
114.045
 41
1.202464
 72
     5
 11
490.442175
 21
399.520968
 31
0.0
100
AcDbText
  0
LINE
  5
F6
330
73
100
AcDbEntity
  8
0
 62
     7
370
    25
100
AcDbLine
 10
420.69353
 20
327.146187
 30
0.0
 11
420.69353
 21
400.520968
 31
0.0
  0
LINE
  5
F7
330
73
100
AcDbEntity
  8
0
 62
     7
370
    25
100
AcDbLine
 10
534.738658
 20
327.146187
 30
0.0
 11
534.738658
 21
400.520968
 31
0.0
  0
LINE
  5
F8
330
73
100
AcDbEntity
  8
0
 62
     7
370
    25
100
AcDbLine
 10
424.170863
 20
398.520968
 30
0.0
 11
531.261325
 21
398.520968
 31
0.0
  0
POLYLINE
  5
F9
330
73
100
AcDbEntity
  8
0
 62
     7
370
    25
100
AcDb2dPolyline
 66
     1
 10
0.0
 20
0.0
 30
0.0
 70
     1
  0
VERTEX
  5
FA
330
F9
100
AcDbEntity
  8
0
370
     0
100
AcDbVertex
100
AcDb2dVertex
 10
424.170863
 20
399.452716
 30
0.0
  0
VERTEX
  5
FB
330
F9
100
AcDbEntity
  8
0
370
     0
100
AcDbVertex
100
AcDb2dVertex
 10
420.69353
 20
398.520968
 30
0.0
  0
VERTEX
  5
FC
330
F9
100
AcDbEntity
  8
0
370
     0
100
AcDbVertex
100
AcDb2dVertex
 10
424.170863
 20
397.589213
 30
0.0
  0
SEQEND
  5
FD
330
F9
100
AcDbEntity
  8
0
 62
     7
370
    25
  0
POLYLINE
  5
FE
330
73
100
AcDbEntity
  8
0
 62
     7
370
    25
100
AcDb2dPolyline
 66
     1
 10
0.0
 20
0.0
 30
0.0
 70
     1
  0
VERTEX
  5
FF
330
FE
100
AcDbEntity
  8
0
370
     0
100
AcDbVertex
100
AcDb2dVertex
 10
531.261325
 20
397.589213
 30
0.0
  0
VERTEX
  5
100
330
FE
100
AcDbEntity
  8
0
370
     0
100
AcDbVertex
100
AcDb2dVertex
 10
534.738658
 20
398.520968
 30
0.0
  0
VERTEX
  5
101
330
FE
100
AcDbEntity
  8
0
370
     0
100
AcDbVertex
100
AcDb2dVertex
 10
531.261325
 20
399.452716
 30
0.0
  0
SEQEND
  5
102
330
FE
100
AcDbEntity
  8
0
 62
     7
370
    25
  0
ENDBLK
  5
75
330
73
100
AcDbEntity
  8
0
100
AcDbBlockEnd
  0
BLOCK
  5
77
330
76
100
AcDbEntity
  8
0
100
AcDbBlockBegin
  2
*D3
 70
     1
 10
0.0
 20
0.0
 30
0.0
  3
*D3
  1

  0
SOLID
  5
103
330
76
100
AcDbEntity
  8
0
 62
     7
370
    25
100
AcDbTrace
 10
391.064467
 20
361.668853
 30
0.0
 11
390.13272
 21
365.146186
 31
0.0
 12
391.064467
 22
361.668853
 32
0.0
 13
389.200972
 23
361.668853
 33
0.0
  0
SOLID
  5
104
330
76
100
AcDbEntity
  8
0
 62
     7
370
    25
100
AcDbTrace
 10
389.200972
 20
217.100955
 30
0.0
 11
390.13272
 21
213.623622
 31
0.0
 12
389.200972
 22
217.100955
 32
0.0
 13
391.064467
 23
217.100955
 33
0.0
  0
TEXT
  5
105
330
76
100
AcDbEntity
  8
0
 62
     7
370
    25
100
AcDbText
 10
389.13272
 20
276.658824
 30
0.0
 40
3.5
  1
151.523
 50
90.0
 41
1.202464
 72
     5
 11
389.13272
 21
302.110985
 31
0.0
100
AcDbText
  0
LINE
  5
106
330
76
100
AcDbEntity
  8
0
 62
     7
370
    25
100
AcDbLine
 10
444.816092
 20
213.623622
 30
0.0
 11
388.13272
 21
213.623622
 31
0.0
  0
LINE
  5
107
330
76
100
AcDbEntity
  8
0
 62
     7
370
    25
100
AcDbLine
 10
462.816094
 20
365.146186
 30
0.0
 11
388.13272
 21
365.146186
 31
0.0
  0
LINE
  5
108
330
76
100
AcDbEntity
  8
0
 62
     7
370
    25
100
AcDbLine
 10
390.13272
 20
217.100955
 30
0.0
 11
390.13272
 21
361.668853
 31
0.0
  0
POLYLINE
  5
109
330
76
100
AcDbEntity
  8
0
 62
     7
370
    25
100
AcDb2dPolyline
 66
     1
 10
0.0
 20
0.0
 30
0.0
 70
     1
  0
VERTEX
  5
10A
330
109
100
AcDbEntity
  8
0
370
     0
100
AcDbVertex
100
AcDb2dVertex
 10
391.064467
 20
361.668853
 30
0.0
  0
VERTEX
  5
10B
330
109
100
AcDbEntity
  8
0
370
     0
100
AcDbVertex
100
AcDb2dVertex
 10
390.13272
 20
365.146186
 30
0.0
  0
VERTEX
  5
10C
330
109
100
AcDbEntity
  8
0
370
     0
100
AcDbVertex
100
AcDb2dVertex
 10
389.200972
 20
361.668853
 30
0.0
  0
SEQEND
  5
10D
330
109
100
AcDbEntity
  8
0
 62
     7
370
    25
  0
POLYLINE
  5
10E
330
76
100
AcDbEntity
  8
0
 62
     7
370
    25
100
AcDb2dPolyline
 66
     1
 10
0.0
 20
0.0
 30
0.0
 70
     1
  0
VERTEX
  5
10F
330
10E
100
AcDbEntity
  8
0
370
     0
100
AcDbVertex
100
AcDb2dVertex
 10
389.200972
 20
217.100955
 30
0.0
  0
VERTEX
  5
110
330
10E
100
AcDbEntity
  8
0
370
     0
100
AcDbVertex
100
AcDb2dVertex
 10
390.13272
 20
213.623622
 30
0.0
  0
VERTEX
  5
111
330
10E
100
AcDbEntity
  8
0
370
     0
100
AcDbVertex
100
AcDb2dVertex
 10
391.064467
 20
217.100955
 30
0.0
  0
SEQEND
  5
112
330
10E
100
AcDbEntity
  8
0
 62
     7
370
    25
  0
ENDBLK
  5
78
330
76
100
AcDbEntity
  8
0
100
AcDbBlockEnd
  0
BLOCK
  5
7A
330
79
100
AcDbEntity
  8
0
100
AcDbBlockBegin
  2
*D4
 70
     1
 10
0.0
 20
0.0
 30
0.0
  3
*D4
  1

  0
SOLID
  5
113
330
79
100
AcDbEntity
  8
0
 62
     7
370
    25
100
AcDbTrace
 10
424.170863
 20
380.59035
 30
0.0
 11
420.69353
 21
379.658603
 31
0.0
 12
424.170863
 22
380.59035
 32
0.0
 13
424.170863
 23
378.726848
 33
0.0
  0
SOLID
  5
114
330
79
100
AcDbEntity
  8
0
 62
     7
370
    25
100
AcDbTrace
 10
439.216197
 20
378.726848
 30
0.0
 11
442.69353
 21
379.658603
 31
0.0
 12
439.216197
 22
378.726848
 32
0.0
 13
439.216197
 23
380.59035
 33
0.0
  0
TEXT
  5
115
330
79
100
AcDbEntity
  8
0
 62
     7
370
    25
100
AcDbText
 10
428.307506
 20
380.658603
 30
0.0
 40
3.5
  1
22
 41
1.09817
 72
     5
 11
435.079554
 21
380.658603
 31
0.0
100
AcDbText
  0
LINE
  5
116
330
79
100
AcDbEntity
  8
0
 62
     7
370
    25
100
AcDbLine
 10
420.69353
 20
327.146187
 30
0.0
 11
420.69353
 21
381.658603
 31
0.0
  0
LINE
  5
117
330
79
100
AcDbEntity
  8
0
 62
     7
370
    25
100
AcDbLine
 10
442.69353
 20
327.146187
 30
0.0
 11
442.69353
 21
381.658603
 31
0.0
  0
LINE
  5
118
330
79
100
AcDbEntity
  8
0
 62
     7
370
    25
100
AcDbLine
 10
424.170863
 20
379.658603
 30
0.0
 11
439.216197
 21
379.658603
 31
0.0
  0
POLYLINE
  5
119
330
79
100
AcDbEntity
  8
0
 62
     7
370
    25
100
AcDb2dPolyline
 66
     1
 10
0.0
 20
0.0
 30
0.0
 70
     1
  0
VERTEX
  5
11A
330
119
100
AcDbEntity
  8
0
370
     0
100
AcDbVertex
100
AcDb2dVertex
 10
424.170863
 20
380.59035
 30
0.0
  0
VERTEX
  5
11B
330
119
100
AcDbEntity
  8
0
370
     0
100
AcDbVertex
100
AcDb2dVertex
 10
420.69353
 20
379.658603
 30
0.0
  0
VERTEX
  5
11C
330
119
100
AcDbEntity
  8
0
370
     0
100
AcDbVertex
100
AcDb2dVertex
 10
424.170863
 20
378.726848
 30
0.0
  0
SEQEND
  5
11D
330
119
100
AcDbEntity
  8
0
 62
     7
370
    25
  0
POLYLINE
  5
11E
330
79
100
AcDbEntity
  8
0
 62
     7
370
    25
100
AcDb2dPolyline
 66
     1
 10
0.0
 20
0.0
 30
0.0
 70
     1
  0
VERTEX
  5
11F
330
11E
100
AcDbEntity
  8
0
370
     0
100
AcDbVertex
100
AcDb2dVertex
 10
439.216197
 20
378.726848
 30
0.0
  0
VERTEX
  5
120
330
11E
100
AcDbEntity
  8
0
370
     0
100
AcDbVertex
100
AcDb2dVertex
 10
442.69353
 20
379.658603
 30
0.0
  0
VERTEX
  5
121
330
11E
100
AcDbEntity
  8
0
370
     0
100
AcDbVertex
100
AcDb2dVertex
 10
439.216197
 20
380.59035
 30
0.0
  0
SEQEND
  5
122
330
11E
100
AcDbEntity
  8
0
 62
     7
370
    25
  0
ENDBLK
  5
7B
330
79
100
AcDbEntity
  8
0
100
AcDbBlockEnd
  0
BLOCK
  5
7D
330
7C
100
AcDbEntity
  8
0
100
AcDbBlockBegin
  2
*D5
 70
     1
 10
0.0
 20
0.0
 30
0.0
  3
*D5
  1

  0
SOLID
  5
123
330
7C
100
AcDbEntity
  8
0
 62
     7
370
    25
100
AcDbTrace
 10
516.215991
 20
380.59035
 30
0.0
 11
512.738658
 21
379.658603
 31
0.0
 12
516.215991
 22
380.59035
 32
0.0
 13
516.215991
 23
378.726848
 33
0.0
  0
SOLID
  5
124
330
7C
100
AcDbEntity
  8
0
 62
     7
370
    25
100
AcDbTrace
 10
531.261325
 20
378.726848
 30
0.0
 11
534.738658
 21
379.658603
 31
0.0
 12
531.261325
 22
378.726848
 32
0.0
 13
531.261325
 23
380.59035
 33
0.0
  0
TEXT
  5
125
330
7C
100
AcDbEntity
  8
0
 62
     7
370
    25
100
AcDbText
 10
520.352633
 20
380.658603
 30
0.0
 40
3.5
  1
22
 41
1.09817
 72
     5
 11
527.124682
 21
380.658603
 31
0.0
100
AcDbText
  0
LINE
  5
126
330
7C
100
AcDbEntity
  8
0
 62
     7
370
    25
100
AcDbLine
 10
512.738658
 20
327.146187
 30
0.0
 11
512.738658
 21
381.658603
 31
0.0
  0
LINE
  5
127
330
7C
100
AcDbEntity
  8
0
 62
     7
370
    25
100
AcDbLine
 10
534.738658
 20
327.146187
 30
0.0
 11
534.738658
 21
381.658603
 31
0.0
  0
LINE
  5
128
330
7C
100
AcDbEntity
  8
0
 62
     7
370
    25
100
AcDbLine
 10
516.215991
 20
379.658603
 30
0.0
 11
531.261325
 21
379.658603
 31
0.0
  0
POLYLINE
  5
129
330
7C
100
AcDbEntity
  8
0
 62
     7
370
    25
100
AcDb2dPolyline
 66
     1
 10
0.0
 20
0.0
 30
0.0
 70
     1
  0
VERTEX
  5
12A
330
129
100
AcDbEntity
  8
0
370
     0
100
AcDbVertex
100
AcDb2dVertex
 10
516.215991
 20
380.59035
 30
0.0
  0
VERTEX
  5
12B
330
129
100
AcDbEntity
  8
0
370
     0
100
AcDbVertex
100
AcDb2dVertex
 10
512.738658
 20
379.658603
 30
0.0
  0
VERTEX
  5
12C
330
129
100
AcDbEntity
  8
0
370
     0
100
AcDbVertex
100
AcDb2dVertex
 10
516.215991
 20
378.726848
 30
0.0
  0
SEQEND
  5
12D
330
129
100
AcDbEntity
  8
0
 62
     7
370
    25
  0
POLYLINE
  5
12E
330
7C
100
AcDbEntity
  8
0
 62
     7
370
    25
100
AcDb2dPolyline
 66
     1
 10
0.0
 20
0.0
 30
0.0
 70
     1
  0
VERTEX
  5
12F
330
12E
100
AcDbEntity
  8
0
370
     0
100
AcDbVertex
100
AcDb2dVertex
 10
531.261325
 20
378.726848
 30
0.0
  0
VERTEX
  5
130
330
12E
100
AcDbEntity
  8
0
370
     0
100
AcDbVertex
100
AcDb2dVertex
 10
534.738658
 20
379.658603
 30
0.0
  0
VERTEX
  5
131
330
12E
100
AcDbEntity
  8
0
370
     0
100
AcDbVertex
100
AcDb2dVertex
 10
531.261325
 20
380.59035
 30
0.0
  0
SEQEND
  5
132
330
12E
100
AcDbEntity
  8
0
 62
     7
370
    25
  0
ENDBLK
  5
7E
330
7C
100
AcDbEntity
  8
0
100
AcDbBlockEnd
  0
BLOCK
  5
80
330
7F
100
AcDbEntity
  8
0
100
AcDbBlockBegin
  2
*D6
 70
     1
 10
0.0
 20
0.0
 30
0.0
  3
*D6
  1

  0
SOLID
  5
133
330
7F
100
AcDbEntity
  8
0
 62
     7
370
    25
100
AcDbTrace
 10
452.338761
 20
386.443278
 30
0.0
 11
455.816094
 21
387.375033
 31
0.0
 12
452.338761
 22
386.443278
 32
0.0
 13
452.338761
 23
388.306781
 33
0.0
  0
SOLID
  5
134
330
7F
100
AcDbEntity
  8
0
 62
     7
370
    25
100
AcDbTrace
 10
424.170863
 20
388.306781
 30
0.0
 11
420.69353
 21
387.375033
 31
0.0
 12
424.170863
 22
388.306781
 32
0.0
 13
424.170863
 23
386.443278
 33
0.0
  0
TEXT
  5
135
330
7F
100
AcDbEntity
  8
0
 62
     7
370
    25
100
AcDbText
 10
427.396743
 20
388.375033
 30
0.0
 40
3.5
  1
35.123
 41
1.217728
 72
     5
 11
449.112883
 21
388.375033
 31
0.0
100
AcDbText
  0
LINE
  5
136
330
7F
100
AcDbEntity
  8
0
 62
     7
370
    25
100
AcDbLine
 10
420.69353
 20
327.146187
 30
0.0
 11
420.69353
 21
389.375033
 31
0.0
  0
LINE
  5
137
330
7F
100
AcDbEntity
  8
0
 62
     7
370
    25
100
AcDbLine
 10
455.816094
 20
358.146186
 30
0.0
 11
455.816094
 21
389.375033
 31
0.0
  0
LINE
  5
138
330
7F
100
AcDbEntity
  8
0
 62
     7
370
    25
100
AcDbLine
 10
424.170863
 20
387.375033
 30
0.0
 11
452.338761
 21
387.375033
 31
0.0
  0
POLYLINE
  5
139
330
7F
100
AcDbEntity
  8
0
 62
     7
370
    25
100
AcDb2dPolyline
 66
     1
 10
0.0
 20
0.0
 30
0.0
 70
     1
  0
VERTEX
  5
13A
330
139
100
AcDbEntity
  8
0
370
     0
100
AcDbVertex
100
AcDb2dVertex
 10
452.338761
 20
386.443278
 30
0.0
  0
VERTEX
  5
13B
330
139
100
AcDbEntity
  8
0
370
     0
100
AcDbVertex
100
AcDb2dVertex
 10
455.816094
 20
387.375033
 30
0.0
  0
VERTEX
  5
13C
330
139
100
AcDbEntity
  8
0
370
     0
100
AcDbVertex
100
AcDb2dVertex
 10
452.338761
 20
388.306781
 30
0.0
  0
SEQEND
  5
13D
330
139
100
AcDbEntity
  8
0
 62
     7
370
    25
  0
POLYLINE
  5
13E
330
7F
100
AcDbEntity
  8
0
 62
     7
370
    25
100
AcDb2dPolyline
 66
     1
 10
0.0
 20
0.0
 30
0.0
 70
     1
  0
VERTEX
  5
13F
330
13E
100
AcDbEntity
  8
0
370
     0
100
AcDbVertex
100
AcDb2dVertex
 10
424.170863
 20
388.306781
 30
0.0
  0
VERTEX
  5
140
330
13E
100
AcDbEntity
  8
0
370
     0
100
AcDbVertex
100
AcDb2dVertex
 10
420.69353
 20
387.375033
 30
0.0
  0
VERTEX
  5
141
330
13E
100
AcDbEntity
  8
0
370
     0
100
AcDbVertex
100
AcDb2dVertex
 10
424.170863
 20
386.443278
 30
0.0
  0
SEQEND
  5
142
330
13E
100
AcDbEntity
  8
0
 62
     7
370
    25
  0
ENDBLK
  5
81
330
7F
100
AcDbEntity
  8
0
100
AcDbBlockEnd
  0
BLOCK
  5
83
330
82
100
AcDbEntity
  8
0
100
AcDbBlockBegin
  2
*D7
 70
     1
 10
0.0
 20
0.0
 30
0.0
  3
*D7
  1

  0
SOLID
  5
143
330
82
100
AcDbEntity
  8
0
 62
     7
370
    25
100
AcDbTrace
 10
459.293427
 20
388.306781
 30
0.0
 11
455.816094
 21
387.375033
 31
0.0
 12
459.293427
 22
388.306781
 32
0.0
 13
459.293427
 23
386.443278
 33
0.0
  0
SOLID
  5
144
330
82
100
AcDbEntity
  8
0
 62
     7
370
    25
100
AcDbTrace
 10
496.13876
 20
386.443278
 30
0.0
 11
499.616094
 21
387.375033
 31
0.0
 12
496.13876
 22
386.443278
 32
0.0
 13
496.13876
 23
388.306781
 33
0.0
  0
TEXT
  5
145
330
82
100
AcDbEntity
  8
0
 62
     7
370
    25
100
AcDbText
 10
470.594048
 20
388.375033
 30
0.0
 40
3.5
  1
43.8
 41
1.27559
 72
     5
 11
484.83814
 21
388.375033
 31
0.0
100
AcDbText
  0
LINE
  5
146
330
82
100
AcDbEntity
  8
0
 62
     7
370
    25
100
AcDbLine
 10
455.816094
 20
358.146186
 30
0.0
 11
455.816094
 21
389.375033
 31
0.0
  0
LINE
  5
147
330
82
100
AcDbEntity
  8
0
 62
     7
370
    25
100
AcDbLine
 10
499.616094
 20
358.146186
 30
0.0
 11
499.616094
 21
389.375033
 31
0.0
  0
LINE
  5
148
330
82
100
AcDbEntity
  8
0
 62
     7
370
    25
100
AcDbLine
 10
459.293427
 20
387.375033
 30
0.0
 11
496.13876
 21
387.375033
 31
0.0
  0
POLYLINE
  5
149
330
82
100
AcDbEntity
  8
0
 62
     7
370
    25
100
AcDb2dPolyline
 66
     1
 10
0.0
 20
0.0
 30
0.0
 70
     1
  0
VERTEX
  5
14A
330
149
100
AcDbEntity
  8
0
370
     0
100
AcDbVertex
100
AcDb2dVertex
 10
459.293427
 20
388.306781
 30
0.0
  0
VERTEX
  5
14B
330
149
100
AcDbEntity
  8
0
370
     0
100
AcDbVertex
100
AcDb2dVertex
 10
455.816094
 20
387.375033
 30
0.0
  0
VERTEX
  5
14C
330
149
100
AcDbEntity
  8
0
370
     0
100
AcDbVertex
100
AcDb2dVertex
 10
459.293427
 20
386.443278
 30
0.0
  0
SEQEND
  5
14D
330
149
100
AcDbEntity
  8
0
 62
     7
370
    25
  0
POLYLINE
  5
14E
330
82
100
AcDbEntity
  8
0
 62
     7
370
    25
100
AcDb2dPolyline
 66
     1
 10
0.0
 20
0.0
 30
0.0
 70
     1
  0
VERTEX
  5
14F
330
14E
100
AcDbEntity
  8
0
370
     0
100
AcDbVertex
100
AcDb2dVertex
 10
496.13876
 20
386.443278
 30
0.0
  0
VERTEX
  5
150
330
14E
100
AcDbEntity
  8
0
370
     0
100
AcDbVertex
100
AcDb2dVertex
 10
499.616094
 20
387.375033
 30
0.0
  0
VERTEX
  5
151
330
14E
100
AcDbEntity
  8
0
370
     0
100
AcDbVertex
100
AcDb2dVertex
 10
496.13876
 20
388.306781
 30
0.0
  0
SEQEND
  5
152
330
14E
100
AcDbEntity
  8
0
 62
     7
370
    25
  0
ENDBLK
  5
84
330
82
100
AcDbEntity
  8
0
100
AcDbBlockEnd
  0
BLOCK
  5
86
330
85
100
AcDbEntity
  8
0
100
AcDbBlockBegin
  2
*D8
 70
     1
 10
0.0
 20
0.0
 30
0.0
  3
*D8
  1

  0
SOLID
  5
153
330
85
100
AcDbEntity
  8
0
 62
     7
370
    25
100
AcDbTrace
 10
452.338761
 20
378.726848
 30
0.0
 11
455.816094
 21
379.658603
 31
0.0
 12
452.338761
 22
378.726848
 32
0.0
 13
452.338761
 23
380.59035
 33
0.0
  0
SOLID
  5
154
330
85
100
AcDbEntity
  8
0
 62
     7
370
    25
100
AcDbTrace
 10
481.193427
 20
380.59035
 30
0.0
 11
477.716094
 21
379.658603
 31
0.0
 12
481.193427
 22
380.59035
 32
0.0
 13
481.193427
 23
378.726848
 33
0.0
  0
TEXT
  5
155
330
85
100
AcDbEntity
  8
0
 62
     7
370
    25
100
AcDbText
 10
459.644048
 20
380.658603
 30
0.0
 40
3.5
  1
21.9
 41
1.294917
 72
     5
 11
473.88814
 21
380.658603
 31
0.0
100
AcDbText
  0
LINE
  5
156
330
85
100
AcDbEntity
  8
0
 62
     7
370
    25
100
AcDbLine
 10
455.816094
 20
358.146186
 30
0.0
 11
455.816094
 21
381.658603
 31
0.0
  0
LINE
  5
157
330
85
100
AcDbEntity
  8
0
 62
     7
370
    25
100
AcDbLine
 10
477.716094
 20
344.246188
 30
0.0
 11
477.716094
 21
381.658603
 31
0.0
  0
LINE
  5
158
330
85
100
AcDbEntity
  8
0
 62
     7
370
    25
100
AcDbLine
 10
450.816094
 20
379.658603
 30
0.0
 11
452.338761
 21
379.658603
 31
0.0
  0
LINE
  5
159
330
85
100
AcDbEntity
  8
0
 62
     7
370
    25
100
AcDbLine
 10
455.816094
 20
379.658603
 30
0.0
 11
477.716094
 21
379.658603
 31
0.0
  0
LINE
  5
15A
330
85
100
AcDbEntity
  8
0
 62
     7
370
    25
100
AcDbLine
 10
481.193427
 20
379.658603
 30
0.0
 11
482.716094
 21
379.658603
 31
0.0
  0
POLYLINE
  5
15B
330
85
100
AcDbEntity
  8
0
 62
     7
370
    25
100
AcDb2dPolyline
 66
     1
 10
0.0
 20
0.0
 30
0.0
 70
     1
  0
VERTEX
  5
15C
330
15B
100
AcDbEntity
  8
0
370
     0
100
AcDbVertex
100
AcDb2dVertex
 10
452.338761
 20
378.726848
 30
0.0
  0
VERTEX
  5
15D
330
15B
100
AcDbEntity
  8
0
370
     0
100
AcDbVertex
100
AcDb2dVertex
 10
455.816094
 20
379.658603
 30
0.0
  0
VERTEX
  5
15E
330
15B
100
AcDbEntity
  8
0
370
     0
100
AcDbVertex
100
AcDb2dVertex
 10
452.338761
 20
380.59035
 30
0.0
  0
SEQEND
  5
15F
330
15B
100
AcDbEntity
  8
0
 62
     7
370
    25
  0
POLYLINE
  5
160
330
85
100
AcDbEntity
  8
0
 62
     7
370
    25
100
AcDb2dPolyline
 66
     1
 10
0.0
 20
0.0
 30
0.0
 70
     1
  0
VERTEX
  5
161
330
160
100
AcDbEntity
  8
0
370
     0
100
AcDbVertex
100
AcDb2dVertex
 10
481.193427
 20
380.59035
 30
0.0
  0
VERTEX
  5
162
330
160
100
AcDbEntity
  8
0
370
     0
100
AcDbVertex
100
AcDb2dVertex
 10
477.716094
 20
379.658603
 30
0.0
  0
VERTEX
  5
163
330
160
100
AcDbEntity
  8
0
370
     0
100
AcDbVertex
100
AcDb2dVertex
 10
481.193427
 20
378.726848
 30
0.0
  0
SEQEND
  5
164
330
160
100
AcDbEntity
  8
0
 62
     7
370
    25
  0
ENDBLK
  5
87
330
85
100
AcDbEntity
  8
0
100
AcDbBlockEnd
  0
BLOCK
  5
89
330
88
100
AcDbEntity
  8
0
100
AcDbBlockBegin
  2
*D9
 70
     1
 10
0.0
 20
0.0
 30
0.0
  3
*D9
  1

  0
SOLID
  5
165
330
88
100
AcDbEntity
  8
0
 62
     7
370
    25
100
AcDbTrace
 10
409.355239
 20
305.546289
 30
0.0
 11
408.423491
 21
309.023622
 31
0.0
 12
409.355239
 22
305.546289
 32
0.0
 13
407.491744
 23
305.546289
 33
0.0
  0
SOLID
  5
166
330
88
100
AcDbEntity
  8
0
 62
     7
370
    25
100
AcDbTrace
 10
407.491744
 20
217.100955
 30
0.0
 11
408.423491
 21
213.623622
 31
0.0
 12
407.491744
 22
217.100955
 32
0.0
 13
409.355239
 23
217.100955
 33
0.0
  0
TEXT
  5
167
330
88
100
AcDbEntity
  8
0
 62
     7
370
    25
100
AcDbText
 10
407.423491
 20
254.201575
 30
0.0
 40
3.5
  1
95.4
 50
90.0
 41
1.256832
 72
     5
 11
407.423491
 21
268.44567
 31
0.0
100
AcDbText
  0
TEXT
  5
168
330
88
100
AcDbEntity
  8
0
 62
     7
370
    25
100
AcDbText
 10
407.423491
 20
242.693507
 30
0.0
 40
3.5
  1
2x 
 50
90.0
 41
1.087042
 72
     5
 11
407.423491
 21
253.201579
 31
0.0
100
AcDbText
  0
LINE
  5
169
330
88
100
AcDbEntity
  8
0
 62
     7
370
    25
100
AcDbLine
 10
444.816092
 20
213.623622
 30
0.0
 11
406.423491
 21
213.623622
 31
0.0
  0
LINE
  5
16A
330
88
100
AcDbEntity
  8
0
 62
     7
370
    25
100
AcDbLine
 10
444.816092
 20
309.023622
 30
0.0
 11
406.423491
 21
309.023622
 31
0.0
  0
LINE
  5
16B
330
88
100
AcDbEntity
  8
0
 62
     7
370
    25
100
AcDbLine
 10
408.423491
 20
217.100955
 30
0.0
 11
408.423491
 21
305.546289
 31
0.0
  0
POLYLINE
  5
16C
330
88
100
AcDbEntity
  8
0
 62
     7
370
    25
100
AcDb2dPolyline
 66
     1
 10
0.0
 20
0.0
 30
0.0
 70
     1
  0
VERTEX
  5
16D
330
16C
100
AcDbEntity
  8
0
370
     0
100
AcDbVertex
100
AcDb2dVertex
 10
409.355239
 20
305.546289
 30
0.0
  0
VERTEX
  5
16E
330
16C
100
AcDbEntity
  8
0
370
     0
100
AcDbVertex
100
AcDb2dVertex
 10
408.423491
 20
309.023622
 30
0.0
  0
VERTEX
  5
16F
330
16C
100
AcDbEntity
  8
0
370
     0
100
AcDbVertex
100
AcDb2dVertex
 10
407.491744
 20
305.546289
 30
0.0
  0
SEQEND
  5
170
330
16C
100
AcDbEntity
  8
0
 62
     7
370
    25
  0
POLYLINE
  5
171
330
88
100
AcDbEntity
  8
0
 62
     7
370
    25
100
AcDb2dPolyline
 66
     1
 10
0.0
 20
0.0
 30
0.0
 70
     1
  0
VERTEX
  5
172
330
171
100
AcDbEntity
  8
0
370
     0
100
AcDbVertex
100
AcDb2dVertex
 10
407.491744
 20
217.100955
 30
0.0
  0
VERTEX
  5
173
330
171
100
AcDbEntity
  8
0
370
     0
100
AcDbVertex
100
AcDb2dVertex
 10
408.423491
 20
213.623622
 30
0.0
  0
VERTEX
  5
174
330
171
100
AcDbEntity
  8
0
370
     0
100
AcDbVertex
100
AcDb2dVertex
 10
409.355239
 20
217.100955
 30
0.0
  0
SEQEND
  5
175
330
171
100
AcDbEntity
  8
0
 62
     7
370
    25
  0
ENDBLK
  5
8A
330
88
100
AcDbEntity
  8
0
100
AcDbBlockEnd
  0
BLOCK
  5
8C
330
8B
100
AcDbEntity
  8
0
100
AcDbBlockBegin
  2
*D10
 70
     1
 10
0.0
 20
0.0
 30
0.0
  3
*D10
  1

  0
SOLID
  5
176
330
8B
100
AcDbEntity
  8
0
 62
     7
370
    25
100
AcDbTrace
 10
398.346358
 20
217.100955
 30
0.0
 11
399.278106
 21
213.623622
 31
0.0
 12
398.346358
 22
217.100955
 32
0.0
 13
400.209853
 23
217.100955
 33
0.0
  0
SOLID
  5
177
330
8B
100
AcDbEntity
  8
0
 62
     7
370
    25
100
AcDbTrace
 10
400.209853
 20
330.668853
 30
0.0
 11
399.278106
 21
334.146186
 31
0.0
 12
400.209853
 22
330.668853
 32
0.0
 13
398.346358
 23
330.668853
 33
0.0
  0
TEXT
  5
178
330
8B
100
AcDbEntity
  8
0
 62
     7
370
    25
100
AcDbText
 10
398.278106
 20
261.158824
 30
0.0
 40
3.5
  1
120.523
 50
90.0
 41
1.202464
 72
     5
 11
398.278106
 21
286.610988
 31
0.0
100
AcDbText
  0
TEXT
  5
179
330
8B
100
AcDbEntity
  8
0
 62
     7
370
    25
100
AcDbText
 10
398.278106
 20
249.650752
 30
0.0
 40
3.5
  1
2x 
 50
90.0
 41
1.087042
 72
     5
 11
398.278106
 21
260.158824
 31
0.0
100
AcDbText
  0
LINE
  5
17A
330
8B
100
AcDbEntity
  8
0
 62
     7
370
    25
100
AcDbLine
 10
444.816092
 20
213.623622
 30
0.0
 11
397.278106
 21
213.623622
 31
0.0
  0
LINE
  5
17B
330
8B
100
AcDbEntity
  8
0
 62
     7
370
    25
100
AcDbLine
 10
427.69353
 20
334.146186
 30
0.0
 11
397.278106
 21
334.146186
 31
0.0
  0
LINE
  5
17C
330
8B
100
AcDbEntity
  8
0
 62
     7
370
    25
100
AcDbLine
 10
399.278106
 20
217.100955
 30
0.0
 11
399.278106
 21
330.668853
 31
0.0
  0
POLYLINE
  5
17D
330
8B
100
AcDbEntity
  8
0
 62
     7
370
    25
100
AcDb2dPolyline
 66
     1
 10
0.0
 20
0.0
 30
0.0
 70
     1
  0
VERTEX
  5
17E
330
17D
100
AcDbEntity
  8
0
370
     0
100
AcDbVertex
100
AcDb2dVertex
 10
398.346358
 20
217.100955
 30
0.0
  0
VERTEX
  5
17F
330
17D
100
AcDbEntity
  8
0
370
     0
100
AcDbVertex
100
AcDb2dVertex
 10
399.278106
 20
213.623622
 30
0.0
  0
VERTEX
  5
180
330
17D
100
AcDbEntity
  8
0
370
     0
100
AcDbVertex
100
AcDb2dVertex
 10
400.209853
 20
217.100955
 30
0.0
  0
SEQEND
  5
181
330
17D
100
AcDbEntity
  8
0
 62
     7
370
    25
  0
POLYLINE
  5
182
330
8B
100
AcDbEntity
  8
0
 62
     7
370
    25
100
AcDb2dPolyline
 66
     1
 10
0.0
 20
0.0
 30
0.0
 70
     1
  0
VERTEX
  5
183
330
182
100
AcDbEntity
  8
0
370
     0
100
AcDbVertex
100
AcDb2dVertex
 10
400.209853
 20
330.668853
 30
0.0
  0
VERTEX
  5
184
330
182
100
AcDbEntity
  8
0
370
     0
100
AcDbVertex
100
AcDb2dVertex
 10
399.278106
 20
334.146186
 30
0.0
  0
VERTEX
  5
185
330
182
100
AcDbEntity
  8
0
370
     0
100
AcDbVertex
100
AcDb2dVertex
 10
398.346358
 20
330.668853
 30
0.0
  0
SEQEND
  5
186
330
182
100
AcDbEntity
  8
0
 62
     7
370
    25
  0
ENDBLK
  5
8D
330
8B
100
AcDbEntity
  8
0
100
AcDbBlockEnd
  0
BLOCK
  5
8F
330
8E
100
AcDbEntity
  8
0
100
AcDbBlockBegin
  2
*D11
 70
     1
 10
0.0
 20
0.0
 30
0.0
  3
*D11
  1

  0
SOLID
  5
187
330
8E
100
AcDbEntity
  8
0
 62
     7
370
    25
100
AcDbTrace
 10
417.216197
 20
349.06932
 30
0.0
 11
420.69353
 21
350.001067
 31
0.0
 12
417.216197
 22
349.06932
 32
0.0
 13
417.216197
 23
350.932815
 33
0.0
  0
SOLID
  5
188
330
8E
100
AcDbEntity
  8
0
 62
     7
370
    25
100
AcDbTrace
 10
432.156501
 20
350.932815
 30
0.0
 11
428.679168
 21
350.001067
 31
0.0
 12
432.156501
 22
350.932815
 32
0.0
 13
432.156501
 23
349.06932
 33
0.0
  0
TEXT
  5
189
330
8E
100
AcDbEntity
  8
0
 62
     7
370
    25
100
AcDbText
 10
397.713416
 20
351.001067
 30
0.0
 40
3.5
  1
7.986
 41
1.240008
 72
     5
 11
415.693534
 21
351.001067
 31
0.0
100
AcDbText
  0
LINE
  5
18A
330
8E
100
AcDbEntity
  8
0
 62
     7
370
    25
100
AcDbLine
 10
420.69353
 20
327.146187
 30
0.0
 11
420.69353
 21
352.001067
 31
0.0
  0
LINE
  5
18B
330
8E
100
AcDbEntity
  8
0
 62
     7
370
    25
100
AcDbLine
 10
428.679168
 20
329.560548
 30
0.0
 11
428.679168
 21
352.001067
 31
0.0
  0
LINE
  5
18C
330
8E
100
AcDbEntity
  8
0
 62
     7
370
    25
100
AcDbLine
 10
397.713416
 20
350.001067
 30
0.0
 11
417.216197
 21
350.001067
 31
0.0
  0
LINE
  5
18D
330
8E
100
AcDbEntity
  8
0
 62
     7
370
    25
100
AcDbLine
 10
420.69353
 20
350.001067
 30
0.0
 11
428.679168
 21
350.001067
 31
0.0
  0
LINE
  5
18E
330
8E
100
AcDbEntity
  8
0
 62
     7
370
    25
100
AcDbLine
 10
432.156501
 20
350.001067
 30
0.0
 11
433.679168
 21
350.001067
 31
0.0
  0
POLYLINE
  5
18F
330
8E
100
AcDbEntity
  8
0
 62
     7
370
    25
100
AcDb2dPolyline
 66
     1
 10
0.0
 20
0.0
 30
0.0
 70
     1
  0
VERTEX
  5
190
330
18F
100
AcDbEntity
  8
0
370
     0
100
AcDbVertex
100
AcDb2dVertex
 10
417.216197
 20
349.06932
 30
0.0
  0
VERTEX
  5
191
330
18F
100
AcDbEntity
  8
0
370
     0
100
AcDbVertex
100
AcDb2dVertex
 10
420.69353
 20
350.001067
 30
0.0
  0
VERTEX
  5
192
330
18F
100
AcDbEntity
  8
0
370
     0
100
AcDbVertex
100
AcDb2dVertex
 10
417.216197
 20
350.932815
 30
0.0
  0
SEQEND
  5
193
330
18F
100
AcDbEntity
  8
0
 62
     7
370
    25
  0
POLYLINE
  5
194
330
8E
100
AcDbEntity
  8
0
 62
     7
370
    25
100
AcDb2dPolyline
 66
     1
 10
0.0
 20
0.0
 30
0.0
 70
     1
  0
VERTEX
  5
195
330
194
100
AcDbEntity
  8
0
370
     0
100
AcDbVertex
100
AcDb2dVertex
 10
432.156501
 20
350.932815
 30
0.0
  0
VERTEX
  5
196
330
194
100
AcDbEntity
  8
0
370
     0
100
AcDbVertex
100
AcDb2dVertex
 10
428.679168
 20
350.001067
 30
0.0
  0
VERTEX
  5
197
330
194
100
AcDbEntity
  8
0
370
     0
100
AcDbVertex
100
AcDb2dVertex
 10
432.156501
 20
349.06932
 30
0.0
  0
SEQEND
  5
198
330
194
100
AcDbEntity
  8
0
 62
     7
370
    25
  0
ENDBLK
  5
90
330
8E
100
AcDbEntity
  8
0
100
AcDbBlockEnd
  0
BLOCK
  5
92
330
91
100
AcDbEntity
  8
0
100
AcDbBlockBegin
  2
*D12
 70
     1
 10
0.0
 20
0.0
 30
0.0
  3
*D12
  1

  0
SOLID
  5
199
330
91
100
AcDbEntity
  8
0
 62
     7
370
    25
100
AcDbTrace
 10
538.215991
 20
350.932815
 30
0.0
 11
534.738658
 21
350.001067
 31
0.0
 12
538.215991
 22
350.932815
 32
0.0
 13
538.215991
 23
349.06932
 33
0.0
  0
SOLID
  5
19A
330
91
100
AcDbEntity
  8
0
 62
     7
370
    25
100
AcDbTrace
 10
523.275687
 20
349.06932
 30
0.0
 11
526.75302
 21
350.001067
 31
0.0
 12
523.275687
 22
349.06932
 32
0.0
 13
523.275687
 23
350.932815
 33
0.0
  0
TEXT
  5
19B
330
91
100
AcDbEntity
  8
0
 62
     7
370
    25
100
AcDbText
 10
539.738654
 20
351.001067
 30
0.0
 40
3.5
  1
7.986
 41
1.240008
 72
     5
 11
557.718772
 21
351.001067
 31
0.0
100
AcDbText
  0
LINE
  5
19C
330
91
100
AcDbEntity
  8
0
 62
     7
370
    25
100
AcDbLine
 10
526.75302
 20
329.560548
 30
0.0
 11
526.75302
 21
352.001067
 31
0.0
  0
LINE
  5
19D
330
91
100
AcDbEntity
  8
0
 62
     7
370
    25
100
AcDbLine
 10
534.738658
 20
327.146187
 30
0.0
 11
534.738658
 21
352.001067
 31
0.0
  0
LINE
  5
19E
330
91
100
AcDbEntity
  8
0
 62
     7
370
    25
100
AcDbLine
 10
521.75302
 20
350.001067
 30
0.0
 11
523.275687
 21
350.001067
 31
0.0
  0
LINE
  5
19F
330
91
100
AcDbEntity
  8
0
 62
     7
370
    25
100
AcDbLine
 10
526.75302
 20
350.001067
 30
0.0
 11
534.738658
 21
350.001067
 31
0.0
  0
LINE
  5
1A0
330
91
100
AcDbEntity
  8
0
 62
     7
370
    25
100
AcDbLine
 10
538.215991
 20
350.001067
 30
0.0
 11
557.718772
 21
350.001067
 31
0.0
  0
POLYLINE
  5
1A1
330
91
100
AcDbEntity
  8
0
 62
     7
370
    25
100
AcDb2dPolyline
 66
     1
 10
0.0
 20
0.0
 30
0.0
 70
     1
  0
VERTEX
  5
1A2
330
1A1
100
AcDbEntity
  8
0
370
     0
100
AcDbVertex
100
AcDb2dVertex
 10
538.215991
 20
350.932815
 30
0.0
  0
VERTEX
  5
1A3
330
1A1
100
AcDbEntity
  8
0
370
     0
100
AcDbVertex
100
AcDb2dVertex
 10
534.738658
 20
350.001067
 30
0.0
  0
VERTEX
  5
1A4
330
1A1
100
AcDbEntity
  8
0
370
     0
100
AcDbVertex
100
AcDb2dVertex
 10
538.215991
 20
349.06932
 30
0.0
  0
SEQEND
  5
1A5
330
1A1
100
AcDbEntity
  8
0
 62
     7
370
    25
  0
POLYLINE
  5
1A6
330
91
100
AcDbEntity
  8
0
 62
     7
370
    25
100
AcDb2dPolyline
 66
     1
 10
0.0
 20
0.0
 30
0.0
 70
     1
  0
VERTEX
  5
1A7
330
1A6
100
AcDbEntity
  8
0
370
     0
100
AcDbVertex
100
AcDb2dVertex
 10
523.275687
 20
349.06932
 30
0.0
  0
VERTEX
  5
1A8
330
1A6
100
AcDbEntity
  8
0
370
     0
100
AcDbVertex
100
AcDb2dVertex
 10
526.75302
 20
350.001067
 30
0.0
  0
VERTEX
  5
1A9
330
1A6
100
AcDbEntity
  8
0
370
     0
100
AcDbVertex
100
AcDb2dVertex
 10
523.275687
 20
350.932815
 30
0.0
  0
SEQEND
  5
1AA
330
1A6
100
AcDbEntity
  8
0
 62
     7
370
    25
  0
ENDBLK
  5
93
330
91
100
AcDbEntity
  8
0
100
AcDbBlockEnd
  0
BLOCK
  5
95
330
94
100
AcDbEntity
  8
0
100
AcDbBlockBegin
  2
*D13
 70
     1
 10
0.0
 20
0.0
 30
0.0
  3
*D13
  1

  0
SOLID
  5
1AB
330
94
100
AcDbEntity
  8
0
 62
     7
370
    25
100
AcDbTrace
 10
571.529372
 20
339.768853
 30
0.0
 11
570.597625
 21
343.246186
 31
0.0
 12
571.529372
 22
339.768853
 32
0.0
 13
569.665877
 23
339.768853
 33
0.0
  0
SOLID
  5
1AC
330
94
100
AcDbEntity
  8
0
 62
     7
370
    25
100
AcDbTrace
 10
569.665877
 20
368.623519
 30
0.0
 11
570.597625
 21
365.146186
 31
0.0
 12
569.665877
 22
368.623519
 32
0.0
 13
571.529372
 23
368.623519
 33
0.0
  0
TEXT
  5
1AD
330
94
100
AcDbEntity
  8
0
 62
     7
370
    25
100
AcDbText
 10
569.597625
 20
347.074138
 30
0.0
 40
3.5
  1
21.9
 50
90.0
 41
1.294918
 72
     5
 11
569.597625
 21
361.318232
 31
0.0
100
AcDbText
  0
LINE
  5
1AE
330
94
100
AcDbEntity
  8
0
 62
     7
370
    25
100
AcDbLine
 10
501.304118
 20
343.246186
 30
0.0
 11
572.597625
 21
343.246186
 31
0.0
  0
LINE
  5
1AF
330
94
100
AcDbEntity
  8
0
 62
     7
370
    25
100
AcDbLine
 10
492.616094
 20
365.146186
 30
0.0
 11
572.597625
 21
365.146186
 31
0.0
  0
LINE
  5
1B0
330
94
100
AcDbEntity
  8
0
 62
     7
370
    25
100
AcDbLine
 10
570.597625
 20
338.246186
 30
0.0
 11
570.597625
 21
339.768853
 31
0.0
  0
LINE
  5
1B1
330
94
100
AcDbEntity
  8
0
 62
     7
370
    25
100
AcDbLine
 10
570.597625
 20
343.246186
 30
0.0
 11
570.597625
 21
365.146186
 31
0.0
  0
LINE
  5
1B2
330
94
100
AcDbEntity
  8
0
 62
     7
370
    25
100
AcDbLine
 10
570.597625
 20
368.623519
 30
0.0
 11
570.597625
 21
370.146186
 31
0.0
  0
POLYLINE
  5
1B3
330
94
100
AcDbEntity
  8
0
 62
     7
370
    25
100
AcDb2dPolyline
 66
     1
 10
0.0
 20
0.0
 30
0.0
 70
     1
  0
VERTEX
  5
1B4
330
1B3
100
AcDbEntity
  8
0
370
     0
100
AcDbVertex
100
AcDb2dVertex
 10
571.529372
 20
339.768853
 30
0.0
  0
VERTEX
  5
1B5
330
1B3
100
AcDbEntity
  8
0
370
     0
100
AcDbVertex
100
AcDb2dVertex
 10
570.597625
 20
343.246186
 30
0.0
  0
VERTEX
  5
1B6
330
1B3
100
AcDbEntity
  8
0
370
     0
100
AcDbVertex
100
AcDb2dVertex
 10
569.665877
 20
339.768853
 30
0.0
  0
SEQEND
  5
1B7
330
1B3
100
AcDbEntity
  8
0
 62
     7
370
    25
  0
POLYLINE
  5
1B8
330
94
100
AcDbEntity
  8
0
 62
     7
370
    25
100
AcDb2dPolyline
 66
     1
 10
0.0
 20
0.0
 30
0.0
 70
     1
  0
VERTEX
  5
1B9
330
1B8
100
AcDbEntity
  8
0
370
     0
100
AcDbVertex
100
AcDb2dVertex
 10
569.665877
 20
368.623519
 30
0.0
  0
VERTEX
  5
1BA
330
1B8
100
AcDbEntity
  8
0
370
     0
100
AcDbVertex
100
AcDb2dVertex
 10
570.597625
 20
365.146186
 30
0.0
  0
VERTEX
  5
1BB
330
1B8
100
AcDbEntity
  8
0
370
     0
100
AcDbVertex
100
AcDb2dVertex
 10
571.529372
 20
368.623519
 30
0.0
  0
SEQEND
  5
1BC
330
1B8
100
AcDbEntity
  8
0
 62
     7
370
    25
  0
ENDBLK
  5
96
330
94
100
AcDbEntity
  8
0
100
AcDbBlockEnd
  0
BLOCK
  5
98
330
97
100
AcDbEntity
  8
0
100
AcDbBlockBegin
  2
*D14
 70
     1
 10
0.0
 20
0.0
 30
0.0
  3
*D14
  1

  0
SOLID
  5
1BD
330
97
100
AcDbEntity
  8
0
 62
     7
370
    25
100
AcDbTrace
 10
531.261325
 20
199.630687
 30
0.0
 11
534.738658
 21
200.562442
 31
0.0
 12
531.261325
 22
199.630687
 32
0.0
 13
531.261325
 23
201.494189
 33
0.0
  0
SOLID
  5
1BE
330
97
100
AcDbEntity
  8
0
 62
     7
370
    25
100
AcDbTrace
 10
517.215991
 20
201.494189
 30
0.0
 11
513.738658
 21
200.562442
 31
0.0
 12
517.215991
 22
201.494189
 32
0.0
 13
517.215991
 23
199.630687
 33
0.0
  0
TEXT
  5
1BF
330
97
100
AcDbEntity
  8
0
 62
     7
370
    25
100
AcDbText
 10
552.366141
 20
201.562442
 30
0.0
 40
3.5
  1
21
 41
1.310719
 72
     5
 11
559.13819
 21
201.562442
 31
0.0
100
AcDbText
  0
TEXT
  5
1C0
330
97
100
AcDbEntity
  8
0
 62
     7
370
    25
100
AcDbText
 10
540.858069
 20
201.562442
 30
0.0
 40
3.5
  1
2x 
 41
1.087042
 72
     5
 11
551.366141
 21
201.562442
 31
0.0
100
AcDbText
  0
LINE
  5
1C1
330
97
100
AcDbEntity
  8
0
 62
     7
370
    25
100
AcDbLine
 10
513.738658
 20
211.423625
 30
0.0
 11
513.738658
 21
198.562442
 31
0.0
  0
LINE
  5
1C2
330
97
100
AcDbEntity
  8
0
 62
     7
370
    25
100
AcDbLine
 10
534.738658
 20
311.146186
 30
0.0
 11
534.738658
 21
198.562442
 31
0.0
  0
LINE
  5
1C3
330
97
100
AcDbEntity
  8
0
 62
     7
370
    25
100
AcDbLine
 10
517.215991
 20
200.562442
 30
0.0
 11
531.261325
 21
200.562442
 31
0.0
  0
LINE
  5
1C4
330
97
100
AcDbEntity
  8
0
 62
     7
370
    25
100
AcDbLine
 10
534.738658
 20
200.562442
 30
0.0
 11
559.13819
 21
200.562442
 31
0.0
  0
POLYLINE
  5
1C5
330
97
100
AcDbEntity
  8
0
 62
     7
370
    25
100
AcDb2dPolyline
 66
     1
 10
0.0
 20
0.0
 30
0.0
 70
     1
  0
VERTEX
  5
1C6
330
1C5
100
AcDbEntity
  8
0
370
     0
100
AcDbVertex
100
AcDb2dVertex
 10
531.261325
 20
199.630687
 30
0.0
  0
VERTEX
  5
1C7
330
1C5
100
AcDbEntity
  8
0
370
     0
100
AcDbVertex
100
AcDb2dVertex
 10
534.738658
 20
200.562442
 30
0.0
  0
VERTEX
  5
1C8
330
1C5
100
AcDbEntity
  8
0
370
     0
100
AcDbVertex
100
AcDb2dVertex
 10
531.261325
 20
201.494189
 30
0.0
  0
SEQEND
  5
1C9
330
1C5
100
AcDbEntity
  8
0
 62
     7
370
    25
  0
POLYLINE
  5
1CA
330
97
100
AcDbEntity
  8
0
 62
     7
370
    25
100
AcDb2dPolyline
 66
     1
 10
0.0
 20
0.0
 30
0.0
 70
     1
  0
VERTEX
  5
1CB
330
1CA
100
AcDbEntity
  8
0
370
     0
100
AcDbVertex
100
AcDb2dVertex
 10
517.215991
 20
201.494189
 30
0.0
  0
VERTEX
  5
1CC
330
1CA
100
AcDbEntity
  8
0
370
     0
100
AcDbVertex
100
AcDb2dVertex
 10
513.738658
 20
200.562442
 30
0.0
  0
VERTEX
  5
1CD
330
1CA
100
AcDbEntity
  8
0
370
     0
100
AcDbVertex
100
AcDb2dVertex
 10
517.215991
 20
199.630687
 30
0.0
  0
SEQEND
  5
1CE
330
1CA
100
AcDbEntity
  8
0
 62
     7
370
    25
  0
ENDBLK
  5
99
330
97
100
AcDbEntity
  8
0
100
AcDbBlockEnd
  0
BLOCK
  5
9B
330
9A
100
AcDbEntity
  8
0
100
AcDbBlockBegin
  2
*D15
 70
     1
 10
0.0
 20
0.0
 30
0.0
  3
*D15
  1

  0
SOLID
  5
1CF
330
9A
100
AcDbEntity
  8
0
 62
     7
370
    25
100
AcDbTrace
 10
545.563094
 20
217.100955
 30
0.0
 11
546.494841
 21
213.623622
 31
0.0
 12
545.563094
 22
217.100955
 32
0.0
 13
547.426589
 23
217.100955
 33
0.0
  0
SOLID
  5
1D0
330
9A
100
AcDbEntity
  8
0
 62
     7
370
    25
100
AcDbTrace
 10
547.426589
 20
301.646289
 30
0.0
 11
546.494841
 21
305.123622
 31
0.0
 12
547.426589
 22
301.646289
 32
0.0
 13
545.563094
 23
301.646289
 33
0.0
  0
TEXT
  5
1D1
330
9A
100
AcDbEntity
  8
0
 62
     7
370
    25
100
AcDbText
 10
545.494841
 20
252.251574
 30
0.0
 40
3.5
  1
91.5
 50
90.0
 41
1.275591
 72
     5
 11
545.494841
 21
266.495669
 31
0.0
100
AcDbText
  0
TEXT
  5
1D2
330
9A
100
AcDbEntity
  8
0
 62
     7
370
    25
100
AcDbText
 10
545.494841
 20
240.743503
 30
0.0
 40
3.5
  1
2x 
 50
90.0
 41
1.087042
 72
     5
 11
545.494841
 21
251.251574
 31
0.0
100
AcDbText
  0
LINE
  5
1D3
330
9A
100
AcDbEntity
  8
0
 62
     7
370
    25
100
AcDbLine
 10
510.616095
 20
213.623622
 30
0.0
 11
548.494841
 21
213.623622
 31
0.0
  0
LINE
  5
1D4
330
9A
100
AcDbEntity
  8
0
 62
     7
370
    25
100
AcDbLine
 10
536.938659
 20
305.123622
 30
0.0
 11
548.494841
 21
305.123622
 31
0.0
  0
LINE
  5
1D5
330
9A
100
AcDbEntity
  8
0
 62
     7
370
    25
100
AcDbLine
 10
546.494841
 20
217.100955
 30
0.0
 11
546.494841
 21
301.646289
 31
0.0
  0
POLYLINE
  5
1D6
330
9A
100
AcDbEntity
  8
0
 62
     7
370
    25
100
AcDb2dPolyline
 66
     1
 10
0.0
 20
0.0
 30
0.0
 70
     1
  0
VERTEX
  5
1D7
330
1D6
100
AcDbEntity
  8
0
370
     0
100
AcDbVertex
100
AcDb2dVertex
 10
545.563094
 20
217.100955
 30
0.0
  0
VERTEX
  5
1D8
330
1D6
100
AcDbEntity
  8
0
370
     0
100
AcDbVertex
100
AcDb2dVertex
 10
546.494841
 20
213.623622
 30
0.0
  0
VERTEX
  5
1D9
330
1D6
100
AcDbEntity
  8
0
370
     0
100
AcDbVertex
100
AcDb2dVertex
 10
547.426589
 20
217.100955
 30
0.0
  0
SEQEND
  5
1DA
330
1D6
100
AcDbEntity
  8
0
 62
     7
370
    25
  0
POLYLINE
  5
1DB
330
9A
100
AcDbEntity
  8
0
 62
     7
370
    25
100
AcDb2dPolyline
 66
     1
 10
0.0
 20
0.0
 30
0.0
 70
     1
  0
VERTEX
  5
1DC
330
1DB
100
AcDbEntity
  8
0
370
     0
100
AcDbVertex
100
AcDb2dVertex
 10
547.426589
 20
301.646289
 30
0.0
  0
VERTEX
  5
1DD
330
1DB
100
AcDbEntity
  8
0
370
     0
100
AcDbVertex
100
AcDb2dVertex
 10
546.494841
 20
305.123622
 30
0.0
  0
VERTEX
  5
1DE
330
1DB
100
AcDbEntity
  8
0
370
     0
100
AcDbVertex
100
AcDb2dVertex
 10
545.563094
 20
301.646289
 30
0.0
  0
SEQEND
  5
1DF
330
1DB
100
AcDbEntity
  8
0
 62
     7
370
    25
  0
ENDBLK
  5
9C
330
9A
100
AcDbEntity
  8
0
100
AcDbBlockEnd
  0
BLOCK
  5
9E
330
9D
100
AcDbEntity
  8
0
100
AcDbBlockBegin
  2
*D16
 70
     1
 10
0.0
 20
0.0
 30
0.0
  3
*D16
  1

  0
SOLID
  5
1E0
330
9D
100
AcDbEntity
  8
0
 62
     7
370
    25
100
AcDbTrace
 10
474.238761
 20
203.884837
 30
0.0
 11
477.716094
 21
204.816592
 31
0.0
 12
474.238761
 22
203.884837
 32
0.0
 13
474.238761
 23
205.74834
 33
0.0
  0
SOLID
  5
1E1
330
9D
100
AcDbEntity
  8
0
 62
     7
370
    25
100
AcDbTrace
 10
487.193427
 20
205.74834
 30
0.0
 11
483.716094
 21
204.816592
 31
0.0
 12
487.193427
 22
205.74834
 32
0.0
 13
487.193427
 23
203.884837
 33
0.0
  0
TEXT
  5
1E2
330
9D
100
AcDbEntity
  8
0
 62
     7
370
    25
100
AcDbText
 10
469.680071
 20
205.816592
 30
0.0
 40
3.5
  1
6
 41
1.071538
 72
     5
 11
472.716094
 21
205.816592
 31
0.0
100
AcDbText
  0
LINE
  5
1E3
330
9D
100
AcDbEntity
  8
0
 62
     7
370
    25
100
AcDbLine
 10
483.716094
 20
213.596126
 30
0.0
 11
483.716094
 21
202.816592
 31
0.0
  0
LINE
  5
1E4
330
9D
100
AcDbEntity
  8
0
 62
     7
370
    25
100
AcDbLine
 10
469.680071
 20
204.816592
 30
0.0
 11
474.238761
 21
204.816592
 31
0.0
  0
LINE
  5
1E5
330
9D
100
AcDbEntity
  8
0
 62
     7
370
    25
100
AcDbLine
 10
477.716094
 20
204.816592
 30
0.0
 11
483.716094
 21
204.816592
 31
0.0
  0
LINE
  5
1E6
330
9D
100
AcDbEntity
  8
0
 62
     7
370
    25
100
AcDbLine
 10
487.193427
 20
204.816592
 30
0.0
 11
488.716094
 21
204.816592
 31
0.0
  0
POLYLINE
  5
1E7
330
9D
100
AcDbEntity
  8
0
 62
     7
370
    25
100
AcDb2dPolyline
 66
     1
 10
0.0
 20
0.0
 30
0.0
 70
     1
  0
VERTEX
  5
1E8
330
1E7
100
AcDbEntity
  8
0
370
     0
100
AcDbVertex
100
AcDb2dVertex
 10
474.238761
 20
203.884837
 30
0.0
  0
VERTEX
  5
1E9
330
1E7
100
AcDbEntity
  8
0
370
     0
100
AcDbVertex
100
AcDb2dVertex
 10
477.716094
 20
204.816592
 30
0.0
  0
VERTEX
  5
1EA
330
1E7
100
AcDbEntity
  8
0
370
     0
100
AcDbVertex
100
AcDb2dVertex
 10
474.238761
 20
205.74834
 30
0.0
  0
SEQEND
  5
1EB
330
1E7
100
AcDbEntity
  8
0
 62
     7
370
    25
  0
POLYLINE
  5
1EC
330
9D
100
AcDbEntity
  8
0
 62
     7
370
    25
100
AcDb2dPolyline
 66
     1
 10
0.0
 20
0.0
 30
0.0
 70
     1
  0
VERTEX
  5
1ED
330
1EC
100
AcDbEntity
  8
0
370
     0
100
AcDbVertex
100
AcDb2dVertex
 10
487.193427
 20
205.74834
 30
0.0
  0
VERTEX
  5
1EE
330
1EC
100
AcDbEntity
  8
0
370
     0
100
AcDbVertex
100
AcDb2dVertex
 10
483.716094
 20
204.816592
 30
0.0
  0
VERTEX
  5
1EF
330
1EC
100
AcDbEntity
  8
0
370
     0
100
AcDbVertex
100
AcDb2dVertex
 10
487.193427
 20
203.884837
 30
0.0
  0
SEQEND
  5
1F0
330
1EC
100
AcDbEntity
  8
0
 62
     7
370
    25
  0
ENDBLK
  5
9F
330
9D
100
AcDbEntity
  8
0
100
AcDbBlockEnd
  0
BLOCK
  5
A1
330
A0
100
AcDbEntity
  8
0
100
AcDbBlockBegin
  2
*D17
 70
     1
 10
0.0
 20
0.0
 30
0.0
  3
*D17
  1

  0
SOLID
  5
1F1
330
A0
100
AcDbEntity
  8
0
 62
     7
370
    25
100
AcDbTrace
 10
480.238761
 20
196.405269
 30
0.0
 11
483.716094
 21
197.337024
 31
0.0
 12
480.238761
 22
196.405269
 32
0.0
 13
480.238761
 23
198.268771
 33
0.0
  0
SOLID
  5
1F2
330
A0
100
AcDbEntity
  8
0
 62
     7
370
    25
100
AcDbTrace
 10
496.693427
 20
198.268771
 30
0.0
 11
493.216094
 21
197.337024
 31
0.0
 12
496.693427
 22
198.268771
 32
0.0
 13
496.693427
 23
196.405269
 33
0.0
  0
TEXT
  5
1F3
330
A0
100
AcDbEntity
  8
0
 62
     7
370
    25
100
AcDbText
 10
469.253076
 20
198.337024
 30
0.0
 40
3.5
  1
9.5
 41
1.341456
 72
     5
 11
479.761145
 21
198.337024
 31
0.0
100
AcDbText
  0
LINE
  5
1F4
330
A0
100
AcDbEntity
  8
0
 62
     7
370
    25
100
AcDbLine
 10
483.716094
 20
213.596126
 30
0.0
 11
483.716094
 21
195.337024
 31
0.0
  0
LINE
  5
1F5
330
A0
100
AcDbEntity
  8
0
 62
     7
370
    25
100
AcDbLine
 10
493.216094
 20
213.596126
 30
0.0
 11
493.216094
 21
195.337024
 31
0.0
  0
LINE
  5
1F6
330
A0
100
AcDbEntity
  8
0
 62
     7
370
    25
100
AcDbLine
 10
469.253076
 20
197.337024
 30
0.0
 11
480.238761
 21
197.337024
 31
0.0
  0
LINE
  5
1F7
330
A0
100
AcDbEntity
  8
0
 62
     7
370
    25
100
AcDbLine
 10
483.716094
 20
197.337024
 30
0.0
 11
493.216094
 21
197.337024
 31
0.0
  0
LINE
  5
1F8
330
A0
100
AcDbEntity
  8
0
 62
     7
370
    25
100
AcDbLine
 10
496.693427
 20
197.337024
 30
0.0
 11
498.216094
 21
197.337024
 31
0.0
  0
POLYLINE
  5
1F9
330
A0
100
AcDbEntity
  8
0
 62
     7
370
    25
100
AcDb2dPolyline
 66
     1
 10
0.0
 20
0.0
 30
0.0
 70
     1
  0
VERTEX
  5
1FA
330
1F9
100
AcDbEntity
  8
0
370
     0
100
AcDbVertex
100
AcDb2dVertex
 10
480.238761
 20
196.405269
 30
0.0
  0
VERTEX
  5
1FB
330
1F9
100
AcDbEntity
  8
0
370
     0
100
AcDbVertex
100
AcDb2dVertex
 10
483.716094
 20
197.337024
 30
0.0
  0
VERTEX
  5
1FC
330
1F9
100
AcDbEntity
  8
0
370
     0
100
AcDbVertex
100
AcDb2dVertex
 10
480.238761
 20
198.268771
 30
0.0
  0
SEQEND
  5
1FD
330
1F9
100
AcDbEntity
  8
0
 62
     7
370
    25
  0
POLYLINE
  5
1FE
330
A0
100
AcDbEntity
  8
0
 62
     7
370
    25
100
AcDb2dPolyline
 66
     1
 10
0.0
 20
0.0
 30
0.0
 70
     1
  0
VERTEX
  5
1FF
330
1FE
100
AcDbEntity
  8
0
370
     0
100
AcDbVertex
100
AcDb2dVertex
 10
496.693427
 20
198.268771
 30
0.0
  0
VERTEX
  5
200
330
1FE
100
AcDbEntity
  8
0
370
     0
100
AcDbVertex
100
AcDb2dVertex
 10
493.216094
 20
197.337024
 30
0.0
  0
VERTEX
  5
201
330
1FE
100
AcDbEntity
  8
0
370
     0
100
AcDbVertex
100
AcDb2dVertex
 10
496.693427
 20
196.405269
 30
0.0
  0
SEQEND
  5
202
330
1FE
100
AcDbEntity
  8
0
 62
     7
370
    25
  0
ENDBLK
  5
A2
330
A0
100
AcDbEntity
  8
0
100
AcDbBlockEnd
  0
BLOCK
  5
A4
330
A3
100
AcDbEntity
  8
0
100
AcDbBlockBegin
  2
*D18
 70
     1
 10
0.0
 20
0.0
 30
0.0
  3
*D18
  1

  0
SOLID
  5
203
330
A3
100
AcDbEntity
  8
0
 62
     7
370
    25
100
AcDbTrace
 10
481.193427
 20
187.325519
 30
0.0
 11
477.716094
 21
186.393771
 31
0.0
 12
481.193427
 22
187.325519
 32
0.0
 13
481.193427
 23
185.462016
 33
0.0
  0
SOLID
  5
204
330
A3
100
AcDbEntity
  8
0
 62
     7
370
    25
100
AcDbTrace
 10
507.700044
 20
185.462016
 30
0.0
 11
511.177375
 21
186.393771
 31
0.0
 12
507.700044
 22
185.462016
 32
0.0
 13
507.700044
 23
187.325519
 33
0.0
  0
TEXT
  5
205
330
A3
100
AcDbEntity
  8
0
 62
     7
370
    25
100
AcDbText
 10
483.588665
 20
187.393771
 30
0.0
 40
3.5
  1
33.461
 41
1.290068
 72
     5
 11
505.304805
 21
187.393771
 31
0.0
100
AcDbText
  0
LINE
  5
206
330
A3
100
AcDbEntity
  8
0
 62
     7
370
    25
100
AcDbLine
 10
477.716094
 20
203.0544
 30
0.0
 11
477.716094
 21
184.393771
 31
0.0
  0
LINE
  5
207
330
A3
100
AcDbEntity
  8
0
 62
     7
370
    25
100
AcDbLine
 10
511.177375
 20
203.083621
 30
0.0
 11
511.177375
 21
184.393771
 31
0.0
  0
LINE
  5
208
330
A3
100
AcDbEntity
  8
0
 62
     7
370
    25
100
AcDbLine
 10
481.193427
 20
186.393771
 30
0.0
 11
507.700044
 21
186.393771
 31
0.0
  0
POLYLINE
  5
209
330
A3
100
AcDbEntity
  8
0
 62
     7
370
    25
100
AcDb2dPolyline
 66
     1
 10
0.0
 20
0.0
 30
0.0
 70
     1
  0
VERTEX
  5
20A
330
209
100
AcDbEntity
  8
0
370
     0
100
AcDbVertex
100
AcDb2dVertex
 10
481.193427
 20
187.325519
 30
0.0
  0
VERTEX
  5
20B
330
209
100
AcDbEntity
  8
0
370
     0
100
AcDbVertex
100
AcDb2dVertex
 10
477.716094
 20
186.393771
 30
0.0
  0
VERTEX
  5
20C
330
209
100
AcDbEntity
  8
0
370
     0
100
AcDbVertex
100
AcDb2dVertex
 10
481.193427
 20
185.462016
 30
0.0
  0
SEQEND
  5
20D
330
209
100
AcDbEntity
  8
0
 62
     7
370
    25
  0
POLYLINE
  5
20E
330
A3
100
AcDbEntity
  8
0
 62
     7
370
    25
100
AcDb2dPolyline
 66
     1
 10
0.0
 20
0.0
 30
0.0
 70
     1
  0
VERTEX
  5
20F
330
20E
100
AcDbEntity
  8
0
370
     0
100
AcDbVertex
100
AcDb2dVertex
 10
507.700044
 20
185.462016
 30
0.0
  0
VERTEX
  5
210
330
20E
100
AcDbEntity
  8
0
370
     0
100
AcDbVertex
100
AcDb2dVertex
 10
511.177375
 20
186.393771
 30
0.0
  0
VERTEX
  5
211
330
20E
100
AcDbEntity
  8
0
370
     0
100
AcDbVertex
100
AcDb2dVertex
 10
507.700044
 20
187.325519
 30
0.0
  0
SEQEND
  5
212
330
20E
100
AcDbEntity
  8
0
 62
     7
370
    25
  0
ENDBLK
  5
A5
330
A3
100
AcDbEntity
  8
0
100
AcDbBlockEnd
  0
BLOCK
  5
A7
330
A6
100
AcDbEntity
  8
0
100
AcDbBlockBegin
  2
*D19
 70
     1
 10
0.0
 20
0.0
 30
0.0
  3
*D19
  1

  0
SOLID
  5
213
330
A6
100
AcDbEntity
  8
0
 62
     7
370
    25
100
AcDbTrace
 10
474.238761
 20
185.462016
 30
0.0
 11
477.716094
 21
186.393771
 31
0.0
 12
474.238761
 22
185.462016
 32
0.0
 13
474.238761
 23
187.325519
 33
0.0
  0
SOLID
  5
214
330
A6
100
AcDbEntity
  8
0
 62
     7
370
    25
100
AcDbTrace
 10
447.732144
 20
187.325519
 30
0.0
 11
444.254813
 21
186.393771
 31
0.0
 12
447.732144
 22
187.325519
 32
0.0
 13
447.732144
 23
185.462016
 33
0.0
  0
TEXT
  5
215
330
A6
100
AcDbEntity
  8
0
 62
     7
370
    25
100
AcDbText
 10
450.127383
 20
187.393771
 30
0.0
 40
3.5
  1
33.461
 41
1.290068
 72
     5
 11
471.843523
 21
187.393771
 31
0.0
100
AcDbText
  0
LINE
  5
216
330
A6
100
AcDbEntity
  8
0
 62
     7
370
    25
100
AcDbLine
 10
444.254813
 20
203.083621
 30
0.0
 11
444.254813
 21
184.393771
 31
0.0
  0
LINE
  5
217
330
A6
100
AcDbEntity
  8
0
 62
     7
370
    25
100
AcDbLine
 10
477.716094
 20
203.0544
 30
0.0
 11
477.716094
 21
184.393771
 31
0.0
  0
LINE
  5
218
330
A6
100
AcDbEntity
  8
0
 62
     7
370
    25
100
AcDbLine
 10
447.732144
 20
186.393771
 30
0.0
 11
474.238761
 21
186.393771
 31
0.0
  0
POLYLINE
  5
219
330
A6
100
AcDbEntity
  8
0
 62
     7
370
    25
100
AcDb2dPolyline
 66
     1
 10
0.0
 20
0.0
 30
0.0
 70
     1
  0
VERTEX
  5
21A
330
219
100
AcDbEntity
  8
0
370
     0
100
AcDbVertex
100
AcDb2dVertex
 10
474.238761
 20
185.462016
 30
0.0
  0
VERTEX
  5
21B
330
219
100
AcDbEntity
  8
0
370
     0
100
AcDbVertex
100
AcDb2dVertex
 10
477.716094
 20
186.393771
 30
0.0
  0
VERTEX
  5
21C
330
219
100
AcDbEntity
  8
0
370
     0
100
AcDbVertex
100
AcDb2dVertex
 10
474.238761
 20
187.325519
 30
0.0
  0
SEQEND
  5
21D
330
219
100
AcDbEntity
  8
0
 62
     7
370
    25
  0
POLYLINE
  5
21E
330
A6
100
AcDbEntity
  8
0
 62
     7
370
    25
100
AcDb2dPolyline
 66
     1
 10
0.0
 20
0.0
 30
0.0
 70
     1
  0
VERTEX
  5
21F
330
21E
100
AcDbEntity
  8
0
370
     0
100
AcDbVertex
100
AcDb2dVertex
 10
447.732144
 20
187.325519
 30
0.0
  0
VERTEX
  5
220
330
21E
100
AcDbEntity
  8
0
370
     0
100
AcDbVertex
100
AcDb2dVertex
 10
444.254813
 20
186.393771
 30
0.0
  0
VERTEX
  5
221
330
21E
100
AcDbEntity
  8
0
370
     0
100
AcDbVertex
100
AcDb2dVertex
 10
447.732144
 20
185.462016
 30
0.0
  0
SEQEND
  5
222
330
21E
100
AcDbEntity
  8
0
 62
     7
370
    25
  0
ENDBLK
  5
A8
330
A6
100
AcDbEntity
  8
0
100
AcDbBlockEnd
  0
BLOCK
  5
AA
330
A9
100
AcDbEntity
  8
0
100
AcDbBlockBegin
  2
*D20
 70
     1
 10
0.0
 20
0.0
 30
0.0
  3
*D20
  1

  0
SOLID
  5
223
330
A9
100
AcDbEntity
  8
0
 62
     7
370
    25
100
AcDbTrace
 10
556.557357
 20
217.100955
 30
0.0
 11
557.489104
 21
213.623622
 31
0.0
 12
556.557357
 22
217.100955
 32
0.0
 13
558.420852
 23
217.100955
 33
0.0
  0
SOLID
  5
224
330
A9
100
AcDbEntity
  8
0
 62
     7
370
    25
100
AcDbTrace
 10
558.420852
 20
307.107571
 30
0.0
 11
557.489104
 21
310.584904
 31
0.0
 12
558.420852
 22
307.107571
 32
0.0
 13
556.557357
 23
307.107571
 33
0.0
  0
TEXT
  5
225
330
A9
100
AcDbEntity
  8
0
 62
     7
370
    25
100
AcDbText
 10
556.489104
 20
251.246192
 30
0.0
 40
3.5
  1
96.961
 50
90.0
 41
1.290068
 72
     5
 11
556.489104
 21
272.962333
 31
0.0
100
AcDbText
  0
TEXT
  5
226
330
A9
100
AcDbEntity
  8
0
 62
     7
370
    25
100
AcDbText
 10
556.489104
 20
239.738124
 30
0.0
 40
3.5
  1
2x 
 50
90.0
 41
1.087042
 72
     5
 11
556.489104
 21
250.246196
 31
0.0
100
AcDbText
  0
LINE
  5
227
330
A9
100
AcDbEntity
  8
0
 62
     7
370
    25
100
AcDbLine
 10
510.616095
 20
213.623622
 30
0.0
 11
559.489104
 21
213.623622
 31
0.0
  0
LINE
  5
228
330
A9
100
AcDbEntity
  8
0
 62
     7
370
    25
100
AcDbLine
 10
537.938659
 20
310.584904
 30
0.0
 11
559.489104
 21
310.584904
 31
0.0
  0
LINE
  5
229
330
A9
100
AcDbEntity
  8
0
 62
     7
370
    25
100
AcDbLine
 10
557.489104
 20
217.100955
 30
0.0
 11
557.489104
 21
307.107571
 31
0.0
  0
POLYLINE
  5
22A
330
A9
100
AcDbEntity
  8
0
 62
     7
370
    25
100
AcDb2dPolyline
 66
     1
 10
0.0
 20
0.0
 30
0.0
 70
     1
  0
VERTEX
  5
22B
330
22A
100
AcDbEntity
  8
0
370
     0
100
AcDbVertex
100
AcDb2dVertex
 10
556.557357
 20
217.100955
 30
0.0
  0
VERTEX
  5
22C
330
22A
100
AcDbEntity
  8
0
370
     0
100
AcDbVertex
100
AcDb2dVertex
 10
557.489104
 20
213.623622
 30
0.0
  0
VERTEX
  5
22D
330
22A
100
AcDbEntity
  8
0
370
     0
100
AcDbVertex
100
AcDb2dVertex
 10
558.420852
 20
217.100955
 30
0.0
  0
SEQEND
  5
22E
330
22A
100
AcDbEntity
  8
0
 62
     7
370
    25
  0
POLYLINE
  5
22F
330
A9
100
AcDbEntity
  8
0
 62
     7
370
    25
100
AcDb2dPolyline
 66
     1
 10
0.0
 20
0.0
 30
0.0
 70
     1
  0
VERTEX
  5
230
330
22F
100
AcDbEntity
  8
0
370
     0
100
AcDbVertex
100
AcDb2dVertex
 10
558.420852
 20
307.107571
 30
0.0
  0
VERTEX
  5
231
330
22F
100
AcDbEntity
  8
0
370
     0
100
AcDbVertex
100
AcDb2dVertex
 10
557.489104
 20
310.584904
 30
0.0
  0
VERTEX
  5
232
330
22F
100
AcDbEntity
  8
0
370
     0
100
AcDbVertex
100
AcDb2dVertex
 10
556.557357
 20
307.107571
 30
0.0
  0
SEQEND
  5
233
330
22F
100
AcDbEntity
  8
0
 62
     7
370
    25
  0
ENDBLK
  5
AB
330
A9
100
AcDbEntity
  8
0
100
AcDbBlockEnd
  0
BLOCK
  5
AD
330
AC
100
AcDbEntity
  8
0
100
AcDbBlockBegin
  2
*D21
 70
     1
 10
0.0
 20
0.0
 30
0.0
  3
*D21
  1

  0
SOLID
  5
234
330
AC
100
AcDbEntity
  8
0
 62
     7
370
    25
100
AcDbTrace
 10
568.619979
 20
217.100955
 30
0.0
 11
569.551726
 21
213.623622
 31
0.0
 12
568.619979
 22
217.100955
 32
0.0
 13
570.483474
 23
217.100955
 33
0.0
  0
SOLID
  5
235
330
AC
100
AcDbEntity
  8
0
 62
     7
370
    25
100
AcDbTrace
 10
570.483474
 20
308.707571
 30
0.0
 11
569.551726
 21
312.184904
 31
0.0
 12
570.483474
 22
308.707571
 32
0.0
 13
568.619979
 23
308.707571
 33
0.0
  0
TEXT
  5
236
330
AC
100
AcDbEntity
  8
0
 62
     7
370
    25
100
AcDbText
 10
568.551726
 20
252.046191
 30
0.0
 40
3.5
  1
98.561
 50
90.0
 41
1.290068
 72
     5
 11
568.551726
 21
273.762332
 31
0.0
100
AcDbText
  0
LINE
  5
237
330
AC
100
AcDbEntity
  8
0
 62
     7
370
    25
100
AcDbLine
 10
510.616095
 20
213.623622
 30
0.0
 11
571.551726
 21
213.623622
 31
0.0
  0
LINE
  5
238
330
AC
100
AcDbEntity
  8
0
 62
     7
370
    25
100
AcDbLine
 10
504.996095
 20
312.184904
 30
0.0
 11
571.551726
 21
312.184904
 31
0.0
  0
LINE
  5
239
330
AC
100
AcDbEntity
  8
0
 62
     7
370
    25
100
AcDbLine
 10
569.551726
 20
217.100955
 30
0.0
 11
569.551726
 21
308.707571
 31
0.0
  0
POLYLINE
  5
23A
330
AC
100
AcDbEntity
  8
0
 62
     7
370
    25
100
AcDb2dPolyline
 66
     1
 10
0.0
 20
0.0
 30
0.0
 70
     1
  0
VERTEX
  5
23B
330
23A
100
AcDbEntity
  8
0
370
     0
100
AcDbVertex
100
AcDb2dVertex
 10
568.619979
 20
217.100955
 30
0.0
  0
VERTEX
  5
23C
330
23A
100
AcDbEntity
  8
0
370
     0
100
AcDbVertex
100
AcDb2dVertex
 10
569.551726
 20
213.623622
 30
0.0
  0
VERTEX
  5
23D
330
23A
100
AcDbEntity
  8
0
370
     0
100
AcDbVertex
100
AcDb2dVertex
 10
570.483474
 20
217.100955
 30
0.0
  0
SEQEND
  5
23E
330
23A
100
AcDbEntity
  8
0
 62
     7
370
    25
  0
POLYLINE
  5
23F
330
AC
100
AcDbEntity
  8
0
 62
     7
370
    25
100
AcDb2dPolyline
 66
     1
 10
0.0
 20
0.0
 30
0.0
 70
     1
  0
VERTEX
  5
240
330
23F
100
AcDbEntity
  8
0
370
     0
100
AcDbVertex
100
AcDb2dVertex
 10
570.483474
 20
308.707571
 30
0.0
  0
VERTEX
  5
241
330
23F
100
AcDbEntity
  8
0
370
     0
100
AcDbVertex
100
AcDb2dVertex
 10
569.551726
 20
312.184904
 30
0.0
  0
VERTEX
  5
242
330
23F
100
AcDbEntity
  8
0
370
     0
100
AcDbVertex
100
AcDb2dVertex
 10
568.619979
 20
308.707571
 30
0.0
  0
SEQEND
  5
243
330
23F
100
AcDbEntity
  8
0
 62
     7
370
    25
  0
ENDBLK
  5
AE
330
AC
100
AcDbEntity
  8
0
100
AcDbBlockEnd
  0
BLOCK
  5
B0
330
AF
100
AcDbEntity
  8
0
100
AcDbBlockBegin
  2
BLOCK138
 70
     0
 10
0.0
 20
0.0
 30
0.0
  3
BLOCK138
  1

  0
LINE
  5
244
330
AF
100
AcDbEntity
  8
0
  6
DASHDOT
 62
     7
 48
0.10725
370
    25
100
AcDbLine
 10
51.181927
 20
16.436926
 30
0.0
 11
46.891926
 21
16.436926
 31
0.0
  0
LINE
  5
245
330
AF
100
AcDbEntity
  8
0
  6
DASHDOT
 62
     7
 48
0.10725
370
    25
100
AcDbLine
 10
49.036926
 20
18.581926
 30
0.0
 11
49.036926
 21
14.291926
 31
0.0
  0
ENDBLK
  5
B1
330
AF
100
AcDbEntity
  8
0
100
AcDbBlockEnd
  0
BLOCK
  5
B3
330
B2
100
AcDbEntity
  8
0
100
AcDbBlockBegin
  2
BLOCK139
 70
     0
 10
0.0
 20
0.0
 30
0.0
  3
BLOCK139
  1

  0
LINE
  5
246
330
B2
100
AcDbEntity
  8
0
  6
DASHDOT
 62
     7
 48
0.10725
370
    25
100
AcDbLine
 10
-13.340638
 20
46.608204
 30
0.0
 11
-17.630638
 21
46.608204
 31
0.0
  0
LINE
  5
247
330
B2
100
AcDbEntity
  8
0
  6
DASHDOT
 62
     7
 48
0.10725
370
    25
100
AcDbLine
 10
-15.485639
 20
48.753204
 30
0.0
 11
-15.485639
 21
44.463203
 31
0.0
  0
ENDBLK
  5
B4
330
B2
100
AcDbEntity
  8
0
100
AcDbBlockEnd
  0
BLOCK
  5
B6
330
B5
100
AcDbEntity
  8
0
100
AcDbBlockBegin
  2
BLOCK140
 70
     0
 10
0.0
 20
0.0
 30
0.0
  3
BLOCK140
  1

  0
LINE
  5
248
330
B5
100
AcDbEntity
  8
0
  6
DASHDOT
 62
     7
370
    25
100
AcDbLine
 10
22.588024
 20
31.122564
 30
0.0
 11
-22.588024
 21
31.122564
 31
0.0
  0
LINE
  5
249
330
B5
100
AcDbEntity
  8
0
  6
DASHDOT
 62
     7
370
    25
100
AcDbLine
 10
0.0
 20
53.71059
 30
0.0
 11
0.0
 21
-108.069221
 31
0.0
  0
ENDBLK
  5
B7
330
B5
100
AcDbEntity
  8
0
100
AcDbBlockEnd
  0
BLOCK
  5
B9
330
B8
100
AcDbEntity
  8
0
100
AcDbBlockBegin
  2
BLOCK141
 70
     0
 10
0.0
 20
0.0
 30
0.0
  3
BLOCK141
  1

  0
LINE
  5
24A
330
B8
100
AcDbEntity
  8
0
  6
DASHDOT
 62
     7
 48
0.10725
370
    25
100
AcDbLine
 10
17.630638
 20
15.636926
 30
0.0
 11
13.340638
 21
15.636926
 31
0.0
  0
LINE
  5
24B
330
B8
100
AcDbEntity
  8
0
  6
DASHDOT
 62
     7
 48
0.10725
370
    25
100
AcDbLine
 10
15.485639
 20
17.781925
 30
0.0
 11
15.485639
 21
13.491926
 31
0.0
  0
ENDBLK
  5
BA
330
B8
100
AcDbEntity
  8
0
100
AcDbBlockEnd
  0
BLOCK
  5
BC
330
BB
100
AcDbEntity
  8
0
100
AcDbBlockBegin
  2
BLOCK142
 70
     0
 10
0.0
 20
0.0
 30
0.0
  3
BLOCK142
  1

  0
LINE
  5
24C
330
BB
100
AcDbEntity
  8
0
  6
DASHDOT
 62
     7
 48
0.10725
370
    25
100
AcDbLine
 10
-13.340638
 20
15.636926
 30
0.0
 11
-17.630638
 21
15.636926
 31
0.0
  0
LINE
  5
24D
330
BB
100
AcDbEntity
  8
0
  6
DASHDOT
 62
     7
 48
0.10725
370
    25
100
AcDbLine
 10
-15.485639
 20
17.781925
 30
0.0
 11
-15.485639
 21
13.491926
 31
0.0
  0
ENDBLK
  5
BD
330
BB
100
AcDbEntity
  8
0
100
AcDbBlockEnd
  0
BLOCK
  5
BF
330
BE
100
AcDbEntity
  8
0
100
AcDbBlockBegin
  2
BLOCK143
 70
     0
 10
0.0
 20
0.0
 30
0.0
  3
BLOCK143
  1

  0
LINE
  5
24E
330
BE
100
AcDbEntity
  8
0
  6
DASHDOT
 62
     7
 48
0.10725
370
    25
100
AcDbLine
 10
-46.891926
 20
16.436926
 30
0.0
 11
-51.181927
 21
16.436926
 31
0.0
  0
LINE
  5
24F
330
BE
100
AcDbEntity
  8
0
  6
DASHDOT
 62
     7
 48
0.10725
370
    25
100
AcDbLine
 10
-49.036926
 20
18.581926
 30
0.0
 11
-49.036926
 21
14.291926
 31
0.0
  0
ENDBLK
  5
C0
330
BE
100
AcDbEntity
  8
0
100
AcDbBlockEnd
  0
BLOCK
  5
C2
330
C1
100
AcDbEntity
  8
0
100
AcDbBlockBegin
  2
BLOCK144
 70
     0
 10
0.0
 20
0.0
 30
0.0
  3
BLOCK144
  1

  0
LINE
  5
250
330
C1
100
AcDbEntity
  8
0
  6
DASHDOT
 62
     7
 48
0.076375
370
    25
100
AcDbLine
 10
17.0275
 20
-13.1
 30
0.0
 11
13.9725
 21
-13.1
 31
0.0
  0
LINE
  5
251
330
C1
100
AcDbEntity
  8
0
  6
DASHDOT
 62
     7
 48
0.076375
370
    25
100
AcDbLine
 10
15.5
 20
-11.5725
 30
0.0
 11
15.5
 21
-14.6275
 31
0.0
  0
ENDBLK
  5
C3
330
C1
100
AcDbEntity
  8
0
100
AcDbBlockEnd
  0
BLOCK
  5
C5
330
C4
100
AcDbEntity
  8
0
100
AcDbBlockBegin
  2
BLOCK145
 70
     0
 10
0.0
 20
0.0
 30
0.0
  3
BLOCK145
  1

  0
LINE
  5
252
330
C4
100
AcDbEntity
  8
0
  6
DASHDOT
 62
     7
 48
0.076375
370
    25
100
AcDbLine
 10
17.0275
 20
-96.0
 30
0.0
 11
13.9725
 21
-96.0
 31
0.0
  0
LINE
  5
253
330
C4
100
AcDbEntity
  8
0
  6
DASHDOT
 62
     7
370
    25
100
AcDbLine
 10
15.5
 20
-13.318218
 30
0.0
 11
15.5
 21
-97.527496
 31
0.0
  0
ENDBLK
  5
C6
330
C4
100
AcDbEntity
  8
0
100
AcDbBlockEnd
  0
BLOCK
  5
C8
330
C7
100
AcDbEntity
  8
0
100
AcDbBlockBegin
  2
BLOCK146
 70
     0
 10
0.0
 20
0.0
 30
0.0
  3
BLOCK146
  1

  0
LINE
  5
254
330
C7
100
AcDbEntity
  8
0
  6
DASHDOT
 62
     7
 48
0.076375
370
    25
100
AcDbLine
 10
7.5275
 20
-96.0
 30
0.0
 11
4.4725
 21
-96.0
 31
0.0
  0
LINE
  5
255
330
C7
100
AcDbEntity
  8
0
  6
DASHDOT
 62
     7
370
    25
100
AcDbLine
 10
6.0
 20
-11.015942
 30
0.0
 11
6.0
 21
-97.527496
 31
0.0
  0
ENDBLK
  5
C9
330
C7
100
AcDbEntity
  8
0
100
AcDbBlockEnd
  0
BLOCK
  5
CB
330
CA
100
AcDbEntity
  8
0
100
AcDbBlockBegin
  2
BLOCK147
 70
     0
 10
0.0
 20
0.0
 30
0.0
  3
BLOCK147
  1

  0
LINE
  5
256
330
CA
100
AcDbEntity
  8
0
  6
DASHDOT
 62
     7
 48
0.076375
370
    25
100
AcDbLine
 10
7.5275
 20
-13.1
 30
0.0
 11
4.4725
 21
-13.1
 31
0.0
  0
LINE
  5
257
330
CA
100
AcDbEntity
  8
0
  6
DASHDOT
 62
     7
 48
0.076375
370
    25
100
AcDbLine
 10
6.0
 20
-11.5725
 30
0.0
 11
6.0
 21
-14.6275
 31
0.0
  0
ENDBLK
  5
CC
330
CA
100
AcDbEntity
  8
0
100
AcDbBlockEnd
  0
BLOCK
  5
CE
330
CD
100
AcDbEntity
  8
0
100
AcDbBlockBegin
  2
BLOCK148
 70
     0
 10
0.0
 20
0.0
 30
0.0
  3
BLOCK148
  1

  0
LINE
  5
258
330
CD
100
AcDbEntity
  8
0
  6
DASHDOT
 62
     7
 48
0.076375
370
    25
100
AcDbLine
 10
-13.9725
 20
-96.0
 30
0.0
 11
-17.0275
 21
-96.0
 31
0.0
  0
LINE
  5
259
330
CD
100
AcDbEntity
  8
0
  6
DASHDOT
 62
     7
370
    25
100
AcDbLine
 10
-15.5
 20
-7.274792
 30
0.0
 11
-15.5
 21
-97.527496
 31
0.0
  0
ENDBLK
  5
CF
330
CD
100
AcDbEntity
  8
0
100
AcDbBlockEnd
  0
BLOCK
  5
D1
330
D0
100
AcDbEntity
  8
0
100
AcDbBlockBegin
  2
BLOCK149
 70
     0
 10
0.0
 20
0.0
 30
0.0
  3
BLOCK149
  1

  0
LINE
  5
25A
330
D0
100
AcDbEntity
  8
0
  6
DASHDOT
 62
     7
 48
0.076375
370
    25
100
AcDbLine
 10
-13.9725
 20
-13.1
 30
0.0
 11
-17.0275
 21
-13.1
 31
0.0
  0
LINE
  5
25B
330
D0
100
AcDbEntity
  8
0
  6
DASHDOT
 62
     7
 48
0.076375
370
    25
100
AcDbLine
 10
-15.5
 20
-11.5725
 30
0.0
 11
-15.5
 21
-14.6275
 31
0.0
  0
ENDBLK
  5
D2
330
D0
100
AcDbEntity
  8
0
100
AcDbBlockEnd
  0
BLOCK
  5
D4
330
D3
100
AcDbEntity
  8
0
100
AcDbBlockBegin
  2
BLOCK150
 70
     0
 10
0.0
 20
0.0
 30
0.0
  3
BLOCK150
  1

  0
LINE
  5
25C
330
D3
100
AcDbEntity
  8
0
  6
DASHDOT
 62
     7
 48
0.076375
370
    25
100
AcDbLine
 10
-4.4725
 20
-13.1
 30
0.0
 11
-7.5275
 21
-13.1
 31
0.0
  0
LINE
  5
25D
330
D3
100
AcDbEntity
  8
0
  6
DASHDOT
 62
     7
 48
0.076375
370
    25
100
AcDbLine
 10
-6.0
 20
-11.5725
 30
0.0
 11
-6.0
 21
-14.6275
 31
0.0
  0
ENDBLK
  5
D5
330
D3
100
AcDbEntity
  8
0
100
AcDbBlockEnd
  0
BLOCK
  5
D7
330
D6
100
AcDbEntity
  8
0
100
AcDbBlockBegin
  2
BLOCK151
 70
     0
 10
0.0
 20
0.0
 30
0.0
  3
BLOCK151
  1

  0
LINE
  5
25E
330
D6
100
AcDbEntity
  8
0
  6
DASHDOT
 62
     7
 48
0.076375
370
    25
100
AcDbLine
 10
-4.4725
 20
-96.0
 30
0.0
 11
-7.5275
 21
-96.0
 31
0.0
  0
LINE
  5
25F
330
D6
100
AcDbEntity
  8
0
  6
DASHDOT
 62
     7
370
    25
100
AcDbLine
 10
-6.0
 20
-10.608105
 30
0.0
 11
-6.0
 21
-97.527496
 31
0.0
  0
ENDBLK
  5
D8
330
D6
100
AcDbEntity
  8
0
100
AcDbBlockEnd
  0
BLOCK
  5
DA
330
D9
100
AcDbEntity
  8
0
100
AcDbBlockBegin
  2
BLOCK152
 70
     0
 10
0.0
 20
0.0
 30
0.0
  3
BLOCK152
  1

  0
LINE
  5
260
330
D9
100
AcDbEntity
  8
0
  6
DASHDOT
 62
     7
 48
0.10725
370
    25
100
AcDbLine
 10
17.002382
 20
48.124947
 30
0.0
 11
13.968894
 21
45.091457
 31
0.0
  0
CIRCLE
  5
261
330
D9
100
AcDbEntity
  8
0
  6
DASHDOT
 62
     7
370
    25
100
AcDbCircle
 10
0.0
 20
31.122564
 30
0.0
 40
21.89999961853027
  0
ENDBLK
  5
DB
330
D9
100
AcDbEntity
  8
0
100
AcDbBlockEnd
  0
BLOCK
  5
DD
330
DC
100
AcDbEntity
  8
0
100
AcDbBlockBegin
  2
BLOCK153
 70
     0
 10
0.0
 20
0.0
 30
0.0
  3
BLOCK153
  1

  0
LINE
  5
262
330
DC
100
AcDbEntity
  8
0
  6
DASHDOT
 62
     7
 48
0.26
370
    25
100
AcDbLine
 10
58.222565
 20
-7.0
 30
0.0
 11
47.822563
 21
-7.0
 31
0.0
  0
LINE
  5
263
330
DC
100
AcDbEntity
  8
0
  6
DASHDOT
 62
     7
 48
0.26
370
    25
100
AcDbLine
 10
53.022564
 20
-1.8
 30
0.0
 11
53.022564
 21
-12.2
 31
0.0
  0
ENDBLK
  5
DE
330
DC
100
AcDbEntity
  8
0
100
AcDbBlockEnd
  0
BLOCK
  5
E0
330
DF
100
AcDbEntity
  8
0
100
AcDbBlockBegin
  2
BLOCK154
 70
     0
 10
0.0
 20
0.0
 30
0.0
  3
BLOCK154
  1

  0
LINE
  5
264
330
DF
100
AcDbEntity
  8
0
  6
DASHDOT
 62
     7
 48
0.26
370
    25
100
AcDbLine
 10
41.222565
 20
-94.5
 30
0.0
 11
30.822565
 21
-94.5
 31
0.0
  0
LINE
  5
265
330
DF
100
AcDbEntity
  8
0
  6
DASHDOT
 62
     7
 48
0.26
370
    25
100
AcDbLine
 10
36.022564
 20
-89.300003
 30
0.0
 11
36.022564
 21
-99.699997
 31
0.0
  0
ENDBLK
  5
E1
330
DF
100
AcDbEntity
  8
0
100
AcDbBlockEnd
  0
BLOCK
  5
E3
330
E2
100
AcDbEntity
  8
0
100
AcDbBlockBegin
  2
BLOCK155
 70
     0
 10
0.0
 20
0.0
 30
0.0
  3
BLOCK155
  1

  0
LINE
  5
266
330
E2
100
AcDbEntity
  8
0
  6
DASHDOT
 62
     7
 48
0.10725
370
    25
100
AcDbLine
 10
-10.855
 20
31.122564
 30
0.0
 11
-15.145
 21
31.122564
 31
0.0
  0
LINE
  5
267
330
E2
100
AcDbEntity
  8
0
  6
DASHDOT
 62
     7
 48
0.10725
370
    25
100
AcDbLine
 10
-13.0
 20
33.267563
 30
0.0
 11
-13.0
 21
28.977564
 31
0.0
  0
ENDBLK
  5
E4
330
E2
100
AcDbEntity
  8
0
100
AcDbBlockEnd
  0
BLOCK
  5
E6
330
E5
100
AcDbEntity
  8
0
100
AcDbBlockBegin
  2
BLOCK156
 70
     0
 10
0.0
 20
0.0
 30
0.0
  3
BLOCK156
  1

  0
LINE
  5
268
330
E5
100
AcDbEntity
  8
0
  6
DASHDOT
 62
     7
 48
0.10725
370
    25
100
AcDbLine
 10
2.145
 20
18.122564
 30
0.0
 11
-2.145
 21
18.122564
 31
0.0
  0
LINE
  5
269
330
E5
100
AcDbEntity
  8
0
  6
DASHDOT
 62
     7
 48
0.10725
370
    25
100
AcDbLine
 10
0.0
 20
20.267565
 30
0.0
 11
0.0
 21
15.977565
 31
0.0
  0
ENDBLK
  5
E7
330
E5
100
AcDbEntity
  8
0
100
AcDbBlockEnd
  0
BLOCK
  5
E9
330
E8
100
AcDbEntity
  8
0
100
AcDbBlockBegin
  2
BLOCK157
 70
     0
 10
0.0
 20
0.0
 30
0.0
  3
BLOCK157
  1

  0
LINE
  5
26A
330
E8
100
AcDbEntity
  8
0
  6
DASHDOT
 62
     7
 48
0.10725
370
    25
100
AcDbLine
 10
15.145
 20
31.122564
 30
0.0
 11
10.855
 21
31.122564
 31
0.0
  0
LINE
  5
26B
330
E8
100
AcDbEntity
  8
0
  6
DASHDOT
 62
     7
 48
0.10725
370
    25
100
AcDbLine
 10
13.0
 20
33.267563
 30
0.0
 11
13.0
 21
28.977564
 31
0.0
  0
ENDBLK
  5
EA
330
E8
100
AcDbEntity
  8
0
100
AcDbBlockEnd
  0
BLOCK
  5
EC
330
EB
100
AcDbEntity
  8
0
100
AcDbBlockBegin
  2
BLOCK158
 70
     0
 10
0.0
 20
0.0
 30
0.0
  3
BLOCK158
  1

  0
LINE
  5
26C
330
EB
100
AcDbEntity
  8
0
  6
DASHDOT
 62
     7
 48
0.10725
370
    25
100
AcDbLine
 10
2.145
 20
44.122566
 30
0.0
 11
-2.145
 21
44.122566
 31
0.0
  0
LINE
  5
26D
330
EB
100
AcDbEntity
  8
0
  6
DASHDOT
 62
     7
 48
0.10725
370
    25
100
AcDbLine
 10
0.0
 20
46.267563
 30
0.0
 11
0.0
 21
41.977566
 31
0.0
  0
ENDBLK
  5
ED
330
EB
100
AcDbEntity
  8
0
100
AcDbBlockEnd
  0
BLOCK
  5
EF
330
EE
100
AcDbEntity
  8
0
100
AcDbBlockBegin
  2
BLOCK159
 70
     0
 10
0.0
 20
0.0
 30
0.0
  3
BLOCK159
  1

  0
CIRCLE
  5
26E
330
EE
100
AcDbEntity
  8
0
 62
     7
370
    50
100
AcDbCircle
 10
-13.0
 20
31.122564
 30
0.0
 40
1.65
  0
CIRCLE
  5
26F
330
EE
100
AcDbEntity
  8
0
 62
     7
370
    50
100
AcDbCircle
 10
0.0
 20
18.122564
 30
0.0
 40
1.65
  0
CIRCLE
  5
270
330
EE
100
AcDbEntity
  8
0
 62
     7
370
    50
100
AcDbCircle
 10
13.0
 20
31.122564
 30
0.0
 40
1.65
  0
ARC
  5
271
330
EE
100
AcDbEntity
  8
0
 62
     7
370
    50
100
AcDbCircle
 10
-13.9
 20
45.022564
 30
0.0
 40
8.0
100
AcDbArc
 50
90.0
 51
180.0
  0
LINE
  5
272
330
EE
100
AcDbEntity
  8
0
 62
     7
370
    50
100
AcDbLine
 10
-13.9
 20
53.022564
 30
0.0
 11
13.9
 21
53.022564
 31
0.0
  0
ARC
  5
273
330
EE
100
AcDbEntity
  8
0
 62
     7
370
    50
100
AcDbCircle
 10
13.9
 20
45.022564
 30
0.0
 40
8.0
100
AcDbArc
 50
0.0
 51
90.0
  0
LINE
  5
274
330
EE
100
AcDbEntity
  8
0
 62
     7
370
    50
100
AcDbLine
 10
21.9
 20
1.622564
 30
0.0
 11
21.9
 21
45.022564
 31
0.0
  0
LINE
  5
275
330
EE
100
AcDbEntity
  8
0
  6
DASHDOT
 62
     7
370
    25
100
AcDbLine
 10
-21.9
 20
1.622564
 30
0.0
 11
21.9
 21
1.622564
 31
0.0
  0
LINE
  5
276
330
EE
100
AcDbEntity
  8
0
 62
     7
370
    50
100
AcDbLine
 10
-21.9
 20
1.622564
 30
0.0
 11
-21.9
 21
45.022564
 31
0.0
  0
CIRCLE
  5
277
330
EE
100
AcDbEntity
  8
0
 62
     7
370
    50
100
AcDbCircle
 10
0.0
 20
44.122564
 30
0.0
 40
1.65
  0
CIRCLE
  5
278
330
EE
100
AcDbEntity
  8
0
 62
     7
370
    50
100
AcDbCircle
 10
15.485639
 20
46.608203
 30
0.0
 40
1.649999999999999
  0
CIRCLE
  5
279
330
EE
100
AcDbEntity
  8
0
 62
     7
370
    50
100
AcDbCircle
 10
0.0
 20
31.122564
 30
0.0
 40
11.0
  0
CIRCLE
  5
27A
330
EE
100
AcDbEntity
  8
0
 62
     7
370
    50
100
AcDbCircle
 10
-15.485639
 20
46.608203
 30
0.0
 40
1.649999999999999
  0
CIRCLE
  5
27B
330
EE
100
AcDbEntity
  8
0
 62
     7
370
    50
100
AcDbCircle
 10
-15.485639
 20
15.636926
 30
0.0
 40
1.649999999999999
  0
CIRCLE
  5
27C
330
EE
100
AcDbEntity
  8
0
 62
     7
370
    50
100
AcDbCircle
 10
15.485639
 20
15.636926
 30
0.0
 40
1.649999999999999
  0
CIRCLE
  5
27D
330
EE
100
AcDbEntity
  8
0
 62
     7
370
    50
100
AcDbCircle
 10
49.036926
 20
16.436926
 30
0.0
 40
1.65
  0
ARC
  5
27E
330
EE
100
AcDbEntity
  8
0
 62
     7
370
    50
100
AcDbCircle
 10
49.022564
 20
14.022564
 30
0.0
 40
8.0
100
AcDbArc
 50
0.0
 51
90.0
  0
LINE
  5
27F
330
EE
100
AcDbEntity
  8
0
 62
     7
370
    50
100
AcDbLine
 10
49.022564
 20
22.022564
 30
0.0
 11
43.022564
 21
22.022564
 31
0.0
  0
ARC
  5
280
330
EE
100
AcDbEntity
  8
0
 62
     7
370
    50
100
AcDbCircle
 10
43.022564
 20
14.022564
 30
0.0
 40
8.0
100
AcDbArc
 50
90.0
 51
180.0
  0
LINE
  5
281
330
EE
100
AcDbEntity
  8
0
 62
     7
370
    50
100
AcDbLine
 10
35.022564
 20
14.022564
 30
0.0
 11
35.022564
 21
0.022564
 31
0.0
  0
LINE
  5
282
330
EE
100
AcDbEntity
  8
0
  6
DASHDOT
 62
     7
370
    25
100
AcDbLine
 10
57.022564
 20
0.022564
 30
0.0
 11
35.022564
 21
0.022564
 31
0.0
  0
LINE
  5
283
330
EE
100
AcDbEntity
  8
0
 62
     7
370
    50
100
AcDbLine
 10
57.022564
 20
14.022564
 30
0.0
 11
57.022564
 21
0.022564
 31
0.0
  0
LINE
  5
284
330
EE
100
AcDbEntity
  8
0
  6
DASHDOT
 62
     7
370
    25
100
AcDbLine
 10
-21.9
 20
-1.5
 30
0.0
 11
21.9
 21
-1.5
 31
0.0
  0
LINE
  5
285
330
EE
100
AcDbEntity
  8
0
 62
     7
370
    50
100
AcDbLine
 10
-21.9
 20
1.622564
 30
0.0
 11
-21.9
 21
-1.5
 31
0.0
  0
LINE
  5
286
330
EE
100
AcDbEntity
  8
0
 62
     7
370
    50
100
AcDbLine
 10
21.9
 20
1.622564
 30
0.0
 11
21.9
 21
-1.5
 31
0.0
  0
LINE
  5
287
330
EE
100
AcDbEntity
  8
0
 62
     7
370
    50
100
AcDbLine
 10
21.9
 20
-3.1
 30
0.0
 11
21.9
 21
-1.5
 31
0.0
  0
LINE
  5
288
330
EE
100
AcDbEntity
  8
0
 62
     7
370
    50
100
AcDbLine
 10
-21.9
 20
-3.1
 30
0.0
 11
-21.9
 21
-1.5
 31
0.0
  0
CIRCLE
  5
289
330
EE
100
AcDbEntity
  8
0
 62
     7
370
    50
100
AcDbCircle
 10
-49.036926
 20
16.436926
 30
0.0
 40
1.65
  0
LINE
  5
28A
330
EE
100
AcDbEntity
  8
0
  6
DASHDOT
 62
     7
370
    25
100
AcDbLine
 10
-35.022564
 20
0.022564
 30
0.0
 11
-57.022564
 21
0.022564
 31
0.0
  0
LINE
  5
28B
330
EE
100
AcDbEntity
  8
0
 62
     7
370
    50
100
AcDbLine
 10
-35.022564
 20
14.022564
 30
0.0
 11
-35.022564
 21
0.022564
 31
0.0
  0
ARC
  5
28C
330
EE
100
AcDbEntity
  8
0
 62
     7
370
    50
100
AcDbCircle
 10
-43.022564
 20
14.022564
 30
0.0
 40
8.0
100
AcDbArc
 50
0.0
 51
90.0
  0
LINE
  5
28D
330
EE
100
AcDbEntity
  8
0
 62
     7
370
    50
100
AcDbLine
 10
-43.022564
 20
22.022564
 30
0.0
 11
-49.022564
 21
22.022564
 31
0.0
  0
ARC
  5
28E
330
EE
100
AcDbEntity
  8
0
 62
     7
370
    50
100
AcDbCircle
 10
-49.022564
 20
14.022564
 30
0.0
 40
8.0
100
AcDbArc
 50
90.0
 51
180.0
  0
LINE
  5
28F
330
EE
100
AcDbEntity
  8
0
 62
     7
370
    50
100
AcDbLine
 10
-57.022564
 20
14.022564
 30
0.0
 11
-57.022564
 21
0.022564
 31
0.0
  0
LINE
  5
290
330
EE
100
AcDbEntity
  8
0
 62
     7
370
    50
100
AcDbLine
 10
-21.9
 20
-3.1
 30
0.0
 11
-31.9
 21
-3.1
 31
0.0
  0
ARC
  5
291
330
EE
100
AcDbEntity
  8
0
 62
     7
370
    50
100
AcDbCircle
 10
15.5
 20
-13.1
 30
0.0
 40
1.175000000000001
100
AcDbArc
 50
0.0
 51
180.0
  0
LINE
  5
292
330
EE
100
AcDbEntity
  8
0
 62
     7
370
    50
100
AcDbLine
 10
14.325
 20
-96.0
 30
0.0
 11
14.325
 21
-13.1
 31
0.0
  0
LINE
  5
293
330
EE
100
AcDbEntity
  8
0
 62
     7
370
    50
100
AcDbLine
 10
16.675
 20
-13.1
 30
0.0
 11
16.675
 21
-96.0
 31
0.0
  0
ARC
  5
294
330
EE
100
AcDbEntity
  8
0
 62
     7
370
    50
100
AcDbCircle
 10
15.5
 20
-96.0
 30
0.0
 40
1.174999999999999
100
AcDbArc
 50
180.0
 51
0.0
  0
LINE
  5
295
330
EE
100
AcDbEntity
  8
0
 62
     7
370
    50
100
AcDbLine
 10
4.825
 20
-13.1
 30
0.0
 11
4.825
 21
-96.0
 31
0.0
  0
ARC
  5
296
330
EE
100
AcDbEntity
  8
0
 62
     7
370
    50
100
AcDbCircle
 10
6.0
 20
-96.0
 30
0.0
 40
1.174999999999998
100
AcDbArc
 50
180.0
 51
0.0
  0
ARC
  5
297
330
EE
100
AcDbEntity
  8
0
 62
     7
370
    50
100
AcDbCircle
 10
6.0
 20
-13.1
 30
0.0
 40
1.175
100
AcDbArc
 50
0.0
 51
180.0
  0
LINE
  5
298
330
EE
100
AcDbEntity
  8
0
 62
     7
370
    50
100
AcDbLine
 10
7.175
 20
-96.0
 30
0.0
 11
7.175
 21
-13.1
 31
0.0
  0
LINE
  5
299
330
EE
100
AcDbEntity
  8
0
 62
     7
370
    50
100
AcDbLine
 10
-16.675
 20
-13.1
 30
0.0
 11
-16.675
 21
-96.0
 31
0.0
  0
ARC
  5
29A
330
EE
100
AcDbEntity
  8
0
 62
     7
370
    50
100
AcDbCircle
 10
-15.5
 20
-96.0
 30
0.0
 40
1.174999999999999
100
AcDbArc
 50
180.0
 51
0.0
  0
ARC
  5
29B
330
EE
100
AcDbEntity
  8
0
 62
     7
370
    50
100
AcDbCircle
 10
-15.5
 20
-13.1
 30
0.0
 40
1.175000000000001
100
AcDbArc
 50
0.0
 51
180.0
  0
LINE
  5
29C
330
EE
100
AcDbEntity
  8
0
 62
     7
370
    50
100
AcDbLine
 10
-14.325
 20
-96.0
 30
0.0
 11
-14.325
 21
-13.1
 31
0.0
  0
ARC
  5
29D
330
EE
100
AcDbEntity
  8
0
 62
     7
370
    50
100
AcDbCircle
 10
-6.0
 20
-13.1
 30
0.0
 40
1.175
100
AcDbArc
 50
0.0
 51
180.0
  0
LINE
  5
29E
330
EE
100
AcDbEntity
  8
0
 62
     7
370
    50
100
AcDbLine
 10
-7.175
 20
-96.0
 30
0.0
 11
-7.175
 21
-13.1
 31
0.0
  0
LINE
  5
29F
330
EE
100
AcDbEntity
  8
0
 62
     7
370
    50
100
AcDbLine
 10
-4.825
 20
-13.1
 30
0.0
 11
-4.825
 21
-96.0
 31
0.0
  0
ARC
  5
2A0
330
EE
100
AcDbEntity
  8
0
 62
     7
370
    50
100
AcDbCircle
 10
-6.0
 20
-96.0
 30
0.0
 40
1.174999999999998
100
AcDbArc
 50
180.0
 51
0.0
  0
LINE
  5
2A1
330
EE
100
AcDbEntity
  8
0
 62
     7
370
    50
100
AcDbLine
 10
-35.022564
 20
-3.1
 30
0.0
 11
-31.9
 21
-3.1
 31
0.0
  0
ARC
  5
2A2
330
EE
100
AcDbEntity
  8
0
 62
     7
370
    50
100
AcDbCircle
 10
-53.022564
 20
-7.0
 30
0.0
 40
4.0
100
AcDbArc
 50
180.0
 51
190.994777
  0
LINE
  5
2A3
330
EE
100
AcDbEntity
  8
0
 62
     7
370
    50
100
AcDbLine
 10
-57.022564
 20
-7.0
 30
0.0
 11
-57.022564
 21
-3.1
 31
0.0
  0
LINE
  5
2A4
330
EE
100
AcDbEntity
  8
0
 62
     7
370
    50
100
AcDbLine
 10
-57.022564
 20
-3.1
 30
0.0
 11
-57.022564
 21
0.022564
 31
0.0
  0
LINE
  5
2A5
330
EE
100
AcDbEntity
  8
0
 62
     7
370
    50
100
AcDbLine
 10
-35.022564
 20
-3.1
 30
0.0
 11
-35.022564
 21
0.022564
 31
0.0
  0
LINE
  5
2A6
330
EE
100
AcDbEntity
  8
0
  6
DASHDOT
 62
     7
370
    25
100
AcDbLine
 10
-35.022564
 20
-3.1
 30
0.0
 11
-57.022564
 21
-3.1
 31
0.0
  0
LINE
  5
2A7
330
EE
100
AcDbEntity
  8
0
 62
     7
370
    50
100
AcDbLine
 10
-56.949143
 20
-7.762878
 30
0.0
 11
-39.949143
 21
-95.262878
 31
0.0
  0
ARC
  5
2A8
330
EE
100
AcDbEntity
  8
0
 62
     7
370
    50
100
AcDbCircle
 10
-36.022564
 20
-94.5
 30
0.0
 40
4.0
100
AcDbArc
 50
190.994777
 51
269.990724
  0
LINE
  5
2A9
330
EE
100
AcDbEntity
  8
0
 62
     7
370
    50
100
AcDbLine
 10
-36.023212
 20
-98.5
 30
0.0
 11
-35.022564
 21
-98.5
 31
0.0
  0
LINE
  5
2AA
330
EE
100
AcDbEntity
  8
0
  6
DASHDOT
 62
     7
370
    25
100
AcDbLine
 10
-35.022564
 20
-3.1
 30
0.0
 11
-35.022564
 21
-98.5
 31
0.0
  0
LINE
  5
2AB
330
EE
100
AcDbEntity
  8
0
  6
DASHDOT
 62
     7
370
    25
100
AcDbLine
 10
-31.9
 20
-3.1
 30
0.0
 11
-31.9
 21
-98.5
 31
0.0
  0
LINE
  5
2AC
330
EE
100
AcDbEntity
  8
0
 62
     7
370
    50
100
AcDbLine
 10
-35.022564
 20
-98.5
 30
0.0
 11
-31.9
 21
-98.5
 31
0.0
  0
LINE
  5
2AD
330
EE
100
AcDbEntity
  8
0
 62
     7
370
    50
100
AcDbLine
 10
-31.9
 20
-98.5
 30
0.0
 11
31.9
 21
-98.5
 31
0.0
  0
LINE
  5
2AE
330
EE
100
AcDbEntity
  8
0
  6
DASHDOT
 62
     7
370
    25
100
AcDbLine
 10
31.9
 20
-98.5
 30
0.0
 11
31.9
 21
-3.1
 31
0.0
  0
LINE
  5
2AF
330
EE
100
AcDbEntity
  8
0
 62
     7
370
    50
100
AcDbLine
 10
31.9
 20
-3.1
 30
0.0
 11
21.9
 21
-3.1
 31
0.0
  0
LINE
  5
2B0
330
EE
100
AcDbEntity
  8
0
 62
     7
370
    50
100
AcDbLine
 10
31.9
 20
-3.1
 30
0.0
 11
35.022564
 21
-3.1
 31
0.0
  0
LINE
  5
2B1
330
EE
100
AcDbEntity
  8
0
  6
DASHDOT
 62
     7
370
    25
100
AcDbLine
 10
35.022564
 20
-98.5
 30
0.0
 11
35.022564
 21
-3.1
 31
0.0
  0
LINE
  5
2B2
330
EE
100
AcDbEntity
  8
0
 62
     7
370
    50
100
AcDbLine
 10
31.9
 20
-98.5
 30
0.0
 11
35.022564
 21
-98.5
 31
0.0
  0
LINE
  5
2B3
330
EE
100
AcDbEntity
  8
0
 62
     7
370
    50
100
AcDbLine
 10
36.023212
 20
-98.5
 30
0.0
 11
35.022564
 21
-98.5
 31
0.0
  0
ARC
  5
2B4
330
EE
100
AcDbEntity
  8
0
 62
     7
370
    50
100
AcDbCircle
 10
36.022564
 20
-94.5
 30
0.0
 40
4.0
100
AcDbArc
 50
270.009276
 51
349.005223
  0
LINE
  5
2B5
330
EE
100
AcDbEntity
  8
0
 62
     7
370
    50
100
AcDbLine
 10
39.949143
 20
-95.262878
 30
0.0
 11
56.949143
 21
-7.762878
 31
0.0
  0
ARC
  5
2B6
330
EE
100
AcDbEntity
  8
0
 62
     7
370
    50
100
AcDbCircle
 10
53.022564
 20
-7.0
 30
0.0
 40
4.0
100
AcDbArc
 50
349.005223
 51
360.0
  0
LINE
  5
2B7
330
EE
100
AcDbEntity
  8
0
 62
     7
370
    50
100
AcDbLine
 10
57.022564
 20
-7.0
 30
0.0
 11
57.022564
 21
-3.1
 31
0.0
  0
LINE
  5
2B8
330
EE
100
AcDbEntity
  8
0
  6
DASHDOT
 62
     7
370
    25
100
AcDbLine
 10
57.022564
 20
-3.1
 30
0.0
 11
35.022564
 21
-3.1
 31
0.0
  0
LINE
  5
2B9
330
EE
100
AcDbEntity
  8
0
 62
     7
370
    50
100
AcDbLine
 10
57.022564
 20
-3.1
 30
0.0
 11
57.022564
 21
0.022564
 31
0.0
  0
LINE
  5
2BA
330
EE
100
AcDbEntity
  8
0
 62
     7
370
    50
100
AcDbLine
 10
35.022564
 20
-3.1
 30
0.0
 11
35.022564
 21
0.022564
 31
0.0
  0
ENDBLK
  5
F0
330
EE
100
AcDbEntity
  8
0
100
AcDbBlockEnd
  0
ENDSEC
  0
SECTION
  2
ENTITIES
  0
INSERT
  5
2BB
330
1F
100
AcDbEntity
  8
0
370
     0
100
AcDbBlockReference
  2
BLOCK137
 10
477.716094
 20
312.123622
 30
0.0
  0
DIMENSION
  5
2BC
102
{ACAD_XDICTIONARY
360
2BD
102
}
330
1F
100
AcDbEntity
  8
0
 62
     0
370
     0
100
AcDbDimension
  2
*D2
 10
420.69353
 20
398.520965
 30
0.0
 11
477.716094
 21
398.520965
 31
0.0
 70
   161
 71
     5
 42
-1.0
 73
     0
 74
     0
 75
     0
 52
5156.620156
  3
STANDARD
100
AcDbAlignedDimension
 13
534.738658
 23
326.146186
 33
0.0
 14
420.69353
 24
326.146186
 34
0.0
  0
DIMENSION
  5
2BE
102
{ACAD_XDICTIONARY
360
2BF
102
}
330
1F
100
AcDbEntity
  8
0
 62
     0
370
     0
100
AcDbDimension
  2
*D3
 10
390.132721
 20
365.146186
 30
0.0
 11
390.132721
 21
289.384904
 31
0.0
 70
   160
 71
     5
 42
-1.0
 73
     0
 74
     0
 75
     0
 52
5156.620156
  3
STANDARD
100
AcDbAlignedDimension
 13
445.816094
 23
213.623622
 33
0.0
 14
463.816094
 24
365.146186
 34
0.0
 50
90.0
100
AcDbRotatedDimension
  0
DIMENSION
  5
2C0
102
{ACAD_XDICTIONARY
360
2C1
102
}
330
1F
100
AcDbEntity
  8
0
 62
     0
370
     0
100
AcDbDimension
  2
*D4
 10
420.69353
 20
379.658599
 30
0.0
 11
431.69353
 21
379.658599
 31
0.0
 70
   161
 71
     5
 42
-1.0
 73
     0
 74
     0
 75
     0
 52
5156.620156
  3
STANDARD
100
AcDbAlignedDimension
 13
442.69353
 23
326.146186
 33
0.0
 14
420.69353
 24
326.146186
 34
0.0
  0
DIMENSION
  5
2C2
102
{ACAD_XDICTIONARY
360
2C3
102
}
330
1F
100
AcDbEntity
  8
0
 62
     0
370
     0
100
AcDbDimension
  2
*D5
 10
512.738658
 20
379.658599
 30
0.0
 11
523.738658
 21
379.658599
 31
0.0
 70
   161
 71
     5
 42
-1.0
 73
     0
 74
     0
 75
     0
 52
5156.620156
  3
STANDARD
100
AcDbAlignedDimension
 13
534.738658
 23
326.146186
 33
0.0
 14
512.738658
 24
326.146186
 34
0.0
  0
DIMENSION
  5
2C4
102
{ACAD_XDICTIONARY
360
2C5
102
}
330
1F
100
AcDbEntity
  8
0
 62
     0
370
     0
100
AcDbDimension
  2
*D6
 10
455.816094
 20
387.37503
 30
0.0
 11
438.254812
 21
387.37503
 31
0.0
 70
   160
 71
     5
 42
-1.0
 73
     0
 74
     0
 75
     0
 52
5156.620156
  3
STANDARD
100
AcDbAlignedDimension
 13
420.69353
 23
326.146186
 33
0.0
 14
455.816094
 24
357.146186
 34
0.0
 50
360.0
100
AcDbRotatedDimension
  0
DIMENSION
  5
2C6
102
{ACAD_XDICTIONARY
360
2C7
102
}
330
1F
100
AcDbEntity
  8
0
 62
     0
370
     0
100
AcDbDimension
  2
*D7
 10
455.816094
 20
387.37503
 30
0.0
 11
477.716094
 21
387.37503
 31
0.0
 70
   161
 71
     5
 42
-1.0
 73
     0
 74
     0
 75
     0
 52
5156.620156
  3
STANDARD
100
AcDbAlignedDimension
 13
499.616094
 23
357.146186
 33
0.0
 14
455.816094
 24
357.146186
 34
0.0
  0
DIMENSION
  5
2C8
102
{ACAD_XDICTIONARY
360
2C9
102
}
330
1F
100
AcDbEntity
  8
0
 62
     0
370
     0
100
AcDbDimension
  2
*D8
 10
455.816094
 20
379.658599
 30
0.0
 11
466.766094
 21
379.658599
 31
0.0
 70
   160
 71
     5
 42
-1.0
 73
     0
 74
     0
 75
     0
 52
5156.620156
  3
STANDARD
100
AcDbAlignedDimension
 13
477.716094
 23
343.246186
 33
0.0
 14
455.816094
 24
357.146186
 34
0.0
 50
180.0
100
AcDbRotatedDimension
  0
DIMENSION
  5
2CA
102
{ACAD_XDICTIONARY
360
2CB
102
}
330
1F
100
AcDbEntity
  8
0
 62
     0
370
     0
100
AcDbDimension
  2
*D9
 10
408.423492
 20
309.023622
 30
0.0
 11
408.423492
 21
255.569587
 31
0.0
 70
   161
  1
2x <>
 71
     5
 42
-1.0
 73
     0
 74
     0
 75
     0
 52
5156.620156
  3
STANDARD
100
AcDbAlignedDimension
 13
445.816094
 23
213.623622
 33
0.0
 14
445.816094
 24
309.023622
 34
0.0
  0
DIMENSION
  5
2CC
102
{ACAD_XDICTIONARY
360
2CD
102
}
330
1F
100
AcDbEntity
  8
0
 62
     0
370
     0
100
AcDbDimension
  2
*D10
 10
399.278107
 20
213.623622
 30
0.0
 11
399.278107
 21
268.13087
 31
0.0
 70
   160
  1
2x <>
 71
     5
 42
-1.0
 73
     0
 74
     0
 75
     0
 52
5156.620156
  3
STANDARD
100
AcDbAlignedDimension
 13
428.69353
 23
334.146186
 33
0.0
 14
445.816094
 24
213.623622
 34
0.0
 50
270.0
100
AcDbRotatedDimension
  0
DIMENSION
  5
2CE
102
{ACAD_XDICTIONARY
360
2CF
102
}
330
1F
100
AcDbEntity
  8
0
 62
     0
370
     0
100
AcDbDimension
  2
*D11
 10
420.69353
 20
350.001068
 30
0.0
 11
406.703472
 21
350.001068
 31
0.0
 70
   160
 71
     5
 42
-1.0
 73
     0
 74
     0
 75
     0
 52
5156.620156
  3
STANDARD
100
AcDbAlignedDimension
 13
428.679168
 23
328.560548
 33
0.0
 14
420.69353
 24
326.146186
 34
0.0
 50
180.0
100
AcDbRotatedDimension
  0
DIMENSION
  5
2D0
102
{ACAD_XDICTIONARY
360
2D1
102
}
330
1F
100
AcDbEntity
  8
0
 62
     0
370
     0
100
AcDbDimension
  2
*D12
 10
534.738658
 20
350.001068
 30
0.0
 11
548.728716
 21
350.001068
 31
0.0
 70
   160
 71
     5
 42
-1.0
 73
     0
 74
     0
 75
     0
 52
5156.620156
  3
STANDARD
100
AcDbAlignedDimension
 13
526.75302
 23
328.560548
 33
0.0
 14
534.738658
 24
326.146186
 34
0.0
 50
360.0
100
AcDbRotatedDimension
  0
DIMENSION
  5
2D2
102
{ACAD_XDICTIONARY
360
2D3
102
}
330
1F
100
AcDbEntity
  8
0
 62
     0
370
     0
100
AcDbDimension
  2
*D13
 10
570.597626
 20
343.246186
 30
0.0
 11
570.597626
 21
354.196186
 31
0.0
 70
   160
 71
     5
 42
-1.0
 73
     0
 74
     0
 75
     0
 52
5156.620156
  3
STANDARD
100
AcDbAlignedDimension
 13
491.616094
 23
365.146186
 33
0.0
 14
500.304119
 24
343.246186
 34
0.0
 50
270.0
100
AcDbRotatedDimension
  0
DIMENSION
  5
2D4
102
{ACAD_XDICTIONARY
360
2D5
102
}
330
1F
100
AcDbEntity
  8
0
 62
     0
370
     0
100
AcDbDimension
  2
*D14
 10
534.738658
 20
200.562439
 30
0.0
 11
549.998132
 21
200.562439
 31
0.0
 70
   160
  1
2x <>
 71
     5
 42
-1.0
 73
     0
 74
     0
 75
     0
 52
5156.620156
  3
STANDARD
100
AcDbAlignedDimension
 13
513.738658
 23
212.423622
 33
0.0
 14
534.738658
 24
312.146186
 34
0.0
 50
360.0
100
AcDbRotatedDimension
  0
DIMENSION
  5
2D6
102
{ACAD_XDICTIONARY
360
2D7
102
}
330
1F
100
AcDbEntity
  8
0
 62
     0
370
     0
100
AcDbDimension
  2
*D15
 10
546.494843
 20
213.623622
 30
0.0
 11
546.494843
 21
253.619587
 31
0.0
 70
   160
  1
2x <>
 71
     5
 42
-1.0
 73
     0
 74
     0
 75
     0
 52
5156.620156
  3
STANDARD
100
AcDbAlignedDimension
 13
535.938658
 23
305.123622
 33
0.0
 14
509.616094
 24
213.623622
 34
0.0
 50
270.0
100
AcDbRotatedDimension
  0
DIMENSION
  5
2D8
102
{ACAD_XDICTIONARY
360
2D9
102
}
330
1F
100
AcDbEntity
  8
0
 62
     0
370
     0
100
AcDbDimension
  2
*D16
 10
477.716094
 20
204.816589
 30
0.0
 11
471.198082
 21
204.816589
 31
0.0
 70
   160
 71
     5
 42
-1.0
 73
     0
 74
     0
 75
     0
 52
5156.620156
  3
STANDARD
100
AcDbAlignedDimension
 13
483.716094
 23
214.596122
 33
0.0
 14
477.716094
 24
204.054402
 34
0.0
 50
180.0
100
AcDbRotatedDimension
  0
DIMENSION
  5
2DA
102
{ACAD_XDICTIONARY
360
2DB
102
}
330
1F
100
AcDbEntity
  8
0
 62
     0
370
     0
100
AcDbDimension
  2
*D17
 10
483.716094
 20
197.33702
 30
0.0
 11
474.507111
 21
197.33702
 31
0.0
 70
   161
 71
     5
 42
-1.0
 73
     0
 74
     0
 75
     0
 52
5156.620156
  3
STANDARD
100
AcDbAlignedDimension
 13
493.216094
 23
214.596122
 33
0.0
 14
483.716094
 24
214.596122
 34
0.0
  0
DIMENSION
  5
2DC
102
{ACAD_XDICTIONARY
360
2DD
102
}
330
1F
100
AcDbEntity
  8
0
 62
     0
370
     0
100
AcDbDimension
  2
*D18
 10
477.716094
 20
186.393768
 30
0.0
 11
494.446735
 21
186.393768
 31
0.0
 70
   160
 71
     5
 42
-1.0
 73
     0
 74
     0
 75
     0
 52
5156.620156
  3
STANDARD
100
AcDbAlignedDimension
 13
511.177376
 23
204.083622
 33
0.0
 14
477.716094
 24
204.054402
 34
0.0
 50
180.0
100
AcDbRotatedDimension
  0
DIMENSION
  5
2DE
102
{ACAD_XDICTIONARY
360
2DF
102
}
330
1F
100
AcDbEntity
  8
0
 62
     0
370
     0
100
AcDbDimension
  2
*D19
 10
477.716094
 20
186.393768
 30
0.0
 11
460.985453
 21
186.393768
 31
0.0
 70
   160
 71
     5
 42
-1.0
 73
     0
 74
     0
 75
     0
 52
5156.620156
  3
STANDARD
100
AcDbAlignedDimension
 13
444.254812
 23
204.083622
 33
0.0
 14
477.716094
 24
204.054402
 34
0.0
 50
360.0
100
AcDbRotatedDimension
  0
DIMENSION
  5
2E0
102
{ACAD_XDICTIONARY
360
2E1
102
}
330
1F
100
AcDbEntity
  8
0
 62
     0
370
     0
100
AcDbDimension
  2
*D20
 10
557.489105
 20
213.623622
 30
0.0
 11
557.489105
 21
256.350228
 31
0.0
 70
   160
  1
2x <>
 71
     5
 42
-1.0
 73
     0
 74
     0
 75
     0
 52
5156.620156
  3
STANDARD
100
AcDbAlignedDimension
 13
536.938658
 23
310.584904
 33
0.0
 14
509.616094
 24
213.623622
 34
0.0
 50
270.0
100
AcDbRotatedDimension
  0
DIMENSION
  5
2E2
102
{ACAD_XDICTIONARY
360
2E3
102
}
330
1F
100
AcDbEntity
  8
0
 62
     0
370
     0
100
AcDbDimension
  2
*D21
 10
569.551727
 20
213.623622
 30
0.0
 11
569.551727
 21
262.904263
 31
0.0
 70
   160
 71
     5
 42
-1.0
 73
     0
 74
     0
 75
     0
 52
5156.620156
  3
STANDARD
100
AcDbAlignedDimension
 13
503.996094
 23
312.184904
 33
0.0
 14
509.616094
 24
213.623622
 34
0.0
 50
270.0
100
AcDbRotatedDimension
  0
LINE
  5
2E4
330
1F
100
AcDbEntity
  8
0
  6
DASHDOT
 62
     7
370
    25
100
AcDbLine
 10
444.254813
 20
318.563622
 30
0.0
 11
444.254813
 21
204.083621
 31
0.0
  0
LINE
  5
2E5
330
1F
100
AcDbEntity
  8
0
  6
DASHDOT
 62
     7
370
    25
100
AcDbLine
 10
511.177375
 20
204.083621
 30
0.0
 11
511.177375
 21
318.563622
 31
0.0
  0
LINE
  5
2E6
330
1F
100
AcDbEntity
  8
0
  6
DASHDOT
 62
     7
370
    25
100
AcDbLine
 10
443.248603
 20
310.584904
 30
0.0
 11
418.493529
 21
310.584904
 31
0.0
  0
LINE
  5
2E7
330
1F
100
AcDbEntity
  8
0
  6
DASHDOT
 62
     7
370
    25
100
AcDbLine
 10
536.938659
 20
310.584904
 30
0.0
 11
510.538657
 21
310.584904
 31
0.0
  0
LINE
  5
2E8
330
1F
100
AcDbEntity
  8
0
  6
DASHDOT
 62
     7
370
    25
100
AcDbLine
 10
451.436093
 20
312.184904
 30
0.0
 11
503.996095
 21
312.184904
 31
0.0
  0
INSERT
  5
2E9
330
1F
100
AcDbEntity
  8
0
370
     0
100
AcDbBlockReference
  2
BLOCK138
 10
477.716094
 20
312.123622
 30
0.0
  0
INSERT
  5
2EA
330
1F
100
AcDbEntity
  8
0
370
     0
100
AcDbBlockReference
  2
BLOCK139
 10
477.716094
 20
312.123622
 30
0.0
  0
INSERT
  5
2EB
330
1F
100
AcDbEntity
  8
0
370
     0
100
AcDbBlockReference
  2
BLOCK140
 10
477.716094
 20
312.123622
 30
0.0
  0
INSERT
  5
2EC
330
1F
100
AcDbEntity
  8
0
370
     0
100
AcDbBlockReference
  2
BLOCK141
 10
477.716094
 20
312.123622
 30
0.0
  0
INSERT
  5
2ED
330
1F
100
AcDbEntity
  8
0
370
     0
100
AcDbBlockReference
  2
BLOCK142
 10
477.716094
 20
312.123622
 30
0.0
  0
INSERT
  5
2EE
330
1F
100
AcDbEntity
  8
0
370
     0
100
AcDbBlockReference
  2
BLOCK143
 10
477.716094
 20
312.123622
 30
0.0
  0
INSERT
  5
2EF
330
1F
100
AcDbEntity
  8
0
370
     0
100
AcDbBlockReference
  2
BLOCK144
 10
477.716094
 20
312.123622
 30
0.0
  0
INSERT
  5
2F0
330
1F
100
AcDbEntity
  8
0
370
     0
100
AcDbBlockReference
  2
BLOCK145
 10
477.716094
 20
312.123622
 30
0.0
  0
INSERT
  5
2F1
330
1F
100
AcDbEntity
  8
0
370
     0
100
AcDbBlockReference
  2
BLOCK146
 10
477.716094
 20
312.123622
 30
0.0
  0
INSERT
  5
2F2
330
1F
100
AcDbEntity
  8
0
370
     0
100
AcDbBlockReference
  2
BLOCK147
 10
477.716094
 20
312.123622
 30
0.0
  0
INSERT
  5
2F3
330
1F
100
AcDbEntity
  8
0
370
     0
100
AcDbBlockReference
  2
BLOCK148
 10
477.716094
 20
312.123622
 30
0.0
  0
INSERT
  5
2F4
330
1F
100
AcDbEntity
  8
0
370
     0
100
AcDbBlockReference
  2
BLOCK149
 10
477.716094
 20
312.123622
 30
0.0
  0
INSERT
  5
2F5
330
1F
100
AcDbEntity
  8
0
370
     0
100
AcDbBlockReference
  2
BLOCK150
 10
477.716094
 20
312.123622
 30
0.0
  0
INSERT
  5
2F6
330
1F
100
AcDbEntity
  8
0
370
     0
100
AcDbBlockReference
  2
BLOCK151
 10
477.716094
 20
312.123622
 30
0.0
  0
INSERT
  5
2F7
330
1F
100
AcDbEntity
  8
0
370
     0
100
AcDbBlockReference
  2
BLOCK152
 10
477.716094
 20
312.123622
 30
0.0
  0
INSERT
  5
2F8
330
1F
100
AcDbEntity
  8
0
370
     0
100
AcDbBlockReference
  2
BLOCK153
 10
477.716094
 20
312.123622
 30
0.0
  0
INSERT
  5
2F9
330
1F
100
AcDbEntity
  8
0
370
     0
100
AcDbBlockReference
  2
BLOCK154
 10
477.716094
 20
312.123622
 30
0.0
  0
INSERT
  5
2FA
330
1F
100
AcDbEntity
  8
0
370
     0
100
AcDbBlockReference
  2
BLOCK155
 10
477.716094
 20
312.123622
 30
0.0
  0
INSERT
  5
2FB
330
1F
100
AcDbEntity
  8
0
370
     0
100
AcDbBlockReference
  2
BLOCK156
 10
477.716094
 20
312.123622
 30
0.0
  0
INSERT
  5
2FC
330
1F
100
AcDbEntity
  8
0
370
     0
100
AcDbBlockReference
  2
BLOCK157
 10
477.716094
 20
312.123622
 30
0.0
  0
INSERT
  5
2FD
330
1F
100
AcDbEntity
  8
0
370
     0
100
AcDbBlockReference
  2
BLOCK158
 10
477.716094
 20
312.123622
 30
0.0
  0
INSERT
  5
2FE
330
1F
100
AcDbEntity
  8
0
370
     0
100
AcDbBlockReference
  2
BLOCK159
 10
477.716094
 20
312.123622
 30
0.0
  0
ENDSEC
  0
SECTION
  2
OBJECTS
  0
DICTIONARY
  5
C
330
0
100
AcDbDictionary
281
     1
  3
ACAD_DETAILVIEWSTYLE
350
308
  3
ACAD_GROUP
350
D
  3
ACAD_LAYOUT
350
1A
  3
ACAD_MATERIAL
350
43
  3
ACAD_MLEADERSTYLE
350
6B
  3
ACAD_MLINESTYLE
350
17
  3
ACAD_PLOTSETTINGS
350
19
  3
ACAD_PLOTSTYLENAME
350
E
  3
ACAD_SCALELIST
350
47
  3
ACAD_SECTIONVIEWSTYLE
350
309
  3
ACAD_TABLESTYLE
350
69
  3
ACAD_VISUALSTYLE
350
2A
  3
ACDB_RECOMPOSE_DATA
350
304
  3
AcDbVariableDictionary
350
2FF
  0
SUN
  5
6D
330
29
100
AcDbSun
 90
        1
290
     0
 63
     7
421
 16777215
 40
1.0
291
     1
 91
  2455826
 92
 54000000
292
     0
 70
     2
 71
   256
280
     1
  0
DICTIONARY
  5
2BD
330
2BC
100
AcDbDictionary
280
     1
281
     1
  0
DICTIONARY
  5
2BF
330
2BE
100
AcDbDictionary
280
     1
281
     1
  0
DICTIONARY
  5
2C1
330
2C0
100
AcDbDictionary
280
     1
281
     1
  0
DICTIONARY
  5
2C3
330
2C2
100
AcDbDictionary
280
     1
281
     1
  0
DICTIONARY
  5
2C5
330
2C4
100
AcDbDictionary
280
     1
281
     1
  0
DICTIONARY
  5
2C7
330
2C6
100
AcDbDictionary
280
     1
281
     1
  0
DICTIONARY
  5
2C9
330
2C8
100
AcDbDictionary
280
     1
281
     1
  0
DICTIONARY
  5
2CB
330
2CA
100
AcDbDictionary
280
     1
281
     1
  0
DICTIONARY
  5
2CD
330
2CC
100
AcDbDictionary
280
     1
281
     1
  0
DICTIONARY
  5
2CF
330
2CE
100
AcDbDictionary
280
     1
281
     1
  0
DICTIONARY
  5
2D1
330
2D0
100
AcDbDictionary
280
     1
281
     1
  0
DICTIONARY
  5
2D3
330
2D2
100
AcDbDictionary
280
     1
281
     1
  0
DICTIONARY
  5
2D5
330
2D4
100
AcDbDictionary
280
     1
281
     1
  0
DICTIONARY
  5
2D7
330
2D6
100
AcDbDictionary
280
     1
281
     1
  0
DICTIONARY
  5
2D9
330
2D8
100
AcDbDictionary
280
     1
281
     1
  0
DICTIONARY
  5
2DB
330
2DA
100
AcDbDictionary
280
     1
281
     1
  0
DICTIONARY
  5
2DD
330
2DC
100
AcDbDictionary
280
     1
281
     1
  0
DICTIONARY
  5
2DF
330
2DE
100
AcDbDictionary
280
     1
281
     1
  0
DICTIONARY
  5
2E1
330
2E0
100
AcDbDictionary
280
     1
281
     1
  0
DICTIONARY
  5
2E3
330
2E2
100
AcDbDictionary
280
     1
281
     1
  0
DICTIONARY
  5
308
102
{ACAD_REACTORS
330
C
102
}
330
C
100
AcDbDictionary
281
     1
  0
DICTIONARY
  5
D
102
{ACAD_REACTORS
330
C
102
}
330
C
100
AcDbDictionary
281
     1
  0
DICTIONARY
  5
1A
102
{ACAD_REACTORS
330
C
102
}
330
C
100
AcDbDictionary
281
     1
  3
Layout1
350
1E
  3
Layout2
350
26
  3
Model
350
22
  0
DICTIONARY
  5
43
102
{ACAD_REACTORS
330
C
102
}
330
C
100
AcDbDictionary
281
     1
  3
ByBlock
350
45
  3
ByLayer
350
44
  3
Global
350
46
  0
DICTIONARY
  5
6B
102
{ACAD_REACTORS
330
C
102
}
330
C
100
AcDbDictionary
281
     1
  3
Standard
350
6C
  0
DICTIONARY
  5
17
102
{ACAD_REACTORS
330
C
102
}
330
C
100
AcDbDictionary
281
     1
  3
Standard
350
18
  0
DICTIONARY
  5
19
102
{ACAD_REACTORS
330
C
102
}
330
C
100
AcDbDictionary
281
     1
  0
ACDBDICTIONARYWDFLT
  5
E
102
{ACAD_REACTORS
330
C
102
}
330
C
100
AcDbDictionary
281
     1
  3
Normal
350
F
100
AcDbDictionaryWithDefault
340
F
  0
DICTIONARY
  5
47
102
{ACAD_REACTORS
330
C
102
}
330
C
100
AcDbDictionary
281
     1
  3
A0
350
48
  3
A1
350
49
  3
A2
350
4A
  3
A3
350
4B
  3
A4
350
4C
  3
A5
350
4D
  3
A6
350
4E
  3
A7
350
4F
  3
A8
350
50
  3
A9
350
51
  3
B0
350
52
  3
B1
350
53
  3
B2
350
54
  3
B3
350
55
  3
B4
350
56
  3
B5
350
57
  3
B6
350
58
  3
B7
350
59
  3
B8
350
5A
  3
B9
350
5B
  3
C0
350
5C
  3
C1
350
5D
  3
C2
350
5E
  3
C3
350
5F
  3
C4
350
60
  3
C5
350
61
  3
C6
350
62
  3
C7
350
63
  3
C8
350
64
  3
C9
350
65
  3
D0
350
66
  3
D1
350
67
  3
D2
350
68
  0
DICTIONARY
  5
309
102
{ACAD_REACTORS
330
C
102
}
330
C
100
AcDbDictionary
281
     1
  0
DICTIONARY
  5
69
102
{ACAD_REACTORS
330
C
102
}
330
C
100
AcDbDictionary
281
     1
  3
Standard
350
6A
  0
DICTIONARY
  5
2A
102
{ACAD_REACTORS
330
C
102
}
330
C
100
AcDbDictionary
281
     1
  3
2dWireframe
350
2F
  3
Basic
350
32
  3
Brighten
350
36
  3
ColorChange
350
3A
  3
Conceptual
350
34
  3
Dim
350
35
  3
EdgeColorOff
350
3D
  3
Facepattern
350
39
  3
Flat
350
2B
  3
FlatWithEdges
350
2C
  3
Gouraud
350
2D
  3
GouraudWithEdges
350
2E
  3
Hidden
350
31
  3
JitterOff
350
3B
  3
Linepattern
350
38
  3
OverhangOff
350
3C
  3
Realistic
350
33
  3
Shaded
350
42
  3
Shaded with edges
350
41
  3
Shades of Gray
350
3E
  3
Sketchy
350
3F
  3
Thicken
350
37
  3
Wireframe
350
30
  3
X-Ray
350
40
  0
XRECORD
  5
304
102
{ACAD_REACTORS
330
C
102
}
330
C
100
AcDbXrecord
280
     1
 90
        1
330
6A
  0
DICTIONARY
  5
2FF
102
{ACAD_REACTORS
330
C
102
}
330
C
100
AcDbDictionary
281
     1
  3
CANNOSCALE
350
300
  3
CMLEADERSTYLE
350
306
  3
CTABLESTYLE
350
305
  3
XCLIPFRAME
350
307
  0
LAYOUT
  5
1E
102
{ACAD_REACTORS
330
1A
102
}
330
1A
100
AcDbPlotSettings
  1

  2
none_device
  4

  6

 40
0.0
 41
0.0
 42
0.0
 43
0.0
 44
0.0
 45
0.0
 46
0.0
 47
0.0
 48
0.0
 49
0.0
140
0.0
141
0.0
142
1.0
143
1.0
 70
  4784
 72
     0
 73
     0
 74
     5
  7

 75
    16
 76
     0
 77
     2
 78
   300
147
1.0
148
0.0
149
0.0
100
AcDbLayout
  1
Layout1
 70
     1
 71
     1
 10
0.0
 20
0.0
 11
420.0
 21
297.0
 12
0.0
 22
0.0
 32
0.0
 14
0.0
 24
0.0
 34
0.0
 15
94.881531
 25
91.922562
 35
2.0
146
0.0
 13
0.0
 23
0.0
 33
0.0
 16
1.0
 26
0.0
 36
0.0
 17
0.0
 27
1.0
 37
0.0
 76
     0
330
1B
  0
LAYOUT
  5
26
102
{ACAD_REACTORS
330
1A
102
}
330
1A
100
AcDbPlotSettings
  1

  2
none_device
  4

  6

 40
0.0
 41
0.0
 42
0.0
 43
0.0
 44
0.0
 45
0.0
 46
0.0
 47
0.0
 48
0.0
 49
0.0
140
0.0
141
0.0
142
1.0
143
1.0
 70
  4784
 72
     0
 73
     0
 74
     5
  7

 75
    16
 76
     0
 77
     2
 78
   300
147
1.0
148
0.0
149
0.0
100
AcDbLayout
  1
Layout2
 70
     1
 71
     2
 10
0.0
 20
0.0
 11
0.0
 21
0.0
 12
0.0
 22
0.0
 32
0.0
 14
0.0
 24
0.0
 34
0.0
 15
0.0
 25
0.0
 35
0.0
146
0.0
 13
0.0
 23
0.0
 33
0.0
 16
1.0
 26
0.0
 36
0.0
 17
0.0
 27
1.0
 37
0.0
 76
     0
330
23
  0
LAYOUT
  5
22
102
{ACAD_REACTORS
330
1A
102
}
330
1A
100
AcDbPlotSettings
  1

  2
none_device
  4
Letter_(8.50_x_11.00_Inches)
  6

 40
6.35
 41
6.35
 42
6.350005
 43
6.350005
 44
215.9
 45
279.4
 46
0.0
 47
0.0
 48
0.0
 49
0.0
140
0.0
141
0.0
142
1.0
143
1.0
 70
  5808
 72
     0
 73
     0
 74
     0
  7

 75
     0
 76
     0
 77
     2
 78
   300
147
1.0
148
0.0
149
0.0
100
AcDbLayout
  1
Model
 70
     1
 71
     0
 10
0.0
 20
0.0
 11
420.0
 21
297.0
 12
0.0
 22
0.0
 32
0.0
 14
0.0
 24
0.0
 34
0.0
 15
94.881531
 25
91.922562
 35
2.0
146
0.0
 13
0.0
 23
0.0
 33
0.0
 16
1.0
 26
0.0
 36
0.0
 17
0.0
 27
1.0
 37
0.0
 76
     0
330
1F
331
29
  0
MATERIAL
  5
45
102
{ACAD_REACTORS
330
43
102
}
330
43
100
AcDbMaterial
  1
ByBlock
 72
     1
 94
      127
  0
MATERIAL
  5
44
102
{ACAD_REACTORS
330
43
102
}
330
43
100
AcDbMaterial
  1
ByLayer
 72
     1
 94
      127
  0
MATERIAL
  5
46
102
{ACAD_REACTORS
330
43
102
}
330
43
100
AcDbMaterial
  1
Global
 72
     1
 94
      127
  0
MLEADERSTYLE
  5
6C
102
{ACAD_REACTORS
330
6B
102
}
330
6B
100
AcDbMLeaderStyle
170
     2
171
     1
172
     0
 90
        2
 40
0.0
 41
0.0
173
     1
 91
-1056964608
340
14
 92
       -2
290
     1
 42
0.09
291
     1
 43
0.36
  3
Standard
341
0
 44
0.18
300

342
11
174
     1
178
     6
175
     1
176
     0
 93
-1056964608
 45
0.18
292
     0
297
     0
 46
0.18
343
0
 94
-1056964608
 47
1.0
 49
1.0
140
1.0
293
     1
141
0.0
294
     1
177
     0
142
1.0
295
     0
296
     0
143
0.125
1001
ACAD_MLEADERVER
1070
     2
  0
MLINESTYLE
  5
18
102
{ACAD_REACTORS
330
17
102
}
330
17
100
AcDbMlineStyle
  2
Standard
 70
     0
  3

 62
   256
 51
90.0
 52
90.0
 71
     2
 49
0.5
 62
   256
  6
BYLAYER
 49
-0.5
 62
   256
  6
BYLAYER
  0
ACDBPLACEHOLDER
  5
F
102
{ACAD_REACTORS
330
E
102
}
330
E
  0
SCALE
  5
48
102
{ACAD_REACTORS
330
47
102
}
330
47
100
AcDbScale
 70
     0
300
1:1
140
1.0
141
1.0
290
     1
  0
SCALE
  5
49
102
{ACAD_REACTORS
330
47
102
}
330
47
100
AcDbScale
 70
     0
300
1:2
140
1.0
141
2.0
290
     0
  0
SCALE
  5
4A
102
{ACAD_REACTORS
330
47
102
}
330
47
100
AcDbScale
 70
     0
300
1:4
140
1.0
141
4.0
290
     0
  0
SCALE
  5
4B
102
{ACAD_REACTORS
330
47
102
}
330
47
100
AcDbScale
 70
     0
300
1:5
140
1.0
141
5.0
290
     0
  0
SCALE
  5
4C
102
{ACAD_REACTORS
330
47
102
}
330
47
100
AcDbScale
 70
     0
300
1:8
140
1.0
141
8.0
290
     0
  0
SCALE
  5
4D
102
{ACAD_REACTORS
330
47
102
}
330
47
100
AcDbScale
 70
     0
300
1:10
140
1.0
141
10.0
290
     0
  0
SCALE
  5
4E
102
{ACAD_REACTORS
330
47
102
}
330
47
100
AcDbScale
 70
     0
300
1:16
140
1.0
141
16.0
290
     0
  0
SCALE
  5
4F
102
{ACAD_REACTORS
330
47
102
}
330
47
100
AcDbScale
 70
     0
300
1:20
140
1.0
141
20.0
290
     0
  0
SCALE
  5
50
102
{ACAD_REACTORS
330
47
102
}
330
47
100
AcDbScale
 70
     0
300
1:30
140
1.0
141
30.0
290
     0
  0
SCALE
  5
51
102
{ACAD_REACTORS
330
47
102
}
330
47
100
AcDbScale
 70
     0
300
1:40
140
1.0
141
40.0
290
     0
  0
SCALE
  5
52
102
{ACAD_REACTORS
330
47
102
}
330
47
100
AcDbScale
 70
     0
300
1:50
140
1.0
141
50.0
290
     0
  0
SCALE
  5
53
102
{ACAD_REACTORS
330
47
102
}
330
47
100
AcDbScale
 70
     0
300
1:100
140
1.0
141
100.0
290
     0
  0
SCALE
  5
54
102
{ACAD_REACTORS
330
47
102
}
330
47
100
AcDbScale
 70
     0
300
2:1
140
2.0
141
1.0
290
     0
  0
SCALE
  5
55
102
{ACAD_REACTORS
330
47
102
}
330
47
100
AcDbScale
 70
     0
300
4:1
140
4.0
141
1.0
290
     0
  0
SCALE
  5
56
102
{ACAD_REACTORS
330
47
102
}
330
47
100
AcDbScale
 70
     0
300
8:1
140
8.0
141
1.0
290
     0
  0
SCALE
  5
57
102
{ACAD_REACTORS
330
47
102
}
330
47
100
AcDbScale
 70
     0
300
10:1
140
10.0
141
1.0
290
     0
  0
SCALE
  5
58
102
{ACAD_REACTORS
330
47
102
}
330
47
100
AcDbScale
 70
     0
300
100:1
140
100.0
141
1.0
290
     0
  0
SCALE
  5
59
102
{ACAD_REACTORS
330
47
102
}
330
47
100
AcDbScale
 70
     0
300
1/128" = 1'-0"
140
0.007812
141
12.0
290
     0
  0
SCALE
  5
5A
102
{ACAD_REACTORS
330
47
102
}
330
47
100
AcDbScale
 70
     0
300
1/64" = 1'-0"
140
0.015625
141
12.0
290
     0
  0
SCALE
  5
5B
102
{ACAD_REACTORS
330
47
102
}
330
47
100
AcDbScale
 70
     0
300
1/32" = 1'-0"
140
0.03125
141
12.0
290
     0
  0
SCALE
  5
5C
102
{ACAD_REACTORS
330
47
102
}
330
47
100
AcDbScale
 70
     0
300
1/16" = 1'-0"
140
0.0625
141
12.0
290
     0
  0
SCALE
  5
5D
102
{ACAD_REACTORS
330
47
102
}
330
47
100
AcDbScale
 70
     0
300
3/32" = 1'-0"
140
0.09375
141
12.0
290
     0
  0
SCALE
  5
5E
102
{ACAD_REACTORS
330
47
102
}
330
47
100
AcDbScale
 70
     0
300
1/8" = 1'-0"
140
0.125
141
12.0
290
     0
  0
SCALE
  5
5F
102
{ACAD_REACTORS
330
47
102
}
330
47
100
AcDbScale
 70
     0
300
3/16" = 1'-0"
140
0.1875
141
12.0
290
     0
  0
SCALE
  5
60
102
{ACAD_REACTORS
330
47
102
}
330
47
100
AcDbScale
 70
     0
300
1/4" = 1'-0"
140
0.25
141
12.0
290
     0
  0
SCALE
  5
61
102
{ACAD_REACTORS
330
47
102
}
330
47
100
AcDbScale
 70
     0
300
3/8" = 1'-0"
140
0.375
141
12.0
290
     0
  0
SCALE
  5
62
102
{ACAD_REACTORS
330
47
102
}
330
47
100
AcDbScale
 70
     0
300
1/2" = 1'-0"
140
0.5
141
12.0
290
     0
  0
SCALE
  5
63
102
{ACAD_REACTORS
330
47
102
}
330
47
100
AcDbScale
 70
     0
300
3/4" = 1'-0"
140
0.75
141
12.0
290
     0
  0
SCALE
  5
64
102
{ACAD_REACTORS
330
47
102
}
330
47
100
AcDbScale
 70
     0
300
1" = 1'-0"
140
1.0
141
12.0
290
     0
  0
SCALE
  5
65
102
{ACAD_REACTORS
330
47
102
}
330
47
100
AcDbScale
 70
     0
300
1-1/2" = 1'-0"
140
1.5
141
12.0
290
     0
  0
SCALE
  5
66
102
{ACAD_REACTORS
330
47
102
}
330
47
100
AcDbScale
 70
     0
300
3" = 1'-0"
140
3.0
141
12.0
290
     0
  0
SCALE
  5
67
102
{ACAD_REACTORS
330
47
102
}
330
47
100
AcDbScale
 70
     0
300
6" = 1'-0"
140
6.0
141
12.0
290
     0
  0
SCALE
  5
68
102
{ACAD_REACTORS
330
47
102
}
330
47
100
AcDbScale
 70
     0
300
1'-0" = 1'-0"
140
12.0
141
12.0
290
     0
  0
TABLESTYLE
  5
6A
102
{ACAD_REACTORS
330
69
102
}
102
{ACAD_XDICTIONARY
360
301
102
}
330
69
100
AcDbTableStyle
  3
Standard
 70
     0
 71
     0
 40
0.06
 41
0.06
280
     0
281
     0
  7
Standard
140
0.18
170
     2
 62
     0
 63
   257
283
     0
 90
        4
 91
        0
  1

274
    -2
284
     1
 64
     0
275
    -2
285
     1
 65
     0
276
    -2
286
     1
 66
     0
277
    -2
287
     1
 67
     0
278
    -2
288
     1
 68
     0
279
    -2
289
     1
 69
     0
  7
Standard
140
0.25
170
     5
 62
     0
 63
   257
283
     0
 90
        4
 91
        0
  1

274
    -2
284
     1
 64
     0
275
    -2
285
     1
 65
     0
276
    -2
286
     1
 66
     0
277
    -2
287
     1
 67
     0
278
    -2
288
     1
 68
     0
279
    -2
289
     1
 69
     0
  7
Standard
140
0.18
170
     5
 62
     0
 63
   257
283
     0
 90
        4
 91
        0
  1

274
    -2
284
     1
 64
     0
275
    -2
285
     1
 65
     0
276
    -2
286
     1
 66
     0
277
    -2
287
     1
 67
     0
278
    -2
288
     1
 68
     0
279
    -2
289
     1
 69
     0
  0
VISUALSTYLE
  5
2F
102
{ACAD_REACTORS
330
2A
102
}
330
2A
100
AcDbVisualStyle
  2
2dWireframe
 70
     4
 71
     0
 72
     2
 73
     0
 90
        0
 40
0.6
 41
30.0
 62
     5
 63
     7
421
 16777215
 74
     1
 91
        4
 64
     7
 65
   257
 75
     1
175
     1
 42
1.0
 92
        0
 66
   257
 43
1.0
 76
     1
 77
     6
 78
     2
 67
     7
 79
     5
170
     0
171
     0
290
     0
174
     0
 93
        1
 44
0.0
173
     0
291
     0
 45
0.0
  0
VISUALSTYLE
  5
32
102
{ACAD_REACTORS
330
2A
102
}
330
2A
100
AcDbVisualStyle
  2
Basic
 70
     7
 71
     1
 72
     0
 73
     1
 90
        0
 40
0.6
 41
30.0
 62
     5
 63
     7
421
 16777215
 74
     0
 91
        4
 64
     7
 65
   257
 75
     1
175
     1
 42
1.0
 92
        8
 66
     7
 43
1.0
 76
     1
 77
     6
 78
     2
 67
     7
 79
     5
170
     0
171
     0
290
     0
174
     0
 93
        1
 44
0.0
173
     0
291
     1
 45
0.0
  0
VISUALSTYLE
  5
36
102
{ACAD_REACTORS
330
2A
102
}
330
2A
100
AcDbVisualStyle
  2
Brighten
 70
    12
 71
     2
 72
     2
 73
     0
 90
        0
 40
0.6
 41
30.0
 62
     5
 63
     7
421
 16777215
 74
     1
 91
        4
 64
     7
 65
   257
 75
     1
175
     1
 42
1.0
 92
        8
 66
     7
 43
1.0
 76
     1
 77
     6
 78
     2
 67
     7
 79
     5
170
     0
171
     0
290
     0
174
     0
 93
        1
 44
50.0
173
     0
291
     1
 45
0.0
  0
VISUALSTYLE
  5
3A
102
{ACAD_REACTORS
330
2A
102
}
330
2A
100
AcDbVisualStyle
  2
ColorChange
 70
    16
 71
     2
 72
     2
 73
     3
 90
        0
 40
0.6
 41
30.0
 62
     5
 63
     8
421
  8421504
 74
     1
 91
        4
 64
     7
 65
   257
 75
     1
175
     1
 42
1.0
 92
        8
 66
     8
424
  8421504
 43
1.0
 76
     1
 77
     6
 78
     2
 67
     7
 79
     5
170
     0
171
     0
290
     0
174
     0
 93
        1
 44
0.0
173
     0
291
     1
 45
0.0
  0
VISUALSTYLE
  5
34
102
{ACAD_REACTORS
330
2A
102
}
330
2A
100
AcDbVisualStyle
  2
Conceptual
 70
     9
 71
     3
 72
     2
 73
     0
 90
        0
 40
0.6
 41
30.0
 62
     5
 63
     7
421
 16777215
 74
     2
 91
        2
 64
     7
 65
   257
 75
     1
175
     1
 42
179.0
 92
        8
 66
     7
 43
1.0
 76
     1
 77
     6
 78
     2
 67
     7
 79
     3
170
     0
171
     0
290
     0
174
     0
 93
        1
 44
0.0
173
     0
291
     0
 45
0.0
  0
VISUALSTYLE
  5
35
102
{ACAD_REACTORS
330
2A
102
}
330
2A
100
AcDbVisualStyle
  2
Dim
 70
    11
 71
     2
 72
     2
 73
     0
 90
        0
 40
0.6
 41
30.0
 62
     5
 63
     7
421
 16777215
 74
     1
 91
        4
 64
     7
 65
   257
 75
     1
175
     1
 42
1.0
 92
        8
 66
     7
 43
1.0
 76
     1
 77
     6
 78
     2
 67
     7
 79
     5
170
     0
171
     0
290
     0
174
     0
 93
        1
 44
-50.0
173
     0
291
     1
 45
0.0
  0
VISUALSTYLE
  5
3D
102
{ACAD_REACTORS
330
2A
102
}
330
2A
100
AcDbVisualStyle
  2
EdgeColorOff
 70
    22
 71
     2
 72
     2
 73
     0
 90
        0
 40
0.6
 41
30.0
 62
     5
 63
     7
421
 16777215
 74
     1
 91
        4
 64
     7
 65
   257
 75
     1
175
     1
 42
1.0
 92
        8
 66
     7
 43
1.0
 76
     1
 77
     6
 78
     2
 67
     7
 79
     5
170
     0
171
     0
290
     0
174
     0
 93
        1
 44
0.0
173
     0
291
     1
 45
0.0
  0
VISUALSTYLE
  5
39
102
{ACAD_REACTORS
330
2A
102
}
330
2A
100
AcDbVisualStyle
  2
Facepattern
 70
    15
 71
     2
 72
     2
 73
     0
 90
        0
 40
0.6
 41
30.0
 62
     5
 63
     7
421
 16777215
 74
     1
 91
        4
 64
     7
 65
   257
 75
     1
175
     1
 42
1.0
 92
        8
 66
     7
 43
1.0
 76
     1
 77
     6
 78
     2
 67
     7
 79
     5
170
     0
171
     0
290
     0
174
     0
 93
        1
 44
0.0
173
     0
291
     1
 45
0.0
  0
VISUALSTYLE
  5
2B
102
{ACAD_REACTORS
330
2A
102
}
330
2A
100
AcDbVisualStyle
  2
Flat
 70
     0
 71
     2
 72
     1
 73
     1
 90
        2
 40
0.6
 41
30.0
 62
     5
 63
     7
421
 16777215
 74
     0
 91
        0
 64
     7
 65
   257
 75
     1
175
     1
 42
1.0
 92
        8
 66
     7
 43
1.0
 76
     1
 77
     6
 78
     2
 67
     7
 79
     5
170
     0
171
     0
290
     0
174
     0
 93
       13
 44
0.0
173
     0
291
     1
 45
0.0
  0
VISUALSTYLE
  5
2C
102
{ACAD_REACTORS
330
2A
102
}
330
2A
100
AcDbVisualStyle
  2
FlatWithEdges
 70
     1
 71
     2
 72
     1
 73
     1
 90
        2
 40
0.6
 41
30.0
 62
     5
 63
     7
421
 16777215
 74
     1
 91
        0
 64
     7
 65
   257
 75
     1
175
     1
 42
1.0
 92
        0
 66
   257
 43
1.0
 76
     1
 77
     6
 78
     2
 67
     7
 79
     5
170
     0
171
     0
290
     0
174
     0
 93
       13
 44
0.0
173
     0
291
     1
 45
0.0
  0
VISUALSTYLE
  5
2D
102
{ACAD_REACTORS
330
2A
102
}
330
2A
100
AcDbVisualStyle
  2
Gouraud
 70
     2
 71
     2
 72
     2
 73
     1
 90
        2
 40
0.6
 41
30.0
 62
     5
 63
     7
421
 16777215
 74
     0
 91
        0
 64
     7
 65
   257
 75
     1
175
     1
 42
1.0
 92
        0
 66
     7
 43
1.0
 76
     1
 77
     6
 78
     2
 67
     7
 79
     5
170
     0
171
     0
290
     0
174
     0
 93
       13
 44
0.0
173
     0
291
     1
 45
0.0
  0
VISUALSTYLE
  5
2E
102
{ACAD_REACTORS
330
2A
102
}
330
2A
100
AcDbVisualStyle
  2
GouraudWithEdges
 70
     3
 71
     2
 72
     2
 73
     1
 90
        2
 40
0.6
 41
30.0
 62
     5
 63
     7
421
 16777215
 74
     1
 91
        0
 64
     7
 65
   257
 75
     1
175
     1
 42
1.0
 92
        0
 66
   257
 43
1.0
 76
     1
 77
     6
 78
     2
 67
     7
 79
     5
170
     0
171
     0
290
     0
174
     0
 93
       13
 44
0.0
173
     0
291
     1
 45
0.0
  0
VISUALSTYLE
  5
31
102
{ACAD_REACTORS
330
2A
102
}
330
2A
100
AcDbVisualStyle
  2
Hidden
 70
     6
 71
     1
 72
     2
 73
     2
 90
        0
 40
0.6
 41
30.0
 62
     5
 63
     7
421
 16777215
 74
     2
 91
        2
 64
     7
 65
   257
 75
     2
175
     1
 42
40.0
 92
        0
 66
   257
 43
1.0
 76
     1
 77
     6
 78
     2
 67
     7
 79
     3
170
     0
171
     0
290
     0
174
     0
 93
        1
 44
0.0
173
     0
291
     0
 45
0.0
  0
VISUALSTYLE
  5
3B
102
{ACAD_REACTORS
330
2A
102
}
330
2A
100
AcDbVisualStyle
  2
JitterOff
 70
    20
 71
     2
 72
     2
 73
     0
 90
        0
 40
0.6
 41
30.0
 62
     5
 63
     7
421
 16777215
 74
     1
 91
        4
 64
     7
 65
   257
 75
     1
175
     1
 42
1.0
 92
       10
 66
     7
 43
1.0
 76
     1
 77
     6
 78
     2
 67
     7
 79
     5
170
     0
171
     0
290
     0
174
     0
 93
        1
 44
0.0
173
     0
291
     1
 45
0.0
  0
VISUALSTYLE
  5
38
102
{ACAD_REACTORS
330
2A
102
}
330
2A
100
AcDbVisualStyle
  2
Linepattern
 70
    14
 71
     2
 72
     2
 73
     0
 90
        0
 40
0.6
 41
30.0
 62
     5
 63
     7
421
 16777215
 74
     1
 91
        4
 64
     7
 65
   257
 75
     7
175
     7
 42
1.0
 92
        8
 66
     7
 43
1.0
 76
     1
 77
     6
 78
     2
 67
     7
 79
     5
170
     0
171
     0
290
     0
174
     0
 93
        1
 44
0.0
173
     0
291
     1
 45
0.0
  0
VISUALSTYLE
  5
3C
102
{ACAD_REACTORS
330
2A
102
}
330
2A
100
AcDbVisualStyle
  2
OverhangOff
 70
    21
 71
     2
 72
     2
 73
     0
 90
        0
 40
0.6
 41
30.0
 62
     5
 63
     7
421
 16777215
 74
     1
 91
        4
 64
     7
 65
   257
 75
     1
175
     1
 42
1.0
 92
        9
 66
     7
 43
1.0
 76
     1
 77
     6
 78
     2
 67
     7
 79
     5
170
     0
171
     0
290
     0
174
     0
 93
        1
 44
0.0
173
     0
291
     1
 45
0.0
  0
VISUALSTYLE
  5
33
102
{ACAD_REACTORS
330
2A
102
}
330
2A
100
AcDbVisualStyle
  2
Realistic
 70
     8
 71
     2
 72
     3
 73
     0
 90
        2
 40
0.6
 41
30.0
 62
     5
 63
     7
421
 16777215
 74
     0
 91
        0
 64
     7
 65
   257
 75
     1
175
     1
 42
1.0
 92
        8
 66
   257
 43
1.0
 76
     1
 77
     6
 78
     2
 67
     7
 79
     3
170
     0
171
     0
290
     0
174
     0
 93
       13
 44
0.0
173
     0
291
     0
 45
0.0
  0
VISUALSTYLE
  5
42
102
{ACAD_REACTORS
330
2A
102
}
330
2A
100
AcDbVisualStyle
  2
Shaded
 70
    27
 71
     2
 72
     2
 73
     1
 90
        2
 40
0.6
 41
30.0
 62
     5
 63
     7
421
 16777215
 74
     0
 91
        4
 64
     7
 65
   257
 75
     1
175
     1
 42
1.0
 92
        8
 66
   257
 43
1.0
 76
     1
 77
     6
 78
     2
 67
     8
425
  7895160
 79
     3
170
     0
171
     0
290
     0
174
     0
 93
        5
 44
0.0
173
     0
291
     0
 45
0.0
  0
VISUALSTYLE
  5
41
102
{ACAD_REACTORS
330
2A
102
}
330
2A
100
AcDbVisualStyle
  2
Shaded with edges
 70
    26
 71
     2
 72
     2
 73
     1
 90
        2
 40
0.6
 41
30.0
 62
     5
 63
     7
421
 16777215
 74
     1
 91
       10
 64
     7
 65
   257
 75
     2
175
     1
 42
1.0
 92
        8
 66
   257
 43
1.0
 76
     1
 77
     6
 78
     2
 67
     7
 79
     3
170
     0
171
     0
290
     0
174
     0
 93
        5
 44
0.0
173
     0
291
     0
 45
0.0
  0
VISUALSTYLE
  5
3E
102
{ACAD_REACTORS
330
2A
102
}
330
2A
100
AcDbVisualStyle
  2
Shades of Gray
 70
    23
 71
     2
 72
     2
 73
     3
 90
        0
 40
0.6
 41
30.0
 62
     5
 63
     7
421
 16777215
 74
     2
 91
        2
 64
     7
 65
     7
 75
     1
175
     1
 42
40.0
 92
        8
 66
     7
 43
1.0
 76
     1
 77
     6
 78
     2
 67
     7
 79
     3
170
     0
171
     0
290
     0
174
     0
 93
        1
 44
0.0
173
     0
291
     0
 45
0.0
  0
VISUALSTYLE
  5
3F
102
{ACAD_REACTORS
330
2A
102
}
330
2A
100
AcDbVisualStyle
  2
Sketchy
 70
    24
 71
     1
 72
     2
 73
     2
 90
        0
 40
0.6
 41
30.0
 62
     5
 63
     7
421
 16777215
 74
     2
 91
        2
 64
     7
 65
     7
 75
     1
175
     1
 42
40.0
 92
       11
 66
     7
 43
1.0
 76
     1
 77
     6
 78
     2
 67
     7
 79
     6
170
     0
171
     0
290
     0
174
     0
 93
        1
 44
0.0
173
     0
291
     0
 45
0.0
  0
VISUALSTYLE
  5
37
102
{ACAD_REACTORS
330
2A
102
}
330
2A
100
AcDbVisualStyle
  2
Thicken
 70
    13
 71
     2
 72
     2
 73
     0
 90
        0
 40
0.6
 41
30.0
 62
     5
 63
     7
421
 16777215
 74
     1
 91
        4
 64
     7
 65
   257
 75
     1
175
     1
 42
1.0
 92
       12
 66
     7
 43
1.0
 76
     1
 77
     6
 78
     2
 67
     7
 79
     5
170
     0
171
     0
290
     0
174
     0
 93
        1
 44
0.0
173
     0
291
     1
 45
0.0
  0
VISUALSTYLE
  5
30
102
{ACAD_REACTORS
330
2A
102
}
330
2A
100
AcDbVisualStyle
  2
Wireframe
 70
     5
 71
     0
 72
     2
 73
     0
 90
        0
 40
0.6
 41
30.0
 62
     5
 63
     7
421
 16777215
 74
     1
 91
        4
 64
     7
 65
   257
 75
     1
175
     1
 42
1.0
 92
        0
 66
   257
 43
1.0
 76
     1
 77
     6
 78
     2
 67
     7
 79
     3
170
     0
171
     0
290
     0
174
     0
 93
        1
 44
0.0
173
     0
291
     0
 45
0.0
  0
VISUALSTYLE
  5
40
102
{ACAD_REACTORS
330
2A
102
}
330
2A
100
AcDbVisualStyle
  2
X-Ray
 70
    25
 71
     2
 72
     2
 73
     1
 90
        1
 40
0.5
 41
30.0
 62
     5
 63
     7
421
 16777215
 74
     1
 91
        0
 64
     7
 65
   257
 75
     1
175
     1
 42
1.0
 92
        8
 66
     7
 43
1.0
 76
     1
 77
     6
 78
     2
 67
     7
 79
     3
170
     0
171
     0
290
     0
174
     0
 93
       13
 44
0.0
173
     0
291
     0
 45
0.0
  0
DICTIONARYVAR
  5
300
102
{ACAD_REACTORS
330
2FF
102
}
330
2FF
100
DictionaryVariables
280
     0
  1
1:1
  0
DICTIONARYVAR
  5
306
102
{ACAD_REACTORS
330
2FF
102
}
330
2FF
100
DictionaryVariables
280
     0
  1
Standard
  0
DICTIONARYVAR
  5
305
102
{ACAD_REACTORS
330
2FF
102
}
330
2FF
100
DictionaryVariables
280
     0
  1
Standard
  0
DICTIONARYVAR
  5
307
102
{ACAD_REACTORS
330
2FF
102
}
330
2FF
100
DictionaryVariables
280
     0
  1
0
  0
DICTIONARY
  5
301
330
6A
100
AcDbDictionary
280
     1
281
     1
  3
ACAD_ROUNDTRIP_2008_TABLESTYLE_CELLSTYLEMAP
360
302
  0
CELLSTYLEMAP
  5
302
102
{ACAD_REACTORS
330
301
102
}
330
301
100
AcDbCellStyleMap
 90
        3
300
CELLSTYLE
  1
TABLEFORMAT_BEGIN
 90
        5
170
     1
 91
        0
 92
    32768
 62
   257
 93
        1
300
CONTENTFORMAT
  1
CONTENTFORMAT_BEGIN
 90
        0
 91
        0
 92
        4
 93
        0
300

 40
0.0
140
1.0
 94
        5
 62
     0
340
11
144
0.25
309
CONTENTFORMAT_END
171
     1
301
MARGIN
  1
CELLMARGIN_BEGIN
 40
0.06
 40
0.06
 40
0.06
 40
0.06
 40
0.06
 40
0.06
309
CELLMARGIN_END
 94
        6
 95
        1
302
GRIDFORMAT
  1
GRIDFORMAT_BEGIN
 90
        0
 91
        1
 62
     0
 92
       -2
340
14
 93
        0
 40
0.045
309
GRIDFORMAT_END
 95
        2
302
GRIDFORMAT
  1
GRIDFORMAT_BEGIN
 90
        0
 91
        1
 62
     0
 92
       -2
340
14
 93
        0
 40
0.045
309
GRIDFORMAT_END
 95
        4
302
GRIDFORMAT
  1
GRIDFORMAT_BEGIN
 90
        0
 91
        1
 62
     0
 92
       -2
340
14
 93
        0
 40
0.045
309
GRIDFORMAT_END
 95
        8
302
GRIDFORMAT
  1
GRIDFORMAT_BEGIN
 90
        0
 91
        1
 62
     0
 92
       -2
340
14
 93
        0
 40
0.045
309
GRIDFORMAT_END
 95
       16
302
GRIDFORMAT
  1
GRIDFORMAT_BEGIN
 90
        0
 91
        1
 62
     0
 92
       -2
340
14
 93
        0
 40
0.045
309
GRIDFORMAT_END
 95
       32
302
GRIDFORMAT
  1
GRIDFORMAT_BEGIN
 90
        0
 91
        1
 62
     0
 92
       -2
340
14
 93
        0
 40
0.045
309
GRIDFORMAT_END
309
TABLEFORMAT_END
  1
CELLSTYLE_BEGIN
 90
        1
 91
        1
300
_TITLE
309
CELLSTYLE_END
300
CELLSTYLE
  1
TABLEFORMAT_BEGIN
 90
        5
170
     1
 91
        0
 92
        0
 62
   257
 93
        1
300
CONTENTFORMAT
  1
CONTENTFORMAT_BEGIN
 90
        0
 91
        0
 92
        4
 93
        0
300

 40
0.0
140
1.0
 94
        5
 62
     0
340
11
144
0.18
309
CONTENTFORMAT_END
171
     1
301
MARGIN
  1
CELLMARGIN_BEGIN
 40
0.06
 40
0.06
 40
0.06
 40
0.06
 40
0.06
 40
0.06
309
CELLMARGIN_END
 94
        6
 95
        1
302
GRIDFORMAT
  1
GRIDFORMAT_BEGIN
 90
        0
 91
        1
 62
     0
 92
       -2
340
14
 93
        0
 40
0.045
309
GRIDFORMAT_END
 95
        2
302
GRIDFORMAT
  1
GRIDFORMAT_BEGIN
 90
        0
 91
        1
 62
     0
 92
       -2
340
14
 93
        0
 40
0.045
309
GRIDFORMAT_END
 95
        4
302
GRIDFORMAT
  1
GRIDFORMAT_BEGIN
 90
        0
 91
        1
 62
     0
 92
       -2
340
14
 93
        0
 40
0.045
309
GRIDFORMAT_END
 95
        8
302
GRIDFORMAT
  1
GRIDFORMAT_BEGIN
 90
        0
 91
        1
 62
     0
 92
       -2
340
14
 93
        0
 40
0.045
309
GRIDFORMAT_END
 95
       16
302
GRIDFORMAT
  1
GRIDFORMAT_BEGIN
 90
        0
 91
        1
 62
     0
 92
       -2
340
14
 93
        0
 40
0.045
309
GRIDFORMAT_END
 95
       32
302
GRIDFORMAT
  1
GRIDFORMAT_BEGIN
 90
        0
 91
        1
 62
     0
 92
       -2
340
14
 93
        0
 40
0.045
309
GRIDFORMAT_END
309
TABLEFORMAT_END
  1
CELLSTYLE_BEGIN
 90
        2
 91
        1
300
_HEADER
309
CELLSTYLE_END
300
CELLSTYLE
  1
TABLEFORMAT_BEGIN
 90
        5
170
     1
 91
        0
 92
        0
 62
   257
 93
        1
300
CONTENTFORMAT
  1
CONTENTFORMAT_BEGIN
 90
        0
 91
        0
 92
        4
 93
        0
300

 40
0.0
140
1.0
 94
        2
 62
     0
340
11
144
0.18
309
CONTENTFORMAT_END
171
     1
301
MARGIN
  1
CELLMARGIN_BEGIN
 40
0.06
 40
0.06
 40
0.06
 40
0.06
 40
0.06
 40
0.06
309
CELLMARGIN_END
 94
        6
 95
        1
302
GRIDFORMAT
  1
GRIDFORMAT_BEGIN
 90
        0
 91
        1
 62
     0
 92
       -2
340
14
 93
        0
 40
0.045
309
GRIDFORMAT_END
 95
        2
302
GRIDFORMAT
  1
GRIDFORMAT_BEGIN
 90
        0
 91
        1
 62
     0
 92
       -2
340
14
 93
        0
 40
0.045
309
GRIDFORMAT_END
 95
        4
302
GRIDFORMAT
  1
GRIDFORMAT_BEGIN
 90
        0
 91
        1
 62
     0
 92
       -2
340
14
 93
        0
 40
0.045
309
GRIDFORMAT_END
 95
        8
302
GRIDFORMAT
  1
GRIDFORMAT_BEGIN
 90
        0
 91
        1
 62
     0
 92
       -2
340
14
 93
        0
 40
0.045
309
GRIDFORMAT_END
 95
       16
302
GRIDFORMAT
  1
GRIDFORMAT_BEGIN
 90
        0
 91
        1
 62
     0
 92
       -2
340
14
 93
        0
 40
0.045
309
GRIDFORMAT_END
 95
       32
302
GRIDFORMAT
  1
GRIDFORMAT_BEGIN
 90
        0
 91
        1
 62
     0
 92
       -2
340
14
 93
        0
 40
0.045
309
GRIDFORMAT_END
309
TABLEFORMAT_END
  1
CELLSTYLE_BEGIN
 90
        3
 91
        2
300
_DATA
309
CELLSTYLE_END
  0
ENDSEC
  0
EOF
